<svg width="103" height="90" viewBox="0 0 103 90" fill="none" xmlns="http://www.w3.org/2000/svg">
<g clip-path="url(#clip0)">
<path d="M529.055 -553H-971V447.037H529.055V-553Z" fill="white"/>
<path d="M29.8546 59.3792L30.2624 59.4338L30.6443 59.5389L31.313 59.9933L31.5958 60.1143L31.9599 60.4973L32.5363 61.9408L32.5115 62.2583L32.4202 62.8605L32.2456 63.173L32.0749 63.7196L31.1979 64.9885L30.8695 65.2802L30.808 65.4092L28.7901 67.059L28.7117 67.0868L28.6274 67.1791L25.8495 69.0323L25.7582 69.0601L25.6809 69.1335L23.0141 70.5721L22.8286 70.6197L22.7155 70.705L21.0755 71.2814L20.8394 71.3221L20.7442 71.3866L19.0556 71.8737L18.8701 71.9005L18.8235 71.9263L18.6062 71.963L18.4197 72.0463L18.1607 72.1019L18.0536 72.1693L16.7579 72.466L16.3154 72.5176L16.0476 72.4987L15.1031 72.3658L14.618 72.0999L14.1398 71.9203L13.73 71.5612L13.728 71.5572L13.7231 71.5552L13.1169 70.4024L13.0465 69.828L13.0316 69.5919L13.0623 69.3309L12.9264 69.1722L12.8798 68.9837L12.8004 68.8756L12.7459 68.7119L12.6357 68.0442L12.7746 67.3001L13.0316 66.6344L13.3887 66.184L13.4939 65.931L14.0644 65.3606L14.2231 65.2951L14.4672 65.048L16.6835 63.7286L17.2093 63.1918L17.3393 63.1363L17.5397 62.916L18.6747 62.1501L18.8592 62.0936L19.0149 61.9606L21.0349 61.0648L21.1817 61.033L21.2551 60.9804L23.5994 60.2185L23.7592 60.1927L25.4666 59.5885L25.6461 59.5578L25.7086 59.5181L27.3129 59.152L27.7296 59.1034L27.7415 59.0984L28.806 59.0806H28.8407L29.8546 59.3792Z" fill="black"/>
<path d="M66.7372 53.6005L67.9545 53.6997L68.1123 53.7771L68.8821 53.9477L69.6371 54.3009L69.646 54.3049L70.2651 54.1977L70.6927 54.16L70.8604 54.166L71.7751 54.2295L72.0013 54.3376L72.8585 54.5837L73.2513 54.8297L73.4795 55.0698L73.6363 55.1333L73.7186 55.3218L74.048 55.669L74.3099 56.673L74.3496 56.7613L74.3615 57.2018L74.3625 57.2693L73.9795 58.561L73.3466 59.5372L73.0083 59.8507L72.9359 60.0104L72.3852 60.4956L72.3416 60.5531L72.2037 60.6672L72.169 60.7535L70.3981 62.583L70.2731 62.6355L70.0816 62.8558L69.8008 63.0552L68.8891 64.0384L68.7135 64.1148L68.4158 64.4412L66.6043 65.6495L66.4078 65.7091L66.2431 65.8519L64.8602 66.4859L64.373 66.594L64.2054 66.6893L62.9553 66.8996L62.6061 66.9293L62.5932 66.9353L61.4483 66.9641L61.3819 66.9651L61.0753 66.9036L60.987 66.9234L60.4711 66.9819H60.4433L59.0117 66.9641L58.9691 66.9462L57.9373 66.6863L57.4373 66.4174L57.3837 66.3658L57.3172 66.346L57.0156 66.0117L56.8847 65.8866L56.8311 65.8648L56.8112 65.8162L56.5583 65.5741L56.5305 65.4769L56.465 65.4035L56.3936 65.2596L56.1426 64.2021L56.1594 63.9223L56.1704 63.829L56.0463 63.6187L55.6674 62.2397L55.7497 61.576L56.0255 60.4906L56.2775 60.1087L56.4343 59.6136L57.4482 58.1751L57.6367 58.0104L57.8272 57.7455L59.4334 56.2672L59.7141 56.1581L60.0981 55.8099L62.2678 54.7285L62.4275 54.6908L62.5218 54.6174L64.0784 54.0182L64.504 53.9378L64.63 53.8664L66.0507 53.6302L66.515 53.5916L66.7372 53.6005Z" fill="black"/>
<path d="M50.7817 14.2271L50.8393 14.2549L50.8909 14.3362L50.998 14.3809L51.0337 14.4682L51.1617 14.5356L51.3145 14.7599L51.4693 15.2599V15.2936L51.4663 15.372L51.4951 15.5039L51.2748 16.0377L51.121 16.1002L51.1111 16.255L51.1101 16.2559V16.2738L51.0645 16.7599L51.0615 16.7659L51.0585 16.8105L50.8452 18.1469L50.7232 18.9684L50.4792 20.8712L50.4762 20.8772L50.4732 20.9089L50.0337 23.3693L50.0287 23.3782L50.0248 23.412L49.6587 24.9825L49.6537 24.9854L49.6488 25.0162L49.2529 26.4339L49.247 26.4379L49.243 26.4637L48.1408 29.8834L48.1358 29.8864L48.1328 29.9063L47.4155 31.9192L47.3798 31.9649L47.362 32.0422L46.4403 33.8895L46.4324 33.8945L46.4274 33.9133L45.3738 35.8817L45.3609 35.8886L45.353 35.9174L41.7685 41.989L41.7665 41.99V41.992L38.5988 47.2531L37.7664 48.6877L35.7891 52.2573L34.8833 53.9925L33.9141 55.9915L33.6412 56.7555L33.5599 57.2406L33.5529 57.6146L33.3833 58.0085L33.3069 58.193L33.3029 58.194L33.3019 58.198L32.7126 58.439L32.1233 58.198L32.1223 58.194L32.1184 58.193L32.039 58.0015L31.8723 57.6136L31.8644 57.1771V57.1612L31.8763 57.0233L31.9795 56.3963L31.9894 56.3874L32.0013 56.3011L32.2652 55.3983L32.285 55.3834L32.3039 55.2951L33.2345 53.1998L33.2374 53.1968L33.2404 53.1879L34.0867 51.3862L34.0916 51.3822L34.0956 51.3683L35.9449 47.6966L35.9558 47.6906L35.9618 47.6658L36.7812 46.1936L36.7862 46.1906L36.7892 46.1797L39.8905 40.8729L43.3559 34.7814L44.3579 32.8429L45.223 30.9986L45.227 30.9956L45.229 30.9857L46.1467 29.1205L47.3848 25.8466L47.7955 24.4735L48.2182 22.9675L48.7628 20.5726L49.121 18.7015L49.2589 17.888L49.4444 16.5645L49.4454 16.5635L49.4464 16.5575L49.5188 16.0873L49.6041 15.3898L49.6051 15.3889L49.6061 15.375L49.6299 15.2142L49.6279 15.0128L49.6269 15.0079V14.9484L49.7887 14.5604L49.8631 14.3809L50.4305 14.1458L50.7817 14.2271Z" fill="black"/>
<path d="M78.9197 12.5183L80.0378 12.5332L80.0665 12.5342L81.0606 12.5937L81.0646 12.5977L81.1688 12.6096L81.7749 12.7574L81.7859 12.7713L81.8603 12.7862L82.4724 13.0411L82.4863 13.061L82.5408 13.0759L83.0051 13.3527L83.018 13.3765L83.0597 13.3904L83.4308 13.6801L83.4526 13.7237L83.5012 13.7455L84.2334 14.5601L84.2463 14.5928L84.2701 14.6057L84.5657 15.0115L84.6729 15.3398L84.1183 15.8944L83.6689 15.6662L83.3891 15.2813L82.7085 14.5243L82.4119 14.2942L82.0319 14.0858L81.4912 13.9241L80.9545 13.8328L80.0318 13.7912L78.9653 13.8477L77.7232 13.9876L76.3779 14.2198L76.369 14.2208L74.3292 14.5601L72.4274 14.941L68.577 15.8528L68.4957 15.8627L68.4778 15.8726L64.2892 16.5304L64.2634 16.5323L64.2594 16.5343L59.1561 17.2328H59.1541L53.5477 18.0245L53.5368 18.0255L53.5358 18.0264L52.2064 18.207L52.0804 18.2149L52.0764 18.2169L51.0923 18.2388H51.0675L50.8621 18.2189L50.4732 18.1435L50.3958 18.0969L50.2172 18.0542L49.7896 17.8389L49.739 17.7556L49.5863 17.6961L49.3849 17.5086L49.363 17.458L49.118 16.9629L49.1021 16.7794L49.0981 16.702L49.3392 16.1216L49.4801 16.0631L49.5297 15.9788L49.622 15.9292L50.0158 15.8289L50.5962 16.07L50.622 16.1305H50.6309L50.9782 16.1028H50.9802L51.9236 16.0234L53.2114 15.826H53.2134L58.8068 14.946L58.8158 14.945L58.8177 14.944L63.9082 14.1622H63.9102L68.085 13.4757L68.1594 13.4687L68.1693 13.4638L72.1317 13.0699H72.1327L74.0772 12.8517H74.0842L74.0852 12.8507L76.1477 12.6294L76.1914 12.6274L76.1944 12.6255L77.5823 12.553L77.6032 12.552L78.8929 12.5183H78.9107H78.9197Z" fill="black"/>
<path d="M82.7846 14.3673L82.9374 14.3901L82.9939 14.4566L83.3918 14.6213L83.6318 15.2017L83.611 15.2523L83.6517 15.3832L83.6834 15.5946L83.6805 15.6561L83.6418 16.1035L83.6378 16.1075L83.6309 16.1789L83.4681 16.9934L83.4562 17.0023L83.4424 17.0867L82.6844 19.2901L81.4264 22.9292L80.3926 26.2725L79.2656 30.2092L78.2547 34.5337L77.3846 39.1192L76.6842 43.3634L76.1722 47.1523L75.9798 48.9063L75.8667 50.1544L75.7933 51.4352L75.7437 52.332L75.7169 52.9957H75.7159L75.7149 53.0255L75.6464 53.838L75.6058 53.8757L75.4232 54.3162L74.8776 54.5414L74.3319 54.3162L74.1454 53.8658L74.1087 53.8311L74.0938 53.6416L74.0908 53.5781L74.1484 53.4402L74.2377 52.8618L74.3111 52.2199L74.3944 51.325L74.3954 51.3131L74.5422 50.0363L74.6494 48.7783V48.7714L74.826 46.9975V46.9935L75.2456 43.17L75.2466 43.169L75.2476 43.1491L75.8627 38.8653L75.8657 38.8623L75.8677 38.8325L76.7576 34.2222L76.7606 34.2192L76.7635 34.1944L77.8052 29.8362L77.8072 29.8342L77.8092 29.8203L78.8807 25.8291L78.8856 25.8251L78.8896 25.8003L79.9561 22.443L79.9591 22.442L79.9611 22.4321L81.2181 18.7732L81.2191 18.7723L81.2201 18.7693L82.0018 16.5886L82.226 15.8872L82.2379 15.786L82.23 15.7831L82.111 15.4944L81.8411 15.1799L82.0822 14.5995L82.6626 14.3584L82.7846 14.3673Z" fill="black"/>
</g>
<defs>
<clipPath id="clip0">
<rect width="1500" height="1000" fill="white" transform="translate(-971 -553)"/>
</clipPath>
</defs>
</svg>
