<svg width="99" height="98" viewBox="0 0 99 98" fill="none" xmlns="http://www.w3.org/2000/svg">
<g clip-path="url(#clip0)">
<path d="M528.055 -442H-972V558.037H528.055V-442Z" fill="white"/>
<path d="M15.5801 68.5838L15.8718 68.5272L15.9888 68.5292L17.346 68.5729L18.6487 68.8764L18.6665 68.8893L18.6814 68.8923L19.8293 69.4241L19.9781 69.555L20.6854 70.0064L21.3551 70.6344L21.7936 70.7892L22.4742 71.3408L22.8571 71.824L23.1191 72.076L23.7738 73.1425L23.9167 73.6425L24.1151 73.9481L24.4395 75.2477L24.5288 75.9581L24.511 76.2765L24.3463 77.7448L24.3036 77.8262L24.2421 78.2419L23.7619 79.8104L23.505 80.1715L23.3671 80.6041L22.4901 81.8462L22.0198 82.2569L21.6954 82.6031L20.5039 83.368L19.858 83.5585L18.9086 84.2123L17.7756 84.5665L17.7587 84.5784L17.6744 84.6022L17.3788 84.7401L17.1446 84.754L16.4948 84.9395L15.6724 85.0566L15.2725 85.0288L13.9312 84.8453L13.6266 84.6796L12.8687 84.4742L11.6613 83.7708L11.4103 83.5179L10.8845 83.1051L10.7099 82.8928L9.78424 82.2301L8.74055 81.0237L8.70285 80.984L8.69888 80.9761L8.6969 80.9731L8.6959 80.9711L8.04013 79.7241L8.02822 79.6794L7.99052 79.6278L7.63138 78.3282L7.47066 76.3489L7.45776 76.0473L7.55995 75.1981L7.92008 73.7179L8.20978 73.2714L8.40621 72.6147L9.2743 71.2962L9.7257 70.8825L10.1781 70.3646L11.4361 69.4697L12.2288 69.2157L12.7754 68.8864L14.2189 68.5927L14.9313 68.5193L15.5801 68.5838Z" fill="#02A556"/>
<path d="M78.9544 5.88525L79.1389 5.8922L79.9435 5.94875L80.004 5.97851L80.4743 6.04597L81.6132 6.3813L81.7958 6.50928L82.0259 6.5698L82.8087 7.09066L83.1976 7.25336L83.8802 7.94485L83.8951 7.95081L84.4129 8.4032L84.5201 8.63932L85.0191 9.20284L85.4229 10.0461L85.6034 10.8279L85.6689 10.9658L85.6749 11.0511L85.8435 11.186L86.6223 12.1543L86.6987 12.4827L86.8088 12.6464L87.0083 13.3627L87.1204 14.1683L86.8485 15.4025L86.29 16.6089L86.2602 16.6436L86.2473 16.6972L85.3435 17.7637L84.2334 18.5871L83.7591 18.7449L83.3305 19.0564L82.6658 19.2736L82.1896 19.732L81.8295 19.8768L81.268 20.3203L80.5546 20.5991L79.5248 20.7955L79.3502 20.7896L78.3095 20.7251L78.0288 20.5931L76.9454 20.2717L75.9394 19.6179L75.6477 19.3024L75.2261 18.9512L74.4106 17.8768L73.9155 17.3926L73.8798 17.2646L73.7955 17.1704L73.3788 16.3311L73.3718 16.3013L72.9075 15.5215L72.6397 14.5572L72.4909 14.2596L72.3411 12.7198L72.3262 12.4202L72.4442 11.5928L72.7458 10.5511L73.1913 9.9102L73.3966 9.41019L73.4264 9.37447L73.4294 9.36752L73.4522 9.34272L73.6457 9.10759L73.7439 8.82485L74.0256 8.64528L74.3064 8.30399L74.4513 8.25935L74.5763 8.08871L74.9285 7.79009L75.2062 7.47361L76.2797 6.71564L76.7212 6.57476L77.0763 6.32773L78.1994 5.99637L78.9544 5.88525Z" fill="#02A556"/>
<path d="M83.0056 13.5334L83.5156 14.3846L83.6178 14.8935L83.6475 15.1931L83.215 16.2378L82.1703 16.6714L81.2298 16.3341L81.1881 16.2646L81.1246 16.2378L81.0165 15.9779L80.7198 15.4828L80.6186 14.9739L80.5879 14.6743L81.0204 13.6286L82.0661 13.196L83.0056 13.5334Z" fill="#02A556"/>
<path d="M79.048 5.6573L80.4717 5.74461L80.5421 5.77735L81.1275 5.87061L82.5333 6.32995L82.5948 6.37459L82.9688 6.45297L83.6395 6.86271L84.0353 7.02243L84.6673 7.63555L84.7933 7.93417L85.2239 8.5215L85.2278 8.5334L85.4977 8.5582L85.835 8.72785L86.2408 8.87965L86.2785 8.95008L86.3469 8.98481L86.4759 9.31716L86.6803 9.69714L86.7904 10.4948L86.8033 10.6853L86.7973 10.8202L86.6902 11.8758L86.7983 12.3143L86.7884 12.5464L86.6922 13.6784L86.5791 13.9086L86.3469 14.8213L85.3122 16.7222L85.1256 16.9166L84.7754 17.4335L83.4738 18.7312L83.0829 18.9941L82.9093 19.2253L82.2624 19.7888L81.8289 19.9525L81.2922 20.3483L81.2019 20.3781L81.0312 20.5527L80.0372 21.1559L79.177 21.398L78.9369 21.516L77.9131 21.6004L77.6938 21.6093L76.9894 21.5101L76.2959 21.3107L75.784 20.9565L75.3445 20.7958L74.4993 20.0755L74.1361 19.5993L73.9318 19.3959L73.2075 18.1488L73.1311 17.8681L72.8167 17.627L72.2045 16.9028L71.5071 15.0029L71.5081 14.9662L71.5239 13.6993L71.5349 13.6725L71.7045 12.7369L72.1033 11.6714L72.3861 11.3103L72.4724 11.1635L72.5468 10.9591L72.6946 10.4799L72.7432 10.4085L72.895 9.87869L73.2145 9.41637L73.3831 8.91734L74.2254 7.81016L74.7016 7.41431L74.9854 7.11668L76.1412 6.38749L76.6729 6.23272L77.0023 6.0224L78.2196 5.73171L78.8794 5.65234L79.048 5.6573Z" fill="#02A556"/>
<path d="M66.7557 27.8418L66.7974 27.8964L66.9402 28.3061L66.8966 28.5432L66.843 28.6841L66.84 28.6861L66.839 28.694L66.7349 28.948L66.6833 28.9827L66.6376 29.1077L66.4422 29.3419L65.9948 29.5502L65.6902 29.2456L64.7755 29.8508L63.8439 30.5473L61.0283 32.8102L59.1006 34.4641H59.0997V34.4651L54.6025 38.3243L51.9387 40.6399L51.9347 40.6419L51.9327 40.6459L49.3136 42.885L46.9187 44.9536L44.2777 47.2592L44.2697 47.2622L44.2668 47.2691L41.4542 49.6551H41.4532V49.6561L38.8489 51.8685L36.8994 53.562L36.8905 53.566L36.8865 53.5729L34.8329 55.3061L29.7643 59.7408L27.5062 61.8183L25.8097 63.5237L23.6261 65.7579L23.5527 65.9781L23.2779 66.3512L23.0646 66.4573L22.9753 66.6002L22.8463 66.6627L22.6479 66.8393L22.4336 67.119L22.0913 67.2867L22.011 67.3889L21.9961 67.3919L21.8265 67.4117L21.2957 67.1915L21.0754 66.6607L21.1072 66.4434L21.1717 66.2301L21.2233 66.1924L21.2828 66.0069L21.7233 65.3918L21.756 65.3749L21.7739 65.3293L24.4764 62.2766L24.4922 62.2697L24.4992 62.2518L26.1778 60.4938L26.1967 60.4859L26.2056 60.466L28.4398 58.3161L28.4656 58.3052L28.4755 58.2834L33.567 53.8448L33.5719 53.8428L33.5729 53.8398L35.6147 52.0828L35.6276 52.0778L35.6325 52.0679L37.6296 50.421L40.2448 48.2275L40.2468 48.2265L40.2478 48.2255L43.0763 45.8583L43.0832 45.8554L43.0852 45.8504L45.7996 43.6291L48.2253 41.6022L50.8623 39.3849L53.5538 37.1001L53.5578 37.0991L53.5588 37.0971L58.0957 33.2845H58.0966L58.0976 33.2835L60.0531 31.6425L60.0689 31.6366L60.0749 31.6257L62.9411 29.3885L62.9569 29.3825L62.9619 29.3726L63.9262 28.6682L63.9639 28.6563L63.9748 28.6355L65.1544 27.9073L65.1931 27.8964L65.2031 27.8795L65.5582 27.696L65.7894 27.6384L65.8072 27.6186L66.1247 27.5809L66.209 27.5759L66.7557 27.8418Z" fill="black"/>
<path d="M68.6949 24.6467L69.0154 24.6537L69.0263 24.6586L69.2634 24.7013L69.8348 24.9146L69.8973 25.0049L70.1106 25.0932L70.2922 25.2747L70.3319 25.371L70.3993 25.4077L70.5819 25.6934L70.6186 25.8174L70.6573 25.8442L70.8002 26.2252L70.822 26.3412L70.8369 26.3541L71.0194 27.2827L71.0353 27.4405V27.4415L71.0392 28.634V28.637L71.0333 28.7362L70.8656 30.1122L70.8597 30.1182L70.8498 30.1985L70.439 31.9436L70.4321 31.9486L70.4271 31.9873L70.062 33.1957L70.0263 33.2224L69.9876 33.3653L69.6027 34.034L69.564 34.0568L69.5392 34.1262L69.4688 34.2135L68.8933 34.4884L68.3705 34.2711L68.1542 33.7483L68.2455 33.4556L68.2465 33.4506L68.4638 32.7075L68.4657 32.7065L68.4667 32.6966L68.8358 31.5269L69.2247 29.8553L69.3993 28.5794L69.4033 27.4921L69.308 26.6974L69.2217 26.4781L69.1324 26.3383L69.1037 26.3125L68.7485 26.1418L68.6304 26.116L68.4776 26.1289L67.6492 26.2787L67.2226 26.4524L66.6244 26.7202L66.5927 26.7956L66.4379 26.8601L66.4042 26.9226L66.1006 27.1309L65.9795 27.1686L65.9508 27.2103L64.915 27.626L64.8426 27.6399L64.8317 27.6548L64.0747 27.872L62.9378 28.3889L62.9199 28.3929L62.9169 28.3979L61.7502 28.8999L61.7453 28.9009L61.7443 28.9018L60.6976 29.3513L60.5795 29.3761L60.5627 29.3979L59.5616 29.6638L59.4733 29.6757L59.4535 29.6856L58.6668 29.8037L58.5239 29.8146L58.4584 29.8116L57.878 29.7709L57.8592 29.762L57.7084 29.7431L57.5834 29.7104L57.4872 29.5844L57.2669 29.4783L57.2649 29.4743L57.0953 29.3939L57.0268 29.3106L56.8631 28.8542L56.8086 28.7332L56.8026 28.5278V28.4971L57.0695 27.8264L57.261 27.625L57.4128 27.5595L57.4713 27.4573L57.6261 27.3651L57.8493 27.3036L57.885 27.2569L59.0993 26.9424L59.136 26.9385L59.146 26.9315L59.6093 26.8323L59.6648 26.8264L59.6757 26.8204L61.7026 26.5109L61.7363 26.5079L61.7413 26.5059L63.3415 26.3164L63.8703 26.1944L64.8386 25.7837L64.8545 25.7807L64.8575 25.7757L66.6442 25.0575L66.7325 25.0406L66.7444 25.0247L67.2673 24.8918L67.2851 24.8888L67.2871 24.8868L68.2098 24.6725L68.3626 24.6547L68.3675 24.6527L68.6632 24.6467H68.679H68.6949Z" fill="black"/>
</g>
<defs>
<clipPath id="clip0">
<rect width="1500" height="1000" fill="white" transform="translate(-972 -442)"/>
</clipPath>
</defs>
</svg>
