<svg width="92" height="93" viewBox="0 0 92 93" fill="none" xmlns="http://www.w3.org/2000/svg">
<g clip-path="url(#clip0)">
<path d="M634.055 -314H-866V686.037H634.055V-314Z" fill="white"/>
<path d="M44.0507 30.779L44.0893 30.8604L44.1568 30.9735L44.2223 31.2076L44.2312 31.2165L44.2987 32.4547L44.2997 32.4854L43.8751 32.91L43.7639 33.8734L43.5506 36.0242L43.4435 37.934L43.3552 40.1246L43.3473 43.9303L43.3681 46.4403L43.3909 47.6249L43.4455 48.7152L43.4941 49.5783V49.5803L43.5487 50.5198V50.5208L43.5854 51.1428L43.6647 52.2163L43.6667 52.2599L43.6449 52.4147L43.6112 52.5328L43.5139 52.6052L43.3979 52.8235L43.3919 52.8274L43.1032 52.9157L42.8165 52.8284L42.8076 52.8225L42.6895 52.6012L42.5952 52.5298L42.5635 52.4187L42.5417 52.2659L42.5407 52.2649L42.5308 51.1925L42.501 50.5783L42.4534 49.6378L42.4524 49.621L42.4345 48.7529L42.4107 47.6536V47.6507L42.3889 46.4562L42.3879 46.4492L42.375 43.9342V43.9323V43.9253L42.4236 40.1077V40.1047L42.4702 37.8993L42.4712 37.8983V37.8775L42.5992 35.9538L42.6002 35.9528L42.6012 35.9349L42.8383 33.7692L42.8393 33.7642L43.0724 31.8743H43.0734V31.8653L43.2004 31.0141L43.2064 31.0092L43.2153 30.9516L43.252 30.8326L43.6618 30.533L44.0507 30.779Z" fill="black"/>
<path d="M51.3414 48.987L51.512 49.0177L51.513 49.0197L51.5289 49.0217L51.645 49.0475L52.015 49.5118L51.642 49.9781L51.5497 49.9979L51.4138 50.0416H51.4128L50.9803 50.1933L50.2124 50.6219L49.261 51.1795L47.9246 52.0744L46.6756 53.0099L45.3888 54.1508L43.3044 56.39L42.6139 57.1678L42.5206 57.2095L42.481 57.2869L41.9661 57.653L41.5176 57.7968L41.4313 57.7918L41.3162 57.7789L41.224 57.6758L40.974 57.5716L40.9382 57.4853L40.718 57.3434L40.6178 57.1261L40.5751 56.9337L40.5553 56.9158L40.4333 56.0775L40.4303 56.0329L40.4283 56.0309L40.3995 55.6995V55.6955L40.3648 55.2868L40.1674 53.9762L39.961 53.0575L39.8231 52.6161L39.8182 52.5843L39.8132 52.5813L39.6168 51.7857L39.4501 51.4146L39.4441 51.3888L39.4372 51.3839L39.2576 50.8977L39.2477 50.8412L39.2388 50.8342L39.1882 50.6031L39.1763 50.4989L39.2923 50.1894L39.3142 50.1646L39.6684 50.0039L40.0176 50.1586L40.2041 50.363L40.213 50.3868L40.2299 50.3947L40.9809 51.373L40.9849 51.3859L40.9928 51.3898L41.725 52.4166L41.7438 52.4752L41.7716 52.492L42.1347 53.2024L42.4651 53.5189L42.4939 54.1479L42.4948 54.1756L41.9184 54.752L41.5672 54.4792L41.7141 55.0219L41.72 55.0636L41.725 55.0675L41.8113 55.4862L41.8133 55.5031L41.8153 55.5051L41.852 55.6995L42.2151 55.3513L44.353 53.123L44.3828 53.1101L44.3947 53.0823L45.7311 51.8988L45.7727 51.8829L45.7886 51.8521L47.0922 50.9126L47.1389 50.8977L47.1528 50.8739L48.5744 50.0465L48.5933 50.0416L48.5982 50.0336L49.5913 49.5019L49.6509 49.487L49.6628 49.4691L50.5279 49.1288L50.6112 49.112L50.6211 49.1001L51.1261 48.9909L51.2452 48.978L51.3414 48.987Z" fill="black"/>
<path d="M24.2395 68.2861L24.9955 68.2931L24.9965 68.2941L25.0877 68.3L25.6771 68.3794L25.6909 68.3953L25.8556 68.428L26.3259 68.6205L26.3834 68.7068L26.565 68.7842L26.7981 69.0282L26.9082 69.302L26.9668 69.3507L27.0184 69.6017L27.0303 69.7237L26.9916 69.937L26.9182 70.1265L26.819 70.3934L26.7644 70.4311L26.7118 70.567L26.5362 70.7584L26.443 70.8001L26.4638 70.816L26.5184 71.0233L26.6553 71.4241L26.818 71.8041L27.0948 72.2158L27.3894 72.5065L27.7218 72.7218L28.0759 72.8071L28.7268 72.7972L29.1196 72.7288L29.324 72.7109L30.1346 73.0462L30.4699 73.8568L30.1732 74.6266L29.4401 74.9977L28.952 75.0473L28.8329 75.0532L28.7585 75.0513L27.8785 74.9927L27.8488 74.9788L27.6156 74.9421L26.9569 74.7278L26.9043 74.6554L26.6642 74.577L26.1086 74.1703L26.0382 74.0314L25.8963 73.9609L25.5223 73.4679L25.4766 73.3349L25.4171 73.2972L25.2891 73.0353L25.0729 73.2099L24.9994 73.2357L24.9756 73.2764L24.3089 73.6633L24.2216 73.6871L24.2028 73.7149L23.4795 74.0026L23.299 74.0373L23.2851 74.0532L22.5261 74.1514L22.422 74.1584H22.3932L21.7602 74.1346L21.7473 74.1286L21.5618 74.1008L20.9566 73.9133L20.915 73.8568L20.7245 73.7923L20.533 73.6464L20.4596 73.4966L20.3425 73.4302L20.1173 73.0462L20.0151 72.6732V72.6663L20.0201 72.2099V72.2089L20.026 72.1236L20.0588 71.8765L20.0707 71.8666L20.0915 71.7456L20.289 71.1761L20.3138 71.1583L20.3376 71.07L20.6531 70.5065L20.7046 70.4757L20.7384 70.3864L21.2701 69.7832L21.3307 69.7554L21.3584 69.6999L21.9626 69.2167L22.0122 69.1999L22.0281 69.1701L22.7017 68.7465L22.8059 68.7157L22.8297 68.681L23.2305 68.5232L23.3129 68.5074L23.3238 68.4935L24.0321 68.3119L24.2326 68.2861H24.2395ZM24.3298 69.8487L23.7087 69.9519L23.4032 70.0699L22.7811 70.3735L22.2861 70.7575L21.8485 71.2773L21.5757 71.7138L21.42 72.1563L21.409 72.2188L21.4388 72.3835L21.5082 72.4827L21.9071 72.5899L22.3714 72.6057L22.9845 72.5035L23.6016 72.2833L24.1879 71.9688L24.5927 71.6751L24.8209 71.4202L24.927 71.2208L24.9419 71.0858L24.9935 70.8448L25.0689 70.7842L25.1969 70.4747L25.6195 70.3001L25.7276 70.0203L25.8001 69.941L25.7911 69.936L25.4389 69.8467L24.9766 69.7941L24.3298 69.8487Z" fill="black"/>
<path d="M33.1934 69.7269L33.2708 69.8489L33.2787 69.8767L33.2916 69.8836L33.496 70.2606L33.5069 70.3033L33.5208 70.3122L33.8045 70.972L33.8234 71.0593L33.8392 71.0712L34.0585 71.8936L34.0734 71.9988L34.0803 72.0057L34.2013 72.9879L34.2043 73.0276L34.2053 73.0316L34.5307 77.4127L34.5337 77.4861L34.5297 77.5694L34.4057 78.9713L34.4047 78.9723L34.4037 78.9861L34.244 80.4148L34.2371 80.4217L34.2242 80.5229L33.9672 81.518L33.9206 81.5537L33.8581 81.7581L33.4602 82.3573L33.3898 82.395L33.3501 82.4843L33.0942 82.7125L32.6973 82.8633L32.4275 82.7412L32.2916 82.6946L32.24 82.6549L32.235 82.644L32.2221 82.6301L32.2033 82.5795L32.0703 82.3067L32.1021 82.2273L32.1031 82.2204L32.107 82.2164L32.1179 82.1886L32.1556 82.018L32.2658 81.7799L32.3858 81.1509L32.3927 81.145L32.3997 81.0914L32.6557 80.1747L32.7747 78.8969L32.6477 77.5813L32.6437 77.5109L32.6428 77.5079L32.5396 73.1139L32.5148 72.1278L32.481 71.3192L32.3769 70.6704L32.3005 70.3638L32.2707 70.3162L32.1834 70.0205L32.7311 69.4729L33.1934 69.7269Z" fill="black"/>
<path d="M37.5378 68.7712L38.0646 68.8744L38.1023 68.922L38.3643 69.0054L38.5508 69.1373L38.6014 69.2365L38.7105 69.2891L38.8286 69.4369L38.9188 69.6949L38.9823 69.7435L39.0458 69.9866L39.0746 70.2048L39.0726 70.2683L39.0508 70.5481L39.0359 70.5788L39.0002 70.7782L38.898 71.0531L38.8673 71.0739L38.8405 71.1721L38.6579 71.4896L38.5885 71.5303L38.5428 71.6444L37.8543 72.3775L37.7779 72.4103L37.7452 72.4747L36.9456 73.0789L36.8543 73.1097L36.8275 73.1553L35.9406 73.6286L35.8751 73.6454L35.8612 73.6663L35.1876 73.944L35.131 73.9559L35.1211 73.9688L34.8522 74.0561L34.5903 74.0978H34.5605L34.1111 74.0819L33.7728 73.9301L33.6141 73.8647L33.6111 73.8577L33.6052 73.8547L33.5149 73.6315L33.5129 73.6305L33.4653 73.574L33.3532 73.2724V73.2595L33.3561 73.1633L33.5466 72.9787L33.6141 72.815L33.7897 72.7416L33.8006 72.7307L33.8065 72.7347L33.8194 72.7297L33.879 72.6444L34.2927 72.4896L34.3512 72.4787L34.3591 72.4668L34.5853 72.4013L35.1419 72.1583L35.9148 71.6444L36.6638 71.1175L37.2521 70.5282L37.3394 70.3884L37.3593 70.3298L37.2858 70.311L36.2342 70.307L34.9326 70.4181L33.7143 70.5759H33.7133L33.3284 70.6324L33.2311 70.7296L33.1954 70.7286L33.0704 70.7207L32.7093 70.7624L32.6478 70.7743L32.5148 70.7882L31.867 70.2395L31.8581 70.183L31.8481 70.0639L32.2083 69.4508L32.4315 69.3268L32.5674 69.2911L32.5912 69.2603L33.3879 69.0341L33.496 69.0193L33.504 69.0103L34.7391 68.8437L34.8066 68.8397L34.8115 68.8377L36.1638 68.7722L36.1926 68.7712L37.3761 68.7563H37.387L37.5378 68.7712Z" fill="black"/>
<path d="M41.9706 69.9068L42.0044 69.9971L42.0361 70.1678L42.0431 70.1747L42.0599 70.4485L42.1026 70.9426L42.1046 71.0051L42.1016 71.0716L41.9935 72.2343L41.9181 73.3752L41.7435 76.8615L41.7425 76.8654L41.7395 76.9081L41.5798 78.3764L41.5768 78.3794L41.5718 78.428L41.2603 80.1602L41.2553 80.1642L41.2504 80.2029L41.0202 81.1215L40.9815 81.1523L40.9279 81.3259L40.7702 81.5591L40.3119 81.8001L40.291 81.7813L40.29 81.7823L40.2632 81.7555L39.7593 81.2991L39.7325 81.0233L39.7295 80.9578L39.7325 80.8904L39.8287 79.9588L39.9666 78.2177L39.9676 78.2167V78.2117L40.1015 76.7414L40.3882 73.2631V73.2621V73.2601L40.4924 72.1024L40.4954 72.0994L40.4994 72.0478L40.6948 70.8831L40.7037 70.8751L40.7166 70.7928L40.8496 70.3682L40.8674 70.1916L40.802 70.1033L41.2613 69.5626L41.3456 69.5497L41.4399 69.5417L41.9706 69.9068Z" fill="black"/>
<path d="M42.5898 68.2283L43.2416 68.266L43.2446 68.269L43.3428 68.2789L44.0313 68.4237L44.0531 68.4495L44.2158 68.4892L44.8359 68.8047L44.8667 68.8533L44.9669 68.888L45.5016 69.3117L45.5423 69.397L45.6286 69.4387L46.0036 69.901L46.073 70.0984L46.1435 70.147L46.3548 70.7205L46.4113 71.0359V71.0528L46.4004 71.6074L46.3935 71.6223L46.334 71.9328L46.1068 72.5003L45.9619 72.5985L45.83 72.8783L45.2436 73.3664L45.2228 73.3733L45.2159 73.3882L44.9321 73.6075L44.7704 73.662L44.7287 73.7245L44.0194 74.0172L44.0075 74.0202L44.0045 74.0232L43.4122 74.2573L43.1592 74.3059L43.0501 74.297L42.8239 74.2603L42.3457 74.2017H42.3447L42.1205 74.172L41.7505 73.7474L42.1235 73.3227L42.306 73.2989L42.6225 73.2007L42.7098 73.1233L42.7981 73.0896L42.8279 73.039L43.2991 72.7741L43.7694 72.2969L43.814 72.2781L43.8329 72.2384L44.0373 72.0677L44.4033 71.6005L44.576 71.2869L44.6057 71.0796L44.5343 70.7859L44.3488 70.4962L43.9718 70.154L43.5124 69.8474L43.0184 69.65L42.5233 69.5835L41.9717 69.6133L41.5332 69.7234L41.1711 69.9258L41.1096 69.9704L41.0679 70.028L41.054 70.1391L41.0471 70.2264L41.051 70.2353L41.1344 70.2998L41.1393 70.3107L41.1532 70.3157L41.312 70.4516L41.5024 70.8663L40.9548 71.4139L40.5986 71.282L40.4399 71.1461L40.3804 71.0171L40.304 70.9685L40.2097 70.774V70.773L40.1046 70.5578L39.9964 70.3722L39.9419 70.1708L39.922 70.153L39.8863 69.8732L39.8813 69.7948L39.929 69.5617L40.0569 69.2541L40.1284 69.2075L40.1909 69.0547L40.3417 68.9019L40.4816 68.8424L40.5282 68.768L41.0113 68.5378L41.0967 68.518L41.1106 68.4991L41.684 68.3305L41.7931 68.3146L41.8001 68.3067L42.4717 68.2313L42.5501 68.2263L42.5898 68.2283Z" fill="black"/>
<path d="M48.5238 61.1311L48.5218 61.1758L48.509 61.3385L48.5338 61.6202V61.6331H48.5347L48.5516 61.8831L48.6429 62.8256L48.8502 64.4269V64.4279L49.0526 65.919L49.0546 65.9448L49.0556 65.9458L49.1389 66.7365L49.1399 66.7494V66.7504L49.2927 68.4072L49.2957 68.4776V68.4786L49.3016 69.3239L49.3135 70.8527L49.3354 71.4817L49.3364 71.5065L49.3403 72.1157L49.4941 72.4877L49.4713 72.6683L49.2768 73.4401L48.5625 73.9917L48.0407 73.7754L47.9315 73.5106L47.8512 73.45L47.8234 73.3488L47.8135 73.2784L47.8065 73.2725L47.7798 73.1236L47.7688 72.9996L47.7679 72.9967L47.744 71.5254V71.5115V71.4976L47.7559 70.8676L47.7331 69.3586L47.6835 68.5342V68.5203V68.5193L47.6111 66.8724L47.5387 66.0996V66.0986L47.3819 64.6065L47.3799 64.5698L47.378 64.5688L47.2837 62.9437L47.2827 62.902L47.2847 62.8435L47.367 61.8841L47.3839 61.6312H47.3849V61.6222L47.4137 61.2899L47.4305 61.0845L47.9762 60.5835L48.5238 61.1311Z" fill="black"/>
<path d="M53.5685 67.924L54.1687 68.0182L54.1866 68.039L54.3641 68.0787L54.8126 68.292L54.887 68.4101L55.0715 68.4994L55.1925 68.6502L55.2878 68.922L55.3394 68.9647L55.4118 69.3139L55.4277 69.4677L55.393 69.6909L55.2739 70.0699L55.2322 70.1006L55.1866 70.2514L54.9366 70.6264L54.8334 70.681L54.7759 70.7981L54.3453 71.1294L54.2213 71.1721L54.1885 71.2217L53.6459 71.4558L53.5169 71.4836L53.502 71.5025L52.9058 71.6235L52.7619 71.6384L52.7222 71.6374L52.1131 71.6037L52.1111 71.5997L52.0228 71.5917L51.8988 71.5669L51.8998 71.5679L52.2718 71.939L52.7153 72.2346L53.2976 72.3805L53.9971 72.4628L54.6757 72.4043L55.0358 72.2912L55.2273 72.2604L55.261 72.2436L55.5537 72.2148L56.262 71.9003L56.5874 71.6761L56.8444 71.5957L56.8861 71.5441L57.3077 71.4469L57.4645 71.428L58.1361 72.1007L58.0508 72.4301L57.8345 72.816L57.6956 72.8964L57.6063 73.0769L57.2273 73.3666L57.1797 73.3825L57.1648 73.4103L56.3345 73.941L55.9952 74.1841L55.765 74.2585L55.5973 74.3627L55.1152 74.4688L55.005 74.4807L54.9882 74.4897L54.0913 74.5809L53.9792 74.5869L53.8453 74.578L52.9663 74.4659L52.8661 74.4123L52.5883 74.3399L51.8601 73.9301L51.8025 73.8319L51.6498 73.7674L51.1071 73.2079L51.0118 72.9747L50.9176 72.9093L50.6487 72.19L50.6448 72.1691L50.6408 72.1652L50.5178 71.8041L50.4979 71.687L50.486 71.6771L50.4235 71.2524L50.4156 71.1483V71.1403L50.4166 71.0421L50.1041 70.8705L50.0763 70.8229L49.9959 70.7911L49.6179 70.4359L49.4453 70.0371L49.993 69.4895L50.368 69.6383L50.5922 69.8486L50.609 69.7673L50.6368 69.7445L50.6795 69.5778L51.0456 68.9101L51.0942 68.8813L51.1259 68.796L51.374 68.5123L51.4702 68.4686L51.5109 68.3942L51.8065 68.2027L51.9712 68.1541L52 68.1164L52.6061 67.9557L52.7649 67.9349L52.7679 67.9329L53.4425 67.916H53.4603L53.5685 67.924ZM52.4236 69.3804L52.3036 69.4567L52.1875 69.5887L51.9573 70.1254L51.9266 70.2663L52.1528 70.2842L52.6498 70.2465L53.1151 70.1304L53.509 69.9389L53.7818 69.7187L53.8988 69.5441L53.9108 69.4944L53.7699 69.4101L53.3621 69.303L52.8472 69.2901L52.4236 69.3804Z" fill="black"/>
<path d="M63.3126 67.9251L63.0587 68.3963L62.9059 68.4965L62.7759 68.5352L62.7501 68.5699L62.259 68.7227L61.6747 68.938L61.5636 68.9588L61.5527 68.9717L59.9375 69.2684L59.2609 69.4628L59.1736 69.4747L59.1716 69.4896L59.2123 69.6543L59.3879 69.9361L59.6458 70.2148L60.0238 70.4619L60.506 70.6196L61.1647 70.7218L62.5041 70.7367L64.2393 70.5006L64.3563 70.4916L64.8306 70.6385L65.0012 70.7545L65.0339 70.817L65.1173 70.8518L65.3623 71.444L65.3584 71.5304L65.3445 71.6643L65.271 71.8081L65.1798 72.082L64.8296 72.5483L64.7363 72.5949L64.6887 72.6941L63.9476 73.3062L63.8682 73.335L63.8414 73.3816L62.9128 73.9451L62.8682 73.957L62.8573 73.9759L61.5675 74.6406L61.4554 74.6684L61.4346 74.6952L60.0794 75.1208L59.8998 75.1485L59.8968 75.1515L59.5466 75.1605H59.5298L59.1051 74.9769L59.0536 74.9214L59.0198 74.8856L58.8998 74.585L59.0198 74.2844L59.0377 74.2656L59.0704 74.2219L59.2311 74.1436L59.2936 74.0473L59.5853 73.9174L60.7877 73.2269L62.007 72.5046L62.5864 72.0969L62.5249 72.0939L61.0943 72.0651L61.0933 72.0641L61.006 72.0572L60.2411 71.9381L60.2282 71.9242L60.1002 71.8994L59.494 71.6603L59.4673 71.6187L59.3561 71.5829L58.8551 71.2208L58.8303 71.1712L58.7698 71.1454L58.4117 70.7704L58.3879 70.7089L58.3442 70.6861L58.0674 70.2763L58.0327 70.1632L57.996 70.1375L57.864 69.7833L57.8214 69.5521L57.8204 69.5511L57.8164 69.2356V69.2277L57.8382 69.0561L57.9126 68.7674L57.9702 68.7237L58.0495 68.4995L58.2549 68.2475L58.2688 68.2406L58.2757 68.2237L58.3928 68.0917L58.8204 67.9003L58.8879 67.8199L59.624 67.7009L59.6895 67.6959L59.6964 67.6919L61.3701 67.5679L61.9554 67.5203L62.4078 67.3993L62.515 67.3844L62.52 67.3794L62.6122 67.3715L62.6172 67.3675L62.7283 67.3625H62.7501L63.3126 67.9251Z" fill="black"/>
<path d="M49.5482 11.7448L49.6206 12.1367L49.6305 12.2399L49.3726 12.4978L49.3438 12.9204L49.3339 14.235L49.5006 19.7679V19.7699L49.5849 22.651L49.7436 24.653L49.7446 24.6709L49.7456 24.6719L49.7625 24.9695L49.7635 25.0112L49.702 25.0727L49.7079 25.0786L49.0938 25.6927L49.0879 25.6868L49.072 25.7036L48.3944 25.153L48.3339 24.8633L48.3229 24.7582L48.319 24.7552L48.1979 22.7313L48.197 22.7065V22.7055L48.1235 19.8086V19.7897V19.7828L48.1781 14.236V14.235L48.1791 14.2072L48.2595 12.8659L48.2614 12.8639L48.2654 12.8083L48.4341 11.8162L48.4499 11.8033L48.4777 11.6833L48.5372 11.5632L48.9648 11.2993L48.9857 11.3212L49.0095 11.2974L49.5482 11.7448Z" fill="black"/>
<path d="M50.992 22.17L50.4443 22.7176H50.3997L49.8521 22.17L50.3997 21.6223H50.4443L50.992 22.17Z" fill="black"/>
<path d="M52.4994 20.149L52.4826 20.281L52.432 20.4744L52.3903 20.5072L52.3328 20.6768L51.6314 21.5955L51.6294 21.5965L51.6284 21.5995L51.1115 22.2602L50.8615 22.6491L50.8575 22.656L50.9915 22.6084L51.1055 22.5886L51.1145 22.5777L51.6085 22.5082L51.681 22.5033L51.682 22.5023L52.0064 22.4943H52.0242L52.299 22.5529L52.6225 22.6967L52.6582 22.7533L52.7832 22.7989L53.0977 23.0658L53.1126 23.0975L53.1473 23.1114L53.6344 23.6134L53.6771 23.7176L53.7445 23.7563L54.2862 24.6601L54.3249 24.799L54.3626 24.8268L54.561 25.431L54.5958 25.6472L53.9191 26.3238L53.4052 26.0887L52.9876 25.6036L52.9479 25.4964L52.8893 25.4617L52.3913 24.543L52.0967 24.0509L51.9171 23.8882L51.7355 23.7771L51.6403 23.7444L51.3615 23.788L50.7335 24.0321L50.6849 24.041L50.6779 24.0509L50.3803 24.1382L50.1968 24.165L50.1293 24.1611L49.924 24.1392L49.8942 24.1055L49.5747 23.9845L49.4884 23.9081L49.289 23.4666L49.2712 23.4487L49.2612 23.1868V23.16L49.3128 22.9001L49.5033 22.4437L49.5162 22.4358L49.5251 22.3981L49.7226 22.0171L49.7454 22.0032L49.7603 21.9536L50.0549 21.5211L50.0718 21.5131L50.0807 21.4874L50.6184 20.8048L50.6442 20.7929L50.6561 20.7611L51.4518 19.9238L51.4766 19.9139L51.4865 19.8901L51.6323 19.7601L51.9786 19.6292L52.4994 20.149Z" fill="black"/>
<path d="M57.241 21.0432L57.7788 21.071L57.7847 21.0779L57.9613 21.1067L58.3691 21.2466L58.3959 21.2843L58.5159 21.321L58.8115 21.5204L58.878 21.6444L58.9921 21.7089L59.134 21.9371L59.2243 22.2536L59.2233 22.2903L59.2064 22.577L59.1945 22.5879L59.129 22.824L59.0477 22.96L59.0288 22.9709L59.0169 23.0056L58.9465 23.0969L58.8959 23.1772L58.7044 23.2824L58.627 23.3925L58.3264 23.5006L58.1369 23.5344L57.5893 22.9867L57.9702 22.4947L57.9345 22.4758L57.6399 22.4153L57.2073 22.3736L56.7787 22.4163L56.3938 22.5542L56.2063 22.6792L56.1805 22.6871L56.1726 22.7L55.993 22.8082L55.8819 22.9163L55.7797 23.0611L55.7063 23.2139L55.6676 23.4153L55.6289 23.6872L55.6348 24.1911L55.6616 24.3459L55.7083 24.455L55.994 24.589L56.4007 24.6545L56.9037 24.6336L57.376 24.5126L57.7589 24.329L58.006 24.1445L58.3383 23.7526L58.3601 23.7427L58.3701 23.7179L58.7461 23.3241L58.9673 23.2298L59.0298 23.1425L59.1627 23.0959L59.3939 23.0562L59.5844 23.083L59.7441 23.1286L59.8086 23.2149L60.0566 23.325L60.2491 23.5383L60.256 23.5562L60.2709 23.5631L60.5279 23.8767L60.5447 23.9233L60.5745 23.9392L61.0725 24.6902L61.2521 24.8866L61.4079 24.9838L61.4932 25.0186L61.5398 25.089L61.7144 25.1515L61.9337 25.334L61.9605 25.3916L61.9763 25.3906L62.0051 25.4184L62.0676 25.4372L62.147 25.4888L62.2154 25.6158L62.264 25.6495L62.2839 25.6972L62.4377 25.8509L62.3176 26.1615L62.2402 26.2468L62.2254 26.2527L62.2194 26.2676L62.1529 26.3321L62.139 26.3381L62.1053 26.4184L61.6003 26.6287H61.5001L61.2561 26.6525L61.1708 26.6575L60.6628 26.4888L60.5318 26.3916L60.4961 26.3202L60.4128 26.2825L60.1687 26.0126L60.1608 25.9908L60.1439 25.9829L59.8721 25.6495L59.8473 25.5811L59.8076 25.5583L59.4217 24.9164L59.1756 25.2249L59.0943 25.2646L59.0556 25.3469L58.6855 25.6466L58.5546 25.6932L58.5169 25.7527L57.996 25.9958L57.8472 26.0285L57.8284 26.0533L57.1994 26.1952L57.0208 26.215L56.9752 26.214L56.3095 26.1753L56.3025 26.1684L56.1289 26.1426L55.5604 25.965L55.5128 25.8995L55.3094 25.8232L54.861 25.4323L54.8263 25.3569L54.7618 25.3241L54.6318 25.1416L54.5981 25.0384L54.5594 25.0126L54.4602 24.7745L54.4374 24.6594L54.4215 24.6465L54.3689 24.3747L54.357 24.2546L54.353 23.6514L54.3521 23.6465L54.361 23.5453L54.4155 23.204L54.4265 23.1951L54.4433 23.0959L54.5445 22.8111L54.5465 22.8092L54.5485 22.8012L54.6576 22.5165L54.6814 22.4996L54.7023 22.4252L54.8521 22.1742L54.8729 22.1623L54.8858 22.1236L55.0594 21.8875L55.0693 21.8835L55.0743 21.8696L55.2549 21.6444L55.4057 21.572L55.4692 21.4658L55.743 21.317L55.8829 21.2803L55.9047 21.2525L56.4593 21.1097L56.5753 21.0938L56.5803 21.0888L57.1537 21.0452L57.2063 21.0432H57.241Z" fill="black"/>
<path d="M63.2866 12.5569L63.4583 14.0044L64.0525 16.8269L64.0565 16.8685L64.0605 16.8715L64.3769 18.9609L64.3829 19.0383L64.3859 19.0432L64.5188 21.455V21.456L64.625 23.1952L64.7242 23.1505L64.7688 23.0722L65.1141 22.8698L65.2847 22.8231L65.3075 22.7954L65.7242 22.71L65.8611 22.6961L65.9851 22.7081L66.4861 22.8033L66.4901 22.8092L66.5318 22.8142L67.0993 22.97L67.1231 22.9997L67.258 23.0345L68.389 23.6605L68.3999 23.6783L68.4366 23.6892L69.4188 24.3311L69.4922 24.468L69.648 24.5444L69.8265 24.7786L70.02 25.348L70.018 25.4056L70.0021 25.6566L69.9654 25.7359L69.8722 26.0544L69.7799 26.2002L69.1995 26.5177L68.7769 26.3729L68.641 26.2687L68.5844 26.1516L68.4743 26.0951L68.3503 25.9225L68.2084 25.7558L67.4525 25.0058L66.4881 24.3033L66.1161 24.0811L65.8075 24.0206L65.6429 24.0266L65.5506 24.093L65.369 24.3361L65.0516 24.9859L64.8968 25.4512L64.9008 25.4939L64.7758 25.9363L64.7222 26.0236L64.6696 26.0534L64.6537 26.0911L64.6339 26.1L64.6021 26.1754L64.0059 26.4225L63.4096 26.1754L63.2529 25.7965L63.1765 25.733L63.0684 25.1516L63.0584 25.0415L63.0545 25.0335L62.8838 21.5443L62.7469 19.1375V19.1355L62.6259 17.0313L62.3729 14.1482L62.1993 12.6888L62.1953 12.6214L62.743 12.0737L63.2866 12.5569Z" fill="black"/>
<path d="M27.7717 17.637L28.24 17.6558L28.2519 17.6618L28.4156 17.6846L28.6964 17.763L28.8065 17.9108L28.8749 17.9475L29.0674 18.0279L29.0813 18.0616L29.1249 18.0854L29.1666 18.1509L29.2837 18.5497L29.249 18.7729L29.1537 19.0725L28.5515 19.51L28.5158 19.4843L28.492 19.4743L28.3938 19.4862L28.3025 19.395L28.115 19.3156L28.0981 19.2987L28.0604 19.2055L27.857 19.2283L27.6467 19.268L27.0941 19.5269L26.7856 19.7402L26.1328 20.2343L25.6447 20.8157L25.4641 21.1103L25.2359 21.7869L25.1714 22.1213L25.1178 22.8177L25.2171 23.2274L25.2786 23.3306L25.4165 23.4596L25.5454 23.533L26.1784 23.7126L26.484 23.7384L27.2201 23.6154L27.6289 23.533H27.6338L27.6348 23.532L28.4235 23.3723L29.4761 22.8881L29.6527 22.787L30.1022 22.6659L30.248 22.6778L30.3928 22.7016L30.5198 22.6868L31.1081 23.2751L31.0248 23.5767L31.0139 23.5945L30.9752 23.7662L30.8185 23.8902L30.5853 24.3168L30.378 24.4497L30.2847 24.4775L30.2609 24.5132L29.0813 25.0499L29.0059 25.0658L28.992 25.0847L28.1378 25.3744L27.9027 25.414L27.8779 25.4249L27.4384 25.4498L27.3848 25.4517L27.2568 25.4428L26.4016 25.3228H26.3977L25.9165 25.2493L25.9076 25.2394L25.8034 25.2236L25.0117 24.9735L24.9889 24.9418L24.8668 24.91L24.5762 24.7434L24.5395 24.6799L24.4353 24.6382L24.1535 24.3733L24.1069 24.2652L24.0295 24.2225L23.849 23.9348L23.7884 23.7285L23.7488 23.6967L23.6009 23.0588L23.5791 22.8802L23.5811 22.8286L23.6396 21.9625L23.6476 21.9556L23.6734 21.7869L23.8053 21.3663L23.8172 21.3573L23.8281 21.3057L24.1565 20.523L24.1704 20.5141L24.1803 20.4734L24.4045 20.0448L24.4492 20.018L24.4799 19.9307L25.0424 19.2293L25.0911 19.2065L25.1149 19.1519L25.7875 18.5259L25.8838 18.4882L25.9185 18.4277L26.3064 18.1945L26.358 18.1796L26.3709 18.1588L27.0634 17.8235L27.1517 17.8026L27.1675 17.7808L27.487 17.6776L27.74 17.637H27.7717Z" fill="black"/>
<path d="M38.1887 17.5708L38.3107 17.6789L38.4496 17.9885L38.5091 18.0391L38.6034 18.5986L38.6063 18.6353L38.6093 18.6373L38.6371 18.8903L38.6421 18.9706V18.9796L38.6381 19.2901V19.2911L38.6361 19.3328L38.5349 20.6909L38.5339 20.6919L38.5329 20.7108L38.4922 21.0937L38.4903 21.0957L38.4883 21.1195L38.3762 21.8914L38.3752 21.8924L38.3742 21.9033L38.2303 22.7575L38.2115 22.7734L38.1807 22.9311L37.889 23.6613L37.8722 23.6722L37.8593 23.7258L37.512 24.4034L37.4595 24.4351L37.4218 24.5393L37.1479 24.8746L36.9376 24.9738L36.8602 25.0929L36.6092 25.203L36.3017 25.2685L36.0457 25.2238L35.9465 25.1881L35.881 25.0939L35.7679 25.0472L35.7491 25.0026L35.6013 24.9272L35.4485 24.7189L35.4088 24.5968L35.3642 24.5671L35.1965 24.1583L35.1876 24.1107L35.1766 24.1028L34.8582 23.0938L34.629 23.6583L34.5953 23.6801L34.5675 23.7734L34.3195 24.1444L34.2699 24.1702L34.2421 24.2397L34.1419 24.3429L33.8244 24.4768L33.7679 24.5452L33.5159 24.5949L33.375 24.6087L33.1895 24.5839L33.0694 24.5512L33.0119 24.4758L32.7629 24.3736L32.5555 24.1692L32.5039 24.0472L32.4295 24.0026L32.1904 23.5651L32.1676 23.4738L32.1418 23.4559L31.8224 22.5412L31.8114 22.4767L31.8005 22.4688L31.5158 21.2723L31.5138 21.2574L31.5118 21.2564L31.3263 20.4141L31.3114 20.2802L31.3104 20.2782L31.2866 19.2742V19.2583L31.2896 19.1958L31.3769 18.3099L31.3848 18.303L31.4027 18.1918L31.4444 18.0639L31.9543 17.6998L32.491 18.1988L32.5168 18.5569L32.5188 18.5986L32.5089 18.6085L32.5515 19.1929L32.6815 20.1621L32.8145 20.9697L33.1299 22.0908L33.4544 22.9202L33.4841 22.9728L33.7788 22.4112L34.1776 21.5868L34.3334 21.4896L34.4336 21.3249L34.5715 21.2525L34.8413 21.186L35.1171 21.2564L35.1796 21.2902L35.2411 21.3953L35.3711 21.4628L35.4455 21.5689L35.4713 21.6493L35.5021 21.6691L35.6856 22.0938L36.2451 23.2883L36.3324 23.072L36.5378 22.3596L36.5487 22.3517L36.5586 22.3001L36.8473 21.5342L37.0229 20.8467L37.0874 20.5143L37.2591 19.2266L37.265 18.9538L37.266 18.9528L37.27 18.8933L37.2928 18.6839L37.2819 18.3188L37.2233 18.1531L37.1122 18.0182L37.6867 17.42L37.7591 17.417L37.7849 17.416L38.1887 17.5708Z" fill="black"/>
<path d="M40.739 18.2141L40.744 18.2171L40.9275 18.5276L40.998 18.5891L41.0476 18.9503L41.0535 19.0306L41.0506 19.0792L40.995 19.731L41.0168 20.2727L41.0773 20.8362L41.2529 21.3839L41.4613 21.8432L41.7272 22.2024L41.745 22.1815L42.0288 21.6765L42.2629 21.238L42.3175 21.2063L42.3542 21.112L42.5149 20.9394L42.7193 20.8501L42.7738 20.7757L42.8562 20.7489L43.0149 20.7251L43.0169 20.7221L43.1062 20.7192H43.1231L43.4058 20.7936L43.5219 20.86L43.5596 20.9235L43.6548 20.9652L43.9197 21.2509L43.9346 21.2886L43.9614 21.3025L44.2769 21.7371L44.6896 22.1716L45.0745 22.5258L45.3632 22.6994L45.5468 22.7311L45.6618 22.7083L45.7075 22.6776L45.8692 22.3998L46.018 21.9742L46.0597 21.7529L46.1142 21.2539L46.0924 20.7767L46.0825 20.6021L45.9347 20.1328L45.7353 19.7042L45.6767 19.4423L45.7025 19.2677L45.7085 19.2469L45.7075 19.2022V19.1993L45.7283 19.1794L45.7303 19.1715L45.7521 19.1556L46.146 18.7618L46.3702 18.8243L46.3871 18.8342H46.3881V18.8352L46.4744 18.8858L46.5081 18.9463L46.8137 19.1149L47.0875 19.5515L47.0974 19.5842L47.1113 19.5921L47.403 20.1368L47.4109 20.1646L47.4208 20.1705L47.5339 20.4086L47.5806 20.614L47.6014 20.6319L47.6778 21.1656L47.6857 21.2797V21.3134L47.6599 21.9077L47.6579 21.9137L47.649 22.0139L47.5925 22.3284L47.5835 22.3363L47.5736 22.4077L47.4069 22.9821L47.3504 23.0238L47.2819 23.2322L46.9347 23.7064L46.7561 23.7967L46.6768 23.9316L46.3345 24.1181L45.9614 24.2133L45.9605 24.2143H45.5547H45.5537L45.2253 24.1379L44.8225 23.9365L44.7967 23.8959L44.7114 23.8661L44.2957 23.5397L44.2669 23.4812L44.2044 23.4524L43.8116 22.9891L43.7927 22.9395L43.763 22.9226L43.4227 22.3918L43.254 22.1766L43.2441 22.2073L43.2371 22.2123L43.2322 22.242L42.9971 22.8502L42.9504 22.8819L42.9088 23.0109L42.6905 23.3066L42.627 23.3393L42.5933 23.4137L42.4752 23.5209L42.1468 23.6469L42.0992 23.7034L41.9722 23.7252L41.8432 23.7361L41.6815 23.7183L41.4226 23.6607L41.3819 23.6092L41.1448 23.5268L40.8779 23.3185L40.8125 23.1835L40.7093 23.124L40.3462 22.497L40.3224 22.4117L40.2976 22.3938L40.0872 21.8273L40.0723 21.741L40.0604 21.7311L39.9275 21.0793L39.9215 21.0218L39.9186 21.0188L39.8531 20.3779L39.8491 20.3164L39.8501 20.2926L39.8739 19.6943H39.8749V19.6844L39.9166 18.9939L39.9196 18.9909L39.9265 18.9185L39.9444 18.8292L39.9086 18.7935L39.993 18.5008L40.0644 18.3887L40.1864 18.3213L40.2499 18.2151L40.496 18.1516L40.739 18.2141Z" fill="black"/>
</g>
<defs>
<clipPath id="clip0">
<rect width="1500" height="1000" fill="white" transform="translate(-866 -314)"/>
</clipPath>
</defs>
</svg>
