<svg width="111" height="111" viewBox="0 0 111 111" fill="none" xmlns="http://www.w3.org/2000/svg">
<path d="M700.973 -699H-799V300.982H700.973V-699Z" fill="white"/>
<path d="M39.3627 43.465L39.4326 43.4858L39.6205 43.6066L39.6958 43.6247L39.8828 43.632H39.8837L39.9046 43.6329L40.1623 43.6583L40.2504 43.6656L40.5636 44.0032L40.225 44.3409H40.2123L40.1351 44.3382L39.8909 44.3527L39.8683 44.3536L39.8319 44.3518L39.6096 44.3291L39.605 44.3245L39.5388 44.3137L39.3727 44.261L39.3554 44.2365L39.3391 44.2311L39.1412 44.3491L38.6401 43.848L38.7 43.6102L38.7373 43.5412L39.1775 43.2798L39.3627 43.465Z" fill="black"/>
<path d="M32.4716 42.3775L32.8293 42.4428L36.7142 42.6625L36.726 42.668L36.8513 42.6825L37.0582 42.7315L37.6274 42.8068L37.6428 42.825L37.6709 42.8304L37.6882 42.8277L37.7898 42.8195L37.7935 42.8177L38.1393 42.8086H38.1584L38.5523 42.9266L38.6131 42.9666L38.8827 43.0238L39.3692 43.0828L39.3701 43.0837L39.3865 43.0855L39.6061 43.1191L40.2669 43.1799L40.2706 43.1835L40.325 43.1899L40.3614 43.1536L40.4176 43.2099L40.4739 43.2226L40.6355 43.4277L40.7135 43.5058L40.7408 43.5248L40.7444 43.5366L40.8624 43.6546L40.8361 43.6809L40.847 43.6955L40.4703 44.1693L40.3368 44.2002L40.306 44.2038L40.3033 44.2065L39.637 44.32L39.4173 44.3626L39.2884 44.3762L39.2503 44.3744L38.7338 44.3445L38.3018 44.3218L38.2745 44.31L38.1121 44.2755L37.9986 44.3036L37.9115 44.3145L37.906 44.3209L37.729 44.3427L37.6319 44.349L37.4658 44.33L37.4104 44.3182L36.8567 44.2782L36.8522 44.2755L36.8086 44.2728L36.6216 44.2474L32.7385 44.3345L32.7158 44.3354L32.6314 44.3309L32.3101 44.3027L31.3334 44.4144L31.0783 44.4942L30.7661 44.5433L30.737 44.5424L30.472 44.5351L30.354 44.5505L30.2142 44.5596L30.1434 44.5578L29.8792 44.5396L29.5089 44.5542L28.4251 44.6431L28.3289 44.7194L28.1682 45.0071L27.7371 47.2727L27.7289 47.3934L27.6481 48.0034L27.6254 48.2485L27.6245 48.2712L27.5964 49.0627L27.5955 49.0645L27.5936 49.1072L27.5201 50.0557L27.5156 50.0648L27.5101 50.1374L27.4284 50.6702L27.3613 51.2593L27.3585 51.2639V51.2675L27.2433 52.4321L27.2415 52.4348L27.2396 52.4584L27.2351 52.492L27.1398 54.9945L27.1407 55.0998L27.1425 55.1588V55.1697L27.1325 56.2254V56.2571L27.1779 59.0701L27.1888 59.0901L27.2378 59.5221L27.2451 59.6574V59.7009L27.2179 60.4198L27.2169 60.458V60.4589L27.207 61.1406V61.1478L27.1634 63.1039V63.1048V63.1221L27.157 63.2718L27.1579 63.29V63.3118V63.3127L27.1652 64.313V64.3148V64.3375L27.2723 65.3196L27.3486 65.7989L27.3567 65.896L27.3613 65.9051L27.4684 67.4164L27.472 67.5044L27.4711 67.5108V67.5843L27.4793 68.4376L27.5691 68.9758L27.5782 69.082L27.5837 69.0929L27.6635 70.1722V70.1731L27.7625 71.3222L27.767 71.4212V71.4221V71.4883L27.7788 72.1673V72.1882L27.7779 72.2199L27.777 72.2517L27.7534 73.3155L27.7489 73.3255L27.718 73.5751L27.6381 73.8937L27.4221 74.2241L27.3504 74.3966L27.2932 74.4202L27.2514 74.4847L26.5716 74.7197L25.8917 74.4847L25.85 74.4202L25.7928 74.3966L25.7183 74.2178L25.5032 73.8865L25.427 73.5833L25.3997 73.3664L25.3907 73.3482L25.3362 72.2853L25.3353 72.2544L25.3235 72.1882L25.3244 72.1319L25.3553 71.4702V71.4647L25.2835 70.3465L25.2028 69.3289L25.1093 68.7816L25.1065 68.7543L25.1038 68.7489L25.0993 68.7199L25.0857 68.5365V68.5247L25.0938 67.5843V67.5299L25.0394 66.0912L24.9758 65.6409L24.9713 65.5865L24.9686 65.5801L24.8687 64.5163L24.8633 64.4037V64.3974V64.3139V64.313L24.8705 63.3118L24.8714 63.2918L24.8724 63.2337L24.8733 63.2319L24.8751 63.1811L24.8878 63.0122L24.9659 61.1079L24.9559 60.4598V60.4571V60.4189L24.9295 59.7227L24.8978 59.3097L24.8969 59.2825L24.8896 59.1881V59.1854L24.896 56.2644V56.2245L24.886 55.1706V55.1588L24.8878 55.0971L24.8887 54.9673L24.8896 54.931L24.9985 52.3495L25.0003 52.3449L25.0049 52.2633L25.0121 52.2033L25.102 51.0633L25.1075 51.0524L25.1102 51.0179L25.112 50.987L25.1147 50.9643L25.1156 50.9607V50.958L25.1873 50.3725L25.2563 49.8252L25.3525 48.9347L25.3834 48.2095V48.1958V48.1895L25.3888 48.0751L25.4215 47.7556L25.4823 47.1302L25.4996 47.0975L25.5096 46.995L26.0279 44.3998L26.0315 44.3953L26.0333 44.379L26.0442 44.329L26.115 44.2174L26.1686 44.0186L26.518 43.4241L26.6869 43.3279L26.7912 43.1155L27.3231 42.7034L27.9014 42.5046L27.9803 42.4701L29.4245 42.4438H29.4454L29.4871 42.4447L29.9137 42.461H30.2105H30.2142L30.3485 42.4692L30.5183 42.491L30.649 42.4991L30.8278 42.4465L31.0701 42.4111L31.0856 42.4038L32.2619 42.3621H32.2983L32.4716 42.3775Z" fill="black"/>
<path d="M27.5657 70.8389L27.5122 70.8924L27.5031 70.9469L27.5303 71.2137L27.5703 71.4461L27.5712 71.4652L27.573 71.467L27.6229 71.8255L27.6284 71.9072V71.9109L27.6256 72.2521L27.6247 72.2531L27.6093 72.3892L27.543 72.6615L27.5303 73.0219L27.534 73.2316V73.2434V73.266L27.5249 73.5102L27.524 73.5139L27.5176 73.5874L27.4886 73.7807L27.5049 74.3344L27.5322 74.7746L27.5331 74.8209V75.2131V75.214L27.504 75.4273L27.4359 75.6678L27.4387 75.8621L27.4396 75.8739L27.4378 75.9138L27.3906 76.8669L27.3896 77.0866V77.0875L27.386 77.161L27.3524 77.505L27.3107 78.1458V78.1713L27.2825 79.0145L27.2744 79.0309L27.2344 79.265L27.2226 79.2977V79.2986L27.1201 79.9576L27.0547 80.013L26.8986 80.3897L26.3394 80.6221L25.7803 80.3897L25.5488 79.8305L25.5497 79.806L25.5706 79.1425L25.5742 79.1343L25.5833 79.0599L25.587 79.01L25.6078 78.8829L25.6677 78.1068L25.6696 78.0596L25.7186 77.3761L25.7195 77.3734L25.7213 77.3516L25.7585 76.9922L25.7594 76.9903L25.7603 76.9804L25.7866 76.7661L25.8511 75.8185L25.852 75.8158L25.8538 75.7895L25.8892 75.4527L25.8928 75.4463L25.9065 75.3329L25.9818 75.0315L26.0444 74.7374L26.0508 74.3562V74.3553L26.0526 74.3099L26.1025 73.6809L26.1098 73.6745L26.1288 73.5402L26.2015 73.2969L26.2478 73.1235L26.2668 72.9447L26.2686 72.9429L26.2704 72.9202L26.3376 72.4818L26.3431 72.4773L26.3494 72.4255L26.4311 72.1078L26.4865 71.841L26.4937 71.5269H26.4947V71.5142L26.5074 71.2564L26.5101 71.2537L26.5183 71.1738L26.5537 71.0104L26.4865 70.8334L26.6399 70.4939L26.6835 70.4558L26.8804 70.3814L27.0411 70.3142L27.5657 70.8389Z" fill="black"/>
<path d="M26.6305 64.1744L26.7603 64.3459L26.7612 64.3487L26.7631 64.3496L26.7957 64.3931L26.8184 64.4612L26.8493 64.4803L27.1261 65.0421L27.2187 65.4306L27.2087 65.4706L27.2314 65.5323L27.295 65.8899L27.246 66.2049L27.2341 66.2403L27.245 66.5199L27.2759 66.6805L27.295 66.8811V66.9202L27.275 67.4439L27.2578 68.3062L27.2432 69.1295L27.2233 70.4239L27.2242 70.4457V70.4765V70.4838L27.2187 71.3307V71.3733L27.2696 72.3391L27.3404 72.7394L27.3531 72.8792L27.3576 72.8892L27.3594 72.9228L27.3603 72.9391L27.413 74.3043L27.4139 74.3506V74.3751L27.3994 75.0441L27.4257 76.0979L27.4293 76.156L27.432 76.1615L27.4692 77.5366V77.5375L27.4974 78.4343L27.5001 78.5088L27.4965 78.6004L27.4656 78.998L27.452 79.3656L27.4547 79.4065L27.4493 79.5199L27.3885 80.1326L27.3567 80.6809L27.3612 81.3481V81.3562L27.3476 81.5332L27.2614 82.0987L27.245 82.5081L27.2387 82.7695L27.2632 83.07L27.4266 83.4094L27.4466 83.4975L27.482 83.5447L27.54 83.7199L27.5573 83.8215L27.5773 83.8533L27.639 84.1483L27.6653 84.1837L27.7434 84.3943L27.9195 84.8146L28.0474 84.9398L28.455 85.1686L28.4595 85.1758L28.8027 85.2466L28.8145 85.2539L28.8535 85.2584L29.0014 85.2975L29.0859 85.3528L29.2411 85.3919L29.3545 85.4527L29.6232 85.509L29.6241 85.5099L29.8628 85.5625H30.196V85.5634L30.3376 85.5716L30.786 85.626L30.7941 85.6306L30.8404 85.6342L31.3224 85.7168L31.4005 85.7622L31.6183 85.8094L31.7618 85.8738L32.5052 85.9465L32.7257 86.0581L33.1478 86.1997L33.4864 86.4566L33.962 87.4188L33.9321 87.4896L33.9348 87.4959L33.9157 87.701L33.9067 87.7501L33.7224 88.0623L33.8368 87.9543L33.8168 87.9942L33.6952 88.1068L33.6861 88.1222L33.608 88.311L33.5635 88.3292L33.5354 88.3773L33.3194 88.4553L33.2468 88.5234L33.2195 88.5343L33.294 88.4644L32.8401 88.6287L32.7929 88.6115L32.7521 88.6278L32.3572 88.5625L32.0795 88.4662L31.2607 88.3591L31.169 88.3101L30.8795 88.2429L30.6471 88.1304L30.2995 88.0296L29.9491 87.9398L29.5479 87.8771L29.5379 87.8717L29.4961 87.8681L29.1276 87.7909L29.1104 87.7809L29.0559 87.7728L28.6338 87.6548L28.4713 87.5431L28.278 87.4805L28.1863 87.4133L27.8432 87.308L27.7434 87.2871L27.6944 87.2563L27.5646 87.2309L27.4656 87.1909L27.432 87.141L27.2895 87.0992L26.8039 86.7888L26.7685 86.7235L26.6314 86.6536L26.518 86.6045L26.2656 86.3368L26.2293 86.2442L26.1622 86.2097L26.0723 86.0817L26.0124 85.8929L25.947 85.8475L25.711 85.2466L25.6293 85.0905L25.6076 85.0006L25.5685 84.9734L25.5522 84.9344L25.5268 84.8009L25.4968 84.7528L25.4233 84.4097L25.3906 84.3299L25.3888 84.3217L25.3861 84.3199L25.1691 83.7834L25.1129 83.502L25.0893 83.453L25.043 82.8948L25.0402 82.8285L25.0393 82.8267V82.8067L25.0312 82.5017V82.4709V82.4663L25.033 81.9862V81.9807L25.0393 81.3444V81.3145L25.0647 80.6119L25.0657 80.6101L25.0666 80.5856L25.1038 79.9684L25.1056 79.9656L25.1065 79.932L25.1664 79.3066L25.17 78.9708L25.141 78.605L25.1374 78.5088L25.141 78.4216L25.1673 77.562L25.1446 76.2441L25.1392 76.1515V76.1442L25.1455 75.0541V75.0432L25.1319 74.3924L25.062 73.0462L25.0611 73.0335L25.0539 73.0172L25.0257 72.5579L24.9204 71.5213L24.9141 71.4078V71.4069L24.9132 71.3298L24.9077 70.4847V70.4765L24.9086 70.4466L24.9095 70.3985V70.3976L24.9104 70.3667L24.9821 69.0732L24.9876 68.2745L24.9885 68.2726L25.0039 68.0938L25.151 67.2279L25.2318 66.7141L25.2345 66.7087L25.2363 66.6869L25.2699 66.5099L25.2899 66.184L25.2753 66.1178L25.249 65.8899L25.338 65.4733L25.4514 65.2182L25.525 65.171L25.5567 65.0857L25.5712 65.0349L25.5794 65.0222L25.5849 65.0085L25.5985 64.9913L25.7709 64.6545L25.7301 64.4766L26.2311 63.9756L26.6305 64.1744Z" fill="black"/>
<path d="M33.3819 86.7409L33.5008 86.7446L33.5126 86.7564L33.6097 86.7663L33.6197 86.7781L33.7541 86.8172L33.8258 86.8626L33.853 86.9125L33.912 86.9406L33.9583 86.9996L34.0445 87.2474L34.0309 87.3527L34.0128 87.4172L34.0001 87.4271L33.9864 87.4852L33.9048 87.6513L33.8303 87.6976L33.7777 87.7975L33.6996 87.8519L33.5417 87.9019L33.5262 87.92L33.4309 87.9318L33.3774 87.9355L33.1005 87.8247L33.0588 87.7839L33.0424 87.7684L33.0079 87.7439L32.8037 87.34L32.8064 87.2919L32.8219 87.1303L33.3202 86.6792L33.3819 86.7409Z" fill="black"/>
<path d="M34.208 86.8692L33.707 87.3703L33.4628 87.3067L33.382 87.2613L33.3466 87.2014L33.3312 87.1914L33.146 86.8592L33.1787 86.8256L33.3847 86.4753L33.461 86.4326L33.707 86.3682L34.208 86.8692Z" fill="black"/>
<path d="M51.9402 85.8899H52.3832H52.5275L52.6074 85.8926L53.5913 85.9625L53.5959 85.9643L53.6403 85.967L53.7647 85.9816L53.7919 85.9961L53.929 86.0142L54.549 86.1858L54.7777 86.341L54.9583 86.41L55.0037 86.4953L55.0972 86.5589L55.1853 86.8185L55.2942 86.9973L55.3078 87.0608L55.3296 87.2714L55.1371 87.7362L55.1008 87.8424L55.0899 87.8505L55.0364 87.9803L54.6733 88.1301L54.5517 88.2127L54.5471 88.2136L54.4346 88.229L54.3284 88.2735L54.2213 88.2526L53.6013 88.2399L53.5977 88.2381L53.4661 88.229L53.3889 88.2181L52.4894 88.1582H52.3832H52.0246L51.5581 88.229H51.5572L51.0498 88.3135L50.8564 88.3307H50.8501L50.7566 88.3298L50.703 88.328L50.457 88.3153L50.4561 88.3144L50.4362 88.3135L49.7953 88.2663L49.3869 88.377L49.336 88.3843L49.3215 88.3933L49.2316 88.4133L49.0592 88.4324L49.0447 88.4387L47.7231 88.515L47.7194 88.5159L47.6459 88.5268L47.4662 88.5404L47.4244 88.5395L45.9349 88.4859L45.8668 88.4841H45.8532L45.2006 88.456H45.1416H45.1352H45.1062L44.0614 88.4296L43.9479 88.4378H43.947L42.3849 88.4442H42.3803H42.3749L42.3231 88.4433L41.4436 88.4405H41.3601H41.263H41.2602L41.1649 88.436L40.191 88.3534L40.1828 88.3498L40.1147 88.3443L40.0258 88.3307L40.0249 88.3298L39.7952 88.2926L38.3765 88.2045L37.919 88.1864L37.1901 88.1964H37.1747L37.0539 88.19L36.542 88.1328L36.0473 88.1192L35.0216 88.1945L34.9889 88.1955L34.9871 88.1964L34.3454 88.2236L34.3009 88.2245L34.093 88.2027L33.69 88.1165L32.8168 88.0774L32.8159 88.0765H32.7977L32.2749 88.0411L32.2386 88.0239L31.9944 87.9767L31.4961 87.7788L31.4353 87.7588L31.359 87.7688L31.1276 87.8532L30.9125 87.8914L30.8843 87.9041L30.5639 87.925L30.4477 87.9358L29.8277 87.6799L29.5718 87.0599L29.786 86.4863L29.8432 86.42L29.8686 86.4082L29.8804 86.3801L30.4423 86.1477L30.5984 86.2103L30.6565 86.2058L30.8907 86.1295L30.9469 86.1204L30.9542 86.1114L31.3046 86.0242L31.5206 85.997L31.5542 85.9979L31.8465 86.0088L31.8619 86.0161L32.0734 86.0469L32.4946 86.1749L32.8604 86.1858L33.7808 86.154H33.8162L33.9614 86.164L34.3653 86.2248L34.8809 86.213L35.8776 86.105L36.414 86.0052L36.6173 85.9861L36.6763 85.9879L37.2128 86.017L37.919 86.027L38.3892 86.0088L38.4337 86.0079H38.4409L39.9323 86.0179L39.9359 86.0197L40.2264 86.0587L40.4605 86.1223L41.3047 86.1858H41.3601H41.4436L42.3241 86.1822H42.374H42.3803H42.384L43.9479 86.1885H43.9488L44.0632 86.1958L45.1052 86.1704L45.1352 86.1695H45.1406L45.2015 86.1704L45.8514 86.1422H45.8677L45.8686 86.1413L45.9394 86.1395H45.9757L46.0229 86.1404L47.4099 86.1958H47.4108L47.4725 86.1912L47.4789 86.1885L47.5315 86.184L47.5887 86.1813L47.5914 86.1804L48.8441 86.1368L48.8595 86.1359L48.8631 86.1332L49.4232 86.0279L49.4731 86.0233L49.4822 86.0179L49.5385 86.0106L49.7 85.9988L49.7581 86.0006L50.5814 86.0424L50.5832 86.0433L50.605 86.0442L50.7738 86.056L51.1896 85.987L51.2141 85.9852L51.2186 85.9825L51.7696 85.9026L51.9393 85.8899H51.9402Z" fill="black"/>
<path d="M83.6915 82.9389L83.9066 83.0278L83.9157 83.0505L83.9457 83.065L84.0065 83.1458L84.2253 83.7975L84.2489 83.8547L84.07 84.4765L83.8976 84.7506L83.8948 84.7515L83.854 85.0411L83.7551 85.2217L83.7151 85.3905L83.6316 85.5603L83.6189 85.6565L83.5372 85.8072L83.4428 86.1212L83.4238 86.1494L83.3257 86.202L83.2758 86.2946L83.2513 86.3491L82.8474 86.7167L82.8029 86.7339L82.7865 86.7684L82.3354 87.1224L82.2692 87.146L82.2474 87.1851L81.9487 87.3766L81.8126 87.4165L81.7155 87.4892L81.5031 87.5654L80.9875 87.7842L80.845 87.8132L80.8059 87.8404L79.9609 88.0891L79.7448 88.1209L79.6704 88.1554L79.1621 88.1863L78.9406 88.2444L78.878 88.2525L78.8617 88.2616L78.3706 88.3569L78.1428 88.3796L78.0992 88.3714L77.9304 88.386L77.8278 88.3905L77.7379 88.3869L76.8093 88.3143L76.7867 88.3034L76.6187 88.2825L76.596 88.277L76.5207 88.2634L76.1694 88.2652L76.0532 88.2725L76.0224 88.2716L74.433 88.2289H74.3704L73.9728 88.2317H73.9637L73.9074 88.2298L73.1513 88.1935L73.1386 88.1881L73.0959 88.1835L72.6503 88.1754L72.5994 88.1772H72.5604H72.5241L72.1973 88.1672L72.1946 88.1654L72.1365 88.1636L71.2088 88.0855L70.1368 88.1082H70.1096H70.1069L69.6276 88.1073H69.6267L69.5133 88.1018L69.476 88.0982L68.7281 88.0692L68.6809 88.0701H68.6655L68.6264 88.0692L67.9647 88.0474L67.9611 88.0456L67.8948 88.0428L67.8322 88.0365L66.2882 87.9866L66.2782 87.982L66.1566 87.9693L65.199 87.9149L65.1345 87.913L64.3312 87.8994L64.3303 87.8985L64.2931 87.8976L64.2386 87.8949L63.7566 87.8776L63.7521 87.8758L63.6622 87.8704L62.8961 87.7787H62.8861H62.8725L62.4586 87.8096L62.3715 87.8123L62.3097 87.8105L61.4374 87.7624L61.4293 87.7587L61.3476 87.7524L60.7757 87.7424L60.655 87.7433L60.2856 87.7497H60.2665L60.2338 87.7488L59.2581 87.7197L59.2562 87.7188L59.2136 87.717L59.1854 87.7152L58.0944 87.6843L57.7322 87.7016L57.6896 87.7143L57.4091 87.7551L57.3582 87.7542L56.5259 87.7106L56.3307 87.7034L56.0838 87.7905L55.9822 87.8087L55.9513 87.8268L55.4866 87.9167L55.3195 87.933L55.2823 87.9321L54.7731 87.9103L54.0306 88.0782L53.8436 88.1L53.8091 88.0991L53.3598 88.0801L53.3517 88.0764L53.2373 88.0646L52.8869 87.9929L52.8715 87.9739L52.7444 87.9475L52.5928 87.8831L52.473 87.8395L52.3977 87.7306L52.1272 87.5463L52.0981 87.4728L52.0527 87.2332L52.2415 86.7766L52.3314 86.7394L52.335 86.7312L52.3368 86.7303L52.365 86.6804L52.4866 86.6069L52.7408 86.5361L52.8052 86.5043L52.9849 86.4916L53.0439 86.4889L53.0902 86.4907L53.3753 86.5079L53.7247 86.468L54.5507 86.3173L54.5925 86.3128L54.5988 86.3091L55.1344 86.2411L55.5083 86.1212L55.5129 86.1203L55.5138 86.1194L55.9223 85.9878L56.062 85.966L56.0911 85.9506L56.4542 85.907L56.4741 85.9052L56.476 85.9043L57.2611 85.8244L57.331 85.8099L57.3927 85.8036L57.4318 85.7809L57.9219 85.7028L58.0036 85.6964L58.0118 85.6928L59.16 85.6084H59.1618H59.1627L59.2099 85.6048L59.2581 85.603L59.2599 85.602L60.2329 85.573H60.2665H60.2847L60.655 85.5784L60.7884 85.5794H60.7975L61.4483 85.5884L61.452 85.5902L61.5346 85.5966L62.3206 85.5621H62.3279L62.7854 85.544L62.8308 85.543H62.8861L62.956 85.5421H62.9705H62.976L63.7829 85.5467L64.2404 85.5303L64.2903 85.5276L64.353 85.5258L64.4229 85.5276L65.2353 85.5757L65.2661 85.5902L65.3569 85.6057L66.2192 85.6347L66.3281 85.6238L66.398 85.6256L67.9792 85.7191L67.9838 85.721L68.0401 85.7246L68.08 85.7291L68.6818 85.7364L68.7281 85.7373L69.5105 85.7073L69.5577 85.7064L69.6122 85.7082L69.6866 85.711L69.6893 85.7128L69.7302 85.7146L70.1732 85.7509L71.2197 85.7736L71.2733 85.7745V85.7754H71.2923L72.2808 85.8154L72.6003 85.8262L72.6748 85.8281L73.184 85.839L73.1913 85.8417L73.2857 85.8508L73.9964 85.8852L74.3704 85.888H74.4484L74.5074 85.8889L76.0487 85.966H76.0687L76.0705 85.9651L76.5788 85.9479L76.6205 85.947L76.7885 85.9588L77.0172 85.9924L77.0345 86.0014L77.8496 86.0831L77.9512 86.0768L77.9621 86.0713L78.4568 85.9933L78.4841 85.9905L78.4877 85.9887L78.8253 85.9424L78.9134 85.9361L78.9197 85.9334L79.4889 85.9016L80.1479 85.6955L80.1923 85.6883L80.1969 85.6856L80.7651 85.5022L80.7678 85.5013H80.7687L80.9049 85.4568L81.0392 85.3733L81.4068 85.0865L81.5103 84.9893L81.5303 84.9222L81.5621 84.8759L81.582 84.7851L81.6084 84.727L81.6383 84.1797L81.7254 83.9918L81.8897 83.5234L81.956 83.4399L82.0976 83.2193L82.1956 83.1658L82.2528 83.0278L82.8283 82.7891L83.0688 82.6284L83.6915 82.9389Z" fill="black"/>
<path d="M77.8584 42.0408L77.9083 42.0435L77.9156 42.0472L77.99 42.0526L78.3213 42.1016L78.3458 42.1161L78.4511 42.1307L78.6018 42.1733L78.8832 42.196L79.2699 42.177L79.3252 42.1761L79.6638 42.2305L79.6865 42.2378L79.7691 42.2995L79.8898 42.3322L80.242 42.5428L80.2947 42.6363L80.4354 42.6944L80.7331 43.4123L80.7322 43.4623L80.7276 43.5494L80.5325 43.9742L80.449 44.1757L80.4381 44.1803L80.4326 44.1912L79.7737 44.4553L79.4251 44.3899L79.397 44.379L79.1755 44.3191L78.8823 44.3173L78.4475 44.3337H78.4067L77.9437 44.2302L77.8375 44.1803L77.7822 44.1712L77.734 44.1748L77.203 44.2574L77.0288 44.271L76.9271 44.2665L76.6248 44.2384L76.6021 44.2266L76.5849 44.2247L75.9677 44.2456L75.905 44.2502L75.8969 44.2547L75.246 44.3028L74.676 44.3709L74.6669 44.3736H74.666L74.6052 44.3899L74.4972 44.4045L74.4745 44.4163L73.5623 44.5461H73.5614L73.2691 44.5914L73.1365 44.6287L72.9786 44.6514L72.9514 44.665L72.3015 44.7349L72.2098 44.7403L72.2071 44.7412L72.1626 44.743L71.1369 44.812L71.057 44.8202L70.9862 44.8238L70.9826 44.8247L69.8053 44.8683L69.7517 44.8737L69.6483 44.8792L69.6474 44.8801L68.7297 44.8892H68.7215H68.6443H68.6407H68.6362L67.7975 44.8855L67.7239 44.8874L67.3835 44.8937L66.9678 44.9137H66.9597L66.9587 44.9146L66.3824 44.9382H66.366V44.9391L66.2998 44.9409H66.2943L66.1518 44.9445H66.1228L66.0356 44.9409L65.2459 44.8783L65.2223 44.8665L65.068 44.8465L64.488 44.7939H64.4798L64.478 44.793L64.458 44.7911L64.3682 44.7857L63.8571 44.7231L63.0792 44.6396L62.5346 44.6486H62.521L61.8248 44.6514H61.8203L61.7077 44.645L61.6759 44.6423L61.0523 44.6123H60.9824L60.2581 44.6223H60.2418H60.2363H60.0974L60.0965 44.6214H60.0702L59.6145 44.6078L59.5918 44.5978L59.2705 44.5388L59.1906 44.5088L58.6333 44.4426L58.5553 44.4371L57.515 44.4235H57.5132L57.4252 44.419L57.3426 44.4099H57.3398L56.6482 44.3337L56.6219 44.3355H56.62L55.7187 44.3582H55.6915H55.686L55.6034 44.3573L55.1913 44.3636H55.1759L55.0543 44.3564L54.3 44.2701L54.28 44.2592L54.1683 44.2456L54.0149 44.2075L53.3632 44.2738L53.2516 44.2792H53.2488H53.1853L52.7405 44.3073L52.6688 44.3101L52.5009 44.2964L52.2204 44.2529L51.2501 44.3001L51.1729 44.3064L51.0849 44.3101L51.0023 44.3064L50.3097 44.2529L49.7469 44.2474L49.5 44.2865L49.3503 44.2983L49.3466 44.3001L48.6876 44.3101H48.6704L48.556 44.301L47.3325 44.3627L47.3025 44.3663L47.2617 44.3682L47.2589 44.3691L46.3903 44.4181L46.3285 44.4199H46.3222L45.7394 44.4172L45.7367 44.4163L45.6278 44.4017H45.6105L43.4393 44.2157L43.4266 44.2093L43.3259 44.1984L42.8539 44.1004L42.2747 44.084L41.1102 44.0686L41.1074 44.0677L40.9849 44.0586L40.6291 44.0042L39.9637 43.937L39.9365 43.9243L39.7895 43.9016L39.3538 43.7636L38.0857 43.6483L36.9611 43.691L36.9338 43.6919L36.8839 43.6901L36.4028 43.6538L36.2685 43.7046L35.7656 43.2281L35.7602 43.1337L35.7593 43.1028L35.9644 42.6744L36.0552 42.6018L36.2413 42.5355L36.2776 42.4892L36.7568 42.3621L36.8467 42.3503L36.8531 42.344L38.0149 42.2033L38.0621 42.2006L38.0657 42.1987L39.4718 42.1225L39.519 42.1216L39.6097 42.1261L40.0999 42.1806L40.7362 42.1742H40.7462L40.8823 42.1842L41.19 42.2296L42.2902 42.2251H42.2938H42.2965L42.9673 42.2269L43.0109 42.2278L43.5691 42.2559L45.7349 42.3276L45.7431 42.3313L45.7993 42.3367L46.3149 42.3431L47.1355 42.3113L47.1573 42.3095L48.4698 42.1633L48.5932 42.1561L48.7085 42.1624L48.7539 42.167L49.2876 42.1924L49.4147 42.1761L49.4601 42.167L49.5845 42.1543L49.5972 42.1479L50.2779 42.0998L50.3578 42.0971L50.4722 42.1034L51.2029 42.1815L51.2138 42.186L51.2238 42.1879L52.1759 42.1234L52.225 42.1216L52.2259 42.1207L52.2658 42.1198H52.2921H52.3021L52.6797 42.1234L52.6806 42.1243L52.7605 42.127L53.198 42.1643H53.2143L53.9659 42.1125L54.0413 42.1098L54.073 42.1107L54.1366 42.1125H54.1447L54.4733 42.1261L54.4788 42.1279L54.5705 42.1343L55.2549 42.226L55.6034 42.2305L55.686 42.2296H55.6915H55.6933L56.5964 42.2314L56.8125 42.2541L56.8697 42.2659L57.6112 42.3903L58.5607 42.3885L58.6533 42.3812L58.7359 42.3776H58.7477L59.4611 42.3857L59.4711 42.3903L59.8397 42.4602L59.9168 42.4901L60.1682 42.5228H60.2363H60.2418H60.2572L60.9824 42.5328H61.0605L61.7222 42.511H61.7585L61.823 42.5128L61.8811 42.5164L62.551 42.5482L63.1074 42.5573H63.1101L63.1373 42.5582L63.9897 42.5591L64.0704 42.5627L64.5352 42.5981L64.5497 42.5972L64.5951 42.599L65.2995 42.6281L65.3113 42.6326L65.4783 42.6499L65.5346 42.6617L66.2153 42.7597L66.2653 42.7606L66.7336 42.688L66.8807 42.6762L66.8852 42.6735L67.3173 42.6635H67.3454H67.369L67.7258 42.6708L67.7975 42.6717L68.6362 42.6689H68.6407H68.6443H68.7188L69.5684 42.6671L69.5902 42.6644L69.6809 42.659L69.6855 42.6571L70.8646 42.6099L70.9299 42.6036L71.0098 42.6L71.0125 42.5981L72.0791 42.5673L72.1127 42.5664L72.1399 42.5673H72.1408L72.6301 42.5192L72.7063 42.4974L72.7934 42.4847L72.817 42.4711L72.8624 42.462L73.0285 42.4466L73.0358 42.4429L73.319 42.4357L74.1305 42.3222L74.1414 42.3195L74.1831 42.3077L74.3701 42.2804L74.3964 42.2677L75.0291 42.2142L75.6518 42.1261L75.6881 42.1198L75.8043 42.1098L75.8143 42.1043L76.5795 42.059L76.6475 42.0562L76.82 42.0771L77.0034 42.0789L77.5471 42.0472H77.5661L77.567 42.0463L77.7404 42.039L77.7876 42.0381L77.8584 42.0408Z" fill="black"/>
<path d="M34.495 31.1102L34.4968 31.1129L34.4996 31.1147L34.5831 31.3153L34.7573 31.7238L34.7601 31.9035V31.918V31.9326L34.7156 34.7401L34.7147 34.7419L34.7101 34.8209L34.652 35.3791L34.5876 39.146L34.5867 39.147L34.5858 39.1787L34.5259 40.287L34.515 40.8779L34.5776 40.9478L34.7301 41.3481V41.3717L34.7138 41.7747L34.712 41.7757L34.7065 41.8455L34.6675 42.0825L34.4914 42.2304L34.4823 42.7269L34.4796 42.7324L34.4569 42.9203L34.3943 43.1799L34.3026 43.2516L34.1655 43.5811L33.5528 43.8352L32.9392 43.5811L32.6851 42.9684V42.9593L32.696 41.9018L32.6914 41.8283L32.6996 41.7076L32.7241 41.5387L32.7341 40.2471L32.7359 40.1972L32.8067 39.1007L32.8058 38.3219L32.7177 37.5067L32.7132 37.4223V37.4142L32.7205 36.7724L32.7214 36.0798L32.7223 36.0435L32.7359 35.7721L32.7432 35.7567L32.7668 35.5942L32.8031 35.4735L32.8022 35.3237V35.3228L32.8049 35.2593L32.8439 34.6784L32.9229 31.8908L32.9329 31.8681L32.9982 31.5513L33.0717 31.3807L33.1716 31.3162L33.2551 31.1147L33.8778 30.8569L34.495 31.1102Z" fill="black"/>
<path d="M39.7958 19.0668L40.1026 19.8057L40.0681 20.0716L39.9892 20.3721L39.9093 20.4919L39.8566 20.6744L39.5616 21.1464L39.4436 21.2108L39.3728 21.3715L38.7447 21.9479L38.6639 21.9796L38.634 22.0368L38.4152 22.1911L38.1919 22.5533L37.4739 23.7751L36.6298 25.5006L36.6152 25.5097L36.6062 25.546L36.2948 26.0969L36.1278 26.5118L36.1224 26.5145L36.1196 26.5299L35.8791 27.0809L35.3036 28.4188L35.1003 28.9517L35.0013 29.411L34.9895 29.42L34.9777 29.4954L34.8543 29.8639L34.7254 31.299L34.7109 31.8672L34.6991 31.8953L34.6128 32.223L34.4967 32.43L34.385 32.656L34.3378 33.216L34.3732 33.4711L34.3787 33.551L34.3796 33.5537L34.3877 33.8877L34.3886 33.905L34.356 34.1138L34.2661 34.3924L34.0755 35.0632L33.746 35.3092L33.6806 35.3982L33.6589 35.4054L33.657 35.4072L33.6471 35.409L33.5808 35.4299L33.4283 35.4535L32.9272 34.9525L33.0906 34.7891L33.0053 34.3189L32.9944 34.1991L32.998 34.1319L33.0216 33.9032L32.998 33.6617L32.9463 33.3558L32.9354 33.2342L32.9363 33.1997L32.9744 32.4236L32.9862 32.3982L33.0298 32.184L33.1578 31.8799L33.176 31.7792L33.1723 31.2599V31.2536V31.2463L33.1868 29.6824L33.1887 29.6787L33.2195 29.4573L33.343 29.0306L33.4292 28.5468L33.4356 28.5378L33.4392 28.5014L33.5962 27.8561L33.6153 27.8415L33.6362 27.7353L34.1917 26.372L34.375 25.8727L34.4948 25.4225L34.543 25.3508L34.5756 25.221L34.8888 24.6365L35.6785 22.881L35.6894 22.8737L35.6975 22.8428L36.3574 21.5476L36.6234 20.9694L36.8104 20.8504L36.9538 20.5627L37.2815 20.3167L37.7299 19.8601L37.9505 19.4952L38.0322 19.449L38.083 19.3201L38.2881 19.0968L38.3081 19.0877L38.3172 19.0668L39.0569 18.76L39.7958 19.0668Z" fill="black"/>
<path d="M57.116 13.1221L57.4291 13.1657L57.5108 13.2093L57.7523 13.2673L57.9937 13.3899L58.1462 13.4171L58.3668 13.4099H58.4022L58.4439 13.4108L58.5029 13.4126L58.5102 13.4162L58.62 13.4253L58.9332 13.4752L59.2808 13.6722L59.4542 13.7448L59.4687 13.7793L59.5059 13.8002L59.7365 14.4256L59.495 15.0628L59.466 15.0782L59.4542 15.1063L59.2654 15.1844L58.896 15.3805L58.5919 15.4195L58.5056 15.4249L58.5011 15.4277L58.4466 15.4295L58.4022 15.4304H58.3686L58.0364 15.4195L58.0355 15.4186L58.0001 15.4177L57.588 15.3877L57.5435 15.3669L57.2739 15.3133L56.9453 15.1771L56.9154 15.169L56.3962 15.2643L56.3136 15.2715L56.3036 15.277L55.6582 15.3378L55.5593 15.3423L55.5175 15.3414L55.4785 15.3396L55.1798 15.336L54.2903 15.4912L54.1914 15.4994L54.1823 15.5039L54.1124 15.5085L54.0425 15.5112L53.9971 15.5103L53.0758 15.4676L52.9387 15.5012L52.798 15.5184L52.7799 15.5275L51.8667 15.6056L51.2985 15.7036L51.2558 15.7072L51.2486 15.7109L51.1814 15.72L51.1279 15.7227L51.1224 15.7254L50.9608 15.7372H50.9599L50.1448 15.8053H50.143L50.1367 15.8062L50.0858 15.8316L49.3234 15.9033L49.2244 15.9078L49.17 15.9069L48.8223 15.8879L48.3458 16.0304L48.2078 16.0504L48.1797 16.0649L47.8093 16.1121L47.6813 16.1202L47.5461 16.1084L47.1939 16.2101L46.9588 16.2437L46.9488 16.2473L46.5848 16.2555L44.9737 16.5832L44.7513 16.6385L44.3537 16.752L44.1195 16.8918L43.9643 16.9345L43.9343 16.9744L43.4251 17.1351L43.1455 17.2531L42.7788 17.5163L42.6735 17.5508L42.6454 17.5944L42.1434 17.8285L41.666 18.2951L41.6279 18.3114L41.6124 18.3432L41.0987 18.7607L41.0342 18.7834L41.0134 18.8207L40.9181 18.8778L40.8963 18.9387L40.0367 19.9762L39.9178 20.1314L39.689 20.4645L39.6146 20.5035L39.5738 20.5952L39.1644 20.9592L39.1163 20.9783L39.0981 21.0118L39.0654 21.0345L38.9856 21.1707L38.844 21.2515L38.7623 21.3967L38.5989 21.4975L38.2667 21.5919L37.9944 21.3196L37.9481 21.3005L37.929 21.2542L37.6367 20.9619L37.7838 20.5562L37.8863 20.4345L37.9871 20.2848L38.0043 20.2757L38.0134 20.2485L38.0788 20.165L38.1505 20.0606L38.1577 20.0569L38.1614 20.0461L38.4881 19.6031L38.5326 19.5804L38.5553 19.5241L38.8358 19.2391L38.9529 19.1075L39.738 18.0337L39.8043 18.0001L39.8388 17.9229L39.9514 17.8222L40.1211 17.6652L40.5695 17.2031L40.5886 17.195L40.5967 17.1768L41.1813 16.6322L41.253 16.6031L41.2802 16.5541L41.8466 16.1774L41.8494 16.1765L41.8503 16.1756L42.3014 15.8761L42.3177 15.8715L42.3223 15.8634L42.6872 15.6346L42.8151 15.5965L42.8433 15.5566L43.3743 15.3587L43.4061 15.3532L43.4106 15.346L43.7265 15.2416L44.1604 15.0355L44.3092 15.0011L44.3682 14.9657L44.577 14.9248L46.1873 14.4138L46.4786 14.3684V14.3675H46.7709L47.1676 14.2304L47.2946 14.2095L47.3291 14.1896L47.5134 14.1587L47.5806 14.1533L47.5887 14.1487L47.8792 14.1215L48.3984 13.9763L48.4819 13.9654L48.5028 13.9527L48.5591 13.9436L48.6081 13.939L48.6163 13.9354L49.1019 13.8782L49.1936 13.8728L49.1963 13.8719L49.9533 13.851L49.9705 13.8501L50.7521 13.7493L50.7684 13.7475L50.7702 13.7466L50.9146 13.7303L50.9581 13.723L51.0044 13.7194L51.0108 13.7157L51.6271 13.6468L51.6525 13.6449L51.6552 13.644L52.5384 13.5669L52.7608 13.5133L52.8225 13.5061L52.8362 13.4988L52.8706 13.4925L53.0368 13.4788L53.0921 13.4807L54.0035 13.5315L54.883 13.3436L55.0809 13.3227L55.0854 13.32L55.4794 13.3145L55.5057 13.3136L56.0694 13.2773L56.7084 13.1375L56.9317 13.113H56.978L57.116 13.1221Z" fill="black"/>
<path d="M73.0023 38.7498L73.0259 38.7398L73.7992 39.0602L74.1196 39.8345L74.1042 39.8817L74.1088 40.0342L74.1097 40.0669L74.106 40.1558L74.0724 40.557L73.9499 40.8066L73.8183 41.1634L73.8138 41.1661L73.7239 41.5873L73.7112 41.6081L73.7012 41.6726L73.4852 42.3642L73.3663 43.0287L73.3399 43.2347L73.1666 43.5588L73.0849 43.7612L72.9442 43.9073L72.9369 43.9101L72.9342 43.9173L72.3342 44.166L71.7487 43.9318L71.7442 43.9209L71.7342 43.9173L71.6571 43.7321L71.4864 43.36L71.4764 43.1603L71.4746 43.1104L71.4791 43.0178L71.4873 42.9406L71.4882 42.9034L71.5009 42.6465L71.5027 42.642L71.5173 42.0974L71.5209 42.0892L71.5427 41.8986L71.7043 41.2051L71.7687 40.4426L71.7769 39.7546L71.9938 39.2427L72.0928 39.0048L72.0955 39.003L72.0964 39.0003L72.8552 38.689L73.0023 38.7498Z" fill="black"/>
<path d="M60.7772 13.3609L61.2328 13.6187L61.3091 13.6332L61.4806 13.6486L61.5451 13.6804L61.8746 13.7476L61.9381 13.7739L61.9753 13.8047L62.0298 13.8174L63.2507 14.4592L63.4549 14.5336L63.6201 14.6607L63.8044 14.7242L64.1738 15.012L64.2827 15.0428L64.3417 15.0828L64.4588 15.1091L64.4915 15.1236L64.5986 15.2171L64.7084 15.2534L65.6152 15.9242L65.6425 15.9796L65.7169 16.0086L65.7632 16.0513L65.7913 16.1157L65.8521 16.143L66.1626 16.4952L67.397 17.6225L67.4433 17.7287L67.5595 17.7841L67.9952 18.3178L68.0224 18.3968L68.0715 18.4231L68.5253 19.1148L68.5298 19.1311L69.0545 19.7874L69.1144 19.8555L69.1217 19.8754L69.138 19.8836L70.3825 21.3722L70.4514 21.4512L70.4941 21.5619L70.5649 21.601L71.4054 22.9153L71.449 22.9798L71.4717 23.0515L71.5062 23.0714L71.7958 23.5843L71.8139 23.6542L71.8402 23.6705L71.8729 23.7404L72.2106 24.413L72.236 24.4584L72.256 24.5356L72.2841 24.5528L72.7407 25.5676L72.7661 25.6829L72.8042 25.7383L73.0974 26.7522L73.396 27.4366L73.4069 27.4584L73.4287 27.5509L73.4668 27.6027L73.6892 28.2408L73.7128 28.376L73.7382 28.4187L73.7528 28.4931L73.7555 28.5158L73.7582 28.5204L73.8118 28.8108L73.8136 28.829L73.8154 28.8326L74.0577 30.2396L74.0596 30.2595L74.0614 30.2632L74.1685 30.9303L74.1748 31.0102L74.1848 31.0955L74.1921 31.1119L74.2266 31.7826L74.2311 31.819L74.2366 31.8979L74.2393 31.9043L74.3128 33.087L74.3155 33.1714V33.1941L74.2965 34.2679V34.3188L74.3119 34.8107L74.3128 34.8534L74.2611 35.1938L74.2665 35.8174V35.8283L74.2656 35.8791L74.2502 36.2485V36.2667L74.2484 36.2703L74.2474 36.2867L74.2375 37.7054V37.7099L74.2229 38.8872L74.222 38.889V38.8936V38.8972L74.2157 39.4082L74.2102 39.42L74.1394 39.804L74.0577 40.02L74.0532 40.0255L74.0514 40.0345L74.0314 40.0845L74.0323 40.296V40.3014L73.8299 40.945L73.8072 40.9622L73.8853 41.2799L73.9143 41.5186L73.8726 41.8037L73.6447 42.5543L73.6039 42.5843L73.5594 42.744L73.3361 43.1189L73.3062 43.1362L73.2889 43.1879L73.239 43.2532L73.2345 43.2687L73.2181 43.2805L73.2027 43.3005L73.1491 43.4475L73.1128 43.4911L72.6181 43.7216L72.1616 43.5328L72.0526 43.2687L71.9882 43.2178L71.96 43.0908L71.9555 43.0499L71.823 42.8239L71.9246 42.7222L71.9228 42.2965V42.2929L71.9237 42.2611L71.9473 41.604L71.8774 41.2726L71.8738 41.2382L71.8693 41.23L71.8048 40.8587L71.8003 40.8052L71.7967 40.797L71.7703 40.5655L71.7631 40.4457L71.7712 40.3214L71.7821 40.2297L71.7839 39.863V39.8612L71.7948 39.7096L71.8339 39.4309L71.8684 39.3683L71.9056 39.1849L71.902 38.9281V38.9272L71.8466 37.7562L71.7658 36.3511V36.3502L71.764 36.332V36.3211L71.7613 36.2685L71.7603 36.2649L71.7594 36.2467L71.7449 35.8818L71.744 35.8283V35.8174L71.7504 35.0295L71.7486 34.867V34.8534L71.7495 34.8125L71.7649 34.3188V34.2915L71.7068 33.2495L71.6287 32.1022L71.6224 32.0495L71.6187 31.9851L71.616 31.9796L71.5715 31.2662L71.5688 31.1881L71.4926 30.6625L71.4917 30.6507L71.4908 30.6489L71.292 29.2347V29.2338L71.2475 28.9606V28.9588L71.2448 28.9425L71.095 28.386L71.0896 28.3779L70.8182 27.6236L70.8127 27.5936L70.8036 27.5809L70.7918 27.5482L70.7882 27.5228L70.7818 27.5128L70.4696 26.4799L70.0947 25.5431L70.0838 25.5222L69.718 24.8396L69.7035 24.7834L69.6835 24.7707L69.6636 24.7271L69.4112 24.2651L69.3776 24.2106L68.5861 22.9834L68.568 22.9634L68.5607 22.9444L68.5453 22.9371L67.2908 21.4566L67.22 21.3777L67.211 21.3523L67.1901 21.3423L66.6019 20.6325L66.5592 20.5145L66.4984 20.4827L66.4948 20.4763L66.4902 20.4736L66.4748 20.4473L66.07 19.86L65.696 19.4416L64.4298 18.3078L64.3989 18.2389L64.3299 18.208L64.054 17.8976L63.375 17.4256L63.1826 17.362L63.0283 17.2486L62.8522 17.1923L62.4374 16.8945L62.3067 16.8501L62.2604 16.8156L62.1769 16.7965L61.0776 16.2746L60.8879 16.2583L60.523 16.1938L60.4041 16.1248L60.1309 16.0558L59.7932 15.8743L59.5845 15.8788H59.5554L59.5246 15.8707L59.2922 15.9669L58.6323 15.6937L58.5288 15.445L58.5116 15.4377L58.4843 15.3723L58.4344 15.3433L58.4081 15.2934L58.3917 15.2816L58.3827 15.2462L58.3473 15.1808L58.2547 14.8177L58.1748 14.6253L58.5007 13.8238L58.6314 13.6895L58.8411 13.6014L59.3022 13.3246L59.8459 13.2147L60.1182 13.1875L60.7772 13.3609Z" fill="black"/>
<path d="M43.1078 23.2383L43.4219 23.9962L43.2131 24.6316L43.1351 24.6879L43.1078 24.7551L42.9535 24.8186L42.801 24.9284L42.428 25.4794H42.4271V25.4803L42.3935 25.5303L42.3408 25.5575L42.3118 25.6337L42.0531 25.9251L41.9097 26.0958L41.8688 26.1738L41.8471 26.221L41.7635 26.4924L41.7055 26.5741L41.6719 26.6994L41.4123 27.1496L41.0773 27.7995L40.9738 28.0328L40.5672 29.2409L40.1478 30.9556L40.0671 32.3534L40.038 33.2866L40.0353 33.292L40.0262 33.4055L39.9599 33.803V33.8048L39.8547 34.4067L39.773 35.6938L39.8002 36.4526L39.822 36.8484L39.8238 36.8992V36.9083L39.802 38.9669L39.7993 38.9733L39.773 39.1367L39.7775 39.1684V39.193L39.7112 41.5621V41.5702L39.7085 41.6319L39.9763 41.7427L40.0208 41.8498L40.0244 41.8525L40.0344 41.8661L40.0534 41.9306L40.2032 42.29L40.1242 42.6286L39.9926 42.9L39.9264 43.0679L39.8283 43.1342L39.7848 43.2277L39.7494 43.3121L39.7439 43.3148L39.7394 43.3248L39.7067 43.3511L39.2946 43.5009L38.8398 43.3121L38.7572 43.1124L38.7382 43.1051L38.7137 43.0843L38.6737 43.0552L38.6274 42.9644L38.4586 42.9018L38.386 42.8392L38.3769 42.8201L38.3742 42.8183L38.3715 42.8101L38.356 42.8038L38.3215 42.7384L38.2644 42.7103L38.2453 42.6849L38.1563 42.4216L38.0756 42.2673L38.0256 41.8525V41.8516L37.9993 41.6583L37.9902 41.5366L37.9911 41.5158L38.0492 39.1467L38.0529 39.1376V39.1349L38.0247 38.957V38.9442L38.0547 36.8856V36.8847L38.0556 36.8502L38.0756 36.4953L38.0256 35.741L38.0238 35.6811V35.6584L38.0601 34.2741L38.0619 34.2696L38.071 34.1579L38.1745 33.5017L38.2244 33.1676L38.2653 32.2699V32.269V32.2636L38.3415 30.8476L38.3406 30.8276L38.3379 30.755L38.3615 30.5471L38.7745 28.7644L38.7827 28.7526L38.7872 28.719L39.1702 27.4101L39.1929 27.3929L39.2156 27.2912L39.3336 27.0307L39.5778 26.3263L39.5905 26.3172L39.6005 26.2673L39.7857 25.8334L39.871 25.5221L39.9164 25.4549L39.9409 25.3433L39.9481 25.3278L39.9491 25.326L39.9509 25.3215L39.9727 25.2743L40.0471 25.0982L40.087 25.0719L40.1333 24.9121L40.313 24.628L40.3911 24.5853L40.4365 24.4692L40.6516 24.2404L41.1881 23.4852L41.2398 23.4589L41.2452 23.4435L41.4014 23.3291L41.4586 23.222L41.5067 23.1893L41.6564 23.143L41.7744 23.0568L42.0041 22.9805L42.349 22.9233L43.1078 23.2383Z" fill="black"/>
<path d="M52.7819 18.9628L53.0769 19.0082L53.7704 19.3976L53.8312 19.5628L53.9175 19.6145L53.9783 19.7307L54.1053 20.2399L54.0591 20.3525L54.0699 20.3788L53.9374 20.6983L54.0527 20.5739L54.0246 20.662L53.8957 20.799L53.8067 21.0151L53.6206 21.0922L53.5072 21.2139L53.4346 21.2429L53.5444 21.124L53.1695 21.2792L53.1504 21.271L53.0206 21.3246L52.9054 21.3192L52.7638 21.3037L52.761 21.3028L52.7429 21.301L52.6639 21.291L52.2173 21.3972L52.0676 21.4154L52.0467 21.4254L51.1744 21.507L51.06 21.5125L51.0246 21.5116L49.7747 21.5542L48.3896 21.8692L47.9257 21.9936L47.5681 22.1161L47.1841 22.2577L47.1823 22.2586L45.7209 22.816L45.5584 22.8468L45.5103 22.874L45.3542 22.9013L44.9621 23.0138L44.6589 23.248L43.9818 23.8244L43.9219 23.8471L43.901 23.8861L42.9842 24.5106L42.632 24.8574L42.4714 25.117L42.3797 25.1678L42.3243 25.2912L42.0702 25.5145L42.0175 25.5717L41.9758 25.6498L41.9467 25.667L41.9276 25.7279L41.8478 25.8395L41.7987 25.8649L41.7724 25.9285L41.2632 26.139L40.96 26.0728L40.8221 26.0083L40.7776 25.9384L40.754 25.9285L40.7213 25.8495L40.459 25.4347L40.7268 24.9173L40.7767 24.8819L40.8021 24.832L40.823 24.8192L40.8366 24.7711L40.9382 24.6141L41.1107 24.3064L41.1352 24.2919L41.1497 24.2447L41.3631 23.9388L41.7007 23.3869L41.8078 23.327L41.8732 23.1863L42.7636 22.422L43.429 21.8175L43.4662 21.803L43.4798 21.7739L43.9255 21.4226L44.0135 21.3527L44.0235 21.3491L44.0272 21.3418L44.4601 21.0078L44.658 20.9397L44.8377 20.8199L44.9693 20.7845L46.3273 20.1882L46.6913 20.0139L46.7938 19.9903L46.8474 19.9522L47.2486 19.8251H47.2504L47.7533 19.6599L47.8222 19.6481L47.8468 19.6326L49.3681 19.2614L49.5414 19.2405L49.5623 19.2305L49.6041 19.2269L49.6277 19.226L49.6295 19.2251L50.9556 19.147H50.9574L50.9756 19.1461L51.7825 19.078L52.3871 18.9682L52.6022 18.9482L52.7819 18.9628Z" fill="black"/>
<path d="M53.8534 19.1238L54.8746 19.1274L54.8782 19.1292L55.2222 19.2L55.5481 19.338L56.9369 19.7755L56.9469 19.7882L56.9995 19.7982L57.4034 19.9607L57.595 19.9816L57.653 19.9797L57.6884 19.9788L57.9317 20.0106L58.126 20.0614L58.4073 20.2493L58.5553 20.3111L58.5771 20.3628L58.6361 20.4018L58.8385 20.9927L58.5553 21.6744L58.1314 21.8505L58.0679 21.8959L57.595 22.0484L57.5441 22.0275L57.5078 22.042L57.5133 22.0439H57.5042L57.418 22.0783L57.2183 22.1174L56.8652 21.7634L56.8525 21.7616L56.316 21.5673L56.3115 21.561L56.2906 21.5573L54.8982 20.9936L54.6649 20.9029L53.8734 20.8339L53.7209 20.8557L53.5974 20.8647L53.5448 20.8629L53.1037 20.8357L52.9557 20.8657L52.8241 20.8784L52.8186 20.8811L52.353 20.8938L52.3194 20.9483L52.2323 20.99L51.9472 21.0563L51.9 21.1044L51.7557 21.0817L51.7503 21.0826L51.7258 21.0771H51.7239L51.723 21.0762L51.4789 21.0227L51.3645 20.97L51.3327 20.921H51.1929L50.6919 20.42L51.1693 19.9434L51.1802 19.9171L51.1975 19.9098L51.2456 19.7873L51.2574 19.7828L51.2619 19.7719L51.4244 19.7038L51.497 19.6702L51.5215 19.6076L52.028 19.3634L52.6716 19.3162L52.8522 19.2708L52.9267 19.2608L52.9412 19.2527L53.464 19.181L53.69 19.1392L53.8498 19.1238H53.8534Z" fill="black"/>
<path d="M57.7976 20.2762L57.9075 20.2853L57.9301 20.3107L58.266 20.4233L58.2978 20.4469L59.004 20.4514L59.0067 20.4523L59.2272 20.485L59.5749 20.5894L59.5894 20.6103L59.6775 20.6293L60.2929 20.9198L60.2974 20.9252L60.3129 20.9289L61.4021 21.4871L61.4221 21.5198L61.4929 21.5416L61.9612 21.8674L62.1718 21.9237L62.2308 22.0009L62.4323 22.059L63.0977 22.4756L63.3328 22.6244L64.2595 23.0002L64.7733 23.1899L64.7815 23.2017L64.8214 23.2099L65.0383 23.3052L65.0629 23.3433L65.16 23.3724L65.5703 23.6374L65.6256 23.7391L65.8326 23.8353L65.9415 23.9642L66.0014 24.0105L66.0087 24.0241L66.0277 24.0314L66.4435 24.3763L66.468 24.429L66.5624 24.5751L66.6014 24.6041L66.6268 24.6541L66.6404 24.6613L66.6849 24.7249L66.7094 24.8038L66.7167 24.8156L66.8601 24.8991L67.0035 25.1533L67.0298 25.2504L67.0607 25.2722L67.0979 25.3666L67.156 25.4456L67.1578 25.451L67.1605 25.4528L67.1869 25.4892L67.205 25.5463L67.235 25.5636L67.5717 26.1309L67.5799 26.1618L67.6026 26.1745L68.2398 27.2937L68.2816 27.4507L68.3378 27.5378L68.4912 28.156L68.5021 28.2413L68.5112 28.2585L68.6465 29.2044L68.6483 29.228L68.6501 29.2316L68.7073 29.7081L68.7781 30.0631L68.798 30.2664V30.2782L68.7953 30.526V30.5378L68.8452 31.7641L68.8461 31.8086L68.8452 31.8467L68.8443 31.8748L68.8398 31.8857L68.8189 32.0673L68.769 32.2833L68.7735 32.5265V32.5465L68.7654 32.6736L68.6918 33.2745L68.6691 33.319L68.6347 33.505L68.5884 33.6294L68.5974 33.7919L68.5993 33.8454L68.6047 34.754L68.6065 34.7722L68.612 34.7831L68.8707 38.0844L68.8743 38.1752L68.867 38.3022L68.8534 38.4221L68.8525 38.4293L68.8443 39.3606L68.8616 39.485V39.5231L68.7763 42.0057L68.7499 42.0647L68.7536 42.0746L68.7263 42.317L68.6601 42.6075L68.5003 42.858L68.4713 42.9106L68.3959 43.094L68.3651 43.1067L68.3478 43.1394L68.0692 43.2438L68.0583 43.2737L67.9993 43.3463L67.7124 43.4816L67.5572 43.3264L67.0571 43.1394L67.0398 43.1067L67.009 43.094L66.93 42.9043L66.8837 42.8181L66.7947 42.7591L66.6849 42.4976L66.5987 42.0746L66.6168 42.0329L66.6068 41.9666V41.963L66.615 39.4813L66.6159 39.4795L66.6341 39.3488L66.6441 38.3685L66.645 38.3676L66.6477 38.2968L66.6531 38.2251L66.6541 38.2224L66.6559 38.1979L66.6604 38.1507L66.4616 34.9374L66.4598 34.8675L66.4707 34.7368L66.4961 33.8209L66.497 33.82V33.7946L66.5179 33.4116L66.5333 33.3771L66.586 33.0966L66.6522 32.9268L66.674 32.4911L66.6767 32.4857L66.6813 32.4122L66.7294 32.0382L66.7321 32.0337L66.7339 32.0101L66.7757 31.7532L66.7857 30.5559L66.7848 30.5459V30.526V30.5251L66.7829 30.3399L66.7367 30.0013L66.7321 29.9296L66.7294 29.9242L66.6994 29.4231L66.6141 28.5309L66.5315 28.1088L65.9506 27.1521L65.947 27.1403L65.9342 27.1339L65.5839 26.5748L65.5802 26.5602L65.4613 26.3914L65.3724 26.1109L65.3361 26.0447L65.2916 25.9875L65.2135 25.9012L65.1627 25.7687L64.8278 25.5L64.7751 25.3911L64.6698 25.3394L64.6099 25.2604L64.4783 25.137L64.1833 24.9663L64.0726 24.9046L63.616 24.7539L63.6024 24.7339L63.5252 24.7176L62.5295 24.2592L62.4913 24.1993L62.3579 24.1539L62.1065 23.9588L61.5392 23.5966L61.4774 23.5803L61.1616 23.3978L61.137 23.3561L61.0626 23.3297L60.5552 22.9294L59.5431 22.3821L59.5386 22.3748L59.5241 22.3712L59.0103 22.0717L58.7934 21.999L58.0627 21.8493L58.0363 21.8166L57.8457 21.7639L57.7895 21.7295L57.6878 21.6777L57.6833 21.6705L57.6079 21.6632L57.1314 21.5706L56.869 21.5407L56.8591 21.5289L56.7265 21.5025L56.6757 21.4826L56.5586 21.3056L56.3934 21.1921L56.378 21.154L56.3426 21.0995L56.3353 21.0768L56.1147 20.8562L56.6158 20.3552L56.7955 20.3888L56.8591 20.4133L56.879 20.4423L57.066 20.3933L57.106 20.3879L57.1105 20.3833L57.6034 20.288L57.7404 20.2744L57.7976 20.2762Z" fill="black"/>
<path d="M53.5024 55.1342L54.4927 55.3366L54.6461 55.431L54.9556 55.5109L55.6537 55.8994L55.975 56.2143L56.1048 56.2751L56.3635 56.5829L56.6576 56.9114L56.732 57.1075L56.9408 57.3662L57.253 58.1378L57.3474 58.6179L57.361 58.6479L57.3619 58.6924L57.3683 58.7259V58.7423L57.3674 58.8648L57.3756 59.1344L57.3765 59.1907L57.3629 59.237L57.361 59.4911L57.3565 59.502L57.2812 59.964L57.1604 60.3271L57.0742 60.4442L57.027 60.6176L56.7275 60.9126L56.5922 61.0969L56.516 61.1214L56.4452 61.1913L56.2264 61.3165L55.7689 61.4391L55.6691 61.4999L55.5057 61.5462L55.4975 61.5607L55.0954 61.9882L55.0364 62.108L54.8667 62.2406L53.7783 62.6145L52.7463 62.2823L52.4776 62.0899L52.425 61.9873L52.1744 61.7558L51.5209 61.4971L51.0734 61.1377L50.8619 61.046L50.3609 60.5132L50.2692 60.2836L50.2401 60.2418L50.1866 60.0757L49.8743 59.492L49.7926 58.8812L49.7754 58.6334L49.9052 57.9607L49.9651 57.8137L49.9751 57.762L49.9733 57.5804V57.5605L50.1203 56.9441L50.1412 56.8352L50.153 56.8071L50.1593 56.778L50.1848 56.7281L50.2819 56.4894L50.3445 56.4131L50.4026 56.2978L50.4244 56.227L50.507 56.1617L50.7893 55.8676L50.8056 55.8485L50.8093 55.8476L50.9863 55.6634L51.0189 55.6271H51.0217L51.0226 55.6252L51.4256 55.3765L52.2189 55.1487L52.287 55.1187L53.1321 55.1015L53.1693 55.1006L53.5024 55.1342Z" fill="black"/>
<path d="M55.3139 58.5397L55.3847 58.6468L55.48 58.6867L55.5926 58.9581L55.9266 59.4592L55.9529 59.5563L56.0138 60.0056V60.0438L55.9983 60.6955L56.3859 61.6304L56.3823 61.743L56.3705 61.9109L56.5956 62.7088V62.7187L56.5874 64.024L56.5865 64.0249L56.5792 64.1702L56.4431 65.4709L56.3877 66.4748L56.3841 66.4839L56.3768 66.5937L56.2434 67.6031L56.0473 67.9698L55.7206 68.7568L55.4056 68.8875L55.1415 69.5247L54.0577 69.9731L53.7073 69.8369L53.425 69.7434L52.9276 69.9903L52.8486 69.9976L52.6907 70.0049L51.694 69.6726L51.6169 69.5601L51.5188 69.5201L51.4153 69.2705L51.1013 68.8176L50.9896 68.44L50.7682 68.0687L50.5893 67.1601L50.5621 66.8869L50.5567 66.8751L50.544 66.3995L50.4169 65.5444L50.4023 65.3547L50.3987 65.3465L50.3261 63.0855L50.3252 63.0292L50.3443 62.7759L50.544 61.4625L50.6728 61.231L50.8026 60.8108L50.848 60.7436L50.8607 60.7372L50.9733 60.1935L51.2982 59.6625L51.4108 59.3911L51.4825 59.3612L51.5306 59.2831L52.5518 58.9182L52.8441 59.0371L52.9475 58.9046L53.0383 58.6867L53.1554 58.6377L53.268 58.4934L54.2592 58.1812L55.3139 58.5397Z" fill="black"/>
<path d="M54.1402 52.4563L54.319 52.5081L54.5496 52.5625L54.7665 52.7014L55.0978 52.7994L55.5589 53.0972L55.6878 53.1271L56.5783 53.5674L56.945 53.9014L57.1347 53.9831L57.7165 54.603L58.0669 54.9008L58.125 55.0288L58.4127 55.292L59.0182 56.2033L59.1607 56.6735L59.3077 56.9313L59.4357 57.6838L59.463 58.0024L59.4357 58.3183L59.2342 59.4729L59.1398 59.6353L59.0454 60.0157L58.6061 60.8399L58.4019 61.0541L58.341 61.2111L57.722 61.8882L57.5822 61.95L57.328 62.215L56.886 62.491L56.5048 62.9121L56.3505 62.9802L56.0436 63.2734L55.5163 63.5611L55.4001 63.5911L55.3874 63.622L55.2303 63.6873L54.9898 63.9306L53.9723 64.2083L53.759 64.1965L53.5339 64.1729L52.8812 63.8371L52.4256 63.7599L52.2032 63.6328L51.7575 63.5067L51.0141 63.0537L50.8325 62.8649L50.6238 62.8168L49.6879 62.3575L49.6834 62.3539L49.6779 62.353L48.9073 61.7103L48.3672 60.9987L48.1857 60.4613L47.9506 60.0592L47.7954 59.2205L47.7563 58.8021L47.8671 58.1086L48.1712 57.1764L48.4054 56.8569L48.5787 56.1343L48.9781 55.3519L48.9817 55.3474L48.9836 55.341L49.6462 54.5858L49.7043 54.544L49.8976 54.2291L50.2235 53.9159L50.5276 53.5973L51.3581 53.0763L51.4253 53.0572L51.6467 52.8784L52.2531 52.6642L52.6289 52.4745L53.4331 52.3928L53.6264 52.3828L54.1402 52.4563Z" fill="black"/>
<path d="M55.4343 60.2647L55.4425 60.2828L55.4616 60.291L55.5641 60.5397L55.8001 61.038L55.8292 61.4756L55.9463 61.5182L55.9662 61.55L56.0325 61.5772L56.037 61.5863L56.0452 61.5899L56.1605 61.8677L56.1687 61.8858L56.3683 62.2162L56.7015 63.8392L56.7242 64.057L56.7278 64.0652L56.7596 65.483V65.5112L56.7577 65.5756L56.6633 67.3257L56.6606 67.3311L56.657 67.3965L56.5372 68.4122L56.5354 68.6609L56.5335 68.6654L56.4827 69.0158L56.46 69.0912L56.3293 69.2772L56.2749 70.0751L56.224 70.1831L56.2431 70.312L56.2612 70.5516L55.8047 71.6527L55.2691 71.8742L55.2846 72.2145L55.2864 72.2899L54.8243 73.4064L53.7079 73.8684L52.6214 73.4354L52.6123 73.4145L52.5914 73.4064L52.4498 73.0642L52.1312 72.3761L52.055 70.9728L51.9733 70.942L51.9478 70.8929L51.9006 70.873L51.8671 70.794L51.6837 70.7214L51.671 70.696L51.6456 70.6851L51.4949 70.3293L51.1536 69.6176L50.9939 67.4745L50.9902 67.3838L50.9893 67.382L50.9339 64.7215V64.6852L50.9367 64.5853L50.9448 64.4455L50.9321 62.7799V62.7663L50.9712 62.4041L51.0692 61.9439L51.3969 61.4129L51.5094 61.1406L51.5839 61.1097L51.6347 61.0281L52.6658 60.6623L52.7884 60.7058L52.8047 60.6995L53.5363 60.9554L53.8114 60.291L54.6365 59.9497L55.4343 60.2647Z" fill="black"/>
<path d="M52.6664 61.0462L52.6701 61.0543L52.6791 61.058L52.7209 61.1025L52.9859 61.7569L52.8634 62.1L53.0377 62.513L53.0413 62.8688V62.8815L53.0386 62.9651L52.9251 64.7541L52.887 65.8579L52.9986 65.9042L53.4089 66.8954L53.4035 67.0207L53.339 67.7387L53.2864 68.3096L53.3499 68.4639L53.4471 68.6872L53.6967 69.0848L53.7548 69.3371L53.7938 69.6757V69.7165L53.7529 71.1679L53.6831 71.3277L53.4362 72.0303L53.3508 72.0847L53.3163 72.1628L53.0586 72.2681L52.6301 72.5368L52.5139 72.564L52.2443 72.5948L51.5518 72.3679L51.4456 72.2899L51.4292 72.2572L51.4174 72.2526L51.3956 72.2L51.2894 72.1564L51.2776 72.1292L51.2332 72.111L50.9218 71.3595L50.8656 71.3359L50.8628 71.3313L50.8583 71.3286L50.7312 71.0282L50.4643 70.4164L50.4571 70.1468L50.2619 69.6757L50.2637 69.6094L50.2765 69.3698L50.2746 66.4434L50.2601 66.132L50.2583 66.0649V66.0512L50.2719 64.6733L50.2728 64.6715L50.2765 64.5826L50.4108 62.8897L50.409 62.5339L50.4081 62.5257L50.7938 61.5962L50.9845 61.5173L50.9854 61.5155L51.0298 61.4846L51.0707 61.3421L51.1506 61.215L51.235 61.1678L51.2858 61.0462L51.9766 60.7603L52.6664 61.0462Z" fill="black"/>
<path d="M56.1041 65.5987L56.1231 65.6341L56.1567 65.6486L56.2584 65.8928L56.5089 66.3721L56.5779 66.9394L56.5879 67.0973V67.1173L56.5715 68.192L56.5661 70.3668H56.5652L56.5634 70.4322L56.5561 70.5665L56.5852 70.6364L56.5815 70.7326L56.5162 71.5714L56.5207 71.5886L56.6215 71.8337L56.6069 72.0297L56.557 72.3701L56.2838 72.8621L56.1713 73.1017L56.1449 73.1126L56.1304 73.139L55.2962 73.4494L54.8996 73.3214L54.8624 73.3278L54.7561 73.3241L54.4412 73.2996L54.0908 73.2933L54.0518 73.2769L53.6842 73.1843L53.2702 73.1952L53.1976 73.2252L52.6067 73.3432L52.1855 73.4594L51.0663 73.0119L51.0582 72.9928L51.0391 72.9846L50.893 72.6306L50.5662 71.9172L50.5589 71.7683L50.5571 71.6839L50.9456 70.6156L51.001 70.5493L51.0337 70.5339L51.0446 70.5075L51.0763 70.4939L51.0963 70.4458L52.2518 69.9665L52.4288 70.0401L52.7765 70.0074L52.9335 69.9992L53.0597 70.0047L53.8648 70.0682L53.8739 70.0337L53.9002 68.92V68.91L53.9229 68.3254L53.8221 68.0831L53.8857 67.7817L53.9592 67.612L54.0627 67.5448L54.0563 67.1182V67.1037H54.0554L54.0536 66.5255V66.52L54.4139 65.6486L55.2853 65.2874L56.1041 65.5987Z" fill="black"/>
<path d="M80.1095 42.9189L80.2684 42.9425L80.2711 42.9443L80.2838 42.9452L80.7458 43.0251L80.8629 43.0932L81.0889 43.1576L81.1162 43.1749L81.4121 43.193L81.4211 43.1967L81.5165 43.2048L81.7597 43.2466L81.8814 43.3174L82.1128 43.3846L82.1582 43.4127L82.1618 43.42L82.1745 43.4236L82.3279 43.5262L82.4033 43.6678L82.5621 43.7458L83.1213 44.4738L83.3164 44.6617L83.5198 44.826L83.5325 44.8305L83.5887 44.9186L83.6741 44.9676L83.7476 45.1691L83.8828 45.3815L84.127 46.4099V46.4118L84.1334 46.4381L84.2114 46.7031L84.2859 46.9319L84.3303 47.2078L84.3376 47.2251L84.3557 47.7797L84.3712 47.8668L84.3757 47.9158L84.3793 47.9231L84.4048 48.1209L84.5055 48.5757L84.5327 48.8162L84.5246 48.9506L84.4837 49.271L84.4828 49.2728L84.4511 50.4202L84.4474 50.4283L84.4293 50.6044L84.3921 50.7805L84.3548 51.9832L84.3557 52.0005V52.035V52.054L84.3312 53.3402L84.3303 53.342L84.3267 53.4192L84.2913 53.7832L84.2504 53.864L84.1942 54.0891L84.2187 54.7335L84.2196 54.7744L84.2123 54.8906L84.1996 55.0104L84.2032 55.9408V55.9453V55.958V56.0216L84.206 56.2249L84.2287 56.5807V56.5816L84.3122 57.7916L84.3149 57.8642V57.876V57.8778L84.3648 58.6376L84.393 58.7973L84.3966 58.8146L84.4075 58.9135L84.4147 58.9289L84.5037 59.7595L84.5091 59.8539L84.5101 59.8557L84.5209 60.5356V60.5528L84.5146 60.6645L84.4501 61.2554L84.4402 61.2744L84.4265 61.3843L84.3657 61.6284L84.3194 62.6296L84.3485 63.1198L84.3503 63.1779L84.3494 63.187L84.3394 64.3225V64.3234L84.3376 64.3715L84.3358 64.3996L84.314 64.8172L84.3131 64.8199L84.3113 64.8598L84.2205 65.7594V65.7603L84.2141 65.8147L84.1315 66.5745V66.599V66.6081L84.1116 67.209L84.1088 67.2144L84.0989 67.3279L84.0526 67.6129L84.0489 67.6193L84.0226 68.3064L84.0235 68.3645V68.3781V68.4053L83.9745 70.0936L83.9754 70.1463V70.1581L83.9745 70.1935L83.9672 70.3868V70.8243L84.0626 71.8627L84.0662 71.9535V71.9889L84.0653 72.0152L84.0689 72.2621V72.2785V72.2975L84.0344 74.0685L84.0335 74.0703L84.029 74.1474L83.9609 74.8082L84.029 76.0609V76.069V76.0699L84.0489 76.4857V76.4902V76.4911L84.0925 77.4841L84.0934 77.5223L84.0943 77.9552V77.9589V77.9725L84.0834 78.6596L84.0825 78.6814L83.9954 80.7119L84.078 81.2747L84.088 81.4L84.0871 81.4308L84.0217 83.1899L84.0253 83.593L84.0326 83.6338L84.0117 83.8108L83.9173 84.2002L83.9101 84.2746V84.2783L83.9092 84.2801L83.9046 84.33L83.8792 84.3527L83.7176 84.7439L83.252 84.9373L82.7863 84.7439L82.5984 84.291L82.5957 84.2892V84.2846L82.593 84.2783L82.5948 84.2574L82.5903 84.1494L82.5313 83.7473L82.5222 83.6338L82.5295 83.592L82.534 83.1963L82.4396 81.4798L82.3543 80.8735L82.3461 80.7546V80.7419L82.3788 78.6387L82.3779 78.0396L82.3134 77.6974L82.2998 77.5577L82.2971 77.5513L82.2689 76.5764L82.239 76.1834V76.1752L82.2381 76.1743L82.1455 74.8527L82.1446 74.83L82.1437 74.8291L82.1092 74.0957L82.1083 74.0485V74.0276L82.1455 72.2594L82.15 72.0152L82.1491 71.9907L82.1482 71.9535L82.1491 71.9027L82.2045 70.8597L82.1863 70.4077V70.405L82.1782 70.1953L82.1773 70.1581V70.1463L82.1782 70.0764L82.1909 68.3717V68.3654L82.1918 68.2882L82.1936 67.5049L82.2027 67.3787L82.2099 67.3215L82.2154 67.3125L82.2199 67.268L82.2708 67.0165L82.3497 66.4492H82.3506L82.3543 66.4193L82.4096 65.6486L82.4105 65.6468L82.4114 65.6305L82.416 65.5878L82.475 64.7582L82.4559 64.396L82.455 64.3742L82.4532 64.3225V64.3216L82.4432 63.2332L82.3951 62.7839L82.3915 62.7086L82.3824 62.6569L82.3833 62.6378L82.4042 61.5531L82.4051 61.5522L82.4069 61.5077L82.4105 61.4487V61.4478L82.4114 61.4369L82.4414 61.0738L82.4677 60.5192L82.4777 59.9092L82.4114 59.1758L82.4087 59.1722L82.367 58.9462L82.3588 58.8599L82.3534 58.8491L82.2762 58.0031L82.2726 57.9187L82.2717 57.9178V57.8769V57.8724L82.2626 56.7523L82.2063 56.4772L82.1836 56.2657V56.2503L82.1872 56.0216L82.1863 55.9589V55.9453V55.9408L82.1909 55.0104L82.1773 54.8951L82.1709 54.7744V54.7354L82.2036 53.883H82.2045V53.8776L82.2054 53.844L82.2172 53.8195L82.2599 53.5653L82.2871 53.4873L82.2971 53.2758L82.3443 51.9977V51.9823L82.3043 50.6861V50.658L82.3025 50.6471L82.3379 50.3757L82.367 50.2704L82.3279 49.2029L82.327 49.1612L82.3325 49.0568L82.3352 49.0214L82.3397 49.0123L82.3452 48.9506L82.3942 48.6583L82.4223 48.4278L82.4006 48.3361L82.3534 48.258L82.3334 48.1609L82.3279 48.1382L82.3043 47.9412L82.2998 47.9312L82.2816 47.3703L82.2526 47.2142L82.1854 46.9573L82.1791 46.9083L82.1709 46.8946L82.1627 46.8547V46.8529L81.9921 46.0823L81.7379 45.8553L81.7062 45.7845L81.639 45.7528L81.1461 45.1618L80.7131 45.1219L80.547 45.0393L80.2112 44.9268L80.2066 44.9231L80.016 44.9041L79.3834 44.5855L79.3825 44.5846L79.2799 44.4711L79.0366 43.843L79.3098 43.1822L79.9706 42.9089L80.1095 42.9189Z" fill="black"/>
<path d="M53.4007 58.5625L53.4098 58.5888L53.9345 58.8057L54.1024 59.2124L54.1496 59.2541L54.1596 59.344L54.165 59.4302L53.9445 59.9612L53.4134 60.1818L53.2292 60.0166L52.8715 59.8686L52.759 59.5954L52.6664 59.5128L52.6564 59.4239L52.6519 59.3376L52.6546 59.3304L52.6401 59.3158L52.5756 59.1634L52.5148 59.1207L52.4377 58.9028L52.4077 58.7286L52.9178 58.2175L53.4007 58.5625Z" fill="black"/>
<path d="M54.9174 63.2651V63.2661L54.9183 63.267L55.0046 63.473L55.1807 63.8951L55.1816 64.0676L55.2297 64.7756L55.2324 64.8491L55.2315 64.8809L55.2233 65.1523L55.1816 65.2467L55.0663 65.5998L55.0826 65.7114L55.0917 65.7323L55.1389 66.7779L55.1398 66.8015V66.8025L55.1589 67.5086L55.2596 68.3038L55.2669 68.321L55.3667 68.8157V68.8203L55.3649 69.2714L55.4276 70.3271L55.4357 70.436L55.9676 70.78L56.1074 70.8381L56.1256 70.8826L56.2917 70.9906L56.3098 71.0414L56.3425 71.0587L56.4387 71.1939L56.7337 72.1179L56.2681 73.2426L55.1425 73.7091L55.0236 73.6601L54.6315 73.779L54.4155 73.8907L54.2539 73.9097L54.0642 73.9206L53.8137 73.9007L53.6948 73.8825L53.683 73.8753L53.6294 73.8698L53.5532 73.8544L53.2727 73.8943L53.0585 73.9097L52.6246 73.7382L52.601 73.7436L52.4748 73.7908L51.3801 73.337L50.9263 72.2414L51.0533 71.9337L51.1949 71.4136L51.2467 71.3237L51.3474 71.2248L51.3801 71.1458L51.46 71.1122L51.7114 70.8635L51.7378 70.8154L51.8058 70.7718L51.9856 70.7183L52.1217 70.6148L52.1734 70.5948L52.414 70.5522L52.4775 70.5168L52.6863 70.4859L52.9069 70.4687L52.906 70.4559L52.9051 70.4532L52.8687 69.3821L52.837 69.0318L52.817 68.951L52.7925 68.7613L52.7798 68.7359L52.6936 67.712L52.6881 67.604L52.6899 67.5368L52.7317 66.7671L52.7344 66.7607L52.7389 66.6863L52.8687 65.6397L52.9169 65.548L52.9867 65.2657L53.0312 65.1804L53.0575 65.0878L53.0857 64.9262L53.1102 64.8845L53.1338 64.7483L53.211 64.5359L53.378 63.9096L53.4025 63.7535L53.5858 63.4285L53.653 63.267L53.6848 63.2533L53.7038 63.2198L54.2857 63.0046L54.9174 63.2651Z" fill="black"/>
</svg>
