<svg width="92" height="92" viewBox="0 0 92 92" fill="none" xmlns="http://www.w3.org/2000/svg">
<g clip-path="url(#clip0)">
<path d="M530.055 -307H-970V693.037H530.055V-307Z" fill="white"/>
<path d="M18.0304 7.92337V8.00274L17.956 8.07615L17.9619 8.26763L17.9986 8.60494L18.0006 8.63868L18.0016 8.63967L18.0165 9.20219V9.21112L18.0413 11.8719V11.8759L18.0373 11.9344L17.9867 12.3204L17.949 12.8849L17.9312 15.1955L17.9292 15.2351L17.833 16.2481L17.706 17.9138L17.705 17.9148L17.703 17.9376L17.6484 18.3573L17.6256 19.5498L17.6832 22.2175L17.697 22.5271V22.5449V22.5459L17.698 22.664V22.668V22.6838L17.6693 23.6541V23.665L17.6643 23.7523L17.6663 24.4706L17.6802 27.2157V27.2187V27.2197V27.3388V27.3457L17.6474 29.3924V29.4023L17.6435 29.5065V29.6077L17.6554 31.708L17.6603 31.8072L17.7417 32.83L17.7427 32.8479L17.7437 32.8489L17.7834 33.6872V33.714V33.715L17.7824 34.9045V35.0008L17.8211 35.6337L17.9371 36.3441L17.956 36.4324L17.9649 36.5226L17.9679 36.5246L17.9986 37.1824L17.9996 37.2102V37.2161L17.9907 38.0038L18.0314 38.5426V38.5455L18.1107 39.6091L18.1127 39.6418L18.1147 39.7599V39.7678L18.1207 41.124L18.1256 41.2024L18.1752 41.9117V41.9157L18.2318 42.76L18.2338 42.7977L18.2348 44.0943V44.0953L18.2338 44.1231L18.2288 44.2273L18.205 45.4704L18.204 45.4952L18.1604 46.1787L18.1584 46.1807L18.1554 46.2264L18.1475 46.278L18.1157 46.7085L18.083 48.5151L18.081 48.5161L18.0661 48.6382L17.9947 48.9279L17.9897 48.9616L17.952 49.4279L17.9361 50.3843L17.9629 50.9091L17.9679 50.9924L17.9689 51.0212L18.0145 53.7316L18.0215 53.7832L18.0234 53.801L18.0244 53.802L18.0353 53.8953L18.0373 53.933L18.0383 53.934L18.1038 55.183V55.2148V55.2158L18.1028 55.8567V55.9341L18.1852 57.9579L18.1861 57.9827V59.1435V59.2616L18.208 59.6138L18.4262 60.719L18.4322 60.7755L18.4352 60.7785L18.4411 60.844L18.4441 60.9035L18.4431 60.9442L18.4074 61.464L18.4054 61.465L18.4034 61.5027L18.3369 61.967L18.2992 62.7667V63.6625L18.3042 63.6933L18.3102 63.7717L18.3112 63.7726L18.327 64.5326V64.5465L18.3131 64.6764L18.1832 65.2469L18.1683 65.3273L18.1127 65.6378L18.1028 66.4037L18.1375 66.9255L18.2635 67.7381L18.2705 67.8333V67.8621L18.2546 68.1954L18.2536 68.2143L18.2487 68.2728L18.2427 68.2778L18.2278 68.3839L18.1534 68.6448L18.0215 69.6905L18.0125 69.7758L17.8111 71.6519L17.8191 72.6728V72.6738L17.8201 72.775V72.7789V72.7889L17.7873 74.6272L17.8379 75.029L17.9004 75.3792L17.9014 75.3911H17.9024L18.0651 76.3832L18.0671 76.407L18.0681 76.409L18.076 76.4725L18.082 76.5509L18.081 76.5688L18.0711 76.8991L18.0611 77.3466L18.0602 77.418V77.419V77.4269L18.0324 78.2256L18.0691 78.8714L18.1812 79.3238V79.3258L18.2943 79.7742L18.2983 79.801L18.3012 79.804L18.4669 80.6294L18.4788 80.7455V80.7465V80.938V80.9519L18.4729 81.178L18.4719 81.179L18.461 81.2802L18.453 81.3169L18.3409 82.2346L18.3449 82.3438V82.3646V82.3686L18.3439 82.5065L18.3776 83.824L18.459 84.8399L18.461 84.8845L18.457 84.9451L18.4183 85.2903L18.4163 85.2923L18.4133 85.325L18.2963 85.9649L18.2854 86.083L18.2546 86.715L18.204 87.7338L18.202 87.7348L18.1971 87.7914L18.1504 88.0473L18.1365 88.0593L18.1127 88.1595L18.0105 88.3648L18.0066 88.3668L18.0036 88.3777L17.9451 88.4829L17.6127 88.6773L17.2308 88.2964L17.2575 88.1545L17.2843 88.089L17.3022 87.9501L17.2923 87.7329L17.2407 86.7159V86.6892V86.6872L17.2427 86.0443L17.2437 86.0145L17.2526 85.8608L17.2546 85.8598L17.2585 85.8131L17.3577 85.1732L17.3716 84.8905L17.2992 83.8944L17.2982 83.8617H17.2972L17.2754 82.5204V82.5154L17.2744 82.3696V82.3646V82.3448L17.2804 82.192L17.2814 82.1672L17.3617 81.2108L17.3607 81.181V81.1771L17.3558 80.9776L17.3369 80.8159L17.2268 80.0213L17.1147 79.6095L17.1107 79.5808L17.1067 79.5778L16.9966 79.0728L16.9877 78.9934L16.9847 78.9905L16.9351 78.2702L16.9341 78.2355L16.9282 77.415L16.9262 77.3456L16.9173 76.918L16.8875 76.6114L16.8855 76.5757H16.8845L16.8825 76.534L16.7565 75.5628L16.7555 75.5568L16.7099 75.1858L16.7079 75.156L16.7059 75.155L16.6722 74.6996L16.6712 74.6659L16.6385 72.7898V72.7789V72.776V72.6738V72.6728L16.6464 71.6182H16.6474L16.6504 71.5586L16.8627 69.6449L16.8637 69.6439L16.8647 69.63L16.8776 69.5427L17.0085 68.4544L17.0135 68.4504L17.0194 68.3958L17.08 68.1349L17.0681 67.869L17.0075 67.0307V67.0287L16.9659 66.4612L16.9639 66.4186V66.4176L16.9649 65.5832L16.9718 65.492L17.0323 65.1219L17.0333 65.1209L17.0343 65.111L17.0512 65.0167H17.0522V65.0138L17.1563 64.4899L17.1504 63.7905V63.7845L17.1573 63.6972L17.1623 63.6625V62.7528L17.1633 62.727L17.202 61.8847L17.204 61.8837L17.2069 61.8381L17.2685 61.3787L17.2764 60.9184L17.2754 60.9035L17.0899 59.7814L17.0869 59.7467L17.0849 59.7447L17.0423 59.3429L17.0383 59.2794V59.2784L17.0393 59.1435V57.9937L16.9649 55.9698L16.9639 55.947V55.944L16.9649 55.8567L16.9629 55.2237L16.9272 54.0034L16.9192 53.934L16.9182 53.9251L16.9083 53.8368L16.9063 53.7862L16.9053 53.7852L16.8607 51.0519L16.8567 50.9746L16.8557 50.9587L16.8379 50.412V50.3932V50.3843L16.8547 49.3912V49.3902L16.8567 49.3584L16.8954 48.8544L16.8974 48.8534L16.8994 48.8227L16.9103 48.7413L16.9133 48.7384L16.9173 48.7046L16.9738 48.4397L17.0065 46.6718H17.0075L17.0085 46.643L17.0423 46.1728L17.0442 46.1718L17.0472 46.1311L17.0552 46.0805L17.0988 45.4357L17.1196 44.1975H17.1206V44.1797L17.1256 44.0805L17.1266 42.8165L17.072 41.9911V41.9901L17.0214 41.2768V41.2708L17.0204 41.2698L17.0155 41.1756L17.0135 41.1428L17.0085 39.7728V39.7698V39.7608L17.0105 39.6676L16.9341 38.6279L16.8875 38.0703L16.8855 38.0286H16.8845L16.8766 37.2191L16.8627 36.5851L16.8547 36.5078L16.7526 35.7706L16.7486 35.724L16.7476 35.723L16.7099 35.0474L16.7089 35.0166V34.9045L16.7079 33.7269L16.6702 32.9064L16.5948 31.8836L16.5938 31.8647V31.8637L16.5889 31.7467V31.7238V31.7209L16.6008 29.6077V29.4966L16.6018 29.4638L16.6077 29.3627L16.6424 27.3328V27.2197L16.6335 24.4746V24.4726V24.4637L16.6474 23.7295L16.6484 23.7097L16.6534 23.6154L16.6811 22.659L16.6821 22.5549L16.6732 22.2493V22.2384L16.6524 19.5538V19.5498V19.5329L16.696 18.3027H16.697L16.698 18.2749L16.7417 17.8265L16.8964 16.1608V16.1578L17.0006 15.1617L17.0502 12.8581L17.0512 12.8293L17.1028 12.236H17.1038L17.1048 12.2231L17.1504 11.8461L17.1851 9.21013L17.1891 8.66546L17.1692 8.41942L17.0869 8.27954L17.0403 8.10691L16.9351 8.00274V7.92337L17.4827 7.37573L18.0304 7.92337Z" fill="black"/>
<path d="M55.1807 78.6917L56.4158 78.6996L56.5289 78.7006L56.5498 78.7016L57.267 78.7343L57.269 78.7353L57.3236 78.7403L58.4367 78.9079L58.901 78.9139H59.0161L59.9566 78.9109H60.0529H60.0539H60.0727L61.7702 78.9665L61.7732 78.9684L61.9031 78.9873L62.5103 79.1589L62.5391 79.1619L63.0341 79.1778L64.0719 79.1738H64.0729H64.1631H64.1651L64.2514 79.1808L64.7266 79.2552L65.0729 79.2879L65.8934 79.2601L65.941 79.2512L66.0293 79.2433L66.0303 79.2423L66.3964 79.2343H66.4092L66.444 79.2353L66.9698 79.27L66.9718 79.271L67.0214 79.276L67.5075 79.3564L67.7119 79.3683L67.827 79.3693H67.8329L68.9887 79.3881L69.0681 79.3891V79.3901L69.1217 79.3931L69.3131 79.4159L69.3141 79.4179L69.3419 79.4208L69.455 79.4417L69.5274 79.4337L69.6217 79.4447L69.7189 79.4655L70.0384 79.8653L69.8022 80.2364L69.7169 80.276L69.6683 80.2869L69.6604 80.2979L69.6028 80.3167L69.574 80.3296L69.4729 80.3524L69.4619 80.3663L69.3449 80.3881L69.3121 80.3911L69.3101 80.3931L69.1236 80.4159L69.0681 80.4199H69.0671L68.9887 80.4209L67.8329 80.4397H67.826L67.697 80.4407H67.695L67.6533 80.4387L67.4033 80.4199L67.4023 80.4179L67.3607 80.4149L66.8785 80.3356L66.4162 80.3167L66.1146 80.3375L66.06 80.3485L65.9846 80.3554L65.9817 80.3584L65.0878 80.406L65.056 80.407L64.9985 80.404L64.5957 80.3633L64.5947 80.3614L64.5649 80.3594L64.1185 80.286H64.0729H64.0719L63.0232 80.281H63.0083L62.4825 80.2641L62.4815 80.2631L62.4299 80.2602L62.3307 80.2473L62.3268 80.2413L62.2633 80.2334L61.67 80.0746L60.0459 80.03H59.9566L59.0161 80.027H58.8981H58.8921L58.3842 80.0221V80.0211L58.3068 80.0151L57.1847 79.8445L56.5131 79.8117H56.4158L55.1807 79.8207H55.1767H54.513L53.5328 79.8256L53.4504 79.8345L53.2421 79.8603H53.2312V79.8613L51.8293 80.0131L51.7807 80.0161H51.7797L51.6279 80.0201H51.6151L50.4434 80.024L50.3432 80.025L49.0495 80.1649L48.9205 80.1858L48.9027 80.1867L48.9017 80.1887L48.5733 80.2304L48.5197 80.2344L48.5177 80.2354L47.3014 80.284H47.2955L47.1179 80.2889L46.0057 80.3346H46.0037L45.8351 80.3415H45.8341L44.2616 80.403L44.1277 80.409L42.6157 80.4824H42.6117H42.6108L42.4867 80.4874L41.1028 80.5766H41.1018L40.9361 80.5876L40.9004 80.5895L39.3219 80.6054H39.317L39.1473 80.6064L37.303 80.6421L37.1284 80.6451L32.5102 80.7354H32.5082L32.5072 80.7364L29.5051 80.784L26.7054 80.8544L25.3552 80.9695H25.3452L23.7797 81.0816L23.7559 81.0826L23.4464 81.0925H23.4454V81.0935L23.2946 81.0985H23.2916L23.1348 81.1034H23.1338L22.9662 81.1084H22.9642H22.9632L22.7896 81.1134H22.7836L22.2608 81.1243L20.7121 81.164H20.6973H20.6933L20.5802 81.163H20.4671H20.4661L20.352 81.162H20.2429H20.2399H20.221L16.3657 81.035L16.1604 81.029L15.7377 81.028L15.7149 81.0271L14.7774 80.9844L14.7764 80.9824L14.7288 80.9794L13.4073 80.8018L12.185 80.6768L12.1126 80.6749L12.0422 80.6818L11.9906 80.6838H11.9787L11.7356 80.6788L11.6076 80.6759H11.5977L11.3209 80.6649L11.3199 80.6639L11.2773 80.661L10.0143 80.5002L10.0133 80.4993L9.99944 80.4983L9.20278 80.3673L9.03015 80.3653L9.00535 80.3643L8.22953 80.3157L7.71066 80.2879L7.63229 80.2998L7.55887 80.3733L7.01123 79.8256L7.55887 79.278L7.63229 79.3514L7.72852 79.3663L8.26624 79.3802L9.04107 79.3871L9.04206 79.3881L9.10952 79.3931L9.31092 79.4238L10.1314 79.522L11.3656 79.6292H11.6136L11.7376 79.6272L11.9777 79.6212H11.9906L12.0402 79.6232L12.1126 79.6302L12.2069 79.6282H12.2168L12.2515 79.6292L13.5125 79.7145V79.7155L13.5293 79.7165L14.8518 79.8524L15.7645 79.9099L16.1822 79.9189H16.1832L16.3975 79.9248L20.2478 80.0111L20.352 80.0121L20.4661 80.0111H20.4671L20.5802 80.0102L20.6853 80.0092L22.2281 79.9596H22.234L22.7549 79.9476L22.9255 79.9417H22.9265L23.0942 79.9357L23.2489 79.9288H23.2499L23.4007 79.9228H23.4027L23.7053 79.9109L25.2629 79.8088L26.626 79.7006L26.6598 79.6986H26.6608L29.4793 79.6341H29.4833L32.4854 79.5806L37.0996 79.4576H37.1165H37.1274L37.2941 79.4605L39.1334 79.4397H39.1404H39.1424L39.313 79.4407L40.8716 79.4228L41.0234 79.4129H41.0254L42.4163 79.3216H42.4302H42.4312L42.5592 79.3157L44.0731 79.2423H44.0781L44.212 79.2363H44.213L45.7825 79.1629H45.7954L45.9611 79.1579L47.0722 79.1143H47.0782V79.1133L47.2577 79.1083L48.4632 79.0667L48.7638 79.0438L48.8858 79.026L48.9195 79.023L48.9205 79.021L50.2559 78.896L50.3104 78.893H50.3154L50.4404 78.894L51.5972 78.8861L51.7212 78.8801L53.1052 78.7303L53.1221 78.7294L53.123 78.7284L53.3403 78.7105L53.4445 78.7006L53.4991 78.6976L54.508 78.6917H54.512H55.1767H55.1807Z" fill="black"/>
<path d="M70.5607 79.3111L71.5032 79.3636V79.3646L71.5191 79.3656L74.1452 79.6067L75.4974 79.691L76.9488 79.7208L77.6959 79.7367L78.431 79.7436L79.1057 79.7486L79.7634 79.7496H80.7962L81.3032 79.7277L81.323 79.7267L82.1395 79.7238L82.584 79.7198H82.5889H82.6028L83.8806 79.7555L84.341 79.7535H84.342L84.3737 79.7555L84.8559 79.7873L85.3678 79.7922L85.7884 80.2188L85.3856 80.6444L84.8638 80.6732L84.3747 80.705L84.342 80.7059H84.341L83.8796 80.705L82.6038 80.7407H82.5889H82.584L82.1395 80.7367L81.323 80.7327H81.3041L80.7962 80.7109H79.7634L79.1047 80.7119H79.1037H79.0997L78.4231 80.7059L77.685 80.701H77.677L76.927 80.6831H76.9191L75.4577 80.6226H75.4537L74.0817 80.5502V80.5492H74.0688L71.4417 80.3289L70.52 80.2813L69.1579 80.2803L68.5051 80.3289L68.0586 80.3994L67.9961 80.4043V80.4053L67.6915 80.4133H67.6796L67.6519 80.4113L67.5447 80.5184L66.9971 79.9708L67.5447 79.4232L67.6499 79.5283L67.9227 79.4946L68.3801 79.4242L68.4029 79.4222L68.4039 79.4212L69.0894 79.3478L69.1281 79.3458H69.1291L70.52 79.3111L70.5329 79.3101L70.5607 79.3111Z" fill="black"/>
<path d="M27.2622 59.9689L27.5033 60.5492L27.2662 61.1207L27.3356 61.83L27.3376 61.8628L27.3386 61.8638L27.4269 63.4551L27.4279 63.4869V63.4878L27.4378 64.1793L27.538 65.2508L27.541 65.3113V65.3133L27.5549 66.1804V66.1903L27.5598 67.2211L27.6074 74.0081V74.014V74.017L27.6064 74.1132L27.6045 74.89L27.6223 75.0408V75.0478L27.5965 77.9953L27.6094 78.1977L27.6104 78.2285L27.6134 78.2711L27.6124 78.3108L27.5648 79.3376L27.5608 79.3466L27.5499 79.4597L27.542 79.4984L27.4616 79.5628L27.3128 79.8873L27.2572 79.9101L27.2463 79.9359L26.9874 80.043L26.9199 80.1273L26.8872 80.1343L26.7215 80.1531L26.2016 79.9418L26.1739 79.914L26.1719 79.9091L26.1679 79.9081L25.9288 79.3317L25.9328 79.2751L25.908 78.2939V78.2711L25.9139 78.2017L25.9159 78.16L25.9387 77.9576L26.035 75.0131L26.0389 75.0051L26.0528 74.8871L26.0498 74.1132V74.018V74.015L26.0399 67.2281L26.034 66.2042L26.0141 65.357L25.9496 64.2666L25.9486 64.2329H25.9477L25.9358 63.5117V63.5047L25.9229 61.9084V61.9025L25.9258 61.833L26.0151 60.9233L25.8604 60.5492L26.1014 59.9689L26.6818 59.7278L27.2622 59.9689Z" fill="#0069BF"/>
<path d="M33.8024 59.3233L34.9998 59.3927L35.0018 59.3937L35.0296 59.3947L35.0584 59.3977L35.6893 59.4046L36.2529 59.4036H36.2548L36.4086 59.4185L36.4612 59.4284L36.9235 59.477L36.9295 59.483L37.0237 59.4949L37.5743 59.6298L37.5843 59.6328H37.6101L37.611 59.6338L37.6547 59.6358L38.0912 59.6735L38.3769 59.6933L38.9147 60.2697L38.6379 60.7638L38.3898 60.9146L38.1517 60.982L38.1289 61.0088L37.6944 61.0694L37.6101 61.0753L37.6091 61.0763L37.5416 61.0773L37.4771 61.0842L37.3997 61.0882L37.2708 61.0763L36.7529 60.985L36.3927 60.9652L36.2548 60.9791H36.2529L35.6834 60.9771H35.6685L34.9969 60.9622L34.9899 60.9592L34.8709 60.9434L33.7379 60.9017L30.208 60.865L29.8231 60.9066L29.7933 60.9086L29.7913 60.9096L28.57 60.9969H28.5671L28.5661 60.9979L28.1057 61.0297H28.1008L27.3775 61.0783L27.3289 61.0803L27.3279 61.0793L26.946 61.238L26.3656 60.9969L26.1245 60.4166L26.3656 59.8362L26.946 59.5951L27.195 59.6983L27.8875 59.5485L27.9718 59.5395L27.9758 59.5346L28.4341 59.4879H28.449V59.487L29.6693 59.3828L29.6981 59.3818L29.7 59.3808L30.1336 59.36L30.1634 59.359L33.7488 59.3223H33.7577L33.8024 59.3233Z" fill="#0069BF"/>
<path d="M38.2898 60.2126L38.3305 60.1957L38.399 60.2582L38.6906 60.3793L38.7353 60.4854L38.7958 60.5102L38.8682 60.6838L38.9952 60.7999L39.0111 60.9646L39.0151 61.039V61.0559L39.0101 61.2612L39.0081 61.2642L39.0022 61.3575L38.9297 61.8496L38.9079 62.425L39.0091 64.2931L39.0101 64.3487L39.0081 64.4072L38.9595 65.2336L38.9605 65.8189V65.9688L38.9664 67.1186L38.9724 67.2277L39.1291 69.7586L39.1311 69.8231L39.1301 69.8627L39.0924 70.8241L39.0914 70.8261L39.0885 70.8737L39.0825 70.9471V71.7348V71.7378L39.0815 71.9352V71.9551L39.0795 72.0493L39.0389 74.6228L39.1629 75.5872L39.1649 75.613L39.2095 75.8233L39.2065 75.8967L39.1252 77.1358L39.1123 77.1626L39.0795 77.3819L38.8047 78.2956L38.6896 78.3809L38.5508 78.7162L37.8285 79.0159L37.1063 78.7162L36.8066 77.994L36.8096 77.9156L36.882 76.9682L36.9693 75.7399L36.9803 75.7171L36.8662 74.8292L36.8562 74.6844L36.8572 74.6318L36.9842 71.9759L36.9852 71.9729L36.9882 71.9283L36.9951 71.8529L37.0041 71.6763L37.0051 71.6743L37.0061 71.6505L37.0745 70.8152V70.8142L37.0755 70.8023L37.0844 70.71L37.1221 69.8171L37.0447 67.3121V67.3111L37.0398 67.1781V67.1454V67.1404L37.0457 65.9688V65.8189L37.0467 65.2148L37.0299 64.3685V64.3487L37.0318 64.2891L37.1459 62.3764L37.1489 62.3684L37.1559 62.2851L37.266 61.6273L37.2749 61.6204L37.2858 61.544L37.3771 61.2176L37.2888 61.0043V60.9596L37.5299 60.3793L38.1103 60.1382L38.2898 60.2126Z" fill="#0069BF"/>
<path d="M36.7141 59.9124L36.8997 59.956L37.6219 60.4213L37.7598 60.4838L37.9344 60.6862L38.3213 61.722L38.2777 62.094L38.2231 62.3182L38.1924 62.3658L38.1705 62.4859L37.9801 62.9928L37.9493 63.0325L37.9582 63.3867V63.4254L37.8779 63.8302L38.0326 64.1873L38.1517 64.7558L38.1507 64.8183L38.1239 65.4235L38.112 65.4503L38.0644 65.7658L37.8749 66.3898L37.8114 66.4801L37.7737 66.6309L37.4185 67.2966L37.4314 67.3779L37.4285 67.4613L37.4007 67.8879L37.5247 68.1617L37.6348 68.6637L37.6318 68.752L37.5753 69.5139L37.5485 69.5685L37.485 69.881L37.2042 70.5368L37.1814 70.5516L37.1655 70.6171L37.0306 70.8681L37.3044 71.011L37.5287 71.3295L37.6804 71.8047L37.7281 71.9088L37.7459 72.3196L37.7469 72.3682L37.7271 72.5696L37.6308 73.0636L37.6011 73.1132L37.5733 73.2502L37.3025 73.9129L37.2677 73.9357L37.2409 74.0359L37.1735 74.151L37.7816 74.3772L37.8124 74.4337L37.867 74.4566L37.992 74.7582L38.3154 75.3445L38.3789 75.7681L38.3878 75.788L38.4057 75.8713L38.4394 75.9149L38.4741 76.0132L38.5773 76.1382L38.9771 77.2453L38.9622 77.4725L38.9424 77.6214L38.9474 77.6491L38.9761 77.9616L38.9305 78.3535L38.8858 78.543L38.7192 78.802L38.612 79.1353L38.4096 79.2851L38.2886 79.4736L38.0346 79.5629L37.7777 79.7534L37.3699 79.8923L37.1576 79.929L37.0961 79.9637L36.7895 80.0183L36.476 80.046L36.2846 80.0351L35.976 80.0014L34.9611 79.9845L34.9571 79.9826L34.7835 79.9726L34.3192 79.9191L32.4779 80.0371L32.3558 80.0411H32.3549L29.953 80.049H29.946L29.6573 79.929L28.9192 79.7097L28.8597 79.6403L28.6186 79.679L28.4847 79.6899L28.4708 79.6968L28.2079 79.7177L28.069 79.7226L26.8626 79.2236L26.3636 78.0182L26.3765 77.8099L26.3884 77.7067L26.5997 77.3078L26.6235 77.2434L26.5203 77.1005L26.438 76.8406L26.3864 76.5142L26.3616 76.4636L26.3536 76.3812L26.3467 76.2245L26.3477 76.1987L26.3705 74.6123L26.3735 74.6064L26.3953 74.3444L26.5233 73.5875L26.3636 73.0378L26.3368 72.9744L26.3269 72.4862V72.4525L26.3457 72.2035L26.3517 72.1688L26.4459 71.0507L26.4439 70.8949L26.3973 70.1637L26.1632 68.3472L26.1493 68.1279L26.1503 68.0605L26.2009 66.8223L26.2098 66.8025L26.2435 66.5247L26.4439 65.7122L26.5352 65.5723L26.5997 65.3401L26.7763 65.0465L26.7098 64.983L26.5302 64.8719L26.4975 64.7786L26.3923 64.6784L26.2653 64.474L25.9717 63.4482L26.2207 62.4988L26.3854 62.2051L26.5034 62.0851L26.5431 61.97L26.7346 61.844L26.7693 61.7388L26.8318 61.4908L27.1543 61.0007L27.2693 60.717L27.3695 60.6733L27.443 60.5612L28.3101 60.2626L28.4698 60.1931L29.5621 60.1654L29.6077 60.1644L30.3131 60.3142L30.7526 60.5086L32.4808 60.3955L32.5969 60.3915L32.8261 60.4074L33.1069 60.4451L33.7527 60.2269L34.0305 60.1802L34.091 60.1485L34.5037 60.0969L34.9075 59.9769L35.3292 59.9144L35.3589 59.9005L36.2498 59.8667L36.3183 59.8647L36.7141 59.9124Z" fill="#0069BF"/>
<path d="M45.4528 21.8857L45.8854 22.9314L45.5134 23.8302L45.5808 25.0515V25.0525L45.7227 27.3988L45.7237 27.4295L45.7247 27.4315L45.7961 29.379L45.7971 29.4108V29.4118L45.8318 32.1728V32.1896L45.8308 32.2283L45.8279 32.3484L45.8269 32.3504L45.8259 32.3861L45.6503 35.3018L45.6513 35.3763V35.3931V35.408L45.6364 36.6243L45.6413 36.7206L45.6423 36.7702L45.6433 36.7711L45.6612 37.9369L45.6632 38.051V38.0718L45.6691 39.7574V39.7623V39.7663L45.6671 40.6294L45.6681 40.7524L45.7009 41.8319L45.7068 41.944L45.7088 42.0035V42.0045L45.7614 44.9748V44.9947L45.7624 45.1584V45.1643L45.7614 45.21L45.7316 46.1296L45.7336 46.1772L45.9727 48.6833L45.9737 48.6972L45.9747 48.6992L46.0342 49.3718L46.0461 49.4591V49.4641V49.4651L46.1384 50.1625L46.1513 50.352V50.3599L46.1503 50.478L46.1582 53.0773V53.0813L46.1572 53.0912V53.1795L46.1622 54.6875L46.1662 54.7907L46.1672 54.8274V54.8284L46.1811 55.8869L46.182 55.9732V55.9961L46.1791 56.0863L46.068 57.8364L46.0689 57.8771V57.9078L46.066 57.9991L45.9668 59.5002L45.9638 59.5537L45.9132 61.3385L45.9112 61.3425L45.9072 61.4367L45.8953 61.5498V61.5508L45.8943 61.5578L45.7971 62.4566L45.7326 63.2721L45.7306 63.2761L45.7287 63.3128L45.7237 63.3604L45.685 64.924L45.683 65.0023V65.0033V65.0212L45.6066 67.4846L45.6076 67.4935L45.6096 67.5669L45.6076 67.6284L45.5491 68.9281L45.5441 69.0402L45.5411 69.0471L45.5342 69.1533L45.4905 69.4916L45.5471 71.9669V71.9986V72.0066V72.0651L45.6721 73.7328L45.6761 73.837V73.8807L45.8378 75.1575L45.8427 75.224L45.8457 75.2299L45.9281 76.2885L45.941 76.3083L45.9529 76.3669L45.9727 76.5504L45.9816 76.5692L46.0164 77.0941L46.0193 77.1913L46.0183 77.2379L45.9886 78.1536L45.9876 78.1566L45.9856 78.2042L45.9886 78.3292L45.9896 78.3699L45.8328 78.7469L45.7604 79.0207L45.6463 79.2191L45.6354 79.2251L45.5957 79.3213L45.5461 79.3422L45.5322 79.3809L45.3308 79.618L45.2296 79.6646L45.183 79.7598L45.0471 79.866L44.43 80.0793L43.7236 79.7866L43.4309 79.0802L43.4647 78.9949L43.4468 78.984L43.3595 78.8154L43.2028 78.1725L43.2077 78.0574L43.2087 78.0445L43.2117 77.2171L43.1948 76.7776L43.1938 76.7736L43.1829 76.594L43.1839 76.5454L43.1244 75.4115V75.3956L43.1234 75.3946L43.0668 74.0662L43.0549 73.9729L43.0411 73.9441L42.9061 72.3022L42.9022 72.2794L42.8724 71.9986V71.9976L42.8744 69.4549L42.8535 69.0541L42.8516 68.9817L42.8535 68.9102L42.8595 68.7971L42.9131 67.5084V67.5074V67.4965L42.9151 67.4628L42.917 64.9895L42.9151 64.918V64.8942V64.8902L42.92 63.2602L42.926 63.1263L42.9359 63.0241L43.0034 62.2265L43.048 61.3276L43.051 61.3226L43.0549 61.2443L43.0629 61.1728L43.168 59.4049L43.169 59.4039V59.3871L43.176 59.2978L43.2881 57.8394L43.2891 57.7759V57.7749L43.2901 57.7481L43.3655 55.9544L43.3665 55.8849L43.3804 54.8274V54.8264V54.7926L43.3843 54.6865L43.3903 53.1795L43.3893 53.0912V53.0892L43.3744 50.4849V50.484V50.4532L43.2891 49.847V49.8431L43.2722 49.726V49.724L43.1671 49.0464L43.1581 48.9313L43.1532 48.9204L42.9815 46.4044L42.9706 46.3112L42.9637 46.207L42.9607 46.2011L42.918 45.2298L42.917 45.1643V45.1584V45.0095L42.8684 42.059L42.8655 41.933L42.8645 41.9082L42.8535 40.7921V40.7772V40.7703V40.6294L42.8516 39.7663V39.7623L42.8526 39.7107L42.9151 38.0381L42.917 37.9329V37.9319V37.924L42.9458 36.7563L42.9468 36.7553V36.7235L42.9528 36.6055L42.9716 35.3743L42.9726 35.2522L42.9736 35.2513L42.9786 35.1461L43.2494 32.2045L43.2544 32.1341L43.3099 29.4197L43.2921 27.497L43.2325 25.1507L43.2315 25.1189L43.2335 25.0544L43.301 23.8302L42.9289 22.9314L43.3615 21.8857L44.4072 21.4531L45.4528 21.8857Z" fill="#E71224"/>
<path d="M47.5569 63.3275L47.6829 63.3523L48.1611 63.6391L48.4042 63.7393L48.429 63.7998L48.4945 63.8385L48.8189 64.7423L48.8179 64.8137L48.8149 64.8742L48.7088 65.1044L48.4994 65.6957L48.4439 65.7294L48.4409 65.9417L48.4449 67.5886L48.4558 67.7354L48.4875 67.8594L48.5282 68.1759L48.5342 68.1908L48.5441 68.5291L48.6274 68.3962L48.7356 68.1353L48.8129 68.1035L48.8675 68.0172L49.8705 67.666L50.8725 68.0172L50.9271 68.1035L51.0055 68.1353L51.0085 68.1442L51.067 68.0688L52.0869 67.7464L53.081 68.0519L53.2109 68.2126L53.3389 68.2652L53.3548 68.3029L53.8965 68.1511L55.1604 68.664L55.1664 68.6769L55.1783 68.6819L55.3469 69.0887L55.708 69.9131L55.8152 73.7099L55.8162 73.7644L55.7269 73.9787L55.6336 74.4668L55.4342 74.9688L55.1773 75.7427L55.0572 75.9044L54.9669 76.1088L54.9342 76.2109L54.8538 76.2695L54.6564 76.5006L54.6147 76.6028L54.582 76.7943L54.328 77.2358L54.1713 77.6584L54.0463 77.7279L53.9729 77.8558L53.5006 78.0285L53.077 78.2626L52.9252 78.2854L52.6504 78.3063L52.0293 78.1197L51.8359 78.1872L51.6851 78.334L50.4291 78.844L49.438 78.5473L49.2892 78.3717L49.1532 78.3152L49.1344 78.2696L49.1324 78.2686L49.0649 78.1069L48.9965 78.0265L48.5123 77.8588L48.4538 77.7676L48.0441 77.6217L47.5927 77.7795L46.2712 77.2586L46.2563 77.2259L46.2246 77.213L46.0539 76.8012L45.662 75.9788L45.6194 75.3617L45.6154 75.2526L45.6144 75.2506L45.6124 75.076V75.0502L45.7285 74.7694L45.7077 74.7347L45.6323 74.7039L45.5092 74.4063L45.168 73.8418L45.1184 73.6007L45.1035 73.4559L45.0916 73.4341L44.6799 69.6085L44.6729 69.4905L44.6709 69.4845L44.5767 66.7969L44.5757 66.7384L44.6461 66.2701L44.7146 66.0459L44.7959 65.9328L44.7979 65.9139L44.909 65.3752L45.2106 64.8822L45.3148 64.6302L45.3813 64.6024L45.4259 64.529L45.7642 64.4089L46.0281 63.77L46.3377 63.642L46.3803 63.5855L46.7027 63.4813L46.923 63.3504L47.0351 63.3285L47.299 63.3027L47.5569 63.3275Z" fill="#E71224"/>
<path d="M54.9946 75.006L55.4272 76.0517L54.9946 77.0974L53.9489 77.5299L52.9033 77.0974L52.4707 76.0517L52.9033 75.006L53.9489 74.5735L54.9946 75.006Z" fill="#E71224"/>
<path d="M55.3726 72.4676L55.3915 72.5142L55.4054 72.5192L55.4183 72.546L55.4639 72.5678L55.5462 72.667L55.7367 73.1938L55.8974 73.5202L55.9361 73.9706L56.0304 74.0093L56.8052 75.8804L56.3618 77.3457L56.1425 77.5283L56.1375 77.5422L56.0651 77.8398L55.9857 77.9321L55.8885 78.1831L55.6187 78.4787L55.3488 78.6742L55.1792 78.8716L54.8964 79.0779L54.703 79.1414L54.6494 79.1801L54.4619 79.2198L53.3478 79.5849L53.1612 79.6653L51.3209 79.703L51.2564 79.704L51.1314 79.701L50.303 79.6673L50.0669 79.5601L49.4557 79.3776L49.3645 79.3736L48.7404 79.3706L48.7008 79.3835L47.7037 79.5502L46.5122 79.3091L45.5389 78.6533L44.8832 77.6801L44.6431 76.4886L44.8832 75.2971L45.5389 74.3248L46.5122 73.668L47.7037 73.4279L47.7741 73.4289L48.8506 73.4537L48.8535 73.4547L48.9716 73.4587L50.0302 73.5291L50.0649 73.546L50.3982 73.5787L50.6304 73.6254L51.0372 73.5976L51.2564 73.5897H51.2614L52.814 73.5926L52.8388 73.5887L52.9965 72.9428L53.061 72.8168L53.2079 72.7285L53.2813 72.5569L53.2823 72.5559L53.319 72.4676L54.3458 72.043L55.3726 72.4676Z" fill="#E71224"/>
<path d="M55.5875 21.0359L56.2859 21.0835L57.1867 21.5141L57.2264 21.6143L57.2979 21.654L57.3633 21.8296L57.4278 21.8702L57.4566 21.9327L57.5409 22.3077L57.6014 22.4705L57.2979 23.2879L57.2344 23.3237L57.2264 23.3415L57.1728 23.3981L57.1599 23.403L57.155 23.4159L56.8018 23.5618L56.5379 23.7076L56.5181 23.7106L56.4258 23.7175L56.1877 23.8157L56.1292 23.8147L55.6847 23.7959L55.0914 23.9437L54.9238 23.9646L54.896 23.9794L53.9703 24.0826L53.8473 24.0896L53.8434 24.0915H53.8285L52.8483 24.1352L51.7907 24.2225L51.6677 24.2275L51.2093 24.2285L50.5069 24.2662L50.4256 24.2681L50.121 24.2364L49.487 24.1005L48.734 24.0886H48.7331L48.6696 24.0866L46.8748 23.9745L46.8084 23.9953L46.3877 24.0628H46.3649L45.8679 24.0548L45.856 24.0489L45.5038 23.9963L45.3778 23.9586L45.2428 23.9665L45.1288 24.0221L45.0047 24.033L44.8708 24.039L44.8351 24.0241L44.7805 24.036L43.8212 23.6391L43.4243 22.6798L43.4333 22.658L43.3926 22.5607L43.595 22.0429L43.5761 22.0548L43.593 22.022L43.6059 22.0131L43.7825 21.5607L43.8132 21.5458L43.8261 21.5161L44.1327 21.3891L44.7428 21.0885L44.8668 21.0775L45.0008 21.0716L45.8133 21.4079H45.8202L46.3004 21.3782H46.3014L46.6139 21.3553L46.6695 21.3533L46.6715 21.3524L48.7132 21.2928H48.7559H48.7708L49.6626 21.3018L49.6636 21.3028L49.7728 21.3077L50.4752 21.3712L51.1062 21.3573L51.5645 21.3266L51.6488 21.3236H51.6508L52.7292 21.3117L53.6995 21.2799L54.515 21.1629L55.1629 21.0448L55.4208 21.021L55.5875 21.0359Z" fill="#E71224"/>
<path d="M58.1897 22.466L58.6223 23.5117L58.3107 24.2627L58.3633 25.1516L58.3653 25.226L58.3584 25.352L58.3207 25.7151L58.2879 26.359L58.2215 28.5307L58.2205 28.5327L58.2185 28.5813L58.0181 31.2878L58.0389 31.6142L58.0419 31.6985L58.0389 31.7779L57.9089 33.8503L57.9407 34.6381L57.9417 34.6599V34.6609L57.9437 34.7442V34.7621V34.7631L57.9724 37.1977V37.2136V37.281L57.9972 38.666V38.6908V38.787L58.0419 41.4746L58.0429 41.4984L58.033 41.6602L58.032 41.6701L58.0399 42.5977V42.6096V42.6235L58.0349 43.064L58.034 43.1086L58.03 43.1959L58.029 43.1999L58.025 43.2743L57.8564 44.9698L57.8276 46.1385L57.8256 46.2367H57.8246V46.2447L57.7829 47.7586L57.781 47.7636L57.773 47.8886L57.7482 48.0979L57.7443 48.1753L57.7333 48.2001L57.6887 48.5047L57.6163 48.7467L57.149 49.4124L57.1133 49.4243L57.1024 49.4452L56.9506 49.5493L56.2978 49.7517L55.8851 49.4987L55.5041 49.3569L55.4257 49.217L55.2739 49.1237L55.1926 48.963L55.1211 48.6684L55.0616 48.5622L55.0259 48.331L55.009 48.1128L55.01 48.0533L55.012 48.0076L54.9981 47.834L54.9932 47.7179L54.9961 47.6316L55.0854 46.1782V46.1355L55.0547 44.9192L55.0537 44.8815L55.0586 44.7684L55.2015 43.0134V43.0124L55.2025 43.0045L55.2055 42.9727L55.2114 42.5858L55.2124 42.5838L55.2154 42.5034L55.2868 41.5421V41.4984L55.2878 41.4588L55.3662 38.7781V38.6948L55.3573 37.3009V37.2919V37.2136V37.2106L55.3632 34.774V34.7452L55.3652 34.6589L55.3662 34.6401L55.4009 33.7819L55.4019 33.7809V33.763L55.5269 31.6221L55.5279 31.6181L55.5547 31.1995V31.1985V31.1895L55.764 28.4067L55.887 26.2548L55.9079 25.5812V25.5733L55.9238 25.1754L55.9247 25.1744V25.1546L55.9773 24.2627L55.6658 23.5117L56.0984 22.466L57.144 22.0334L58.1897 22.466Z" fill="#E71224"/>
<path d="M57.6739 40.3815L58.1065 41.4272L57.7573 42.2705L57.7602 42.3469V42.3499L57.793 43.1356L57.795 43.1862V43.1902L57.789 45.2825L57.788 45.3271L57.7523 46.221L57.8317 50.1378L57.9795 53.2332L57.9815 53.3076V53.3126L57.9795 54.0963L57.9844 54.1469L57.9904 54.262L57.9924 54.266L58.0301 55.6678L58.0311 55.6976L58.04 56.8186V56.8315L58.039 56.8782L58.035 57.0131V58.3336L58.036 58.4645L58.044 59.8287V59.9239L58.0896 61.5281V61.5678V61.5688L58.0916 62.1442L58.0946 62.2385V62.2792V62.2831L58.0906 63.7098V63.7108L58.0896 63.7485L58.0876 63.8526L58.0866 63.8536L58.0856 63.8903L57.9666 66.1196L57.9636 66.2188L57.9626 66.2863L57.9874 67.9321V67.9569V68.0869V68.0998L57.9646 70.71L57.9666 70.8152L57.9676 70.8499L57.9666 70.9045L57.9041 72.6258V72.6595V72.6655L57.8971 74.2221V74.2429L57.8783 75.3104L57.8753 75.3163L57.8664 75.4285L57.8426 77.3482L57.8366 77.3631L57.7424 77.876L57.669 78.0734L57.414 78.3978L57.3386 78.5804L57.2384 78.621L57.1412 78.745L56.3068 79.007L55.275 78.5804L55.2155 78.4355L55.1917 78.4256L55.154 78.3343L55.0359 78.2659L54.9417 78.0992L54.7373 77.3283L54.7383 77.2857L54.7919 75.3044L54.7958 75.2965L54.8048 75.1923L54.8296 74.1824L54.8564 72.6456V72.597L54.8573 72.5345L54.9288 70.8003L54.9308 70.6961L54.9526 68.08V67.9569V67.9331L54.9784 66.2863L54.9774 66.2168L54.9734 66.1007V66.0571V66.0541L54.9774 63.804L54.9824 63.678L54.9863 63.6304L55.0042 62.2583V62.2573V62.2405L55.0062 62.1432L55.0081 61.5678H55.0091V61.5301L55.0548 59.9239V59.8277L55.0627 58.4635L55.0637 58.3336V57.0131L55.0597 56.8811L55.0587 56.8315V56.8196L55.0677 55.7075L55.0607 54.3553L55.0548 54.266L55.0538 54.2342V54.2322L55.0171 53.3741L55.0151 53.3076L55.0161 53.263L55.1093 50.1408L55.1103 50.1299L55.2691 46.1565V46.1526L55.3117 45.219V45.217L55.3137 45.1883L55.4635 43.1177L55.4963 42.3469L55.4992 42.2705L55.15 41.4272L55.5826 40.3815L56.6282 39.949L57.6739 40.3815Z" fill="#E71224"/>
<path d="M47.2098 22.6394L47.7574 22.6939L47.9618 22.7981L48.685 22.9807L49.196 23.2535L49.3656 23.4162L49.9688 23.9182L50.2307 24.2644L50.3359 24.2882L50.4976 24.2039L50.955 24.0898L51.1325 23.9896L51.9242 23.8616L52.0631 23.8497L52.3558 23.6573L52.5364 23.6027L52.6812 23.4856L53.1187 23.31L53.7824 23.1791H53.7844H53.8241L54.3777 23.0541H54.3787L54.6327 23.0531H54.6337L55.2755 23.1741L55.5166 23.2674L55.8986 23.571L56.1149 23.6602L56.1655 23.7843L56.3192 23.9063L56.6327 24.9103L56.6288 25.0155L56.5812 25.8181L56.5365 25.9143L56.47 26.199L56.477 26.2338L56.5077 26.5453L56.4879 26.7993L56.3599 27.5721L56.2607 27.7457L56.1595 28.1178L55.7537 28.8033L56.3083 29.9799L56.3659 30.8649L56.3728 31.0623L56.3589 31.346L56.3242 31.6992L56.5415 32.7786L56.5851 33.2082L56.5931 33.2241L56.6536 35.7242V35.7877L56.6516 35.9008L56.5722 37.6181L56.5702 37.6241L56.5663 37.7153L56.4512 39.0447L56.4482 39.0497L56.4452 39.0963L56.3986 39.5269L55.8043 40.6777L55.6109 41.145L55.5722 41.4476L55.5464 41.4962L55.5176 41.7413L54.7587 45.0083L54.712 45.0807L54.6803 45.2781L54.2904 46.427L54.5087 48.7643L54.5235 49.0719L54.2745 50.309L53.5929 51.319L52.583 51.9996L51.3458 52.2496L50.1494 52.0165L50.1305 52.0045L50.1097 51.9996L49.7912 51.7853L49.1602 51.3785L49.1483 51.3517L49.0997 51.319L48.4182 50.309L48.2277 49.3636L48.1731 49.2465L48.1354 48.552L47.9499 48.2762L47.9231 48.18L47.8229 47.4478L47.8943 46.8317L48.0124 46.3248L47.6036 38.893L46.8467 38.64L45.8337 37.1855L45.2901 35.3581L45.2494 35.0863L45.2097 35.0158L45.1343 34.5783L45.1333 34.5733L44.7444 32.4036L44.7256 32.1883L44.7107 32.1596L44.4746 29.719L44.4617 29.4611L44.4527 29.4452L44.3198 28.9174L44.1878 28.6902L44.1591 28.5424L44.1134 28.0513L44.1253 27.962L44.0241 27.7804L43.8902 26.9461L43.8545 26.5066L44.1214 25.3369L44.3674 24.823L44.4785 24.699L45.0063 23.4251L46.9369 22.6255L47.2098 22.6394Z" fill="#E71224"/>
<path d="M47.5777 32.3867L47.6263 32.4432L47.6888 32.4631L47.9051 32.7607L48.4002 33.3262L48.5787 33.7052L48.6273 33.9225L48.7524 34.2985L48.7772 34.3421L48.7871 34.4017L49.0738 35.2638L49.0917 35.3739L49.1174 35.4146L49.169 35.6071L49.1899 35.7608L49.2117 35.7985L49.3367 36.499L49.3645 36.8035L49.5411 36.87L49.5758 36.9315L49.6353 36.9563L49.9389 37.251L50.0887 37.6081L50.4409 38.2996L50.5044 38.2738L50.7088 38.3591L51.9043 38.8145L51.931 38.8651L51.9886 38.8889L52.1622 39.3076L52.5868 40.1221L52.8408 42.2502L52.8547 42.1738L52.8835 42.1252L52.8656 42.0825V41.9694L53.2982 40.9247L54.3438 40.4912L55.3895 40.9247L55.8221 41.9694V42.0825L55.6197 42.5716L55.6028 44.3792L55.7457 46.8515L56.0116 50.7247L56.0165 50.8566L56.0145 50.9281L55.9332 53.0184L55.9322 53.0204L55.9312 53.0611L55.8538 54.2774L55.9947 57.6376L55.9967 57.7239V57.7269L55.9937 59.7171L55.9927 59.72L55.8647 60.4234L55.7199 60.8074L55.5165 61.0653L55.4302 61.3173L55.2437 61.4394L55.2099 61.5217L55.1345 61.5534L54.9966 61.7281L54.6246 61.8451L54.3498 62.0237L54.325 62.0306L54.1365 62.0554L54.1573 62.3709L54.1633 62.5227L54.1613 62.6021L54.1166 63.8045L54.1067 64.0525L53.6117 65.1548L53.3964 65.6746L53.3745 65.6836L53.3636 65.7064L52.4628 66.0695L52.4559 66.1369L52.4489 66.1508L52.442 66.2411L52.188 67.9158L52.184 67.9237L52.1801 67.9604L52.0868 68.4942L51.9787 68.6807L51.8666 69.1718L51.2018 70.02L51.179 70.0597L51.1671 70.0637L51.1552 70.0786L50.9102 70.2809L49.179 70.905L48.6829 70.8583L48.6075 70.8455L48.4537 70.7542L48.0331 70.6659L47.9557 70.6331L47.6601 70.3821L47.3793 70.2859L47.2682 70.1133L47.2592 70.1093L47.2473 70.0805L47.2067 70.019L47.033 69.9159L46.9993 69.8226L46.788 69.644L46.6362 69.1371L46.417 68.7987L45.9626 66.9792L45.9179 66.6191L45.8892 66.5626L45.8624 66.3046V66.3036L45.6153 64.1775L45.6143 64.1736L45.5796 63.8918V63.8879L45.3425 62.0604L45.2969 61.7598L45.2959 61.7509L45.2949 61.7499L44.9645 59.6109L44.9467 59.5494L44.8832 59.096L44.8465 59.0236L44.5578 56.1267L44.5498 55.9729L44.5449 55.963L44.5359 55.7665L44.5349 55.7318L44.5339 55.7298L44.4784 54.2923L44.4764 54.1712V54.1335L44.4784 53.9678V53.949L44.5955 48.047L44.4506 43.9457L44.2323 40.5834L43.9675 37.625L43.9565 37.3908L43.9734 37.1031L44.1272 35.7668L44.1044 34.7757L44.1034 34.7181V34.7092L44.1054 34.2747L44.5578 33.1923L44.7651 32.6903L44.7681 32.6893L44.7691 32.6873L46.3594 32.0295L47.5777 32.3867Z" fill="#E71224"/>
<path d="M55.1067 61.279L55.2198 61.5369L55.579 61.6857L55.58 61.6867L55.7367 62.0637L56.0562 62.8326L56.0592 64.1571V64.161L56.0453 64.3773L55.7496 66.6075L55.6703 67.2425L55.5641 67.4429L55.1464 69.5838L54.7595 70.2287L54.6583 70.4648L54.4024 70.7089L53.9966 70.8706L53.948 71.6137L53.565 72.4212L53.4053 72.8052L53.3765 72.8171L53.3626 72.8469L52.0858 73.3518L51.562 73.2139L51.2376 73.836L50.9875 74.1029L50.9201 74.2666L50.7792 74.3241L50.5887 74.5275L49.6502 74.7924L49.5718 74.7606L48.672 74.4997L48.5152 74.3221L48.3803 74.2666L48.3624 74.2249L48.3565 74.2219L48.297 74.0781L48.0529 73.8032L48.043 73.7844L47.8743 73.0592L47.8753 73.0483L47.8545 72.9967L47.8684 72.7734L47.911 72.4282L47.9259 72.0085L48.0241 69.2545L48.036 68.8546L48.2791 68.303L48.296 68.0987L48.2999 68.0907L48.3039 68.0223L48.5182 66.3288L48.5549 66.2603L48.6045 65.9607L48.8258 65.3099L49.1055 64.9359L49.2097 64.665L49.4339 64.418L49.4776 64.3981L49.4964 64.3515L50.8288 63.7999L51.1185 63.8783L51.3447 63.5519L51.4538 63.279L51.5292 63.2007L51.5461 63.1937L51.553 63.1769L51.6235 63.1481L51.6592 63.0975L51.9251 63.0082L51.7465 62.5766L52.058 61.6689L52.8527 61.146L53.1245 61.0746L53.5065 61.025L53.6533 61.0855L54.2 60.9099L55.1067 61.279Z" fill="#E71224"/>
<path d="M64.8636 43.546L65.1047 44.1264L64.9787 44.43L64.9271 46.185V46.1919L64.8844 47.2565L64.8993 48.7486L64.9281 49.3161L64.9291 49.3587V49.3667L64.9221 50.082L64.9936 60.3254V60.3314V60.3452L64.9807 61.2203L64.9817 61.3175V61.3244L64.9807 61.374L64.9241 62.4088L64.9211 62.5239L64.9191 62.5269L64.9152 62.5993L64.9072 62.6687L64.9092 64.9952L64.9201 66.0657L64.9211 66.1629V66.1699L64.943 68.5261L64.9697 69.799L64.9717 69.8902V69.917V69.9309L64.9559 71.1601L64.9549 71.2454L65.0144 74.8378V74.8567V74.8874L65.0124 74.9638L64.9648 78.7447L64.9638 78.7477L64.9588 78.8052L64.9608 78.8549L64.9539 78.8697L64.9519 78.9005L64.943 78.957L64.8487 79.1247L64.6433 79.6208L63.8774 79.9372L63.1532 79.6604L63.1383 79.6317L63.1115 79.6208L63.0213 79.4025L62.8 78.9719L62.7931 78.9035L62.7861 78.7814L62.7881 78.711L62.7901 78.6892L62.8318 74.9499L62.8308 74.8884L62.8298 74.8567V74.8458L62.8675 71.2484L62.8665 71.1591V71.1462V71.1413L62.8724 69.9121L62.8734 69.8912L62.8754 69.796L62.9022 68.5192V68.5172L62.9578 66.1589L62.9588 66.0647L62.9697 64.9903V64.9674L63.051 62.5824L63.052 62.5804L63.053 62.5546L63.0609 62.4296L63.0679 62.3106V62.3066L63.1344 61.2897V61.2104V61.2094L63.1354 61.1717L63.178 60.3026L63.3288 50.0849L63.311 49.3806L63.31 49.3587L63.311 49.3329L63.3288 48.7466L63.3784 47.2188V47.2178L63.3794 47.1969L63.4489 46.1126V46.1076L63.5758 44.4012L63.4618 44.1264L63.7028 43.546L64.2832 43.3049L64.8636 43.546Z" fill="#02A556"/>
<path d="M76.3462 44.0017L76.1031 44.4947L76.0069 44.5692L75.9424 44.6386L75.8006 44.7001L75.748 44.7874L75.5813 44.8747L75.494 44.9263L75.3164 44.9769L75.2866 45.0156L75.1765 45.0464L75.0089 45.0692L74.994 45.0751L74.5098 45.0999L74.365 45.1188H74.3571L72.5991 45.1009H72.5455L71.345 45.096H71.3232L71.226 45.093L71.224 45.092L71.1764 45.089L71.0097 45.0741L71.0077 45.0731H70.9968L70.3718 45.0017L69.8142 45.0473L69.7478 45.0503H69.7349L69.6327 45.0483L69.592 45.0464L68.9888 45.0047L67.0274 44.9581V44.9571H67.0125L65.8577 44.9035L65.3319 44.9729L65.2744 44.9769L65.2734 44.9789L64.6047 45.0146H64.573L64.1652 45.1843L63.5848 44.9432L63.3438 44.3628L63.5848 43.7824L64.1652 43.5413L64.3706 43.6267L64.4361 43.6019L64.4956 43.6267L64.5482 43.6048L64.5551 43.5979L65.198 43.588L65.7605 43.5344L65.7962 43.5324H65.7972L67.0106 43.4759L67.0284 43.4749L69.0057 43.4272L69.0255 43.4263L69.0721 43.4282L69.6634 43.463L69.7101 43.462L70.3202 43.4143L70.3847 43.4114H70.3966L71.103 43.4223L71.1268 43.4233L71.2925 43.4302L71.2944 43.4312L71.3252 43.4322L71.3837 43.4382L72.5455 43.4332L72.5991 43.4322L74.3571 43.4153H74.365L74.4275 43.4173L74.4434 43.4183L74.9206 43.4014H74.9523L75.1706 43.4302L75.241 43.4491L75.246 43.4481L75.3819 43.4322L75.3849 43.4282L75.4662 43.4253L75.5694 43.3995L75.7242 43.3806L76.3462 44.0017Z" fill="#02A556"/>
<path d="M76.3979 44.0975L76.639 44.6779L76.4485 45.1363L76.4515 45.171V45.1789L76.5358 46.7226L76.5964 47.4459L76.5983 47.4806V47.4816L76.7392 51.1196V51.1474H76.7402L76.7452 52.2387L76.8364 55.7408V55.7567L76.8374 55.9015L76.9099 58.5088L76.9158 58.6635V58.6675L76.9753 60.1606L77.0339 60.9979L77.0458 61.0892L77.0517 61.1845L77.0527 61.1864L77.0874 63.4802V63.4941V63.4961L77.0864 63.8611V63.9782L77.0874 65.9346V65.9356V66.0656V66.0924L77.02 68.1996L77.019 68.9873V68.9893L77.018 69.0776L77.022 71.2573V71.2582V71.8753L77.0656 74.048V74.0659V74.1621V74.1879L76.9922 76.6364L76.9912 76.6374V76.6503L76.9644 77.2277V77.2803L76.9595 77.3716L76.8999 77.9331L76.8483 77.9787L76.6688 78.4133L76.5507 78.4619L76.5259 78.4847L76.2739 78.8111L76.1668 78.8637L76.0676 79.0244L76.01 79.0532L75.7551 79.1157L75.2005 78.5601L75.261 78.3091L75.2927 78.2446L75.3086 78.2357L75.3701 78.0273L75.3483 77.9738L75.2987 77.9291L75.2402 77.3755L75.2352 77.2803V77.2069L75.2362 77.1662L75.264 76.5729L75.3473 74.1472V74.0728L75.3126 71.8991V71.8843V71.2582V71.2573L75.3155 69.0776V68.9893V68.9863V68.9754L75.3255 68.1738L75.3265 68.1679L75.3701 66.0557V65.9356V65.9346L75.3721 63.9782V63.8611L75.3711 63.499L75.3493 61.2311L75.3433 61.1388V61.1378L75.2818 60.2697L75.2808 60.244L75.2798 60.243L75.2153 58.7399V58.725L75.2144 58.7241L75.2104 58.5623V58.5395L75.2034 55.9174V55.9154V55.9095L75.2044 55.7626L75.1836 52.2585L75.1657 51.1643V51.1514V51.1474L75.1826 47.5203L75.1548 46.797V46.7702V46.7573L75.1826 45.2017L75.1836 45.173L75.1866 45.1363L74.9961 44.6779L75.2372 44.0975L75.8176 43.8564L76.3979 44.0975Z" fill="#02A556"/>
<path d="M76.0906 48.4203L76.4606 49.3152L76.4319 49.5821L76.4061 49.7021L76.3763 49.8837L76.3366 50.3688L76.3336 50.3768L76.3287 50.4422L76.0102 52.5634L76.0033 52.5763L75.9973 52.6338L75.8912 53.111L75.8922 53.2023V53.2171V53.2479L75.8753 53.8809L75.8624 55.3591V55.3601L75.8604 55.4196L75.7096 57.8929L75.7076 57.8979L75.7037 57.9584L75.5906 58.9068L75.5896 59.0001L75.6025 59.1271L75.6094 59.2501L75.6084 59.2987L75.5062 61.6292L75.5042 61.6351L75.4983 61.7264L75.3842 62.5598L75.2483 64.2691L75.2453 64.2751L75.2413 64.3287L75.2007 64.6213L75.2314 65.0628L75.2344 65.1293V65.1303L75.2394 65.8615L75.3336 66.2474L75.3316 66.3049L75.3128 66.5996L75.3247 66.796L75.3257 66.8456V66.8724L75.28 68.1998L75.278 68.2048L75.2711 68.2991L75.2384 68.5005L75.2403 68.5034L75.3267 68.8695L75.3257 68.9052L75.3157 69.1354L75.3386 69.1503L75.411 69.3219L75.4784 69.6473L75.4715 69.7515L75.409 70.2426L75.4457 70.3805L75.4398 70.4708L75.3544 71.2386L75.3525 71.2406L75.3505 71.2625L75.2364 72.0234L75.4159 72.456L75.415 72.4917L75.3971 72.8865L75.3941 72.8915L75.3892 72.9639L75.279 73.6812L75.2771 73.6832L75.2741 73.71L75.2721 73.7209L75.2979 73.7854L75.3257 73.7774L76.0003 74.4511L76.0013 74.8906V74.8916L75.9904 75.0126L75.8445 75.8093L75.8961 75.8618L75.8922 75.9333L75.8495 76.2865L75.8445 76.2904L75.8366 76.3559L75.6412 77.1516L75.6541 77.228L75.6908 77.3163L75.6868 77.3956L75.6352 77.9234L75.3713 78.4482L75.3038 78.474L75.283 78.5246L75.0141 78.6367L75.0122 78.6387L75.0032 78.6407L74.9814 78.6496L74.9626 78.6834L74.3861 79.0108L73.9933 79.8729L73.8792 79.9463L73.8117 80.11L73.774 80.1259L73.7542 80.1626L73.7234 80.1854L73.2849 80.3283L72.7581 80.11L72.5398 79.5832L72.5647 79.478L72.5666 79.4453L72.6083 79.109L72.6152 79.102L72.6281 79.0088L72.9407 77.8837L72.9436 77.8817L72.9456 77.8669L73.1083 77.348L72.9972 77.0791L72.5071 76.8758L72.2551 76.2676L72.267 76.1228L72.2869 76.0087L72.0349 75.9045L71.8751 75.5186L71.7759 75.4402L71.7204 75.2031L71.6946 74.9828L71.2769 74.8211L71.261 74.7904L71.2323 74.7785L71.1202 74.5066L71.0388 74.3439L70.7997 74.2477L70.7947 74.2358L70.7828 74.2308L70.6608 73.9372L70.3959 73.3449L70.3711 72.6603L70.3701 72.6077L70.3731 72.5105L70.3929 72.2456L70.3314 72.1762L70.263 72.0343L70.1201 71.4123L70.1231 71.318L70.2372 69.6176L70.2412 69.6096L70.2471 69.5243L70.7223 66.0857L70.7293 66.0728V66.0718V66.0668L70.7352 65.9369L71.012 62.8653L71.019 62.8534L71.0259 62.7631L71.3017 61.1192L71.8315 56.631L71.8613 55.879L71.8652 55.869L71.8791 55.7014L72.2502 53.4076L72.274 53.365L72.2988 53.2043L72.5647 52.3332L72.5736 52.2846L72.5855 52.2647L72.5954 52.1913L73.0756 50.343L73.1946 50.1635L73.2681 49.9313L73.3901 49.7567L73.5786 49.2626L73.7681 49.0226L73.8385 48.835L74.0816 48.5582L74.2175 48.4967L74.2988 48.4303L74.3018 48.4203L74.3167 48.4144L74.5627 48.21L74.6917 48.1545L75.1967 48.0503L76.0906 48.4203Z" fill="#02A556"/>
<path d="M75.6467 45.2537L75.9006 45.8658L75.8738 46.0782L75.6615 46.9185L75.3798 48.1378L75.2964 49.5436L75.2955 49.5475L75.2925 49.5951L75.1705 50.6349L75.1635 50.6478L75.1556 50.7242L75.0673 51.1269L75.0593 51.1398L75.0544 51.1785L75.0355 51.245L74.9571 51.3035L74.8927 51.4077L74.7855 51.6667L74.5385 51.7688L74.4611 51.9385L74.3609 52.1786L74.349 52.1835L74.343 52.1964L73.5573 52.5109L73.3301 52.4167L73.2984 52.4693L72.5483 52.7391L71.7418 52.4187L71.7328 52.4008L71.715 52.3939L71.6108 52.1409L71.3727 51.6349L71.335 51.0297L71.334 51.0019L71.088 51.1041L70.4262 50.8293L70.1524 50.1676V50.1299L70.1554 50.0644L70.1346 49.9702L70.1177 49.8134L70.1107 49.7995L70.0889 49.4265L70.0859 49.3561L70.2625 48.7568L70.8836 47.7885L70.9322 47.7627L70.96 47.6854L71.5602 46.9502L71.5691 46.9452L71.5741 46.9333L72.1148 46.2994L72.2973 46.2151L72.3737 46.0791L72.5583 45.968L73.1118 45.8123L73.589 46.0018L73.6396 45.8867L73.7448 45.7904L73.9105 45.726L73.9412 45.6972L74.2091 45.594L74.2438 45.5136L74.342 45.4511L74.4234 45.2537L75.0345 45.0007L75.6467 45.2537Z" fill="#02A556"/>
<path d="M69.1461 43.6365L69.6997 43.6494L69.7116 43.6543L70.0142 43.6871L70.5311 43.8022L71.052 44.1276L71.294 44.2278L71.7593 44.0244L72.3427 43.9014H72.3804L72.7594 43.9113L72.7742 43.9182L73.0967 43.9619L73.3397 44.0284L73.7038 44.2764L73.9271 44.3657L73.9677 44.455L74.0689 44.5244L74.1761 44.8419L74.3358 44.9818L74.4816 45.3022L74.6195 45.3995L74.7694 45.8251L74.7892 45.9411L74.8051 45.954L74.9291 46.5562L74.9479 46.7398L74.9221 46.9521L74.8378 47.2963L74.7684 47.3499L74.6146 47.721L74.0342 47.962H73.9836L73.4032 47.721L73.2693 47.3975L73.0431 47.6376L73.0123 47.6515L72.9985 47.6833L72.3308 48.3281L72.0331 48.4482L71.9419 48.5881L71.6125 48.7329L71.0738 48.847L70.795 48.8172L70.547 48.7637L70.3307 48.6297L70.0529 48.5385L69.9527 48.3976L69.8079 48.3857L69.4378 48.3252L69.3624 48.2825L69.1203 48.2369L69.0191 48.1962L68.8604 48.3123L67.9278 48.6168L67.5786 48.473L67.5161 48.843L67.5697 49.2726L67.7691 50.1397L67.8127 50.5177L67.7889 50.7955L67.6391 51.6695L67.3346 52.1993L67.2244 52.4652L67.1689 52.488L67.1342 52.5485L66.1688 52.9027L65.2035 52.5485L65.1688 52.489L65.1123 52.4652L64.9982 52.1904L64.6966 51.6606L64.5874 51.0276L64.261 50.358L64.1519 49.8907L64.0884 49.7677L64.0041 49.0028L63.9932 48.8043L63.9981 48.6704L64.2075 45.9312L64.2223 45.9005L64.2511 45.6524L64.2838 45.5116L64.7362 44.8022L64.8394 44.5661L65.0458 44.3756L65.6678 44.1315L66.2065 43.8796L67.3604 43.8091L68.9219 43.6454L69.1064 43.6355L69.1461 43.6365Z" fill="#02A556"/>
<path d="M66.234 46.5472L66.3749 46.4937L67.0634 46.7784L67.1298 46.9401L67.2281 46.9977L67.3828 47.2784L67.3947 47.2477L67.5693 47.1306L67.6824 46.8588L67.8104 46.8052L67.866 46.709L67.9067 46.6851L68.4603 46.5363L69.2391 46.8588L69.3373 47.0949L69.4593 47.1733L69.622 47.5245L69.6815 47.7864L69.7153 47.8528L69.7321 47.9997L70.6538 47.6247L70.8532 47.6386L71.1548 47.6832L71.9604 48.1287L71.9693 48.1515L71.9872 48.1594L72.2312 48.46L72.3394 48.7616L72.4971 49.0305L72.5814 49.4799L72.6628 49.7041L72.6846 49.8251L72.7084 49.8648L72.882 50.6972L72.9039 50.9095L72.9068 50.9165L72.9386 52.4373V52.4631V52.5068L72.8463 55.0029L72.8443 55.0059L72.8414 55.0664L72.6142 57.5457L72.6092 57.5566L72.6023 57.6379L72.4058 58.7868L72.3999 58.7967L72.3949 58.8374L72.265 59.4326L71.9624 59.9178L71.8731 60.1301L71.7441 60.2541L71.3106 60.4297L71.3522 60.9188V60.9218L71.6072 63.8415L71.6528 63.6838L71.7253 63.1798L72.0001 62.6798L72.1032 62.4318L72.1469 62.4139L72.1717 62.3683L73.0507 62.0399L73.5825 62.2373L73.5854 62.2284L73.6142 62.2165L73.6291 62.1867L74.5726 61.8196L75.5171 62.1867L75.5319 62.2165L75.5607 62.2284L75.6808 62.5181L75.9645 63.0935L76.1133 64.786L76.1183 64.907L76.1193 64.909L76.1252 65.7305L76.1589 66.7692L76.2125 67.5371L76.2165 67.6423V67.6651L76.1986 68.805L76.1163 74.2516L76.2056 75.583L76.2066 75.591V75.592L76.3663 78.095L76.3703 78.1982L76.2562 78.472L76.0597 79.0951L75.9893 79.1963L75.9476 79.2181L75.9179 79.2895L75.8574 79.3143L75.8266 79.3897L74.7819 79.8223L74.5388 79.8024L74.1351 79.735L73.9009 79.601L73.761 79.5564L73.1321 79.6378L72.9267 79.6506L72.6935 79.6338L72.0923 79.5425L71.5467 79.5524L71.5268 79.5534L71.4604 79.5544L70.8711 79.4413L70.8343 79.4264L69.4315 79.5792L69.3363 79.5852L69.3303 79.5881L69.0059 79.606L68.9533 79.608H68.9464L68.9325 79.609L67.1338 79.6933L67.0396 79.6953L65.9145 79.3302L65.7707 79.225L65.4671 79.3391L64.1972 78.8133L63.6714 77.5434L63.6833 77.34L63.7349 76.8857L63.8351 76.6922L63.9819 76.1674L64.2131 75.7834L64.2369 75.7606L64.2448 75.7338L64.4333 75.4461L64.2319 74.1762L64.2309 74.1733L64.1049 73.4213L64.0811 73.1454L64.1109 72.8389L64.1992 72.3845L64.3321 72.1613L64.4403 71.8111L64.5861 71.694L64.594 71.4261L64.2428 70.5799V70.567L64.2498 69.7604L64.2508 69.7584L64.2587 69.6404L64.1645 63.9626L64.0027 59.5378V59.518L63.8906 55.1507V55.1478V55.1468L63.8678 54.2142L63.8668 54.1715L64.344 53.0207L64.4879 52.9612L64.476 52.7995L64.47 52.6665L64.476 52.5237L64.4988 52.2707L64.8183 51.6238L64.9472 51.3123L64.979 51.2994L64.9958 51.2667L65.6685 51.0048L65.48 50.222L65.4512 49.9878L65.4433 49.97L65.35 48.0017L65.349 47.9471L65.356 47.8251L65.3778 47.6227L65.2429 47.2983L65.484 46.7179L66.0643 46.4768L66.234 46.5472ZM73.0636 68.9925L73.0596 68.9985L73.0576 69.0153L72.9009 69.7386L72.8414 69.8358L72.7918 70.057L72.5031 70.6711L72.3265 70.8706L72.5279 71.1831L72.6558 71.7069L72.7025 72.0799L72.6985 72.1821L72.6558 72.82L72.6945 72.9341L72.8116 73.073L73.0289 73.5681L73.0477 73.6554L73.0795 73.699L73.1321 73.8578L73.2749 68.7385V68.7316L73.2809 68.556L73.1807 68.5262L73.1588 68.5004L73.0636 68.9925Z" fill="#02A556"/>
</g>
<defs>
<clipPath id="clip0">
<rect width="1500" height="1000" fill="white" transform="translate(-970 -307)"/>
</clipPath>
</defs>
</svg>
