<svg width="76" height="66" viewBox="0 0 76 66" fill="none" xmlns="http://www.w3.org/2000/svg">
<g clip-path="url(#clip0)">
<path d="M495.054 -422H-1005V578.036H495.054V-422Z" fill="white"/>
<path d="M50.3548 36.3478L50.7041 36.3623L50.71 36.3631L51.0499 36.3827H51.0508L51.0661 36.3836L51.4171 36.4176V36.4185L51.4282 36.4193L52.1225 36.5071L52.125 36.5096L52.1557 36.513L52.4692 36.5778L53.063 36.6758L53.3969 36.7243L53.3978 36.7252L53.408 36.726L53.707 36.7797L53.9745 36.8206L54.5334 36.8555H54.5342L54.547 36.8564L54.8307 36.8853L55.1246 36.8998L55.4176 36.9109L55.703 36.8887L55.7286 36.887L56.0489 37.2073L55.7644 37.5251L55.4619 37.5592L55.4466 37.56L55.4457 37.5609L55.1339 37.5822H55.1263H55.1254L54.8247 37.5975L54.5359 37.6171L54.5087 37.618L54.4942 37.6171L53.9225 37.595L53.632 37.5915H53.6193L53.3126 37.5779L53.3117 37.5771L53.2725 37.5745L52.9309 37.5268L52.9267 37.526L52.3338 37.4339L52.0203 37.405L52.0194 37.4041L52.0075 37.4033L51.32 37.3181L50.9869 37.2857L50.6674 37.2678L50.336 37.2636L49.8002 37.2729L49.5617 37.2815L48.8512 37.3505L48.6382 37.3777L48.6237 37.3786V37.3794L47.9132 37.4501L47.8919 37.4518L47.6415 37.4663L47.6142 37.4672L46.5391 37.468H46.5212L45.441 37.4263L44.0507 37.376L44.0448 37.0566L44.0422 37.0514L44.032 36.8436L43.9937 36.456L45.4777 36.5139H45.4785L46.5468 36.559L47.5989 36.5497L47.8289 36.536L48.5249 36.4645L48.737 36.4364L48.7583 36.4347L48.7592 36.4338L49.4893 36.3691L49.5131 36.3682V36.3674L49.7687 36.3571H49.7789H49.7798L50.3258 36.3469H50.3352L50.3548 36.3478Z" fill="black"/>
<path d="M55.9543 36.6245L56.658 36.6569L56.6588 36.6577L56.6759 36.6586L57.5175 36.7319L62.0352 37.0087L62.2907 37.0181H62.2941L62.738 37.0377L62.939 37.0343L63.4612 37.0223L63.9536 36.9406L64.0584 36.9193L64.0669 36.9184L64.0678 36.9167L64.3396 36.8639L64.3413 36.8971L64.3421 37.0803L64.3447 37.8538V37.9305L64.2816 37.9441L64.2688 37.945L64.268 37.9467L64.1504 37.9697L64.1317 37.9714L64.13 37.9731L63.595 38.0583L63.5268 38.0634L63.526 38.0642L62.9646 38.0813H62.9484H62.9399L62.7218 38.0779H62.7209L62.2601 38.0685L62.232 38.0676L61.9687 38.048L61.9653 38.0472L57.4434 37.6664L56.5992 37.605H56.5983L55.8998 37.5505L55.335 37.5156L54.7727 37.5318L54.4805 37.5863L54.3255 37.7422H54.2428L54.144 37.6425L54.1304 37.6417L54.0767 37.6315L53.8135 37.312L53.7734 37.272L53.7811 37.2643L53.7845 37.2149L53.7871 37.2012L53.8382 37.1578L53.9506 36.9491L54.1023 36.8503L54.2113 36.817L54.2292 36.794L54.6202 36.6952L54.696 36.6858L54.6995 36.6824L55.312 36.6424L55.3299 36.6415L55.9194 36.6245H55.933H55.9543Z" fill="black"/>
<path d="M57.9907 41.4194L58.1849 41.4245H58.1917L58.788 41.4484H58.7889L58.7923 41.4493L58.9686 41.4578H60.2593L61.1308 41.4433H61.1393H61.141L61.3097 41.4441H61.8276H61.837L62.0159 41.4475L62.7511 41.4595V41.4603L62.7834 41.4612L62.9641 41.4765H62.9666L64.3458 41.6051V42.5567L62.8857 42.4553H62.8831L62.7204 42.4426L62.0091 42.4358L61.8378 42.4392H61.8276H61.3097H61.1444L60.272 42.4536H60.2635H58.9559H58.9303L58.7429 42.4434L58.1551 42.4196L57.9719 42.4153H57.0033L56.1761 42.4579L56.0117 42.4715L55.9887 42.4724V42.4732L55.1376 42.5073H55.1163H54.9426H54.9383L54.3973 42.5031H54.2108H54.2091L53.4594 42.4996H53.2797L52.2897 42.5133L52.1287 42.5175L51.391 42.555L51.3842 42.5559H51.3833L51.2002 42.5627H51.1925V42.5635L50.5876 42.578L50.5749 42.5789H50.5715L50.4343 42.578L49.7843 42.5823H49.7809H49.7741L49.6616 42.5806L48.8114 42.5976L48.6325 42.607H48.63L47.3624 42.6734L47.3359 42.6743H47.3334L45.6867 42.6649L45.6466 42.6632L44.5971 42.5669H44.5962L44.1456 42.5243L44.1294 41.6452L44.6635 41.6827L45.6969 41.7219L47.3155 41.7125L48.5644 41.6154L48.5806 41.6145L48.768 41.6051H48.7808L49.6472 41.583H49.6531L49.7741 41.5813H49.7809H49.7843L50.4343 41.5864L50.5681 41.5856L51.1584 41.5719L51.3297 41.56H51.3373H51.3382L52.0819 41.5208L52.0947 41.52L52.2633 41.5148H52.2719L53.2686 41.4995H53.2762H53.4603H53.4645L54.2133 41.5055H54.399H54.3999H54.405L54.9443 41.5106H55.107L55.9384 41.4782L56.0994 41.4646L56.1173 41.4637L56.9633 41.4194H56.9905H57.9779H57.9907Z" fill="black"/>
<path d="M31.9608 23.3823L33.0887 23.3917H33.0895L33.1321 23.3943L33.8605 23.4658L33.8631 23.4684L33.9116 23.4735L34.8692 23.6754L36.6675 23.9258L36.6701 23.9292L36.7059 23.9335L37.2366 24.0553L37.2425 24.0638L37.2928 24.0732L37.5646 24.1754L37.5808 24.1993L37.654 24.2214L38.068 24.4932V24.4941H38.0697L38.4335 24.7377L38.6993 24.8501L39.1636 24.9617L39.6832 25.0742L39.6875 25.0793L39.7216 25.0844L40.2438 25.2514L40.2515 25.2625L40.2975 25.2727L41.157 25.6842L41.1647 25.6961L41.1945 25.7046L41.7823 26.0641L41.7934 26.0837L41.8266 26.0956L43.6267 27.537L44.1123 27.8514L44.7333 28.2313L44.7367 28.2373L44.7495 28.2416L45.2496 28.5815L45.2606 28.6045L45.2939 28.6164L45.6406 28.929L45.6542 28.9597L45.6832 28.9742L46.4286 29.8738L46.4363 29.8942L46.4499 29.9019L46.8622 30.4897L46.8716 30.5187L46.8861 30.5272L47.0615 30.8382L47.0709 30.8739L47.0828 30.8825L47.5182 31.8979L47.933 32.772L47.939 32.8001L47.9467 32.8052L48.123 33.2703V33.2737H48.1239L48.152 33.3487L48.1579 33.3794L48.1639 33.3836L48.2116 33.5557L48.215 33.5762L48.2176 33.5779L48.3437 34.1367L48.353 34.2168L48.3547 34.2185L48.3718 34.8762V34.8872V34.8906V34.9443V34.9469L48.3675 35.2135L48.3667 35.2144L48.3598 35.2817L48.2891 35.6565L48.284 35.6608L48.2772 35.7008L48.2201 35.8788L48.2193 35.8797L48.2184 35.884L48.1315 36.1353L48.1077 36.2571L48.0574 36.5484L48.0378 36.735L48.0336 36.7384L48.0259 36.7946L48.002 36.8773V36.8815L48.1094 36.9889V37.0272L47.6391 37.4975L47.1689 37.0272V36.9889L47.2984 36.8594L47.3001 36.8006V36.7997L47.3009 36.7921L47.3052 36.695L47.295 36.5186L47.2941 36.4948V36.4888L47.2992 36.1736L47.3009 36.1728L47.3188 36.0569L47.3657 35.907L47.3682 35.9053L47.3699 35.8967L47.4688 35.6182L47.5165 35.4802L47.5693 35.176L47.565 34.9477V34.9443V34.8958L47.5446 34.2798L47.4304 33.7636L47.3895 33.6171L47.3691 33.5617L47.1885 33.1255L46.7387 32.2813L46.731 32.2506L46.7208 32.2446L46.2948 31.2402L46.1441 30.9634L45.7573 30.4062L45.046 29.5458L44.741 29.2783L44.2809 28.9665L43.6539 28.6215L43.648 28.6121L43.6284 28.6062L43.1181 28.2765L43.1096 28.2595L43.0823 28.2501L41.2908 26.8087L40.7481 26.4764L39.9371 26.0863L39.4788 25.9329L38.9813 25.8486V25.8477H38.9804L38.4659 25.7566L38.4582 25.7463L38.3798 25.7319L38.0314 25.5947L38.0152 25.5717L37.9479 25.5513L37.5433 25.2855H37.5424L37.1684 25.0376L36.9827 24.9592L36.5184 24.8536L34.7235 24.6346L34.7209 24.6321L34.686 24.6278L33.7361 24.4319L33.058 24.3629L31.9676 24.3535L31.6984 24.3671L31.4138 24.3901L30.7536 24.4702H30.7494V24.4711L30.4614 24.5043L30.4444 24.506H30.4435L29.7629 24.5648L29.7433 24.5656H29.7424L29.4289 24.5809H29.4178L28.842 24.5954L28.8292 24.5963L28.7772 24.5929L28.4773 24.5614V24.5605L28.4671 24.5596L27.9943 24.4958L27.9926 24.4932L27.962 24.4906L27.7473 24.4429L27.7328 24.425L27.634 24.3995L27.3128 24.2214L27.1313 23.9114L27.4874 23.5553L27.5334 23.5578L27.8981 23.6047L27.8989 23.6064L27.9202 23.6089L28.0965 23.6422L28.5131 23.6456L28.7908 23.6251L28.8164 23.6243V23.6234L29.388 23.6098L29.6888 23.5962L30.3549 23.5391L30.6344 23.5067H30.6352L31.304 23.4241L31.3261 23.4224L31.327 23.4215L31.6251 23.3977L31.6422 23.3968H31.643L31.9327 23.3823H31.9565H31.9608Z" fill="black"/>
<path d="M35.7859 10.1316L36.6539 10.1972L36.6557 10.1989L36.6948 10.2023L37.0007 10.2551L37.2597 10.2969L37.2648 10.302L37.3176 10.3105L38.2334 10.5865L38.7403 10.7271L39.2437 10.7603L40.3887 10.6376L40.4057 10.6368L40.4066 10.6359L41.0055 10.5925L41.0395 10.5916H41.0515L42.5099 10.6299V10.6308L42.5448 10.6325L43.223 10.7032L43.2238 10.7049L43.2468 10.7066L44.3372 10.8872L44.3389 10.8898L44.3645 10.8932L44.9728 11.0389L44.9787 11.0474L45.0281 11.0568L45.5537 11.2655L45.5589 11.2731L45.5836 11.2791L46.565 11.7681L47.0182 11.9598L48.2636 12.3269L48.2705 12.3363L48.3105 12.344L48.8037 12.5595L48.8089 12.568L48.8319 12.574L49.3771 12.8679L49.3822 12.8764L49.3992 12.8815L50.3125 13.4566L50.3142 13.4608L50.3218 13.4625L51.2538 14.0921L52.4857 14.8835L52.4908 14.8937L52.5078 14.8997L53.1476 15.3801L53.157 15.398L53.18 15.4066L53.5318 15.7345L53.5403 15.7541L53.5591 15.7626L55.9708 18.5075L55.9742 18.5168L55.9819 18.5211L56.5756 19.2571L56.5799 19.2682L56.5876 19.2725L56.6796 19.3969L56.6847 19.413L56.694 19.4181L56.8559 19.6695L56.8602 19.6848L56.8687 19.6899L57.4471 20.7054L57.448 20.7079L57.4488 20.7088L57.9813 21.6527L57.9855 21.6706L57.9932 21.6748L58.2641 22.226L58.2658 22.232L58.2675 22.2328L58.3382 22.3811L58.3433 22.4049L58.351 22.4092L58.8204 23.5899L59.4261 24.7493L59.4295 24.7621L59.4338 24.7655L59.7132 25.3491L59.7277 25.413L59.7404 25.4223L60.1178 26.8331L60.1195 26.8416L60.1204 26.8433L60.1638 27.0145V27.0154L60.2397 27.2991L60.5378 28.0649L60.5421 28.0854L60.5463 28.0888L60.8402 28.9773L60.8462 29.0157L60.8522 29.0199L61.1282 30.2509L61.6538 31.798L61.6615 31.8457L61.6683 31.8508L61.7663 32.3278L61.7731 32.3892L61.7748 32.3909L61.8106 33.0238L61.8574 33.6866L61.8583 33.702L61.8881 34.524L61.8889 34.5402V34.5513L61.8353 36.4306L61.8344 36.4485L61.8114 36.7543L61.8071 36.7586L61.7927 36.8463L61.7279 37.044L61.7126 37.0542L61.6981 37.1096L61.5141 37.4384L61.4724 37.4622L61.4451 37.5261L61.3539 37.6139L61.0899 37.7204L61.0438 37.7178L60.9706 37.7084L60.9348 37.6684L60.7065 37.5491L60.6639 37.4878L60.5975 37.2757L60.5992 37.2416L60.5787 37.1692L60.5753 37.1504L60.5344 37.0406L60.4594 36.9656V36.9221L60.9297 36.4519L61.0379 36.5601L61.0404 36.4127L61.0549 34.5428L61.037 33.7335L60.9978 33.0767L60.9493 32.4752L60.8556 32.045L60.341 30.4937L60.3359 30.4622L60.3308 30.4579L60.0343 29.2278L59.7447 28.358L59.4576 27.5725L59.4508 27.5376L59.4448 27.5333L59.3639 27.2258L59.363 27.219L59.3613 27.2181L59.3188 27.0461L58.9524 25.6728L58.6918 25.1318L58.0579 23.9741L58.0469 23.9324L58.0341 23.923L57.563 22.7244L57.5596 22.7056L57.5553 22.7022L57.5085 22.5651L57.2631 22.0369L56.7494 21.0998L56.1761 20.0997L56.0219 19.8671L55.9418 19.7572L55.3566 19.0365L52.967 16.3138L52.6424 16.0208L52.0299 15.5616L50.8057 14.7744V14.7736H50.8049L49.861 14.1551L48.9673 13.5877L48.4587 13.3083L48.0055 13.1235L46.7549 12.7674L46.749 12.7597L46.714 12.7529L46.2208 12.5518L46.2157 12.545L46.1944 12.5399L45.2164 12.0535L44.7393 11.8635L44.1822 11.7298L43.1309 11.5773L42.4784 11.5432L41.0498 11.504L40.4807 11.5457L39.3068 11.6786L39.2531 11.682L39.2233 11.6812L38.6312 11.6429L38.6278 11.6386L38.5409 11.6275L37.9752 11.4725L37.9735 11.4699L37.9633 11.4682L37.0501 11.1837L36.8243 11.1189L36.5628 11.0738L35.7339 11.0065H35.4085L34.7934 11.0193L34.4731 11.0568L33.7055 11.1837L33.4014 11.2391L33.3963 11.2399L33.3954 11.2408L32.6807 11.3651L32.6543 11.3668L32.6526 11.3685L32.3348 11.4035L32.2999 11.4052V11.406L31.6993 11.4197H31.6899H31.6848L31.4088 11.4163V11.4154H31.3875L30.5373 11.3524L30.2417 11.0329L30.5569 10.7134L31.4079 10.699H31.4097L31.6661 10.6955L32.2411 10.6248H32.242L32.5478 10.5839L33.2472 10.4502L33.5454 10.3837L33.5616 10.382L33.5633 10.3803L34.3393 10.2381L34.3606 10.2364L34.3615 10.2347L34.7074 10.1887L34.7287 10.1878L34.7295 10.187L35.365 10.1324L35.4034 10.1307L35.7518 10.1299H35.7526L35.7859 10.1316Z" fill="black"/>
<path d="M20.2875 10.093L20.9742 10.1049L21.2246 10.1075L22.3295 10.1186L22.6081 10.1194H22.6107L23.6151 10.1262L23.8638 10.1254H23.8655H23.8723L24.3843 10.1314L24.6058 10.1322H24.6092L24.8716 10.1365L24.9057 10.1373L26.0796 10.2242V10.2251L26.0907 10.2259L26.3156 10.2472V10.2481L26.3284 10.2489L26.7407 10.3L27.2748 10.3401L27.435 10.3469L28.1506 10.3546L28.3337 10.352L29.3134 10.2915L29.5187 10.2677L29.5264 10.2668H29.5272L29.7283 10.2447L29.7794 10.2421L31.3529 10.2191H31.3614L31.398 10.22L32.4356 10.2949L34.8584 10.352H34.861L35.7734 10.3784L36.9226 10.3971H36.9294L38.565 10.4517L38.5668 10.4525L38.6289 10.4593L38.6784 10.4687L38.6818 10.4653L38.686 10.4704L38.7499 10.4823L38.9799 10.7635L39.152 10.9355L38.6818 11.4058L38.5412 11.2652L36.9303 11.3189H36.9149H36.9141L35.7614 11.318H35.7512L34.8414 11.2959H32.4118L32.3879 11.295L31.3588 11.2456L29.8331 11.3087L29.6567 11.3317H29.6559L29.4403 11.3623L29.4122 11.3649L29.4105 11.3658L28.4078 11.4586L28.3738 11.4603L28.171 11.468H28.1565L27.4256 11.4757H27.4196H27.4128L27.2331 11.4739V11.4731L27.1947 11.4714L26.6359 11.4262L26.6257 11.4254L26.2048 11.3819L25.9893 11.3658L24.8231 11.2789L24.5734 11.2635L24.3664 11.2559L23.863 11.2525L23.6151 11.2516L22.6115 11.2584H22.6081H22.327H22.3261H22.3219L21.2127 11.2499H21.2033L20.9546 11.2439L20.2722 11.2354L20.0524 11.2337L19.3053 11.2329L19.0864 11.2337L18.0658 11.2473L17.8238 11.2567L17.1031 11.2933H17.0989L16.8825 11.3036H16.8799L16.1993 11.3334L16.0161 11.3428L15.994 11.3436L15.0645 11.3606H15.0543H14.8073H14.8013L13.7961 11.3504L13.5507 11.3496L12.7797 11.3598L12.5191 11.3717L11.8725 11.4075L11.5947 11.4271L10.581 11.5336L10.2811 11.5796L10.2666 11.5804L10.2658 11.5813L9.64134 11.6614L9.32869 11.7159L9.28866 11.7193L9.28695 11.721L8.769 11.7653L8.5705 11.7994L8.50746 11.8053L8.15137 11.4484L8.38138 11.1153L8.58499 11.0386H8.58584V11.0378L9.08335 10.8478L9.12253 10.8401L9.1285 10.8333L9.44455 10.7456L9.4667 10.7422L9.46926 10.7396L10.0886 10.599L10.1099 10.5965L10.1116 10.5939L10.4225 10.5369L10.4413 10.5352L10.443 10.5334L11.4678 10.3801L11.4976 10.3776L11.4993 10.3758L11.7873 10.3494H11.7898L12.4398 10.2881L12.4586 10.2873L12.4594 10.2864L12.7286 10.2702L12.7508 10.2694L13.5345 10.2506L13.5465 10.2498H13.7935L14.7953 10.2293H14.8073H15.0449L15.9599 10.1987L16.143 10.1893H16.1482L16.8305 10.1612L17.0469 10.1518H17.0486L17.7736 10.1203H17.777L18.0274 10.1109L18.0428 10.1101L19.0736 10.0956H19.0821H19.0829H19.3053L20.0524 10.0947L20.2731 10.093H20.2782H20.2875Z" fill="black"/>
<path d="M8.7292 23.3367L9.56066 23.3384L9.95083 23.3375H9.95168L10.3436 23.3367H10.3444H10.3657L10.7593 23.352H10.7704L11.589 23.4006L11.8991 23.4125V23.4133H11.9128L12.5798 23.4576L12.9223 23.467L13.545 23.4747L13.8568 23.4755L14.7811 23.4619L15.0699 23.4525H15.0742L15.9934 23.4278H16.0053L16.3051 23.4253H16.3094H16.3128L16.6127 23.427L16.9015 23.4278H17.7866H17.79L18.1282 23.4304L18.7416 23.4321H18.7595L19.1173 23.444L19.7843 23.4636V23.4645H19.7979L20.1285 23.4823L20.8219 23.5105H20.8228L21.2641 23.5292V23.5301H21.2717L21.9967 23.5726L22.3937 23.5871V23.588H22.4065L23.594 23.6621L23.9595 23.68V23.6808H23.9663L24.3292 23.7047L24.6623 23.7243L26.0807 23.7473L27.534 23.7234H27.5426H27.5502L30.1596 23.7635L30.1715 23.7643L30.9314 23.7958L30.9331 23.7975L31.0047 23.8052L31.4605 23.9032L31.4792 23.9262L31.5831 23.9586L31.6146 23.927L32.0849 24.3973L31.6146 24.8675L31.4553 24.7082L31.44 24.7031L31.3454 24.6963L30.8973 24.6699L30.1562 24.6631L27.557 24.7321L26.0969 24.7764H26.0824L24.6444 24.7806H24.6427H24.6291L24.2798 24.7713H24.2721L23.9075 24.7559H23.9015L23.5378 24.7355L22.3511 24.6937H22.3392L21.9439 24.6699L21.2223 24.6452L20.7853 24.6358H20.7844H20.7734L20.0791 24.6051L19.7477 24.5949H19.7426L19.0806 24.566L18.7305 24.5591L18.1231 24.5506L17.7909 24.5532H17.7866H16.9015L16.6127 24.554L16.3179 24.5557L16.0266 24.5626L15.1116 24.5958H15.1082L14.8143 24.606H14.8041L13.8696 24.6213H13.8619L13.5424 24.623H13.5399H13.5382L12.9086 24.6205L12.8797 24.6196L12.5202 24.6H12.5176L11.8378 24.5583L11.8369 24.5566L11.8097 24.5557L11.5107 24.5217L10.7099 24.4748L10.3231 24.4603H10.3154L9.92272 24.4399L9.54362 24.4203L8.72239 24.4126L8.70791 24.4118L8.46256 24.4032L8.45404 24.2695L8.44467 24.1323L8.43104 23.9202L8.42507 23.8333L8.41315 23.6502L8.39866 23.4236L8.39355 23.3486L8.70705 23.3367H8.7275H8.7292Z" fill="black"/>
<path d="M43.99 36.4799L44.0189 36.5932L44.0224 36.6196L44.0249 36.6221L44.0556 36.7831L44.0573 36.7993L44.059 36.801L44.1416 37.3301L44.1425 37.3386L44.1433 37.3394L44.5326 40.1524L44.5352 40.1822L44.536 40.1831L44.611 41.2028L44.6127 41.2369L44.6119 41.2446L44.5982 42.1689H44.5974L44.5957 42.2046L44.5659 42.5037L44.1782 42.8521L43.7906 42.502L43.7608 42.2063L43.7591 42.1825V42.1816L43.7157 41.2607L43.656 40.2563L43.3051 37.4749L43.1935 37.0234L43.1423 36.9195L43.1227 36.836L43.1074 36.824L43.0784 36.7116L43.064 36.594L43.5342 36.1238L43.99 36.4799Z" fill="black"/>
<path d="M64.1047 36.9594L64.3373 37.0668L64.362 37.0958L64.3705 37.1188L64.3859 37.1264L64.4455 37.2116L64.4728 37.2985L64.4983 37.3172L64.5477 37.4655L64.5631 37.5566L64.5673 37.5609L64.5827 37.7492L64.6236 38.1674L64.6253 38.2058V38.2066L64.6321 39.7895V39.7912L64.6304 39.8286L64.5315 40.9216V40.9233L64.4395 41.8604L64.4268 42.145L64.4251 42.1714L64.3475 42.8802L64.3433 43.0539L63.9923 43.3956L63.6405 43.0531L63.6362 42.875L63.5774 42.1611L63.5757 42.1245L63.5766 42.1015L63.5919 41.8059L63.5928 41.8051V41.8016L63.6549 40.8501L63.6558 40.8492L63.6566 40.8262L63.7887 39.7588L63.833 38.2049L63.827 37.8369L63.7929 37.7168L63.7572 37.6231L63.7239 37.5703L63.7026 37.4978L63.5459 37.3411L64.0161 36.8708L64.1047 36.9594Z" fill="black"/>
<path d="M50.8936 58.4331L50.8306 58.4962L50.8221 58.5243L50.8204 58.5422L50.8195 58.5507L50.8408 58.5541L50.8434 58.5575L50.8706 58.5601L51.2787 58.6614L51.2812 58.6649L51.3017 58.6674L52.0479 58.9008L52.3649 58.9511L52.6281 58.9528L52.905 58.9477L53.1716 58.8906L53.4672 58.7986L54.084 58.5354L54.1768 58.5166L54.1845 58.5064L54.4886 58.4613L54.5389 58.4578L54.8677 58.7867L54.7255 59.0576L54.4716 59.2314L54.4273 59.2459L54.4154 59.2646L53.7892 59.5619L53.7747 59.5645L53.7713 59.5696L53.4527 59.7059L53.4093 59.7144L53.4033 59.7238L53.0856 59.8175L53.0438 59.8243L53.0396 59.8294L52.7235 59.8899L52.6315 59.8984L52.6034 59.8976L52.2976 59.8805V59.8797L52.2728 59.878L51.8827 59.8328L51.8742 59.8243L51.766 59.803L51.0035 59.504L51.0027 59.5023L50.9984 59.5014L50.6108 59.3404L50.3348 59.2271L50.3152 59.1973L50.2419 59.1709L50.1763 59.1172L50.0434 58.8352L50.0681 58.7322L50.0715 58.7057L50.0903 58.6402L50.0767 58.5567L49.9531 58.4331L50.4234 57.9629L50.8936 58.4331Z" fill="#0069BF"/>
<path d="M53.449 45.1012L53.4575 45.1165L53.5078 45.3184L53.4584 45.5177L53.4482 45.5382L53.3459 45.5995L53.3349 45.6183L53.3246 45.6242L53.3187 45.6438L52.3092 47.0622L51.8108 47.8732L51.6967 48.0683L51.3806 48.6187L51.3789 48.6195L51.3781 48.6229L51.2903 48.7694L51.2775 48.7763L51.2707 48.7984L51.0058 49.1596L50.8439 49.2414L50.7996 49.2985L50.7851 49.3019L50.694 49.3138L50.3345 48.9543L50.3455 48.8657L50.3507 48.8461L50.3677 48.8325L50.3907 48.7507L50.6207 48.3656V48.3648L50.7076 48.22L51.0271 47.6722L51.1438 47.4728L51.1463 47.472L51.148 47.466L51.6583 46.6431L51.6694 46.6363L51.6762 46.6175L52.6073 45.3635L52.5622 45.3184L53.0324 44.8481L53.449 45.1012Z" fill="#0069BF"/>
<path d="M53.2216 45.6814L53.2046 45.6976L53.2318 45.7249L53.2259 45.7913L53.2165 45.8458L53.191 45.8671L53.139 46.0188L52.7735 46.4873L52.771 46.4882L52.7701 46.4907L52.345 47.0206L51.8552 47.749L51.5877 48.2039L51.3423 48.6597L51.0484 49.3719L50.9743 49.5942L50.7835 50.3686L50.752 50.5177L50.7451 50.5228L50.7375 50.5671L50.5765 51.0228L50.5611 51.0339L50.5467 51.0867L50.3039 51.5076L50.2894 51.5152L50.28 51.5425L49.7774 52.2223L49.7586 52.2317L49.7493 52.2564L49.4187 52.6057L49.1879 52.7053L48.8701 52.3876L48.9136 52.2266L49.1572 51.81L49.1632 51.8066L49.1674 51.7947L49.624 51.1029L49.8302 50.7264L49.9631 50.3217L49.9938 50.1837L50.1642 49.3872L50.165 49.3863L50.1659 49.3812L50.2272 49.1188L50.2357 49.1129L50.2442 49.066L50.5364 48.3087L50.5407 48.3061L50.5441 48.2925L50.7682 47.7865L50.7801 47.7788L50.7886 47.7473L51.0629 47.2694L51.0791 47.2591L51.0893 47.2285L51.6286 46.4924L51.6413 46.4856L51.6482 46.4669L52.1022 45.9361L52.1167 45.9293L52.1235 45.9131L52.3178 45.7172L52.2811 45.6814L52.7514 45.2112L53.2216 45.6814Z" fill="#0069BF"/>
<path d="M50.0422 51.2139L49.9553 51.3008L49.9212 51.4294L49.8386 51.5726L49.6537 51.9815L49.4774 52.4355L49.4109 52.8589L49.3947 53.4118L49.416 53.8275L49.5617 54.4826L49.7858 55.3482L49.796 55.4248L49.8002 55.4291L49.8684 56.166L49.871 56.2103L49.8701 56.2324L49.8556 56.5528L49.8539 56.5536L49.8505 56.6013L49.7824 57.0247L49.7721 57.0332L49.7568 57.1176L49.7082 57.2394L49.6682 57.2667L49.6316 57.3638L49.4791 57.5393L49.2039 57.6645L48.8393 57.2999V57.2803L48.8521 57.0469L48.8563 57.0435L48.8734 56.9361L48.9023 56.8458L48.9569 56.5042L48.9458 56.2606L48.8291 55.5739L48.6161 54.7135L48.6118 54.6811L48.6084 54.6786L48.4841 53.9766L48.4781 53.9068L48.4764 53.9059L48.4619 53.4322V53.4169L48.4636 53.3786L48.513 52.7771L48.5164 52.7746L48.5241 52.7132L48.64 52.2208L48.6519 52.2106L48.6672 52.1433L48.8955 51.6441L48.9109 51.6347L48.9219 51.5973L49.14 51.2522L49.1017 51.2139L49.1792 51.1372L49.186 51.1117L49.2559 51.0597L49.5719 50.7437L50.0422 51.2139Z" fill="#0069BF"/>
<path d="M53.3595 45.1971L53.3646 45.1945L53.6832 45.5132L53.6815 45.5191L53.7769 45.6145L53.3067 46.0848L52.8364 45.6145L53.0698 45.3811L53.1005 45.3351L53.1337 45.3172L53.3067 45.1443L53.3595 45.1971Z" fill="#0069BF"/>
<path d="M53.8092 45.5132L53.7266 45.779L53.6627 45.8719L53.2759 46.0755L52.8057 45.6052L52.8883 45.3394L52.9522 45.2466L53.339 45.043L53.8092 45.5132Z" fill="#0069BF"/>
<path d="M53.5935 45.3679L53.7264 45.4795L53.7417 45.5119L53.775 45.5272L54.1421 45.9532L54.1524 45.9813L54.172 45.9915L54.9293 47.0777L54.9361 47.0998L54.948 47.1058L55.4558 47.9389L55.4933 48.071L55.5205 48.0923L55.5946 48.3913L55.598 48.4186L55.6014 48.4211L55.667 48.7661L55.6722 48.8164L55.6739 48.8189L55.7003 49.1716L55.7241 49.233L55.7386 49.3088L55.7693 49.3642L55.4515 49.6819L55.4242 49.6811L55.3936 49.6785L55.3825 49.6657L55.2275 49.6146L55.1278 49.5397L55.0843 49.4519L55.0247 49.4153L54.8415 49.0524L54.839 49.0438L54.8364 49.0421L54.6967 48.7499L54.5451 48.5174L54.5366 48.4876L54.5229 48.4799L54.0587 47.6288L53.3839 46.5052L53.0909 46.0324L53.09 46.029L53.0883 46.0281L52.8984 45.718L52.8924 45.6967L52.7544 45.5587L52.8558 45.4574L52.8668 45.3952L52.8933 45.327L52.9128 45.3134L52.9307 45.2563L52.9563 45.2188L53.2195 45.0817L53.2536 45.1123L53.3073 45.0808L53.5935 45.3679Z" fill="#0069BF"/>
<path d="M55.6426 48.7425L55.5634 48.8217L55.6239 49.113L55.7057 49.3652L55.8335 49.6276L56.0609 49.9905H56.0618L56.6206 50.8748L56.6394 50.9395L56.6624 50.9548L56.9035 51.5341L56.9128 51.5767L56.9222 51.5844L57.1923 52.4653L57.2033 52.536L57.2101 52.5419L57.3004 53.1119L57.3073 53.1971V53.2209L57.286 53.6894L56.8038 54.1486L56.7944 54.1401L56.7893 54.1444H56.7748L56.6734 54.141L56.6726 54.1401L56.63 54.1367L56.3847 54.1018L56.3693 54.0839L56.2313 54.0413L56.1444 53.9834L55.9843 53.6809L56.2816 53.3836L56.2679 53.2805L56.1615 52.743L55.9442 51.9013L55.7193 51.3834L55.2201 50.4957L55.2124 50.4659L55.2014 50.459L55.0114 50.0476L54.9986 49.9914L54.9858 49.982L54.8887 49.6523L54.8802 49.5952L54.8751 49.5901L54.8291 49.2792L54.8257 49.2306L54.8248 49.2298L54.8137 48.8839L54.8086 48.8481L54.7021 48.7425L55.1724 48.2722L55.6426 48.7425Z" fill="#0069BF"/>
<path d="M56.5876 52.245L56.8466 52.4102L56.8679 52.4562L56.9181 52.5568L56.9241 52.5815L56.9283 52.5857L56.9258 52.5891L56.9377 52.6377L56.9522 52.6496L57.0783 53.1931L57.0791 53.1965V53.1974L57.2325 53.8678L57.2367 53.9028L57.2401 53.9062L57.4037 54.9693L57.4071 55.0179L57.4088 55.0196L57.454 55.7727L57.4548 55.8016L57.4574 56.2617V56.2651L57.4395 56.4031L57.3245 56.8359L57.3091 56.8478L57.2921 56.9219L57.1038 57.3155L57.0817 57.33L57.0646 57.3819L56.8312 57.721L56.6941 57.7917L56.6336 57.8888L56.4717 57.968L56.4598 57.9706L56.4572 57.974L56.1957 58.0924L56.0628 58.1214L56.0569 58.1273L55.8422 58.141L55.8192 58.1418L55.7297 58.1299L55.642 58.1069L55.4043 57.7951L55.6437 57.4833L55.6948 57.4697L55.7979 57.4177L55.8984 57.3138L55.9418 57.2167L55.9717 57.1971L55.9955 57.1247L56.2068 56.835L56.3371 56.5513L56.3916 56.2046L56.4198 55.7982L56.3891 55.0886L56.2741 54.0348V54.034L56.1974 53.3499L56.1957 53.3277L56.1949 53.3269L56.1676 52.9103L55.9444 52.6871L55.9597 52.5678L55.9853 52.4724L56.0986 52.3855L56.2289 52.1743L56.2451 52.1666L56.4581 52.1155L56.5876 52.245Z" fill="#0069BF"/>
<path d="M49.9645 52.3568L49.9518 52.448L49.9492 52.4556L49.9586 52.4982L49.9611 52.5238L50.0421 52.6039V52.6524L49.5718 53.1227L49.1016 52.6524V52.6039L49.2174 52.4888L49.3001 52.2963L49.3256 52.2725V52.2716L49.3282 52.2699L49.3929 52.2086L49.4244 52.1958L49.64 52.0322L49.9645 52.3568Z" fill="#0069BF"/>
<path d="M50.5384 51.7423L50.3476 52.1206L50.2369 52.2024L49.9566 52.2952L49.4863 51.825L49.6772 51.4467L49.787 51.3658L50.0682 51.2729L50.5384 51.7423Z" fill="#0069BF"/>
<path d="M50.3294 49.3424L50.3558 49.3373L50.7017 49.6832L50.7 49.7121L50.763 49.7752L50.7485 49.8893L50.7289 49.9703L50.5177 50.133L50.4061 50.3877L50.2604 50.7753L50.1505 51.1365L49.9154 52.0327L49.1325 55.3977L49.1572 56.6236L49.1597 56.6287L49.3489 56.8502L50.7221 58.1885L50.7392 58.2286L50.7707 58.2448L50.9521 58.4961L51.0262 58.7235L51.0331 58.7304L51.039 58.8718V58.8871L50.6608 59.2662L50.3677 59.1273L50.2783 59.0183L50.2732 59.0055L50.2646 59.0004L50.1019 58.7806L48.7193 57.4772L48.715 57.467L48.7048 57.4636L48.4544 57.2046L48.416 57.1083L48.3675 57.0777L48.301 56.9328L48.2593 56.7429V56.7369L48.278 55.3466H48.2789L48.2908 55.2486L49.1495 51.8351L49.1512 51.8342L49.1521 51.8266L49.4085 50.921L49.411 50.9193L49.4136 50.9057L49.5405 50.5274L49.5448 50.524L49.5482 50.5078L49.7152 50.1006L49.7262 50.0938L49.7339 50.0614L49.8344 49.8842L49.8029 49.8527L49.8174 49.7385L49.837 49.6576L50.1684 49.402L50.1829 49.379L50.211 49.368L50.2928 49.3049L50.3294 49.3424Z" fill="#0069BF"/>
<path d="M56.7252 56.7065L56.7226 56.7457L56.6962 56.9638L56.6937 56.9672L56.6877 57.0106L56.5923 57.3769L56.588 57.3804L56.5838 57.4034L56.4551 57.7688L56.4483 57.7731L56.4432 57.7969L56.2788 58.1573L56.2566 58.1718L56.2396 58.2237L56.1161 58.3916L56.1033 58.3984L56.0965 58.4171L55.9423 58.5926L55.8511 58.7502L55.7089 58.8311L55.6331 58.9547L55.0222 59.2673L54.9822 59.2775L54.9737 59.2895L54.5034 59.4701L54.466 59.4769L54.46 59.4837L54.2317 59.5459L54.2215 59.5476L54.2206 59.5493L54.0434 59.5936L54.0289 59.5953L53.8645 59.6507H53.816L53.3457 59.1804L53.816 58.7102H53.8645L53.9829 58.7494L54.0264 58.7468L54.1533 58.6948L54.5341 58.4555L55.0648 58.0525L55.2616 57.9861L55.2897 57.952L55.4295 57.9256L55.5376 57.86L55.6015 57.7807L55.7625 57.4766L55.8988 57.1614L55.9909 56.8215L55.9968 56.8173L56.0019 56.7883L56.082 56.583L56.3921 56.3726L56.7252 56.7065Z" fill="#0069BF"/>
<path d="M56.5358 53.1223V53.2288L56.3391 53.4256L56.3152 53.5474L56.2913 53.7238L56.2385 54.5126L56.4029 54.6762L56.3672 54.8227L56.3058 54.942L56.1866 55.2938L56.1857 55.3024H56.1849L56.184 55.3237L56.0102 56.6381L56.0077 56.6407L56.0025 56.6765L55.9634 56.8358L55.6252 57.0982L55.2759 56.7489L55.2767 56.7336L55.2963 56.2923L55.2972 56.2914L55.3006 56.2497L55.35 55.9685L55.3517 55.9668L55.3551 55.9455L55.402 55.7624L55.4718 55.2368L55.6073 53.6582L55.6081 53.6514L55.6294 53.4512L55.632 53.4486L55.6354 53.4163L55.6618 53.2953L55.5953 53.2288V53.1223L56.0656 52.6521L56.5358 53.1223Z" fill="#0069BF"/>
<path d="M56.7602 53.8186L56.681 53.9507L56.6733 54.0009L56.6435 54.0912L56.6231 54.363L56.6188 54.3673L56.6035 54.4661L56.5668 54.5845L56.4902 54.95L56.4126 55.5744L56.3343 56.284L56.3334 56.2849L56.3317 56.3002L56.2167 57.0337L55.8589 57.3378H55.8521L55.818 57.337L55.8138 57.3336L55.6059 57.2595L55.5769 57.2356L55.5199 57.1155L55.4713 57.0797L55.4534 57.0226L55.4406 56.9409L55.4381 56.9383L55.4253 56.6972V56.6802L55.427 56.6427L55.4713 56.273L55.4764 56.2687L55.4866 56.2065L55.565 55.985L55.5829 55.5063L55.5846 55.5054L55.5897 55.45L55.6996 54.8324L55.7235 54.5257L55.7064 54.4695L55.6843 54.3272L55.686 54.2923L55.7098 53.9618L55.7149 53.9566L55.7328 53.8493L55.7822 53.7002L55.8964 53.6184L56.0037 53.4387L56.0642 53.4063L56.29 53.3484L56.7602 53.8186Z" fill="#0069BF"/>
<path d="M53.0423 46.3973L53.0431 46.3964L53.5355 46.8888L53.5253 46.986L53.3422 47.8966L53.3353 47.9333L53.3592 47.9639L53.3584 48.0006L53.3379 48.2672L53.3728 48.2638L53.6906 48.5211L53.7741 48.4853L53.78 48.4785L53.8039 48.4776H53.8133L54.2912 48.9564V48.9794L54.2724 49.3585L54.4939 49.5808V49.5911L54.4897 49.7896V49.7904L54.488 49.8279L54.4556 50.1414L54.7418 50.4285L54.7367 50.5L54.7163 50.6363L54.7146 50.6372L54.7129 50.6542L54.6779 50.8255L54.7589 50.9941L54.7682 51.0035L54.7708 51.1057L54.839 51.0112L55.149 50.8527L55.5333 51.2369L55.5324 51.2659L55.4949 51.7609L55.7496 52.0164L55.7377 52.1152L55.546 52.8717L55.7403 53.0668L55.736 53.1222L55.7258 53.1886L55.7863 53.2219L55.8391 53.1963L55.8766 53.1486L55.926 53.1358L56.0112 53.1247L56.346 53.457L56.3477 53.7577V53.7594L56.3426 53.8182L56.3289 53.894L56.4456 54.0107L56.4329 54.0593L56.4133 54.5389L56.4124 54.5398L56.4107 54.5662L56.4056 54.6045L56.7131 54.912L56.708 54.924L56.6944 54.9844L56.7429 55.033L56.7378 55.0994L56.7234 55.2034L56.5291 55.3712L56.3059 55.8832L56.265 56.0084L56.2514 56.155L56.2488 56.1575L56.2446 56.1984L56.1313 56.6951L56.1262 56.6993L56.1211 56.7308L55.9677 57.167V57.1679L55.9038 57.3451L55.5563 57.587L55.1857 57.2164L55.1899 57.1602L55.1976 57.1108L55.1533 57.1832L55.0204 57.2565L54.9659 57.3357L54.9131 57.3553L54.8057 57.374L54.7137 57.5887L54.6899 57.6449L54.6089 57.8562L54.6081 57.8571L54.6072 57.8605L54.5169 58.0854L54.5118 58.0888L54.5084 58.1041L54.4411 58.2455L54.1038 58.4576L53.7289 58.0828V58.0785L53.4061 58.3034L53.0116 57.909L53.0304 57.7898L53.1207 57.5027L52.9094 57.2914L52.6947 57.4447L52.4954 57.2454L52.1776 57.3757L52.066 57.3979L52.0541 57.4132L51.8718 57.449L51.7363 57.4626L51.5395 57.4337L51.2073 57.334L51.1749 57.2897L51.0156 57.2386L50.6987 57.0128H50.6979L50.68 57.0069L50.6229 56.9966L50.5965 56.9643L50.4696 56.8774L50.4662 56.8757L50.3622 56.8654L50.3503 56.8518L50.1663 56.8135L49.7863 56.6482L49.7471 56.5886L49.616 56.5392L49.4277 56.373L49.351 56.2018L49.259 56.1422L49.15 55.8968L49.092 55.6259L49.0912 55.6242L49.0903 55.2272V55.2264L49.1057 55.0833L49.2198 54.5662L49.2445 54.5457L49.2812 54.4017L49.3084 54.3506L49.2377 53.9494L49.2275 53.8369L49.2292 53.7909L49.276 53.1503L49.2795 53.146L49.2888 53.0634L49.4473 52.3376L49.4635 52.3248L49.4839 52.2277L49.6798 51.7711L49.708 51.6518L49.725 51.6382L49.7471 51.5428L50.588 49.7734V49.7725L50.5888 49.7717L51.1485 48.6216L51.1587 48.6148L51.1656 48.5892L51.3845 48.2118L51.4612 48.0747L51.4808 48.0628L51.4935 48.0236L51.5498 47.9443L51.7943 47.44L51.9476 47.0507V47.0166L51.9502 47.0149L52.003 46.7917L52.1512 46.4953L52.2015 46.3521L52.2023 46.3504L52.2032 46.3462L52.6658 46.0208L53.0423 46.3973Z" fill="#0069BF"/>
<path d="M53.9516 47.4778L53.9644 47.5043L54.0155 47.7172L53.9653 47.7675L53.9584 47.8373L53.9389 47.9362L53.6228 48.1951L53.5546 48.1781L53.5453 48.1875L53.5146 48.1687L53.472 48.1577L53.3826 48.1108L53.3596 48.0725L53.1244 47.9277L53.1117 47.9012L53.0605 47.6883L53.5308 47.218L53.9516 47.4778Z" fill="#0069BF"/>
<path d="M54.1843 46.0666L54.2447 46.1475L54.3189 46.369L54.3487 46.3954L54.3819 46.6101L54.3827 46.622L54.3836 46.6229L54.4969 47.456L54.7474 49.0218L54.7508 49.067L54.7533 49.0695L54.8053 49.6923L54.807 49.7434L54.8061 49.7758L54.7687 50.4624L54.7482 50.4811L54.6085 50.8185L54.5548 50.8713L54.1928 51.0212L54.065 51.0042L53.9815 50.9829L53.9304 50.9173L53.7387 50.8253L53.7089 50.7887L53.7046 50.7768L53.697 50.7733L53.6654 50.7308L53.6075 50.5578L53.5845 50.5374L53.5615 50.3806L53.5573 50.3244L53.662 50.2188L53.639 49.7886L53.5768 49.182L53.3843 47.606V47.6017L53.3076 46.9602L53.1177 46.7703L53.139 46.6851L53.1322 46.6783V46.6723L53.1347 46.507L53.1356 46.5062L53.1569 46.3699L53.1909 46.2608L53.2548 46.214L53.3281 46.047L53.386 45.9933L53.7523 45.8494L54.1843 46.0666Z" fill="#0069BF"/>
<path d="M53.5062 45.7165L53.68 46.5378L53.6826 46.5616L53.6843 46.5633L53.732 46.8376L53.7661 46.8717L53.7414 46.8956L53.853 47.5447L53.8538 47.5507L53.8547 47.5515L53.9424 48.0797L54.0532 48.5517V48.5534L54.2678 49.4453L54.2738 49.4887L54.2781 49.493L54.3045 49.6498L54.307 49.6804L54.3087 49.6821L54.4169 50.5715L54.4212 50.6397L54.422 50.6405L54.4306 51.3714V51.3791L54.4118 51.5282L54.3931 51.6032L53.824 52.041L53.2345 51.4524V51.4439L53.2353 51.3919L53.1987 50.7104L53.0743 49.8815L53.0437 49.7656L52.7821 48.9026L52.7762 48.8609L52.7694 48.8558L52.6543 48.3617L52.6509 48.3319L52.6475 48.3293L52.5462 47.7875L52.5359 47.6802L52.5351 47.6768L52.5112 46.6783V46.6638L52.524 46.5412L52.6986 45.714L53.1024 45.3894L53.5062 45.7165Z" fill="#0069BF"/>
<path d="M54.1602 48.0911L54.4447 48.3663L54.4669 48.4191L54.5086 48.4404L55.0504 49.1841L55.0854 49.2889L55.1254 49.3162L55.4611 50.1042L55.4764 50.1783L55.4909 50.1894L55.6843 50.8837L55.6962 50.9714L55.7038 50.9782L55.8274 51.8966L55.8333 51.9911L55.8325 52.0218L55.7737 53.3329L55.7711 53.3354L55.7601 53.4394L55.6825 53.7938L55.6519 54.0238L55.6331 54.0408L55.5837 54.2248L55.5539 54.2785L55.1033 54.5392L54.7335 54.3858L54.6926 54.3441L54.5623 54.0272L54.5316 53.9991L54.5086 53.7477L54.5061 53.7009V53.7L54.5018 53.4377L54.4328 53.2877L54.403 53.1531L54.4916 53.0637L54.4609 52.0303L54.3868 51.175L54.2394 50.577L53.9149 49.8486V49.8478L53.6405 49.2557L53.2529 48.8681L53.2546 48.828L53.2742 48.5989L53.3492 48.5307L53.3313 48.4421L53.3458 48.4268L53.3373 48.4174L53.7913 47.9633L53.7998 47.9727L53.8203 47.9531L54.1602 48.0911Z" fill="#0069BF"/>
<path d="M53.3525 48.2989L53.3577 48.2819L53.5826 48.0144L53.5928 48.0093L53.3525 48.2989Z" fill="#0069BF"/>
<path d="M55.3888 50.1453L55.4314 50.2492L55.4365 50.273L55.4424 50.2773L55.5609 50.6172L55.8241 51.2885L56.1947 52.0612L56.1989 52.0825L56.2066 52.0876L56.2126 52.1012L56.2688 52.1191L56.3173 52.1523L56.4051 52.3202L56.4238 52.3287L56.4664 52.4301L56.5601 52.5033L56.5882 52.6149L56.6087 52.7734L56.5993 52.8824L56.5857 52.9599L56.7348 53.3033L56.7688 53.4651L56.7859 53.4796L56.8489 53.8987L56.8574 54.0035L56.8549 54.0572L56.8251 54.4303L56.8191 54.4354L56.8029 54.5547L56.6998 54.9133L56.682 54.927L56.6632 55.0071L56.5814 55.1774L56.6658 55.3938L56.7297 55.4441L56.7791 55.6528L56.8004 55.824L56.7688 56.0336L56.7075 56.2346L56.5993 56.3139L56.4741 56.578L55.8897 57.0533L55.8761 57.1487L55.7321 57.6283L55.7091 57.6454L55.6852 57.7399L55.4339 58.2042L55.3922 58.2289L55.3641 58.3056L55.14 58.5723L55.0122 58.6319L54.9611 58.7179L54.7626 58.8253L54.4883 58.8951L54.4738 58.9011L54.266 58.9045L54.2549 58.9053L54.2481 58.9028L54.0181 58.9624L53.9278 58.9556L53.6799 58.9207L53.6662 58.9045L53.5776 58.8858L53.3391 59.0399L53.0861 59.1149L52.9915 59.1635L52.6014 59.2044L52.402 59.2555L52.1924 59.2827L52.04 59.2683L51.6813 59.201L51.6481 59.1814L51.5501 59.1626L51.3371 59.0817L51.1344 59.0306L50.9546 58.798L50.6318 58.5706L50.527 58.2766L50.5116 58.2749L50.2731 58.2204L50.2194 58.1514L49.9409 58.0424L49.7526 57.8677L49.687 57.7178L49.5967 57.6633L49.3863 57.2552L49.3718 57.1981L49.3548 57.1862L49.152 56.6827L49.1026 56.4314L49.0941 56.4127L49.0839 56.0941L49.083 56.066L49.0932 55.9382L49.1418 55.6519L49.2295 55.4977L49.2968 55.3027L49.4604 55.0931L49.5959 55.0284L49.6563 54.9176L50.0567 54.668L50.1232 54.6484L50.1274 54.6041L50.1513 54.5564L50.1998 54.3375L50.3822 53.9507L50.5244 53.8612L50.6309 53.6517L50.9316 53.4327L51.2094 53.3424L51.3303 53.282L51.7384 53.2445L51.8151 53.2411L51.8994 53.2453L52.5375 53.3135L52.5613 53.3254L52.6865 53.345L53.4251 53.575L53.4516 53.6116L53.5879 53.6491L54.1126 53.9626V53.9456L54.1186 53.8723L54.162 53.6142L54.1757 53.6023L54.1995 53.4966L54.3128 53.2598L54.3367 53.2445L54.3546 53.19L54.5241 52.9531L54.5573 52.9361L54.5744 52.8935L54.8751 52.5936L54.9109 52.5791L54.9253 52.5502L54.9543 52.528L54.7073 51.6983L54.703 51.6685L54.6979 51.665L54.6902 51.631L54.3852 51.326V51.2825L54.4985 51.1692L54.5394 51.0363L54.5437 51.0295L54.5207 50.935L54.5088 50.8379L54.5062 50.8353L54.4841 50.4707L54.4832 50.44L54.4968 50.3276L54.5232 50.2117L54.9671 49.8633L55.3888 50.1453Z" fill="#0069BF"/>
<path d="M49.7254 54.7022L49.4971 55.1051L49.3054 55.2201L49.2858 55.2261L49.2551 55.3922L49.2543 55.4016L49.2585 55.405L49.3344 55.8344L49.3386 55.8846L49.3531 55.9247L49.3667 55.9383L49.3684 55.963L49.595 56.0882L49.6964 56.2484L49.7049 56.2782L49.7186 56.2867L49.8438 56.5167L49.8796 56.5235L50.2203 56.653L50.2612 56.7127L50.4171 56.7689L50.642 56.9572L50.7025 57.0875L50.7979 57.142L50.8346 57.2051L51.0211 57.1028L51.1532 57.0159L51.3466 56.9572L51.6967 57.3073L51.6234 57.5211L51.5212 57.654L51.3534 57.8908L51.2068 58.1013L51.1438 58.1336L51.1097 58.206L50.9598 58.3313L50.849 58.3713L50.8184 58.4182L50.7179 58.4616L50.6846 58.4684L50.6787 58.477L50.6165 58.5L50.3975 58.5383L49.9878 58.3875L49.8694 58.2861L49.8021 58.1396L49.7049 58.0817L49.6308 57.9437L49.5746 57.8951L49.3966 57.8048L49.2194 57.7605L49.0388 57.5262L48.7457 57.3133L48.5881 56.8302L48.2559 56.3676V56.3523L48.261 56.1564V55.9988L48.2567 55.9323L48.2576 55.9085L48.2746 55.514L48.2601 55.4723L48.2976 55.2849L48.3402 55.1818L48.3726 55.0276L48.3751 55.0259L48.3768 55.0106L48.4092 54.8853L48.629 54.7167L48.7099 54.5965L48.7193 54.5931L48.8198 54.4151L49.0115 54.3001L49.2551 54.2319L49.7254 54.7022Z" fill="#0069BF"/>
<path d="M49.4866 55.6763L49.5036 55.7002L49.5565 55.8578L49.5863 55.8825L49.6059 55.9771L49.6255 55.9966L49.6127 56.0094L49.628 56.0827L49.6374 56.1721L49.6391 56.1738L49.6408 56.2318L49.6502 56.236L49.7345 56.3536L49.8129 56.5947L49.8384 56.6177L49.8521 56.725L49.8819 56.8315L49.9424 56.8988L49.9977 57.0419L50.0863 57.0786L50.1724 57.2762L50.5481 57.4312L50.6103 57.582L50.6929 57.5906L50.9587 57.7269L51.1086 57.7882L51.2986 57.9748L51.423 58.0642L51.4272 58.0659L51.5235 58.0761L51.6402 58.0548L51.7671 58.0267L51.8728 57.9765L52.0551 57.9347L52.4751 58.3547L52.4691 58.4254L52.4393 58.6035L52.412 58.6256L52.3575 58.8037L52.2425 58.9715L52.1164 59.0379L52.0542 59.1461L51.8677 59.2552L51.7416 59.2901L51.7194 59.3191L51.4536 59.3949L51.2611 59.4221L51.2347 59.4213L51.0481 59.4145L50.9527 59.371L50.6316 59.2594L50.3981 59.0737L50.3726 59.0209L50.3138 58.9945L50.2925 58.9706L50.1434 58.963L49.6664 58.7432L49.5905 58.5549L49.5752 58.5447L49.5232 58.5328L49.392 58.3692L49.1833 58.2831L49.116 58.1255L49.0317 58.0608L49.0138 57.9944L48.9925 57.8325L48.9908 57.8291L48.9899 57.7533L48.9525 57.7286L48.8911 57.5871L48.7991 57.3989L48.7455 57.1714L48.7369 57.1629L48.7216 56.892L48.7088 56.7966L48.696 56.7463L48.6722 56.7012L48.6143 56.4618V56.4447L48.6228 56.173L48.6245 56.1713L48.6339 56.0861L48.6432 56.0401L48.6441 56.0196L48.65 55.9481L48.6654 55.9345L48.6764 55.8791L48.7063 55.8552L48.7574 55.701L48.7761 55.6746L48.8613 55.632L48.8809 55.6184L48.9082 55.609L49.1314 55.4966L49.4866 55.6763Z" fill="#0069BF"/>
</g>
<defs>
<clipPath id="clip0">
<rect width="1500" height="1000" fill="white" transform="translate(-1005 -422)"/>
</clipPath>
</defs>
</svg>
