<svg width="95" height="94" viewBox="0 0 95 94" fill="none" xmlns="http://www.w3.org/2000/svg">
<g clip-path="url(#clip0)">
<path d="M647.055 -559H-853V441.037H647.055V-559Z" fill="white"/>
<path d="M17.3922 37.7018L18.3109 37.7981L18.5292 37.9092L19.1621 38.0858L19.8824 38.5203L19.9945 38.6354L20.0957 38.6711L20.7793 39.2277L20.8576 39.3914L21.0273 39.4698L21.3428 39.8378L21.3755 39.9271L21.4876 40.0293L21.7317 40.3964L21.7793 40.5522L21.8914 40.6821L22.4252 41.8607L22.5095 42.2457L22.5799 42.3727L22.7585 43.4818L22.7853 43.8052L22.7843 43.8172L22.817 43.9719L22.8815 44.089L22.9907 44.846L23.1305 45.465L23.1782 45.8807L23.1772 45.9234L23.1593 46.721L23.1484 46.7468L23.0641 47.2617L23.0502 47.3788L22.7416 48.61L22.6851 48.6973L22.6444 48.8888L22.1722 49.9632L21.946 50.2291L21.8676 50.4374L21.1027 51.3115L20.941 51.3849L20.9023 51.4226L20.3507 52.1528L20.0719 52.2917L19.935 52.5625L19.179 53.1201L18.7038 53.2768L18.3526 53.4891L17.5629 53.6508L17.1154 53.6975L16.5718 53.628L16.1035 53.507L15.7543 53.511L15.6074 53.5685L14.908 53.9693L14.2721 54.0794L13.8613 54.1151L13.0468 53.9683L12.1024 53.6161L11.3682 53.0437L11.1599 52.9465L10.4515 52.1061L10.3444 51.8145L10.0705 51.4722L9.51198 50.0713L9.41872 49.5922L9.36019 49.4811L9.2461 48.5147L9.20741 48.3818L9.12109 47.7806L9.12407 47.6824L9.19153 46.219L9.2213 46.1535L9.32745 45.599L9.40087 44.6763L9.4475 44.5821L9.55067 44.0354L10.1727 42.4461L10.4257 42.1296L10.5249 41.8528L10.9317 41.3587L10.9515 41.2972L11.8256 40.1295L12.1867 39.8259L12.4169 39.5799L13.281 39.0253L13.5578 38.944L13.7641 38.7892L14.6769 38.4707L14.9923 38.2792L15.3783 38.1711L15.6124 38.0173L16.6095 37.7614L17.166 37.6899L17.3922 37.7018Z" fill="#02A556"/>
<path d="M15.3118 36.0282L16.0609 36.0877L16.1005 36.1075L16.3863 36.1442L17.7812 36.5163L17.9816 36.6502L18.2762 36.7365L18.4439 36.8427L18.4488 36.8437L19.4082 37.2485L19.6106 37.4171L19.7931 37.4816L20.1959 37.808L20.2088 37.8348L20.7803 38.1523L20.8735 38.312L21.1295 38.4181L21.5759 38.8676L21.6444 39.0322L21.7625 39.0957L22.1276 39.6384V39.6394L22.5006 40.1871L22.5403 40.315L22.8845 40.7347L22.9103 40.8061L22.9579 40.8309L23.7774 41.9947L23.8518 42.2298L23.9927 42.4242L24.3985 43.6902L24.4104 43.7616L24.4263 43.7864L24.587 44.4213L24.6247 44.717L24.6316 44.7329L24.6723 46.0345L24.6733 46.0801L24.6554 46.3014L24.4253 47.7062L24.3697 47.8054L24.3717 48.0504V48.0653L24.3667 48.1873L24.2983 48.9909L24.2834 49.0207L24.2566 49.23L23.8766 50.6904L23.8012 50.8045L23.7486 51.0148L23.072 52.2847L22.8488 52.5198L22.7903 52.6617L21.8646 53.5754L21.6623 53.6588L21.3259 53.9316L20.2813 54.3602L19.94 54.4286L19.8487 54.4783L18.7544 54.6291L18.4895 54.6469L18.182 54.6221L17.7326 54.5467L17.5391 54.6628L16.417 54.887L16.0589 54.9227L15.5916 54.8602L14.4993 54.5626L14.3465 54.4594L14.0925 54.3919L13.0231 53.7818L12.7383 53.499L12.7205 53.4911L11.8395 53.4098L11.7383 53.3592L11.2422 53.26L10.1053 52.7867L9.93762 52.6488L9.74515 52.5893L9.18859 52.2073L8.9356 51.9236L8.80564 51.8651L7.95441 50.8888L7.88794 50.7093L7.68059 50.488L7.03573 49.2578L6.96033 48.9523L6.85914 48.7965L6.48115 47.2895L6.42063 46.8044L6.41765 46.7984L6.40674 45.1188V45.1049L6.43352 44.7785L6.72818 42.9937L6.79068 42.8836L6.85914 42.5492L7.59031 40.816L7.77782 40.5908L7.85124 40.3746L8.97727 38.9281L9.17867 38.8299L9.27688 38.6195L10.7144 37.4241L10.9347 37.3447L11.1877 37.1304L12.8236 36.4022L13.2453 36.3119L13.3643 36.2474L14.9001 36.0411L15.162 36.0222L15.3118 36.0282ZM15.9994 45.6892L15.5509 45.9432L15.5539 45.9849L15.546 46.1188L15.5222 46.3311L15.5559 46.5335L15.5688 46.6833L15.3108 47.3054L15.034 47.4205L15.0598 47.4988L15.3118 47.9036L15.3882 47.976L15.4011 47.8133L15.413 47.8024L15.4597 47.605L15.5063 47.5117L15.4854 47.4621L15.7265 46.8808L15.7543 46.8698L15.7662 46.844L16.0361 46.6079L16.5777 46.4036L17.1581 46.6446L17.3992 47.225L17.1184 47.8431L16.8486 48.0792L16.6412 48.1576L16.668 48.1804L16.8645 48.2618L17.679 48.101L18.3109 47.8381L18.6612 47.4294L18.9241 46.8936L19.0749 46.4055L19.0788 46.1069L19.0084 45.9551L18.7782 45.7517L18.3129 45.5355L17.677 45.4105L16.9974 45.3599L15.9994 45.6892Z" fill="#02A556"/>
<path d="M16.4171 34.6503L16.8645 34.805L17.1691 35.0342L17.1721 35.0352L18.0798 35.0034L18.1522 35.0015L18.7624 35.1007L20.1345 35.5541L20.2972 35.6741L20.5204 35.7386L21.7565 36.5174L21.7863 36.5729L21.9302 36.5839L22.8836 36.7426L23.2437 36.948L23.6743 37.0997L24.2586 37.569L24.3439 37.7476L24.5176 37.8329L25.0225 38.4867L25.1356 38.8141L25.3102 39.0949L25.3966 39.4729L25.4075 39.5721L25.4194 39.5919L25.5503 40.4739L25.5672 40.7001L25.5622 40.8211L25.4581 42.088L25.4511 42.1029L25.4452 42.1644L25.5573 42.3023L25.6218 42.4819L25.7865 42.6813L26.1277 43.479L26.224 43.9472L26.2537 44.0097L26.3133 45.0435L26.3162 45.1318L26.3152 45.1745L26.2835 46.2598L26.2766 46.2747L26.2438 46.5564L26.0871 47.2063L26.1049 47.3422L26.0841 47.5862L25.9958 48.1061L25.971 48.1488L25.9472 48.2976L25.7478 48.9137L25.6019 49.1131L25.5305 49.3294L25.4353 49.4564L24.7239 50.9058L24.6257 51.0149L24.589 51.1261L23.714 52.3176L23.6157 52.3662L23.5651 52.4902L22.4877 53.5726L22.3369 53.6351L22.2764 53.7521L21.2843 54.4605L21.0283 54.5429L20.8091 54.7036L19.7386 55.0627L19.3844 55.1212L19.3219 55.153L18.428 55.2423L18.2257 55.2532L17.9995 55.2264L17.9518 55.2631L17.5381 55.403L17.2028 55.6094L16.0659 55.8554L15.6373 55.902H15.6085L15.2801 55.8971L15.172 55.9665L14.9874 56.0211L14.8416 56.1411L14.2057 56.405L13.6441 56.5191L13.5489 56.5648L12.9864 56.6094L12.8118 56.6173L12.4635 56.5876L11.2294 56.3822L10.9982 56.2503L10.5071 56.1153L9.38506 55.4526L9.24021 55.3058L9.11322 55.2591L8.64098 54.8663L8.55765 54.6887L8.37907 54.6063L7.34232 53.3871L7.27585 53.2075L7.07446 52.9952L6.71234 52.3196L6.69647 52.2551L6.65877 52.2134L6.35221 51.5695L6.30062 51.3433L6.22224 51.2292L5.751 49.629L5.68651 49.1905L5.66171 49.1379L5.59623 48.2004L5.56448 48.1329L5.47519 46.7648L5.46924 46.6031L5.48214 46.36L5.70437 44.2062L5.751 44.1149L5.83036 43.6585L6.64388 41.3916L6.7421 41.2626L6.7927 41.0672L8.0983 38.7218L8.28978 38.5254L8.3493 38.3637L9.38903 37.1573L9.53883 37.0888L9.84738 36.7595L10.9804 36.0283L11.3792 35.9102L11.6332 35.7485L12.6937 35.4965L13.1729 35.439L13.1838 35.44L13.3425 35.2951L13.7632 35.1324L14.3069 34.7961L15.2613 34.5858L15.7276 34.5342L16.4171 34.6503Z" fill="#02A556"/>
<path d="M22.3446 48.3321L22.5907 48.9025L22.5956 49.224V49.2388L22.4835 49.6535L22.4557 49.7002L22.4617 49.8282L22.4805 49.8788L22.5222 50.1069L22.4895 50.3113L22.4428 50.4502L22.4389 50.722L22.294 51.0613L22.2276 51.2201L22.2256 51.2211L22.2246 51.224L21.7186 51.4314L21.2087 51.2201L20.9984 50.7101L21.04 50.4671L21.168 50.1109L21.1779 50.104L21.1859 50.0682L21.2384 49.9492L21.2087 49.844L21.1382 49.7567L20.9825 49.3202L20.9537 49.2527L20.9478 48.9323V48.9174L21.1888 48.337L21.7692 48.0959L22.3446 48.3321Z" fill="#02A556"/>
<path d="M12.7671 53.5113L12.9089 53.8536L12.9367 53.8457L13.1887 53.8834L13.3038 53.9181L13.3435 53.9717L13.8504 53.8387L14.3386 54.0352L14.3802 54.0183L14.6322 54.0461L14.8495 54.0937L14.9537 54.1592L15.158 54.2108L15.3108 54.2941L15.3813 54.4151L15.5767 54.4965L15.9309 55.3487L15.5767 56.2019L14.7245 56.5551L14.2761 56.4083L14.1937 56.438L13.3961 56.1077L13.3713 56.0491L13.3207 56.0243L13.2859 55.9817L13.1084 55.9499L12.8951 55.8715L12.7998 55.7327L12.7333 55.7019L12.7115 55.6463L12.6321 55.6027L12.5071 55.6077L12.4744 55.6086L12.2452 55.5729L12.1192 55.5332L12.0438 55.4301L11.9357 55.3854L11.8365 55.1453L11.8295 55.1354L11.6331 54.9687L11.5815 54.6513L11.5805 54.6503L11.5597 54.5302L11.3652 54.0917L11.6063 53.5113L12.1867 53.2703L12.7671 53.5113Z" fill="#02A556"/>
<path d="M16.8952 32.6523L19.8338 32.9588L19.8854 32.9856L20.1632 33.0273L20.8705 33.2455L21.0412 33.3666L21.2515 33.4221L21.4638 33.5412L22.0115 33.7892L22.5651 33.9638L22.8299 34.1543L23.0929 34.2456L24.1574 35.0799L24.1594 35.0839L24.1643 35.0859L24.2 35.1137L24.4114 35.2744L24.5294 35.5125L24.7546 35.6286L26.2586 37.7358L26.2874 37.8231L26.2953 37.832L26.3301 37.8509L26.6366 38.3221L26.6882 38.4957L26.7944 38.6317L27.2537 39.84L27.2597 39.8549L27.2646 39.8787L27.2746 39.8906L27.5146 40.4859L27.5623 40.727L27.6079 40.8053L27.7805 41.7568L27.7815 41.7726L27.7835 41.7756L27.7924 41.8282L27.8093 42.0098L27.8152 42.0246L27.8331 42.353L27.8361 42.4423L27.8351 42.4889L27.7895 44.0078V44.0088L27.7885 44.0247L27.7498 44.9345L27.7478 44.9394L27.7438 45.0247L27.7349 45.1041L27.721 45.1329L27.7002 45.3035L27.601 45.7103L27.592 45.7232L27.5871 45.7599L27.1863 47.1429L27.1833 47.1469L27.1823 47.1558L27.1624 47.2232L27.1615 47.2242L26.9829 47.7977L26.9819 47.7987L26.719 48.6211L26.6803 48.6737L26.6585 48.7749L26.6317 48.8344L26.6297 48.8364L26.3459 49.6241L26.1574 50.1668L26.1277 50.2065L26.1118 50.2799L25.6733 51.2591L25.6416 51.2968L25.6277 51.3494L25.3836 51.8028L25.3806 51.8048L25.1128 52.3425L24.7407 52.7482L24.6911 52.8504L23.5502 53.7275L23.5234 53.7364L23.5115 53.7602L23.3548 53.8802L23.2218 53.9259L23.0859 54.0459L19.4429 55.7821L19.3556 55.8029L19.306 55.8406L18.7375 56.0509L18.6909 56.0589L18.6701 56.0738L16.8119 56.678L16.666 56.7018L16.6224 56.7276L16.1561 56.8169L15.8694 56.8446L15.6858 56.8337L14.6521 56.7038L14.2145 56.6849L14.2086 56.6819L14.1114 56.676L13.9844 56.6591L13.1897 56.2345L13.1778 56.2027L13.152 56.1908L13.1312 56.165L13.0379 56.1254L12.9804 56.0381L12.771 55.9636L12.6262 55.8466L12.4397 55.8922L12.4278 55.8992L12.0409 55.9954L11.4605 55.7543L11.2194 55.1739L11.4605 54.5936L11.7998 54.4527L11.8782 54.3148L12.0428 54.2205L12.144 54.0231L12.3186 53.8971L12.6312 53.7969L12.7949 53.7096L13.031 53.6798L13.1798 53.6699L13.66 53.8693L13.8624 53.8366L14.41 54.0221L14.655 53.9775L14.6967 53.9576L15.6581 53.907L15.912 53.8465L17.6522 53.1947L17.6819 53.1887L17.6948 53.1798L18.2127 52.9983L21.7079 51.394L21.7238 51.3831L22.5948 50.6996L22.7258 50.4376L22.7327 50.4297L22.9272 50.0289L23.2883 49.1043L23.4808 48.5685V48.5675L23.7764 47.7223L23.8022 47.6885L23.8042 47.6776L24.0661 46.8552L24.2308 46.3065L24.2437 46.2629L24.2526 46.25L24.2566 46.2232L24.6643 44.988L24.6931 44.7976L24.6991 43.9473L24.709 42.5266L24.6881 42.3451L24.5185 41.5296L24.3369 41.0444L24.336 41.0395L24.334 41.0375L24.3201 41.0018L23.8845 39.97L23.6583 39.6396L23.6524 39.6228L22.2377 37.7794L22.193 37.7467L22.191 37.7437L22.1851 37.7398L22.1821 37.7388L22.1732 37.7318L21.2674 37.1316L20.8735 36.9917L20.1681 36.7873L20.0213 36.6861L19.7882 36.6236L19.679 36.5602L19.3883 36.4808L16.8446 36.4342L16.2097 36.5453L15.6809 36.8608L15.535 36.9014L15.4289 36.9897L14.8525 37.2338L14.7949 37.2923L14.655 37.3509L14.5985 37.4669L14.03 37.9104L13.9467 37.9392L13.9328 37.9838L13.3772 38.8211L12.7631 39.8619L12.4496 40.5246L11.9238 42.0197L11.6708 43.7737L11.6589 43.7945L11.649 43.8928L11.0835 46.498L11.0706 46.5179L11.0617 46.5784L11.0041 46.7778L11.0527 46.8889L11.1331 47.2689L10.8583 47.9306L10.1965 48.2044L9.57251 47.9653L9.29869 47.7193L9.26198 47.6369L9.18559 47.6002L9.01495 47.3889L8.97626 47.2778L8.91574 47.2421L8.69847 46.8631L8.63101 46.6121L8.55263 46.4841L8.00202 43.8977L7.96134 43.5247L7.95837 43.5178L7.93654 41.5584L7.93555 41.5345L7.99706 41.0405L8.46334 39.1892L8.50898 39.1198L8.54073 38.9541L8.88598 38.0652L8.98618 37.9392L9.0338 37.7656L9.73422 36.584L9.79772 36.5215L9.81954 36.453L10.4327 35.5809L10.7045 35.3428L10.762 35.2159L11.0388 34.9718L11.1063 34.947L11.1311 34.8954L11.4575 34.6394L11.5319 34.6137L11.6093 34.5303L12.2105 34.1384L12.2929 34.1136L12.3613 34.0482L12.7681 33.8269L12.8812 33.7981L12.9546 33.7376L13.8504 33.3606L14.6729 32.9638L15.1908 32.8437L15.3227 32.7763L16.4904 32.6533L16.6988 32.6414L16.8952 32.6523Z" fill="#02A556"/>
<path d="M14.1769 34.9165L14.5093 34.979L14.9517 35.0068L14.9617 35.0108L15.0579 35.0197L15.4637 35.0911L15.5331 35.1318L15.7077 35.1725L16.0986 35.367L16.1313 35.4215L16.2444 35.4602L16.3427 35.5366L16.3446 35.5376L16.8635 35.9463L17.43 36.3323L17.4627 36.3938L17.5441 36.4285L17.6225 36.5079L17.8437 37.0476L17.807 37.1369L17.8447 37.2281L17.7653 37.493L17.7564 37.5476L17.6929 37.751L16.9111 38.3204L16.3308 38.0794L16.0897 37.499L16.0946 37.4682L16.0232 37.4394L15.9934 37.3948L15.8724 37.3581L15.3277 36.993L15.3069 36.9811L15.1918 36.9365L15.0371 36.9593L15.0351 36.9603L14.543 37.0357L14.3991 37.0466L14.3962 37.0486L14.2642 37.0505L14.2444 37.0615L14.1819 37.0773L14.168 37.1002L13.8793 37.2321L13.5906 37.2966L13.5172 37.3343L12.5995 37.4375L12.4566 37.4464L12.3931 37.4444L12.3187 37.4404L12.2423 37.4722L11.8623 37.7063L11.7403 37.7331L11.7036 37.7659L10.772 38.6915L9.77198 40.6707L9.24617 43.0012L9.23327 43.023L9.22435 43.0845L8.86719 44.3078L8.64198 45.5896L8.73524 47.2821L8.93068 48.044L9.39697 48.6303L10.2174 49.3556L11.1262 50.0411L11.1907 50.1711L11.3296 50.2365L11.5548 50.5054L11.6213 50.687L11.7056 50.7405L11.7651 50.8665L11.8594 51.2852L11.6322 51.9092L11.5915 51.933L11.5756 51.9717L11.398 52.0451L11.0597 52.2406L10.9228 52.2654L10.7889 52.2773L10.779 52.2813L10.4307 52.2991L10.3643 52.3011L9.96148 52.2346L8.82354 51.8497L8.57849 51.6672L8.36717 51.5908L7.38499 50.7663L7.32249 50.6344L7.19352 50.5729L6.43952 49.6502L6.33535 49.3605L6.14784 49.0708L5.84922 47.8734L5.82045 47.6432L5.80755 47.6164L5.65973 45.6153L5.65576 45.5003L5.67164 45.283L5.89883 43.7323L5.91371 43.7065L5.9276 43.5934L6.254 42.2898L6.79866 39.8016L6.88299 39.6667L6.95145 39.4008L8.22828 37.0684L8.48126 36.9196L8.64595 36.5922L9.92378 35.6437L10.0815 35.5912L10.2303 35.4701L10.6222 35.3104L10.9714 35.241L11.027 35.2142L11.277 35.1953L11.3663 35.1566L11.6054 35.107L11.6778 35.0673L11.9824 35.0207L12.0985 35.0118L12.1064 35.0088L12.3901 34.9939L12.4566 34.9919H12.4903L13.3297 35.0148L13.4824 34.9959L13.6819 34.9403L13.9795 34.8987L14.1769 34.9165Z" fill="#02A556"/>
<path d="M39.1252 32.4469L39.154 32.4727L39.3514 32.9132L39.3802 32.9409L39.4258 33.7029L39.4427 33.7426L39.4298 33.7723L39.4843 34.6791L39.4863 34.7297L39.4853 34.7694L39.4337 35.8091L39.6371 40.5275V40.5553L39.6381 40.5563L39.656 41.7736V41.7805L39.6748 44.1031L39.7046 45.487L39.8475 47.9584L39.8484 47.998V47.999L39.8752 49.0913V49.1191V49.1221L39.8713 50.4188L39.8723 50.508V50.517L39.8703 50.5815L39.776 52.2333L39.7334 53.4992L39.7155 53.5379L39.6242 53.9358L39.4397 54.3147L39.3911 54.3445L39.3564 54.4507L39.3296 54.4854L39.278 54.5112L39.2512 54.5757L38.644 54.8277L38.0359 54.5757L37.9615 54.3941L37.8871 54.3514L37.8712 54.3217L37.8583 54.2731L37.7015 53.9873L37.5875 53.5449L37.5656 53.4972L37.523 52.2204L37.522 52.1807L37.524 52.1073L37.6301 50.4753L37.6311 50.4118V50.3959L37.6599 49.1161L37.642 48.0457L37.641 48.0258L37.639 45.5287V45.5277V45.5059L37.6688 44.0971L37.7105 41.7766L37.7174 40.5652V40.5523L37.8097 35.7893H37.8107L37.8117 35.7535L37.8821 34.6741V34.6731L37.8831 34.6662L37.9307 34.059L37.7998 33.7426L37.9932 33.2763L38.021 32.9251L38.0597 32.8893L38.2472 32.4717L38.275 32.4479L38.7006 32.2852L39.1252 32.4469Z" fill="#0069BF"/>
<path d="M57.3088 32.5426L57.3207 32.5665L57.3436 32.5754L57.4586 32.8542L57.7255 33.4107L57.7473 33.6955L57.7513 33.8006V33.8026L57.7493 35.0497L57.8277 35.5953L57.8426 35.8076V35.8096L57.8406 37.2531L57.914 37.6837L57.9348 37.9278L57.9368 37.9307L57.9954 44.2266V44.2435L57.9626 44.5748L57.6491 46.1344L57.6819 46.2088L57.6997 46.808L57.7007 46.8537L57.6928 47.0055L57.5311 48.5819L57.5737 48.8498L57.5876 49.0145L57.5946 49.0294L57.6908 50.582L57.6948 50.6941L57.6838 50.8905L57.5906 51.7021L57.2602 52.335L57.2136 52.4471L57.3108 52.47L57.5995 52.6168L57.6848 52.7567L57.8555 52.8499L57.912 52.9372L58.0202 53.2994L57.9547 53.5851L57.8912 53.717L57.8813 53.723L57.8743 53.7488L57.7999 53.8817L57.7364 53.9184L57.6948 54.0157L57.6928 54.0166L57.6124 54.2121L57.032 54.4532H56.8624L56.282 54.2121L56.157 53.9105L56.155 53.9125L56.0776 53.9492L56.0409 54.0226L55.7681 54.2379L55.5746 54.3053L55.53 54.3669L55.3157 54.4383L55.0637 54.48L54.8564 54.4522L54.8385 54.4472L54.4883 54.5772L53.4932 54.1645L53.3583 53.8381L53.2988 53.6952L53.1202 53.9462L52.892 54.0623L52.7769 54.2855L52.4743 54.4978L51.6241 54.7687L50.7004 54.4423L50.635 54.3897L50.6171 54.352L50.5844 54.3381L50.5725 54.3093L50.5219 54.2885L50.4554 54.1278L49.5704 54.2399L49.4941 54.2448L49.4861 54.2478L48.8422 54.3004L48.7034 54.3053L48.7024 54.3063L48.0218 54.3083H48.0168L47.9087 54.3123L47.9067 54.3133L47.1973 54.3242H47.1696L47.1329 54.3232L46.5922 54.3669L45.4126 54.48L45.3411 54.5196L44.6774 54.6278L44.4016 54.6506L44.3937 54.6536L44.0702 54.6595L43.602 54.7667L43.5861 54.7687L43.5831 54.7706L43.5296 54.7835L43.0871 54.8341L42.9293 54.8272L42.5632 54.7974L40.9957 54.8341L40.967 54.8351H40.966H40.9223H40.9054L40.4233 54.7716L39.5998 54.5494L39.1048 54.2171L38.8439 54.1089L38.8052 54.0147L38.698 53.9422L38.3409 52.8926L38.3587 52.6416L38.3915 52.4223L38.6117 52.0225L38.7754 51.5741L39.0185 51.2844L39.1623 51.2169L39.2288 51.0741L39.7725 50.6167L39.6693 50.4917L39.4074 49.8667L39.3786 49.7228L39.333 49.6574L38.9828 48.4718L38.8548 48.1216L38.822 47.94L38.7833 47.8765L38.703 47.5194L38.6534 47.0799V47.0462L38.6544 47.0144L38.6246 45.5312L38.4768 44.6006L38.4708 44.5222L38.4649 44.5103L38.3528 43.5639L38.3379 43.3188V43.1948L38.3488 42.9904L38.447 42.0241L38.5651 40.156L38.5978 38.7383V38.7373L38.5988 38.7036L38.6613 37.268L38.6653 37.2571L38.6772 37.0964L38.9302 35.2521L39.1812 34.7907L39.3697 34.2758L39.584 34.0238L39.6703 33.9177L39.829 33.8413L40.5096 33.3145L41.1941 33.0565L41.9035 32.9256L42.0196 32.9296L42.6892 32.9683L42.715 32.9811L42.9829 33.0089L43.3837 33.0952L43.4631 33.1439L43.6734 33.1835L43.8123 33.2381L48.7093 33.249L49.623 33.1766L49.7718 33.1706L49.7738 33.1696L50.3314 33.1617L50.6439 33.127L50.8701 33.1131L50.8721 33.1121L52.4634 33.0982L53.9674 32.9871L54.1103 32.9821L54.1996 32.9841L54.7016 33.0079L55.0945 33.1885L55.2413 32.9008L55.3703 32.8224L55.5885 32.4782L56.411 32.1895L57.3088 32.5426ZM48.1428 37.6529L48.1508 37.5676L48.115 37.5656L48.1428 37.6529Z" fill="#0069BF"/>
<path d="M56.5097 32.1224L57.3798 32.2087L57.7747 32.4091L57.9651 32.4875L57.9751 32.5103L57.9979 32.5222L58.1179 32.8317L58.1685 32.8655L58.1745 32.8794L58.2231 33.1056L58.2489 33.173L58.235 33.2077L58.1765 33.4855L58.1665 33.5093L58.0901 33.559L57.9651 33.8586L57.2796 34.1433L57.225 34.1413L56.353 34.0927L56.35 34.0907L56.3064 34.0887L56.2915 34.0867L56.2091 34.0897H56.1962L55.5077 34.1046L55.5047 34.1056L55.3658 34.1165L55.3629 34.1185L54.2468 34.1373H54.2289H54.0126L53.3162 34.2643L53.2358 34.2713L53.2259 34.2762L52.6157 34.3338L52.5205 34.3378H52.5036L52.4352 34.3368H52.4282L51.9808 34.3249L51.3379 34.3883L51.3339 34.3893L51.1921 34.4032L51.1822 34.4082L49.8398 34.4677L49.7833 34.4737L49.6791 34.4796H49.6623L49.318 34.4737H49.317L48.5997 34.4598L48.5918 34.4568L48.5075 34.4449L47.4628 34.4707L47.3765 34.4776L47.3259 34.4796L47.3239 34.4806L46.6612 34.5024H46.6284L46.5173 34.4965L46.0292 34.4389L46.0044 34.4251L45.8774 34.4072L45.7881 34.3804L44.9895 34.4201L44.9428 34.4211H44.9289L44.8426 34.4191L44.6571 34.4231H44.6383L44.5143 34.4151L43.9507 34.3387L43.538 34.309L43.4428 34.3189H43.4378L42.3832 34.3139L42.3802 34.312L42.1531 34.2812L41.8128 34.187L41.7999 34.1701L41.7205 34.1542L41.6858 34.1393L41.4854 34.1483L40.78 34.2018L40.7135 34.2048L40.5845 34.1949L40.2978 34.1502L40.2939 34.1443L40.2433 34.1383L39.9307 34.0649L39.2551 34.0242L38.8732 34.0282H38.8642L38.2918 33.7911L38.0547 33.2187L38.0775 33.1631L38.0765 33.1621L38.3176 32.5817L38.5984 32.4647L38.6093 32.4498L38.644 32.4379L38.6748 32.4329L38.898 32.3407L39.0676 32.4111L39.2849 32.4131L39.2859 32.4141L39.3444 32.4161L40.1192 32.4825L40.1331 32.4895L40.2343 32.5014L40.4744 32.5589L40.6123 32.543L40.6322 32.5411L40.6341 32.5401L41.3514 32.4716L41.3981 32.4696L41.401 32.4686L41.7989 32.4518L41.8356 32.4508L42.0181 32.4716L42.2275 32.5172L42.4586 32.5609L43.3823 32.5361L43.41 32.5331L43.5102 32.5272H43.5212L44.0579 32.5341L44.0589 32.5351L44.1293 32.5381L44.6899 32.5897L44.8426 32.5926L44.918 32.5917L45.8139 32.5579L45.8506 32.5569H45.9072L45.9865 32.5599L46.2187 32.5807L46.6691 32.6115L47.2524 32.6204L47.311 32.6145L47.3963 32.6095L47.3983 32.6085L48.4936 32.5917L48.5928 32.5788L48.6007 32.5748L49.316 32.5609H49.319L49.6613 32.5549H49.6791L49.7793 32.5609L49.7932 32.5619L51.0522 32.4944L51.077 32.4915L51.0889 32.4855L51.833 32.4012L51.9183 32.3962L51.9213 32.3952L52.4272 32.3823H52.4362L52.4679 32.3813L53.0076 32.3327L53.7507 32.2028L53.9253 32.1869H54.2229L55.2666 32.173L55.2706 32.172L55.3609 32.166L55.3678 32.1631L56.1198 32.1224L56.1744 32.1214L56.2071 32.1224L56.2905 32.1244L56.3024 32.1234L56.4115 32.1174L56.5097 32.1224Z" fill="#0069BF"/>
<path d="M58.4041 33.1703L58.4031 33.1852L58.3991 33.3598L58.543 33.7051L58.5142 33.9213L58.4953 33.9898L58.4209 34.0463L58.4438 34.6089L58.4447 34.6317L58.4566 35.5841L58.4576 35.594L58.4547 35.6555L58.4229 36.0524L58.4219 36.0623L58.3584 36.7201L58.3763 38.0356V38.0366L58.4447 42.5288L58.4616 43.1082L58.535 45.1946V45.1956L58.7285 50.295V50.2999H58.7295L58.8118 52.7454L58.8515 53.5649L58.8525 53.6096L58.8515 53.6512L58.8217 54.2763L58.8376 54.2921V54.3001L58.8356 54.4568L58.8565 54.6939L58.8594 54.7654L58.8049 55.0541L58.7434 55.2088L58.6521 55.2703L58.5688 55.4717L58.0092 55.7039L57.4497 55.4717L57.4268 55.4172L57.3812 55.3944L57.3167 55.31L57.1699 54.8814L57.1441 54.8219L57.1213 53.6383L57.0836 52.8228L57.0826 52.7841V52.7831L57.0747 50.3426L56.908 45.2531V45.2491L56.8465 43.1578V43.1568L56.8296 42.5715L56.8286 42.5467L56.8296 38.0475V38.0296L56.8604 36.6704V36.6695L56.8623 36.6288L56.9169 35.9452L56.9298 35.5762L56.9417 34.6307H56.9427L56.9437 34.589L56.9844 34.0106L56.8832 33.7676L56.9119 33.5513L56.9308 33.4838L57.0201 33.4154L57.037 33.3767L57.0499 33.2814L57.1332 32.9878L57.7552 32.5215L58.4041 33.1703Z" fill="#0069BF"/>
<path d="M47.9706 53.179L48.9647 53.2196L48.9677 53.2206L49.0163 53.2236L49.0867 53.2296L49.9419 53.2355L50.0739 53.2335H50.0838L51.3586 53.2325H51.3596H51.4777L51.6404 53.2464L52.1136 53.3268L52.1553 53.3506L52.2872 53.3754L52.5214 53.4637L52.7376 53.4826L53.3746 53.432L53.7635 53.3546L53.8726 53.3437L53.8855 53.3377L53.9659 53.3308L54.0433 53.3278L54.1891 53.3387L54.5631 53.3952L54.7248 53.4855L54.9867 53.5699L55.2367 53.7504L55.3618 53.7673L55.5562 53.7832H55.6247L56.3916 53.7336L56.457 53.7316H56.463L56.5761 53.7326L56.5781 53.7336L56.6931 53.7405L57.2209 53.808L57.2944 53.8467L57.5255 53.9012L57.714 53.9955L57.7775 54.0996L57.963 54.177L58.2507 54.8715L57.963 55.566L57.2686 55.8537L56.8311 55.7098L56.5295 55.684H56.5116L55.7715 55.7634L55.6614 55.7693H55.6505L55.5562 55.7684L55.3369 55.7862L55.2496 55.7902L55.1038 55.7793L54.698 55.7197L54.4381 55.5769L54.1841 55.4816L53.9728 55.2971L53.7069 55.3517L53.5988 55.3626L53.5869 55.3685L52.818 55.431L52.7357 55.435L52.5749 55.4211L52.1662 55.3527L52.1464 55.3417L52.0729 55.3318L51.9708 55.304L51.9618 55.2921L51.9043 55.2822L51.6989 55.2078L51.3973 55.1572H51.3676L50.1016 55.1781H50.0848H50.0739L49.933 55.1771H49.926L49.0173 55.1602L49.0153 55.1592L48.9369 55.1552L48.8546 55.1463L47.9081 55.1096L47.797 55.1086L45.2949 55.1106L43.6808 55.1205L41.9942 55.3606L41.8999 55.3675L41.895 55.3695L41.1231 55.4003L40.4783 55.4449L39.1994 55.5997L39.135 55.6037L39.131 55.6047L38.6171 55.6275L38.5843 55.6285H38.499L38.3849 55.6761L37.8046 55.435L37.5635 54.8546L37.8046 54.2742L38.3849 54.0332L38.5159 54.0877L38.8403 53.9855L38.9574 53.9667L38.9673 53.9558L40.2292 53.7584L40.8463 53.6036L40.9882 53.5857L41.0061 53.5778L41.7531 53.5212L43.4645 53.2583L43.6034 53.2474L43.6054 53.2464L45.279 53.2345L47.7791 53.18L47.793 53.179L47.922 53.178H47.9309L47.9706 53.179Z" fill="#0069BF"/>
<path d="M80.4626 29.0034L80.2503 29.2158L80.2226 29.2872L80.1958 29.316L79.7563 29.8616L79.2979 30.443L78.5866 31.5184L78.286 32.074L78.2711 32.0829L78.2612 32.1127L77.276 33.5493L76.9169 34.2001L76.7066 34.6396H76.7056V34.6416L76.649 34.7547L76.3802 35.3271L76.3712 35.3321L76.3653 35.3539L75.3474 37.1724L75.3394 37.1764L75.3345 37.1932L75.2948 37.2567L74.9575 37.8947L74.8424 38.1486L74.8384 38.1516L74.8355 38.1615L74.7958 38.2419L74.2323 39.605L74.0676 40.0138L74.0636 40.0168L74.0606 40.0306L73.6112 41.0168L73.5745 41.0962L73.1906 42.0049L73.1876 42.0069L73.1856 42.0158L73.0784 42.25L73.0487 42.3184H73.0477V42.3204L72.6509 43.1915L72.6122 43.2847L72.2262 44.253L72.2223 44.256L72.2193 44.2709L72.0109 44.7352L71.9395 44.7808L71.882 44.9088L71.8205 44.9634L71.4911 45.0874L71.0625 44.6588L71.0665 44.5139L71.0714 44.3354V44.3076V44.3036L71.2361 43.8631L71.2381 43.8621L71.2391 43.8552L71.627 42.8839L71.6607 42.7897L71.6716 42.7827L71.6796 42.747L72.0933 41.873L72.13 41.7976L72.2342 41.5763L72.633 40.6725L72.635 40.6705L72.636 40.6646L72.6776 40.5763L73.1271 39.609L73.2947 39.2072V39.2062L73.8642 37.8331L73.8662 37.8312L73.8682 37.8232L73.9128 37.723L73.9158 37.721L73.9178 37.7121L74.0467 37.4462L74.0537 37.4413L74.0586 37.4234L74.4277 36.7597L74.4376 36.7537L74.4436 36.7319L74.4882 36.6644L75.5091 34.8856L75.7829 34.3251H75.7839L75.7849 34.3231L75.8395 34.213L76.0498 33.7675L76.0577 33.7626L76.0637 33.7417L76.4437 33.0572L76.4615 33.0472L76.4724 33.0115L77.4923 31.5958L77.8167 31.0541L77.8266 31.0492L77.8316 31.0313L78.5886 29.939L78.6035 29.9311L78.6104 29.9102L79.0985 29.3229L79.1035 29.3209L79.1064 29.314L79.3743 29.0104L79.3674 29.0034L79.4854 28.8854L79.5817 28.7773L79.6035 28.7673L79.915 28.4558L80.4626 29.0034Z" fill="black"/>
<path d="M71.3702 44.2703L71.4496 44.3269L71.4595 44.3576L71.646 44.4796L71.7522 44.5402L71.7601 44.556L71.7889 44.565L71.8266 44.5927L71.8871 44.7108L71.9675 44.7604L72.0796 44.9945L72.7463 46.3289L72.7483 46.3379L72.7512 46.3398L73.038 46.943L73.0459 46.9768L73.0548 46.9827L73.3971 47.9103L73.3991 47.9203L73.4011 47.9212L73.7116 48.8121L74.0955 49.6763L74.6233 50.5969L74.6263 50.6108L74.6323 50.6138L76.3397 53.856L76.3496 53.8947L76.3615 53.9036L76.6889 54.7251L77.0728 55.615L77.6572 56.7896L78.059 57.5694L78.8715 58.8552L79.3785 59.5199L79.3795 59.5229L79.3814 59.5239L79.8229 60.1132L79.8329 60.1439L79.8497 60.1538L80.2585 60.8314L80.2654 60.8543L80.2753 60.8602L80.3081 60.9247L80.3339 61.0299L80.3517 61.0437L80.3775 61.1608L80.4599 61.3493L80.4916 61.5021L80.4966 61.5061L80.4986 61.5577V61.5745L80.1027 61.9704L79.936 61.9327L79.8854 61.9099L79.82 61.8057L79.6969 61.7343L79.5838 61.5348L79.5035 61.4227L79.4856 61.3672L79.4608 61.3523L79.436 61.3007L79.056 60.6539L78.6344 60.0814L78.6334 60.0784H78.6324L78.1274 59.386L78.1205 59.3661L78.1096 59.3602L77.2762 58.0426L77.2673 58.0129L77.2544 58.0049L76.8446 57.2063L76.8427 57.2004L76.8407 57.1994L76.2494 56.0118L76.2454 55.993L76.2395 55.989L75.8436 55.0852L75.8406 55.0743L75.8377 55.0723L75.5083 54.2697L73.8227 51.0414L73.2989 50.1019L73.29 50.0701L73.279 50.0622L72.8802 49.1634L72.8733 49.1306L72.8653 49.1257L72.5508 48.2209V48.2199L72.2165 47.318L71.9298 46.7416V46.7387L71.9288 46.7377L71.2681 45.3963L71.2661 45.3884L71.2631 45.3864L71.2055 45.2654L71.1133 45.1801L71.1004 45.1493L71.0716 45.1364L71.0508 45.1106L71.0716 44.3358L71.0726 44.2574V44.2564L71.0934 44.2257L71.1321 44.0332L71.3702 44.2703Z" fill="black"/>
<path d="M80.0652 28.268L80.0742 28.267H80.095L80.2894 28.3146L80.4144 28.3791L80.4402 28.4218L80.5137 28.4515L80.8946 28.8196L80.9373 28.9208L80.9918 28.9555L81.2905 29.5785L81.2915 29.5825L81.2934 29.5835L81.4581 29.9317L81.9383 30.8822L81.9413 30.8961L81.9472 30.9L83.2905 33.8138L83.2925 33.8218L83.2945 33.8237L83.737 34.8277L83.8848 35.1174L84.0485 35.3655L84.0495 35.3674L84.5793 36.1701L84.5932 36.2157L84.612 36.2276L85.0366 37.1026L85.0376 37.1086L85.0396 37.1096L85.3273 37.7148L85.5158 38.0402L85.5555 38.1066L85.5625 38.1295L85.5724 38.1354L86.0744 39.1037L87.2887 41.2962L87.3304 41.3697L87.3343 41.3835L87.3403 41.3875L88.5298 43.6564L88.9306 44.3886L88.9316 44.3916L88.9326 44.3926L88.9624 44.4471L89.1479 44.7577L89.2144 44.9948L89.1856 45.0236L89.1906 45.0285L88.7838 45.4353L88.7788 45.4303L88.756 45.4531L88.3969 45.2795L88.1637 44.9849L88.1459 44.9333L88.1191 44.9174L88.0864 44.8579L88.0854 44.8569V44.8559L87.6786 44.1207L87.6766 44.1108L87.6726 44.1088L86.4871 41.8419L86.4484 41.7744L86.4464 41.7675L86.4434 41.7655L85.2301 39.562L85.2251 39.5462L85.2192 39.5422L84.74 38.5828L84.7083 38.5322L84.7063 38.5253L84.7023 38.5233L84.4979 38.183L84.493 38.1642L84.485 38.1592L84.1616 37.555L84.1566 37.5372L84.1507 37.5322L83.741 36.675L83.2499 35.8814L83.2489 35.8764L83.2469 35.8754L83.0782 35.5976L83.0762 35.5897L83.0723 35.5877L82.8897 35.2742L82.8788 35.2325L82.8649 35.2236L82.4215 34.2107L81.097 31.2919L80.6347 30.3474L80.4502 30.029L80.4422 29.9992L80.4313 29.9923L80.1525 29.4069L80.1416 29.392L80.0613 29.4724L79.5255 29.0369L79.4977 28.9049L79.4858 28.7898L79.7358 28.5398L79.9908 28.271H80.0037L80.0335 28.2422L80.0652 28.268Z" fill="black"/>
<path d="M88.669 44.8884L88.7276 44.8924L88.7494 44.9152L89.048 45.068L89.0659 45.0928L89.1492 45.3468L89.0391 45.4559L89.0321 45.4896L89.0093 45.5373L89.0133 45.5928V45.5948L89.0748 45.6563L88.8774 46.077L88.8446 46.1047L88.5837 46.2L88.1442 47.205L88.1412 47.207L88.1383 47.2169L87.6442 48.2437L87.6244 48.2566L87.6095 48.3032L87.3495 48.6842L86.784 49.5047L85.5618 51.5663L85.5588 51.5682L85.5568 51.5752L85.1937 52.1516L85.1868 52.1556L85.1818 52.1694L84.6232 52.9721L83.6331 54.4047L83.1619 55.2777L82.9714 55.7718L82.9654 55.7757L82.9615 55.7946L82.773 56.2113L82.7631 56.2182L82.7561 56.246L82.7254 56.3015L82.4625 56.8819L82.3057 57.2807L82.0259 58.1359L82.016 58.1429L82.0061 58.1846L81.3106 59.7213L81.2977 59.7293L81.2888 59.763L81.2194 59.883L81.2104 59.888L81.2055 59.9058L80.8622 60.4287L80.8513 60.4346L80.8453 60.4535L80.7759 60.5448L80.767 60.5497L80.762 60.5626L80.7045 60.6321L80.6757 60.645L80.6628 60.6767L80.4743 60.8543L80.131 60.9912H80.1142L79.9802 60.9862L79.9763 60.9813L79.8056 60.9416L79.7897 60.9337L79.5596 60.5596L79.5784 60.5289L79.6459 60.3156L79.7223 60.2045L79.7332 60.1995L79.7381 60.1836L79.8989 59.9793L79.9058 59.9753L79.9088 59.9664L79.9564 59.9098L80.007 59.8424L80.3354 59.3523L80.381 59.2709L81.0566 57.7738L81.3632 56.9355L81.509 56.5109L81.519 56.5039L81.5259 56.4682L81.8047 55.8561L81.8106 55.8521L81.8156 55.8343L81.8513 55.7658L82.0438 55.364H82.0448L82.2809 54.862L82.2869 54.859L82.2898 54.8442L82.7849 53.9155L82.8018 53.9056L82.8117 53.8719L83.8127 52.4076H83.8137L83.8147 52.4056L84.3663 51.6149L84.7205 51.0484L85.9814 48.9977L85.9923 48.9918L85.9983 48.9729L86.5797 48.1574L86.8108 47.7973L87.3297 46.8171L87.8634 45.6871L87.8555 45.6791L87.8773 45.6573L87.9656 45.4708L87.9765 45.4638L87.9835 45.4371L88.1085 45.2277L88.1393 45.2099L88.1581 45.1613L88.2613 45.0491L88.3952 44.9896L88.4339 44.936L88.5083 44.9112L88.6452 44.8884H88.669Z" fill="black"/>
<path d="M81.7165 35.3828L81.7076 35.4919L81.4526 37.112L81.2453 38.6776L81.3485 38.6339L81.9933 39.2788V39.2976L81.9864 39.5347L81.9854 39.5357L81.9844 39.5665L81.9388 40.13L82.3356 39.8889L82.4507 39.8998L82.4923 39.9078L82.9695 40.4911L82.9676 40.5348L82.9309 41.0328L82.9299 41.0338L82.9279 41.0636L82.8316 41.8076L83.0459 41.7174L83.1253 41.7223L83.1749 41.7293L83.3644 41.9485L83.663 42.1946L83.6987 42.3751L83.7106 42.4932L83.7037 42.5795L83.535 43.7313L83.5321 43.7343L83.5291 43.765L83.2811 44.9615L83.5549 44.5845L83.5717 44.5766L83.5797 44.5528L84.1601 43.8692L84.2156 43.8434L84.2404 43.7918L84.4537 43.6232L84.5371 43.5944L84.5609 43.5557L84.7533 43.4635L84.9617 43.4158L84.9696 43.4079L85.0976 43.4L85.1323 43.399L85.3833 43.4575L85.5063 43.518L85.5788 43.6351L85.7306 43.7164L85.8 43.8226L85.8546 44.0032L85.8853 44.028L85.9448 44.3266L85.9568 44.4436L85.9548 44.4873L85.9478 44.5796L86.1234 44.5171L86.3218 44.4833L86.3814 44.4863L86.4925 44.4972L86.5262 44.4813L86.5629 44.4149L86.6909 44.3315L86.9816 44.2452H86.9836L87.2038 44.2462L87.2058 44.2472L87.5173 44.3504L87.681 44.4714L87.8427 44.7939L87.8904 44.8365L87.9211 45.1103L87.9241 45.1709L87.9072 45.3028L87.808 45.6887L87.7902 45.7026L87.7683 45.7919L87.5144 46.2909L87.4578 46.5638L87.4518 46.5687L87.4449 46.6104L87.2723 47.1332L87.2614 47.1412L87.2514 47.1838L86.925 47.8644L86.9002 47.8803L86.8814 47.9368L86.681 48.2067L86.5778 48.2583L86.5322 48.3347L86.3992 48.4061L86.181 48.4626L85.9865 48.419L85.9448 48.3991L85.806 48.1779L85.7256 48.1749L85.7097 48.1591L85.5391 48.0807L85.293 48.5619L85.1601 48.8525L84.7573 49.1085L84.5351 49.6472L84.5261 49.6532L84.5202 49.679L84.1065 50.5282L84.0986 50.5332L84.0936 50.551L83.7771 51.1314L83.7206 51.1651L83.6829 51.2623L83.418 51.552L83.1858 51.6542L83.1223 51.7405L83.0519 51.7634L82.8426 51.7961L82.2096 51.3586L82.1709 51.2554L82.1263 51.0123L82.1292 50.9479L82.1392 50.8437L82.1431 50.8397L82.1501 50.7732L82.3257 49.9379L82.3386 49.927L82.3544 49.8417L82.7552 48.797L82.7681 48.789L82.7771 48.7494L83.3237 47.6362L83.3366 47.6283L83.3446 47.5975L83.9339 46.6034L83.9517 46.5925L83.9626 46.5588L84.4071 45.9437L84.4279 45.9338L84.4378 45.905L84.6283 45.6838L84.7702 44.9456L84.7722 44.8931L84.4607 45.2572L83.9021 46.1054L83.2265 47.2939L82.3693 49.1184L81.6114 50.8625L81.2731 51.8239L81.2711 51.8259L81.2691 51.8348L80.8395 52.9717L80.8187 52.9856L80.8018 53.0541L80.7591 53.1334L80.0855 53.5372L79.5448 53.313L79.4129 52.9955L78.8622 53.1979L78.2184 52.9311L77.9515 52.2872L77.9594 52.2356L77.9644 52.1562L78.02 51.7475L78.0219 51.7445L78.0229 51.7267L78.0884 51.3308L78.0993 51.3219L78.1132 51.2256L78.3116 50.5639L78.0805 50.4687L77.8463 49.9022L77.8503 49.8169L77.8582 49.7494L77.3562 49.542L77.1013 48.9269V48.924L77.1023 48.4438L77.1042 48.3932L76.5675 48.171L76.3344 47.6084L76.1062 47.9954L75.5129 48.2116L74.8581 47.9398L74.7609 47.7057L74.5486 47.6184L74.2827 46.9755L74.2837 46.9259L74.3601 45.531L74.3621 45.528L74.3641 45.4863L74.5625 43.652L74.5665 43.645L74.5704 43.5974L74.9444 41.4406L74.9554 41.4217L74.9643 41.3542L75.5546 39.2361L75.6439 38.8879L75.6538 38.8799L76.0219 37.5585L76.0308 37.5515L76.0387 37.5089L76.0834 37.3789L76.1836 37.3085L76.2868 37.0594L76.8949 36.8075L77.1489 35.98L77.2243 35.5703L77.2332 35.5634L77.2431 35.4959L77.3086 35.2756L77.3929 35.2141L77.4941 34.9681L78.0219 34.7498L78.5487 34.9681L78.639 35.1854L78.7214 35.1516L79.2829 35.3848L79.2938 35.4106L79.3256 35.2985L79.3762 35.2171L79.9893 34.8778L80.5022 35.0901L80.5042 35.0971L81.0161 34.6824L81.7165 35.3828Z" fill="black"/>
<path d="M82.9396 45.0581L83.1043 45.0591V45.0601L83.1945 45.07L83.3394 45.1037L83.3622 45.1315L83.4952 45.1742L83.6251 45.2655L83.6569 45.327L83.7233 45.3587L83.8553 45.5254L83.8662 45.5571L83.889 45.5502L83.9595 45.5551L84.0358 45.5631L84.0755 45.6087L84.4099 45.7546L84.524 45.8776L84.6648 46.2387L84.6877 46.2595L84.7293 46.9183L84.7303 46.959L84.7293 47.0026L84.6371 48.2656L84.6351 48.2675L84.6301 48.3211L84.4922 49.1079L84.4902 49.1098L84.4873 49.1317L84.1579 50.5811L84.1519 50.5861L84.146 50.6268L83.8235 51.6169L83.8186 51.6199L83.8156 51.6387L83.4336 52.6397L83.4247 52.6457L83.4178 52.6774L83.0715 53.4076L83.0358 53.4304L83.01 53.5098L82.6667 53.9652L82.4951 54.0505L82.4267 54.1537L82.2441 54.234L82.0001 54.2856L81.7639 54.2023L81.628 54.484L81.6002 54.5019L81.5794 54.5644L81.4673 54.7182L81.0298 54.9394L81.0149 54.9384L80.9742 54.9374L80.4375 54.3848V54.368L80.4593 53.6289L80.4603 53.6279L80.4633 53.5763L80.5873 52.6149L80.5903 52.612L80.5943 52.5752L80.8453 51.3708L80.8522 51.3649L80.8611 51.3143L81.2629 50.1009L81.2738 50.093L81.2838 50.0504L81.5814 49.4045L81.5992 49.3936L81.6121 49.3489L81.7143 49.1882L81.9425 48.3529L81.9524 48.3449L81.9614 48.2963L82.3255 47.3508L82.3423 47.3399L82.3562 47.2854L82.7322 46.576L82.756 46.5621L82.7709 46.5145L82.9485 46.2605L82.9545 46.1266L82.9267 45.9569L82.9088 45.8825L82.881 45.8786L82.5229 45.4698L82.9356 45.0581H82.9396Z" fill="black"/>
<path d="M77.3609 33.8587L77.5811 34.3904L77.5266 34.6732L77.0642 35.8161L77.0355 35.8349L77.0126 35.9163L76.8132 36.2467L76.7984 36.2784L76.7111 36.4877H76.7101V36.4897L76.5156 36.9382L76.5097 36.9421L76.5057 36.96L76.4372 37.0999L76.3192 37.708L76.2993 37.7239L76.2725 37.8558L76.1634 38.1108L75.9938 38.6297L75.8092 39.4789L75.6832 40.1655L75.6733 40.2815L75.6713 40.2835L75.6684 40.3242L75.3846 42.1864L75.3836 42.1874V42.1923L75.1634 43.5128L75.1614 43.5148L75.1594 43.5307L75.1296 43.6815L75.2001 43.7142L75.2467 43.7876L75.3231 43.8194L75.3251 43.8243L75.3995 43.8551L75.6108 44.365V44.3759L75.6029 44.9345L75.6019 44.9484L75.585 45.4156L75.9134 45.5516L76.0225 45.8135L76.1267 45.9087L76.1733 46.3929L76.5354 46.5427L76.6704 46.8681L76.6793 46.875L76.7894 46.8294L76.8261 46.5685L76.8311 46.5635L76.837 46.507L76.9492 46.0298L76.9561 46.0238L76.964 45.9782L76.9849 45.9107L77.0692 45.8492L77.1644 45.62L77.6863 45.4037L78.0355 45.492L78.0881 45.5198L78.1278 45.5863L78.2081 45.62L78.2885 45.8145L78.4254 45.9087L78.6377 46.4831L78.6536 46.5665L78.6665 46.5764L78.6913 46.6845L78.8709 46.5724L79.1109 46.624L79.1853 46.6578L79.3213 46.8701L79.4889 46.9871L79.6546 47.4425L79.6665 47.512L79.6764 47.5199L79.7072 47.6608L79.9473 46.9921L79.9651 46.9802L79.981 46.9207L80.0892 46.7371L80.1358 46.4425L79.98 45.9653L79.9671 45.8809L79.9443 45.877L79.4731 45.3353L80.0207 44.7876L80.0951 44.7926L80.4701 44.8442L80.5753 44.9662L80.9066 45.1964L81.0009 45.4514L81.0277 45.5972L81.0346 45.6032L81.0455 45.748L81.0475 45.7917L81.0287 45.9325L80.8808 46.4921L80.8134 46.8978L80.8084 47.1528V47.1538L80.7995 47.2362L80.6219 48.0854L80.863 48.2263L80.9384 48.3592L81.0138 48.639L81.0217 48.6479L81.0535 49.4247L81.0545 49.4515L81.0535 49.4902L81.0148 50.1113L81.5555 50.6529V50.6777L81.5019 52.1222L81.5009 52.1232L81.4969 52.1748L81.3809 53.1511L81.3779 53.154L81.3729 53.2016L81.2707 53.7027L81.1934 54.5013L81.1904 54.5033L81.1874 54.544L81.0564 55.3158L81.0495 55.3218L81.0406 55.3843L80.8501 56.041L80.8342 56.0529L80.8193 56.1244L80.6735 56.4478L80.5515 56.5262L80.4552 56.7177L80.2985 56.8337L80.1894 56.8704L80.1804 56.8853L80.1636 56.927L79.5246 57.3466L79.3848 57.3328L79.3461 57.3248L78.9492 56.8347L78.7984 56.6938L78.7845 56.4944L78.5881 56.6671L78.0673 56.4518L77.851 55.9299L77.8589 55.8267L77.9284 55.3327L78.1288 53.6044L78.1228 53.5568L78.1188 53.4983L78.1178 53.4963L78.0534 52.0836L78.0514 52.6242V52.6352L78.0415 53.1659L77.8758 53.5529L77.8004 53.7324L77.7974 53.7344L77.7954 53.7374L77.218 53.9735L76.6357 53.7324L76.4442 53.2701L76.4323 53.2602L76.4273 53.2284L76.3946 53.1501L76.3956 53.1124L76.3985 53.0578L76.3956 53.033L76.3936 53.031L76.3479 52.6818L76.3469 52.6689L75.9838 52.5181L75.7626 51.9834V51.9595L75.7775 51.4982L75.7705 51.0905L75.7527 51.0984L75.2001 50.8821L75.1931 50.8662L75.1783 50.8603L75.1068 50.6897L74.9421 50.3494L74.9144 49.9972L74.9124 49.9307L74.9134 49.894L74.9501 49.0775L74.9342 49.0834L74.4094 48.8662L74.2943 48.5874L74.2159 48.5269L74.202 48.4743L74.1782 48.2898L74.1792 48.258L74.1842 48.131L74.1921 46.8701V46.8572L74.1951 46.757L74.1504 46.7857L73.959 46.759L73.9094 46.7441L73.4302 46.1022V46.0972L73.4312 45.9732V45.9563L73.449 45.4365L73.451 45.4355L73.457 45.3581L73.5512 44.7559L73.5542 44.7539L73.5562 44.7321L73.7338 43.8511L73.7992 43.3094L73.8002 43.3084L73.8012 43.2995L73.9877 41.9741L73.9897 41.9721L73.9907 41.9542L74.3171 40.098L74.3201 40.096L74.3231 40.0712L74.3518 39.9412L74.4739 39.223L74.6296 38.3211L74.6306 38.3182L74.7427 37.708L74.7556 37.6971L74.7725 37.5989L74.8776 37.3032L74.9134 37.2784L74.9461 37.1634L75.2933 36.6048L75.3568 36.4669L75.4779 36.0433L75.4888 36.0353L75.4987 35.9847L75.588 35.7605L75.5949 35.7556L75.5979 35.7427L75.6614 35.3974L75.6753 35.3855L75.6951 35.2784L76.1267 34.1226L76.213 34.063L76.2973 33.8587L76.8291 33.6384L77.3609 33.8587Z" fill="black"/>
<path d="M79.7916 30.6375L79.7965 30.6513L79.8094 30.6563L79.8392 30.6881L80.0614 31.2486L80.0555 31.3478L80.0088 31.7298L79.9969 31.7407L80.0088 31.956L80.0098 31.9877L79.9701 32.1921L79.8798 32.4163L79.8402 32.5453L79.7529 32.8717L79.7429 32.8786L79.734 32.9262L79.1745 34.2904L78.9324 35.2845L78.9304 35.2864L78.9284 35.3003L78.4879 36.8669L78.483 36.8708L78.479 36.8946L77.9879 38.3362L77.5573 39.9265L76.9303 40.4017L76.2795 39.7519L76.2805 39.7162L76.3142 39.0951L76.3172 39.0921L76.3252 39.0108L76.3301 38.983L75.9581 39.7866L75.3033 41.2976L75.2289 41.3452L75.1674 41.5079L74.9789 41.7202L74.958 41.7291L74.9491 41.752L74.4094 41.9752L73.8707 41.752L73.6465 41.2122L73.705 40.9186L73.8132 40.6596L74.4114 39.1249L74.4173 39.1209L74.4213 39.1011L75.0384 37.6784L75.0553 37.6675L75.0682 37.6169L75.966 35.9561L76.3619 35.1872L76.4144 34.9461L76.6089 34.5245L77.7429 31.7972L77.974 31.6444L78.0663 31.4678L78.1238 31.4272L78.1417 31.4004L78.1933 31.3786L78.1943 31.3776L78.2369 31.3488L78.2994 31.3289L78.4721 30.9271L78.4919 30.8805L78.5822 30.822L78.6685 30.6275L79.2251 30.4033L79.7916 30.6375Z" fill="black"/>
<path d="M76.4219 37.04L76.408 37.164L76.3495 37.413L76.3455 37.416L76.3415 37.4428L75.9338 38.8099L75.9308 38.8119L75.9288 38.8258L75.6282 39.7345L75.3216 40.8596L75.1847 41.6443L75.1827 41.6751L75.1788 41.6791L75.1659 41.7892L74.9665 42.6573L74.9516 42.6682L74.9357 42.7555L74.9228 42.7882L74.8663 43.0233L74.654 44.0889L74.5845 44.1454L74.4555 44.4569L73.9396 44.6702L73.4247 44.4569L73.2104 43.942L73.2263 43.7922L73.4436 42.7525L73.4674 42.5184L73.4684 42.4618L73.4734 42.4499L73.512 42.2277L73.8087 41.3884L73.8196 41.3804L74.0021 40.559H74.0031L74.2561 39.3734L74.2651 39.3665L74.275 39.3059L74.5795 38.3754L74.5964 38.3625L74.6123 38.295L75.155 37.16L75.1748 37.0995L75.1887 37.0906L75.2274 37.0092L75.2433 36.9983L75.2661 36.9348L75.2889 36.9051L75.2968 36.9021L75.2988 36.8961L75.4566 36.6987L75.8792 36.4973L76.4219 37.04Z" fill="black"/>
<path d="M75.0449 40.5022L74.9328 40.658L74.8673 40.8465L74.8554 40.8624L74.7979 41.0667L74.5568 42.0479L74.5518 42.0519L74.5479 42.0787L74.1341 43.4369L74.1232 43.4448L74.1133 43.4934L73.9427 43.9051L73.65 44.8675L73.525 45.3308L72.9863 45.7405L72.4277 45.182L72.4287 45.1363L72.4694 44.6452L72.4724 44.6423L72.4783 44.5808L72.6817 43.551L72.6916 43.543L72.7045 43.4676L72.8613 43.0132L73.3147 41.6759L73.6331 40.7126L73.653 40.6987L73.6718 40.6233L73.8286 40.3266L73.9556 40.2512L74.0359 40.1084L74.147 40.0399L74.2849 40.0012L74.2899 39.9933L74.3207 39.9834L74.3832 39.9734L74.4288 39.9605L74.4308 39.9586H74.4744L74.4973 39.9546L75.0449 40.5022Z" fill="black"/>
<path d="M74.4173 40.961L74.3876 41.0324L74.3915 41.081L74.3925 41.1247L74.2854 41.4531L74.2279 41.5314L74.1782 41.8231L74.0493 42.6604L73.9233 43.5246L73.9213 43.5265L73.9193 43.5513L73.6842 44.7667L73.6762 44.7736L73.6663 44.8371L73.4907 45.3798L73.3667 45.7865L72.8488 46.1665L72.3062 45.6238L72.3091 45.5732L72.3498 45.1387L72.3508 45.1367L72.3538 45.1089L72.4381 44.5454L72.6087 43.3291L72.6097 43.3281L72.6107 43.3162L72.7556 42.4452L72.7576 42.4432L72.7595 42.4223L72.9351 41.583L72.948 41.5721L72.9659 41.4828L73.1048 41.1326L73.1484 41.1028L73.1871 40.9897L73.2685 40.8856L73.33 40.8558L73.3598 40.7933L73.3776 40.7784L73.4491 40.6078L73.4828 40.5741L73.8697 40.4133L74.4173 40.961Z" fill="black"/>
<path d="M72.45 43.426L72.5393 43.4537L72.5889 43.5232L72.7764 43.6026L72.9024 43.7305L72.9668 43.8903L73.0343 43.9369L73.0849 44.0698L73.0988 44.1442L73.1057 44.1512L73.1563 44.2831L73.2169 44.3218L73.4659 44.8893L73.7754 45.3248L73.7943 45.3824L73.8806 45.434L74.0105 45.6721L74.0334 45.7614L74.0562 45.7782L74.1593 46.0957L74.1326 45.9667L74.072 45.7951L74.0462 45.6453L73.9689 45.5679V45.5342L74.5165 44.9865L75.0641 45.5342V45.5679L74.9878 45.6443L74.9808 45.7217L74.953 45.8715L74.9788 46.1066L75.1018 46.5997L75.3677 47.3725L76.2398 49.575L76.5493 50.2308L76.7656 50.6494L76.7735 50.6832L76.7844 50.6911L76.9204 51.0165L76.9432 51.1326L76.9551 51.1425L76.9958 51.4143L77.1118 51.8727L77.1218 51.9054L77.1456 52.0632L76.5969 52.6118L76.0691 52.211L76.0513 52.1475L75.7804 51.6743L75.6158 51.839L75.0473 51.5036L74.9094 51.2536L74.8816 51.1504L74.8568 51.1316L74.7288 50.7288L74.4699 50.3181L74.4669 50.3052L74.46 50.3022L74.0998 49.697L74.0919 49.6692L74.08 49.6623L73.8399 49.2L73.8359 49.1821L73.7913 49.1147L73.7575 49.0016L73.7218 48.9758L73.6325 48.7287L73.5919 48.6682L73.5909 48.6633L73.5879 48.6623L73.1216 47.9579L73.1137 47.9331L73.1018 47.9261L72.4807 46.8705L72.4589 46.7931L72.4351 46.7763L72.3269 46.4965L72.3031 46.3695L72.2912 46.3586L72.2664 46.1731L72.2605 46.0927L72.5035 45.8497L72.4896 45.5689L72.4887 45.5401L72.4896 45.5362L72.4619 45.4925L72.4599 45.4865L72.4569 45.4846L72.1107 44.9211L71.9222 44.6522L71.9083 44.6333L71.7813 44.2603L71.815 44.2266L71.7456 44.1085L71.6543 44.0172L71.6682 43.9061L71.6801 43.8506L71.7605 43.7881L71.8805 43.5539L71.944 43.5073L72.2783 43.3992L72.45 43.426Z" fill="black"/>
<path d="M72.127 44.2605L72.2847 44.3071L72.3512 44.3508L72.4405 44.5145L72.5367 44.5819L72.5923 44.7258L72.5963 44.7298L72.5943 44.7318L72.6161 44.7883L72.6171 44.7943L72.6181 44.7952L72.7441 45.1306L72.9197 45.5582L73.3225 46.4709L73.88 47.6356L74.5289 48.8192L74.5547 48.9184L74.5785 48.9363L74.7303 49.4194L74.9019 49.8669V49.8679L75.0338 50.2002L75.0517 50.2945L75.0636 50.3044L75.0666 50.3143L75.0755 50.4135L74.6618 50.9254L74.6519 50.9274L74.5348 50.9403L74.1628 50.7905L73.8989 50.5375L73.8354 50.3877L73.761 50.3391L73.5596 49.8798L73.5457 49.8123L73.5318 49.8014L73.3969 49.343L72.8373 48.1485L72.253 46.9838L72.2451 46.9511L72.2351 46.9441L71.8442 46.0135L71.8423 46.0026L71.8393 46.0006L71.6627 45.5582L71.6448 45.4689L71.6319 45.458L71.5575 45.1068L71.5456 44.9887L71.5655 44.8419L71.5754 44.8042L71.501 44.7298L71.6319 44.5988L71.6478 44.5433L71.8056 44.4252L72.0486 44.1821L72.127 44.2605Z" fill="black"/>
<path d="M73.368 42.9571L73.4375 43.0126L73.6438 43.4442L73.6517 43.4531L73.6537 43.5424L73.9295 43.9472L73.7906 44.0861L73.7946 44.3599L73.872 44.8629L73.8819 44.9145L73.9613 45.0762L74.4325 45.8262L74.7044 46.2528V46.2558H74.7054L75.0982 46.8729L75.1925 47.1953L74.5972 47.7906L74.1339 47.5683L73.6736 46.9979L73.6706 46.99L73.6656 46.987L73.3799 46.6179L73.0605 46.5008L72.9761 46.4294L72.9474 46.3679L72.8908 46.3401L72.7172 46.111L72.6845 46.0147L72.6458 45.9889L72.4652 45.5653L72.4374 45.4304L72.4255 45.4195L72.3769 45.0613L72.3709 44.9849L72.3729 44.9462L72.3957 44.6119L72.3997 44.6089L72.4096 44.5226L72.4126 44.5097L72.4106 44.5077L72.3531 43.9571L72.3491 43.8906L72.3531 43.8202L72.3997 43.4263L72.4106 43.4164L72.4364 43.2815L72.4741 43.1882L73.0069 42.8301L73.368 42.9571Z" fill="black"/>
<path d="M73.9679 45.5071L74.0344 45.5905L74.0939 45.7581L74.1366 45.7909L74.1802 45.9536L74.2874 46.1441V46.145H74.2884L74.5354 46.5816L74.5384 46.5945L74.5433 46.5974L74.7874 47.0598L74.7973 47.1024L74.8112 47.1113L74.9709 47.5102L74.9759 47.532L74.9808 47.535L75.4957 48.9904L75.9015 49.9011L76.599 51.1601L76.9631 50.795L77.4174 51.0083L77.5494 51.168L77.5811 51.2544L77.6258 51.2811L78.102 52.1978L78.4512 51.8486L79.0921 52.428L79.105 52.561L79.3262 53.5084L79.3659 53.6443L79.8421 54.8636L79.9771 55.1335L79.986 55.1374L80.0415 55.194L80.1289 55.4043L80.1487 55.4321L80.1675 55.4936L80.1953 55.5184L80.2033 55.6067L80.2906 55.7674L79.6695 56.3895L79.5792 56.3696L79.3203 56.6286L78.8113 56.3924L78.4512 56.5423L78.1625 56.4797L77.972 56.3944L77.9353 56.3389L77.8123 56.2942L77.4274 55.9728L77.3857 55.8835L77.3063 55.8428L77.1109 55.572L76.974 55.6057L76.594 55.4936L76.4462 55.3984L76.3896 55.2942L76.2716 55.2357L76.0245 54.9073L75.9977 54.8289L75.961 54.8061L75.5761 54.0531L75.5721 54.0382L75.5672 54.0352L75.0394 52.936V52.933L75.0384 52.932L74.6921 52.2107L74.6693 52.1125L74.6505 52.0976L74.5374 51.6641L74.5195 51.5282L74.5175 51.5252L74.5076 51.2335L74.5066 51.2117L74.6257 50.8476L74.6624 50.797L74.9997 50.6264L74.8906 50.4031L74.8836 50.3734L74.8747 50.3674L74.4769 49.4071L74.4709 49.3763L74.463 49.3704L73.96 47.8941V47.8931L73.8181 47.4883L73.8131 47.4606L73.8082 47.4566L73.6742 46.9923L73.4857 46.6153L73.3727 46.4595L73.2397 46.3385L73.2199 46.2948L73.1802 46.276L73.1137 46.1927L72.9927 45.8494L73.5403 45.3018L73.9679 45.5071Z" fill="black"/>
<path d="M86.0201 49.2312V49.2987L85.4724 49.8463L84.9248 49.2987V49.2312L85.4724 48.6836L86.0201 49.2312Z" fill="black"/>
<path d="M86.1218 46.987L86.2935 46.8699L86.7598 47.3362L86.7489 47.4384L86.7052 47.6309L86.6913 47.6428L86.6725 47.7271L86.6328 47.8114L86.5832 48.0158L86.4076 48.3561L86.3292 48.5783L86.1496 48.7033L85.9185 49.0932L85.9115 49.1359L85.8589 49.3046L85.8113 49.3393L85.7587 49.503L85.6704 49.628L85.6139 49.7589L85.6099 49.7619L85.6079 49.7728L85.5435 49.9127L85.5355 49.9177L85.5306 49.9395L85.2547 50.4693L84.9214 51.1588L84.8629 51.1945L84.8192 51.3116L84.0414 52.2154V52.2164L83.9878 52.4277L83.9591 52.4505L83.9243 52.5894L83.6604 53.0904L83.4015 53.6668L83.3956 53.6708L83.3926 53.6857L82.5473 55.4089L82.5384 55.4139L82.5334 55.4347L82.1247 56.1848L82.1207 56.1868L82.1197 56.1937L81.9709 56.4546L81.5592 56.6927L81.4838 56.8713L81.3389 57.2662L81.2238 57.3465L81.08 57.791L80.7595 58.0211L80.7318 58.0956L80.7308 58.0965L80.7288 58.1025L80.6742 58.2424L80.1058 58.6273L80.0958 58.6849L80.0264 58.7424L79.8815 59.0926L79.3359 59.3188L78.7892 59.0926L78.563 58.546L78.565 58.4884L78.6236 57.7106L78.6255 57.7076L78.6295 57.657L78.6742 57.3634L78.7436 56.7443L78.6543 56.8088L78.6265 56.8683L78.5868 56.9626L78.4956 57.0221L78.4182 57.2106L77.8467 57.4477L77.2763 57.2106L77.0947 56.7721L77.0441 56.7274L76.9866 56.1907L76.929 56.034L76.9142 55.9526L76.9003 55.9417L76.815 55.5955L76.7505 55.4734L76.5967 55.3871L76.4072 55.0806L76.3258 54.7978L76.2872 54.7651L76.2346 54.4555L76.2217 54.3057L76.2336 54.1629L76.2683 53.9545L76.3407 53.894L76.5005 53.5071L77.0918 53.262L77.8983 53.8821L78.0025 54.272L78.0491 54.3722L78.1682 54.4416L78.192 54.4843L78.3041 54.5657L78.3497 54.6549L78.3696 54.6649L78.3964 54.6014L78.442 54.5825L78.4767 54.522L78.566 54.4704L78.9807 54.3593L79.3815 54.4635L79.5214 54.5409L79.5373 54.5667L79.5889 54.5835L79.7595 54.7046L79.8488 54.8792L79.9847 54.9605L80.1127 55.1966L80.194 54.9823L80.2069 54.9734L80.2169 54.9288L80.2794 54.7988L80.5839 54.6083L80.7228 54.1817L80.8082 54.1202L80.9034 53.889L81.1256 53.7978L81.4133 53.1202L81.6762 52.2471L82.3687 51.7372L82.4719 51.7798L82.8261 51.0705L82.8549 51.0526L82.8668 51.0308L82.8856 50.9743L82.9451 50.8939L83.3132 50.247L83.3459 50.2282L83.3658 50.1687L83.8142 49.5794L83.8976 49.4028L84.1099 48.9424L84.1436 48.9206L84.1684 48.8403L84.4918 48.3759L84.6307 48.3045L84.6992 48.1825L84.7845 48.1309L84.8897 47.9484L84.8946 47.9454L84.8986 47.9345L85.2438 47.3789L85.2796 47.359L85.3014 47.3015L85.5186 47.0545L85.972 46.8501L86.1218 46.987Z" fill="black"/>
<path d="M78.1759 53.3943L78.1868 53.3844L78.6491 53.7991L78.669 53.9727L79.291 54.5948V54.5997L79.285 55.4172L79.4329 55.3557L79.9468 55.569L80.0748 55.8786L80.1452 55.9351L80.176 56.0839L80.1809 56.1256L80.1839 56.1286L80.2573 56.6137L80.6631 56.7814L80.8595 57.2556L80.8684 57.2655L80.8813 57.9074V57.9213L80.8803 57.955L80.8367 58.9094L80.8337 58.9114L80.8268 58.9977L80.7236 59.587L80.6611 59.6386L80.5281 59.9591L80.3466 60.0345L80.2861 60.1793L79.788 60.3857L79.0836 59.716L79.0708 59.4561L79.04 58.9997V58.9838L78.8971 59.1178L78.2483 58.5552L78.1967 58.1911L78.1947 58.1663L78.1927 58.1654L78.1501 57.7675L78.1322 57.7606L78.1144 57.7427L77.9913 57.456L77.9368 57.4094L77.8852 57.1108L77.8782 57.0334L77.8763 57.0324L77.8654 56.7982L77.8564 56.7913L77.8415 56.708L77.8366 56.6524L77.8346 56.6504L77.6798 54.7823L77.6778 54.7357L77.6788 54.7099L77.7066 54.1374L77.4526 53.8844L77.5727 53.5422L77.5965 53.5134L77.8604 53.3864L77.9159 53.3189L77.9398 53.314H77.9437L77.9685 53.309L78.0796 53.2971L78.1759 53.3943Z" fill="black"/>
<path d="M81.109 41.5865V41.9644L80.5613 42.5121L80.0137 41.9644V41.5865L80.5613 41.0388L81.109 41.5865Z" fill="black"/>
<path d="M83.0618 40.2881L82.8714 40.7038L82.793 40.7703L82.4358 40.9032L81.8882 40.3556L82.0797 39.9399L82.158 39.8724L82.5152 39.7405L83.0618 40.2881Z" fill="black"/>
<path d="M80.7725 34.8523L80.8291 34.8642L81.0156 35.0963L81.2715 35.2977L81.3013 35.4197L81.3073 35.4654L81.3112 35.4693L81.4154 36.1261L81.7269 37.0319L81.836 37.266L82.0563 37.0448L82.6307 37.4099L82.6535 37.4575L82.7289 37.3414L82.7676 37.3206L82.7845 37.2789L82.7795 37.2561L82.9988 36.7263L83.5286 36.5071L84.0583 36.7263L84.0742 36.764L84.107 36.7799L84.2726 36.9813L84.2806 37.0021L84.2955 37.0091L84.4363 37.1966L84.6685 37.4962L84.7221 37.652L84.7796 37.6907L84.981 38.2065L85.0018 38.3137L85.0177 38.3266L85.0792 38.6074L85.1725 38.7403L85.4691 39.151L85.5098 39.275L85.5564 39.3058L85.8094 39.9199L85.8322 40.035L85.8501 40.0499L85.8779 40.1778L85.9185 40.2394L86.0822 40.4735L86.1338 40.6362L86.1785 40.6699L86.3303 41.1511L86.4434 41.2414L86.5019 41.3624L86.6001 41.417L86.8878 41.8783L86.9215 41.9944L86.9553 42.0192L87.6815 44.0986L87.6954 44.182L87.7063 44.1919L87.7579 44.4459L87.7688 44.549L87.7708 44.551L87.7777 44.7078L87.7787 44.7385L87.5535 45.2395L87.5247 45.2653L87.4553 45.2921L87.4305 45.3358L87.3541 45.3834L87.0555 45.4677L86.985 45.4995L86.4711 45.1304L86.3432 45.0778L86.3253 45.051L86.3273 45.2167V45.2237V45.2385L86.3233 45.4082L86.243 45.4866L86.2687 45.5441L86.5872 46.2197L86.6457 46.4757L86.0545 47.067L85.6606 46.8269L85.6646 46.8646L85.4483 47.3864L84.9264 47.6027L84.3262 47.2932L84.2429 47.1771L84.222 47.1126L84.1913 47.0938L83.3371 45.4866L83.3252 45.4806L82.9135 44.9846L82.8877 44.9121L82.846 44.8883L82.3996 44.1254L82.3827 44.0659L82.3619 44.052L82.1456 43.5679L82.098 43.3446L82.0841 43.3327L82.0622 43.0678V43.0629L81.9789 42.8744L81.9025 42.7791L81.7706 42.4101L82.1525 42.0291L81.9253 41.3505L81.9075 41.2404L81.8966 41.2315L81.8251 40.7394L81.8212 40.6838L81.8192 40.6828L81.8033 40.413L81.8023 40.3743L82.0077 39.9824L81.5771 39.3137L81.5692 39.2859L81.5563 39.278L81.0691 38.397L80.9967 38.4694L80.4491 37.9218L80.4511 37.8821L80.4858 37.4L80.4491 37.0627L80.084 35.7719L80.0701 35.6767L80.0651 35.6717L80.0542 35.5279L80.0522 35.4862V35.4703L80.0542 35.4058L80.0681 35.3929L80.2388 35.014L80.2715 34.9842L80.6525 34.8394L80.7725 34.8523Z" fill="black"/>
<path d="M80.9577 29.5647L81.0679 29.8306L81.1562 29.896L81.2067 30.0647L81.2425 30.2998L81.2296 30.3455L81.3347 30.6867L81.3605 30.8514L81.3695 30.8703L81.4171 31.6163L81.4399 31.8564L81.4826 31.9517L81.5689 32.0161L81.6631 32.3207L82.2742 33.5728L82.2772 33.5837L82.2802 33.5857L82.6036 34.2742L82.6116 34.3089L82.6215 34.3158L82.7782 34.7097L82.7852 34.7434L82.9022 34.9012L82.938 35.0073L82.9846 35.0361L83.5114 36.1512L83.8299 36.7891L83.8606 36.8348L83.8695 36.8655L83.8844 36.8735L84.4281 37.7931L84.445 37.8557L84.4688 37.8705L84.6126 38.193L84.8359 38.5878L84.8706 38.7178L84.9053 38.7426L84.9718 38.943L85.1652 39.2833L85.1801 39.3418L85.2019 39.3547L85.4629 39.9331L85.5363 40.2684L85.3646 40.6821L85.9242 41.6306L86.325 42.0909L86.3498 42.1574L86.3925 42.1802L86.4718 42.3003L86.6147 42.7725L86.6137 42.7884L86.6851 42.9868L86.6891 42.9898L86.9262 42.8916L87.4818 43.1108L87.5671 43.2914L87.6554 43.3469L87.8469 43.7388L87.8588 43.7904L87.8747 43.8003L88.088 44.344L88.0949 44.3827L88.1038 44.3896L88.2517 44.8361L88.2814 45.0186L88.2903 45.0265L88.3092 45.2795L88.3399 45.3946L88.1048 45.9631L88.0632 45.98L87.9967 46.2359L87.9818 46.2637L87.957 46.353L87.8727 46.4165L87.7596 46.6893L87.2139 46.9155L86.6772 46.6982L86.5363 46.5623L86.5085 46.4949L86.4688 46.4066L86.4292 46.4403L85.9539 46.9185L85.7496 47.0028L85.7297 47.0256L85.568 47.0425L85.5283 47.0445L85.1583 46.6744L85.4906 46.3064L85.5065 46.3044L85.8597 45.8917L85.8716 45.8867L85.8776 45.8728L86.0244 45.722L86.1395 45.5901L86.204 45.5603L86.2317 45.5077L86.3686 45.4155L86.3855 45.4105L86.3905 45.4016L86.4579 45.3609L86.3944 45.1039L86.2704 44.9095L85.8875 44.6019L85.8855 44.6009V44.5999L85.8428 44.5662L85.7912 44.4591L85.6563 44.3906L85.4817 44.1545L85.445 44.0414L85.3974 44.0106L85.2218 43.6277V43.6267L85.2029 43.588L85.1513 43.5047L85.1216 43.3965L85.0878 43.3737L85.0243 43.209L85.0025 43.1554L84.9896 43.1336L84.5958 42.6366L84.564 42.5473L84.5184 42.5205L84.0888 41.7427L83.8874 41.9441L83.3398 41.3965L83.5402 41.197L83.5451 41.1772L83.5431 41.1752L83.5293 40.9768V40.9728L83.5045 40.6008L83.2445 40.0432L83.2376 40.0095L83.2277 40.0035L82.8288 39.0303L82.8189 38.9837L82.8149 38.9747L82.806 38.9688L82.7971 38.941L82.3129 38.0114L82.05 37.8398L81.9935 37.9747L81.4736 38.19L81.2276 38.0878L81.1839 38.1453L81.1175 38.1642L80.9042 38.193L80.7613 38.1801L80.6809 38.1652L80.677 38.1751L80.0361 38.441L79.3952 38.1751L79.288 37.9172L79.2007 37.8557L79.1253 37.8249L78.9815 37.6096L78.7245 37.4499L78.5975 37.1969L78.5926 37.1761L78.034 36.9518L77.9755 36.8963L77.9656 36.8715L77.7146 36.3238L77.7027 36.0848L77.7017 36.0401L77.9596 35.4181L77.9834 35.4081L77.9943 35.3853L78.1799 35.2177L78.2582 35.1879L78.2979 35.0917L78.2711 35.0698L78.1451 34.5331L78.1243 34.3535L78.1412 34.1928L78.1699 34.0589L78.2433 34.0003L78.3674 33.6997L78.8862 33.4855L79.0559 33.5053L79.1243 33.5212L79.0509 33.3108L79.2682 32.785L79.3733 32.7414L79.3654 32.7195L79.2037 32.3594L79.1432 32.0816L79.1382 32.0767L79.1273 31.6382L79.1144 31.15L79.1134 31.1282L79.1452 30.9159L79.2067 30.7056L79.3228 30.6193L79.3773 30.5082L79.3525 30.3782L79.3366 30.2204L79.5678 29.6619L79.5787 29.6579L79.5827 29.648H79.5847L79.5857 29.645L79.5995 29.6321L80.1264 29.4228L80.1531 29.4337L80.3972 29.3325L80.9577 29.5647Z" fill="black"/>
</g>
<defs>
<clipPath id="clip0">
<rect width="1500" height="1000" fill="white" transform="translate(-853 -559)"/>
</clipPath>
</defs>
</svg>
