<svg width="115" height="85" viewBox="0 0 115 85" fill="none" xmlns="http://www.w3.org/2000/svg">
<g clip-path="url(#clip0)">
<path d="M992.055 -680H-508V320.037H992.055V-680Z" fill="white"/>
<path d="M30.0345 8.18841L30.4671 9.23409L30.4075 9.64978L30.0504 10.8691L30.0335 10.8929L30.0246 10.9474L29.216 13.1767L27.9213 16.9745L27.0781 20.4349L27.0701 20.4478L27.0652 20.4835L25.9461 24.4956L25.9441 24.4975V24.4995L25.2447 26.9232L24.697 29.0513L24.693 29.0572L24.6911 29.0701L23.9242 31.853L23.9172 31.8639L23.9133 31.8867L21.4925 39.9068L21.4667 39.9436L21.4528 40.0219L20.2921 43.1371L20.2911 43.1391L16.415 53.4768L16.414 53.4788L15.5518 55.7477L15.5508 55.7497L14.3276 58.9333L14.6828 59.0812L15.03 59.9195L14.8207 60.5931L13.3186 62.7708L13.3018 62.7797L13.2938 62.8055L12.8781 63.3631L12.8107 63.3968L12.7759 63.4831L12.5259 63.746L12.4674 63.7708L12.4317 63.8353L11.5358 64.1696L10.5685 63.7688L10.4733 63.5397L10.3354 63.4573L10.1816 63.1756L9.99707 62.4593L10.004 62.3184L10.0506 61.8283L10.0625 61.8035L10.0804 61.6428L10.3126 60.607L10.3175 60.5991L10.3205 60.5772L10.5814 59.5405L10.5864 59.5336L10.5884 59.5147L11.005 58.0077L11.007 58.0047L11.008 57.9978L12.015 54.5354L12.0249 54.5215L12.0299 54.4907L12.7839 52.1752L12.7878 52.1702L12.7888 52.1623L16.3654 41.7065L17.3713 38.5864L17.3723 38.5854L19.9816 30.6565L20.7961 27.9352L20.7971 27.9342L21.4062 25.816L22.062 23.3973L22.0729 23.3804L22.0789 23.3418L23.3111 19.3634L23.3497 19.3099L23.3716 19.2017L24.7744 15.8445L26.3181 12.0457L26.327 12.0348L26.331 12.0169L27.2437 9.93451L27.5731 8.80848L28.0989 8.05349L28.9888 7.75586L30.0345 8.18841Z" fill="black"/>
<path d="M30.6072 9.2095L31.015 10.1927L31.014 10.2175L31.006 10.7026L31.0527 12.8574L31.2908 15.3317L31.8563 18.4678L32.8087 22.2794L32.8117 22.3022L32.8156 22.3082L35.912 35.3097L35.9209 35.387L35.9318 35.4059L38.046 46.3636L38.0509 46.4132L38.0559 46.4232L39.2623 53.4978V53.5018L39.5044 54.8143L39.5073 54.8233L39.8218 54.9403L40.305 55.8144L40.4191 56.5733L40.6542 57.7946L41.0282 58.7778L40.9965 59.1468L40.934 59.504L40.8328 59.6776L40.7306 60.0983L40.2891 60.6142L40.2088 60.7521L40.1522 60.7729L40.0917 60.8443L39.9588 60.9406L38.7107 61.3503L37.2196 60.7322L37.159 60.5864L37.04 60.5269L36.7146 60.1042L36.5797 59.7114L36.3445 59.3572L35.403 55.8322L35.3872 55.7152L35.3683 55.6834L35.0925 54.2945L35.0875 54.2488L35.0826 54.2389L33.8256 47.1732L33.8216 47.1315L33.8167 47.1236L32.0517 36.1043L29.6181 22.9957L29.6161 22.9739L29.6131 22.9699L28.9236 19.0462L28.9206 19.0174L28.9177 19.0124L28.4048 15.7663L28.3938 15.6353L28.3889 15.6234L28.2847 14.0123L27.748 13.791L27.3154 12.7453L27.4394 12.1531L28.0764 10.6957L28.2728 9.8623L28.5486 9.43272L28.6409 9.2095L28.7093 9.18072L28.7589 9.10433L29.624 8.80273L30.6072 9.2095Z" fill="black"/>
<path d="M17.4932 39.5266L19.3881 40.0078L20.2572 40.1735L21.285 40.351L22.2791 40.48L23.427 40.5207L23.4607 40.5356L24.0004 40.603L25.2752 40.9265L25.2832 40.9314L25.302 40.9344L26.814 41.3461L26.9013 41.4056L27.0947 41.4443L27.9103 41.7826L28.818 41.9473L29.8568 42.0813L32.6793 42.3342L32.712 42.3511L32.9412 42.3759L34.0811 42.6319L34.6605 42.995L34.9591 43.119L34.9948 43.2053L35.0901 43.2648L35.1486 43.4305L35.5137 43.7391L35.7588 44.5546L35.3262 45.6002L34.3877 45.9881L34.0692 46.1866L32.9551 46.4376L32.4848 46.4902L32.4243 46.4892L29.5482 46.4048L29.5393 46.4009L29.3379 46.388L28.191 46.2401H28.19L27.2267 46.1201L26.3378 46.1866L26.1463 46.1935L26.0263 46.1905L24.4736 46.1151L24.4667 46.1122L24.3685 46.1072L23.0658 45.9891L22.9716 45.9425L22.4378 45.8542L21.3098 45.4683L20.3028 45.1945L19.2482 44.9603L19.2363 44.9534L19.2006 44.9484L18.3563 44.7371L16.4505 44.4206L14.9693 43.5754L14.373 41.9533L15.1062 40.1824L16.8761 39.4492L17.4932 39.5266Z" fill="black"/>
<path d="M47.4647 14.7571L47.563 14.8821L47.6661 14.9247L47.7445 15.1152L48.0025 15.4466L48.2683 16.144L48.3675 16.6788L47.935 17.7244L47.5987 17.8633L47.7624 18.4388L47.805 18.7374L47.8189 18.7671L47.9598 21.1908L47.9638 21.295L47.9628 21.3149L47.9271 24.5045L47.9261 24.5055V24.5392L47.5134 37.8284V37.8333L47.3179 43.3663L47.2653 45.7126L47.3169 45.6769L49.0878 45.159L49.5769 45.0876L49.6265 45.0647L52.8191 44.8822L52.9471 44.8782L53.1892 44.8921L55.2111 45.1213L55.2617 45.1481L55.5265 45.1858L57.1665 45.654L57.4393 45.8425L57.7637 45.9477L58.8699 46.7473L58.9294 46.8634L59.4314 47.3853L59.7112 47.8942L59.8223 48.3238L59.9255 48.5043L60.0386 49.173L60.0674 49.4964L60.0485 49.7564L59.9354 50.561L59.9086 50.6106L59.8779 50.8219L59.6447 51.5898L59.6021 51.6503L59.5773 51.7713L58.7161 53.7387L58.6219 53.8498L58.5812 53.9827L57.096 56.2259L57.0226 56.2655L56.981 56.3777L55.1644 58.5196L55.0851 58.5563L55.0484 58.6436L53.0612 60.5524L52.9461 60.599L52.9014 60.6883L51.8528 61.4761L51.6564 61.5415L51.4659 61.6993L50.5313 62.0912L50.2386 62.1517L50.1424 62.2062L49.2922 62.3541L48.9896 62.3809L48.6503 62.3461L47.8953 62.1933L47.5223 61.9671L47.1691 61.8372L46.6046 61.357L46.5639 61.2697L46.4716 61.23L45.9101 60.6189L45.8496 60.4611L45.6571 60.2459L45.2295 59.3659L45.1978 59.226L45.1442 59.1506L44.7295 57.8519L44.7027 57.6843L44.6759 57.6376L44.4101 56.1445L44.4001 56.0364L44.3932 56.0215L44.1729 53.9053L44.169 53.82L44.166 53.8141L44.0638 51.7783L44.0628 51.7396L44.0618 51.7376L44.042 51.0213L43.8505 50.7257L43.7979 50.5173L43.7831 50.3993L43.7692 50.3735L43.6938 49.8863L43.6541 49.7018L43.6789 49.7445L43.665 49.5689L43.7017 49.4826L43.6055 49.2514L43.9706 48.418L43.916 46.4299L43.915 46.3813V46.3793L43.92 43.3137V43.2938L43.9934 37.747V37.746V37.7292L44.3138 24.437L44.3148 24.435L44.3168 24.3656L44.5251 21.1779L44.5301 21.166L44.54 21.042L44.8992 18.6283L44.9289 18.5737L44.9637 18.3703L45.1631 17.7949L45.1393 16.7333V16.7036V16.6966L45.1422 16.019L45.1393 15.9764L45.1363 15.8851L45.3744 15.1192L45.4924 15.0259L45.5321 14.9307L45.7018 14.8603L45.9944 14.6281L46.0718 14.5974L46.6205 14.4922L47.4647 14.7571ZM53.1574 49.1522L50.3131 49.6681L48.8626 50.1185L48.3656 50.3725L48.1513 50.4241L48.0292 50.5143L47.2296 50.7832L47.2256 51.6523L47.3387 53.6166L47.5253 55.6485L47.7713 57.0146L48.0798 58.1406L48.3725 58.7567L48.5134 58.9383L48.5471 58.9502L48.7951 58.9561L49.2128 58.85L49.8835 58.4938L50.8121 57.9144L52.6663 56.2338L54.3688 54.2903L55.6555 52.2862L56.2895 50.6066L56.3619 50.1889L56.344 49.8199L56.3143 49.7226L55.8023 49.3724L54.7557 49.1244L53.1574 49.1522Z" fill="black"/>
<path d="M63.8354 44.6338L65.9982 44.6685L66.0101 44.6735L66.4318 44.7221L68.3485 45.1626L68.6064 45.3253L69.0033 45.4433L70.5053 46.4206L70.8525 46.7956L70.9726 46.8551L71.8724 48.0278L72.0173 48.4524L72.2157 48.7857L72.4181 49.8254L72.4508 50.1558L72.433 50.3949L72.3129 51.2332L72.2405 51.3632L72.1522 51.7253L71.8883 52.2363L71.678 52.3632L71.6284 52.4704L71.7881 52.8553L71.1869 54.2591L69.9259 55.4626L69.8148 55.5072L69.663 55.6729L68.1074 56.7086L67.9973 56.7424L67.903 56.8287L66.1639 57.7136L65.7879 57.8039L65.6202 57.9071L64.765 58.0896L64.515 58.1164L64.4833 58.1313L62.6568 58.2861L62.4693 58.294L62.0735 58.2573L60.368 57.9349L60.1101 57.7821L59.6587 57.6491L58.487 56.8981L58.0525 56.4328L57.9453 56.3773L57.5525 55.8197L57.4731 55.5727L57.3124 55.3614L56.8282 54.023L56.7181 53.401L56.7102 53.3821L56.6973 52.5041V52.4763L56.732 52.1132L57.0683 50.3612L57.1447 50.2332L57.2161 49.9118L57.9989 48.2381L58.108 48.1141L58.1517 47.9732L58.7221 47.1369L59.0803 46.8154L59.1428 46.6864L59.866 46.113L60.0327 46.0545L60.2103 45.8908L61.9236 45.0128L62.4167 44.8927L62.5933 44.7945L63.4683 44.6596L63.8007 44.6338H63.8354ZM64.0815 48.8621L63.5874 48.9931L62.2104 49.5258L61.8453 49.8304L61.4326 50.26L60.8423 51.4178L60.5506 52.6837L60.5555 53.023L60.7629 53.6311L61.3413 53.9347L62.4356 54.025L63.9277 53.8524L64.6499 53.6807L66.2413 53.2522L67.411 52.5527L68.4695 51.4872L68.8832 51.3146L69.0906 50.8691L69.1501 50.8185L69.1303 50.5894L68.9457 50.1886L68.3911 49.6489L67.2463 49.1826L65.7403 48.8542L64.0815 48.8621Z" fill="black"/>
<path d="M77.3084 45.6538L77.3649 45.6379L78.358 46.0496L78.7697 47.0437L78.7668 47.1419L78.7231 47.756L78.6904 47.8255L78.6031 48.2739L78.2965 49.0388L77.7618 50.5994L77.5306 51.7899L77.4393 53.0518L77.4711 53.4804L77.605 54.5003L77.8302 54.9468L78.1437 55.2097L78.5882 55.3892L79.234 55.3912L80.1041 55.2275L81.1984 54.7414L82.6439 53.6908L83.4267 52.8584L84.1995 51.4923L84.4971 50.7492L84.5051 50.7105L84.5705 49.2342L84.5864 49.1975L84.6519 48.7809L84.8146 48.2709L85.1083 47.8671L85.1995 47.6479L85.2968 47.6072L85.3811 47.4911L86.3166 47.1846L87.2532 47.4911L87.3355 47.6062L87.4347 47.6479L87.529 47.8751L87.8227 48.2828L87.9784 48.768L88.03 49.0934L88.0578 49.1479L88.281 51.4665L88.6312 54.043L89.0102 55.6412L89.5787 57.1641L90.0906 58.2068L90.2394 58.438L90.8853 58.1026L91.9428 58.5411L92.3804 59.5987L92.3059 60.066L92.1085 60.6672L92.1055 60.6712L92.1046 60.6781L91.9686 61.071L91.9597 61.0829L91.9557 61.1057L91.8635 61.3518L91.542 61.7625L91.4359 62.0284L91.2752 62.1018L91.1214 62.2992L90.2662 62.5671L90.0529 62.6653L89.7543 62.6822L89.6392 62.6851L88.8306 62.5204L88.0131 62.1752L87.5508 61.7893L87.3177 61.6891L86.518 60.8498L86.4297 60.6295L86.1351 60.3061L85.513 59.064L85.4238 58.687L85.3206 58.5193L84.9307 56.7097L84.9118 56.5371L84.8969 56.5073L84.8374 56.0252L84.8037 56.1026L83.2352 57.5312L83.0794 57.5917L83.0239 57.6969L81.6994 58.5739L81.4762 58.6413L81.3006 58.7753L80.1041 59.2118L79.5505 59.311L79.5009 59.3328L78.2856 59.3854L78.1953 59.3874L77.6834 59.3209L76.5137 59.0114L76.0554 58.7048L75.6883 58.5669L74.8152 57.7981L74.7408 57.6324L74.3985 57.2901L73.7606 56.1948L73.6545 55.8069L73.5225 55.5956L73.2021 54.1967L73.1445 53.6997L73.1505 53.5419L73.1981 52.8911L73.2031 52.8792L73.211 52.7701L73.4174 51.2274L73.4402 51.1837L73.466 50.9833L73.8469 49.5408L73.9432 49.3969L74.0096 49.1291L74.8728 47.4881L75.0722 47.2758L75.1347 47.1151L75.7131 46.4712L75.8549 46.4087L76.1337 46.1319L76.1784 46.1062L76.1972 46.0595L76.2915 46.0198L76.3738 45.9077L77.2429 45.626L77.3084 45.6538Z" fill="black"/>
<path d="M95.553 11.3604L96.3894 11.6193L96.4935 11.7502L96.5987 11.7929L96.6741 11.9774L96.9281 12.2959L97.1205 12.783L97.1582 12.9775L97.1999 13.0459L97.7515 15.7315L97.7535 15.7504L97.7555 15.7544L98.3448 18.7525L98.3507 18.8061L98.3567 18.817L99.6931 26.9284L99.7 27.0097L99.7069 27.0226L100.273 31.6111L100.283 31.7718L100.288 31.7817L100.682 39.6769L100.684 39.7781V39.7791L100.718 45.0064V45.0094L100.743 49.9352L100.768 51.719V51.7507V51.7785L100.745 53.4968L100.773 54.6625L100.774 54.7181L100.77 54.8481L100.641 56.9513L100.727 57.1606L100.611 57.7827L100.492 58.0902L100.213 58.4395L100.175 58.497L100.041 58.7817L99.9649 58.8115L99.9103 58.8929L98.8141 59.2689L97.6563 58.8432L97.6156 58.7718L97.5481 58.744L97.4112 58.4137L97.0491 57.7777L96.5918 55.0832L96.5679 54.8074L96.562 54.7925L96.5193 53.5881V53.5871L96.4469 51.843L96.4459 51.7805V51.7795L96.4211 49.9858V49.9759L96.3725 45.06L96.2356 39.8693L95.8983 32.005L95.6155 27.4314L94.8586 19.2743L94.8576 19.2555V19.2545L94.5996 16.2455L94.3407 14.4726L94.0381 13.7424L94.0391 13.6829L94.0758 12.7761L94.3774 12.1084L94.5073 11.7929L94.5222 11.787L94.5282 11.7731L95.553 11.3604Z" fill="black"/>
<path d="M91.1718 42.0149L93.6153 42.245L93.6173 42.247H93.6312L101.477 43.0675L101.533 43.0962L101.849 43.1409L103.782 43.7054L104.235 44.0209L104.477 44.1211L104.516 44.2163L104.628 44.2937L104.962 45.2918L104.593 46.3345L104.509 46.386L104.477 46.4624L104.193 46.5805L103.656 46.9099L101.714 47.3305L101.395 47.3652L101.368 47.3791L93.5101 47.8335L93.3405 47.8385H93.3246L90.8801 47.8246L90.8761 47.8226L90.4822 47.7948L87.3671 47.3464L86.6954 47.3315L86.6319 47.3037L85.616 47.0736L84.5624 46.5716L84.0961 46.4902L83.0107 45.8622L82.5742 44.6687L83.0107 43.4752L84.107 42.8462L84.5783 42.7639L85.6368 42.2778L86.7569 42.0307L86.9325 42.0357L87.6419 42.0833L90.8206 42.0029L90.8979 42.002L91.1718 42.0149Z" fill="black"/>
<path d="M26.4049 70.6787L29.8782 70.8643L29.8792 70.8653L29.901 70.8662L41.2487 71.6589L49.0813 71.9873L49.0833 71.9883L49.1061 71.9893L53.2888 72.2264L57.528 72.3435L67.1395 72.2691L76.8601 71.8455L81.8246 71.4883L81.8762 71.4863L81.8791 71.4853L85.7582 71.3226L89.0054 71.1311L89.053 71.1301L89.055 71.1292L93.6742 71.0042H93.7109L93.7794 71.0051L97.1555 71.1867L97.8906 71.527L98.1922 72.284L97.8906 73.0399L97.1525 73.3812L93.8081 73.5608L89.2445 74.0172H89.2425L86.0013 74.3614H85.9993L82.148 74.8069L82.0646 74.8118L82.0577 74.8148L77.0655 75.1392H77.0446L77.0426 75.1402L67.2794 75.667L67.2149 75.669L67.2129 75.67L57.5429 75.8387L57.5102 75.8396H57.4993L53.2045 75.8109L48.995 75.8059L48.8759 75.8019L41.0225 75.3009L41.0175 75.299L40.959 75.296L29.651 74.1402L26.2392 73.9378L23.8641 73.8564L22.0168 73.8931L21.3789 73.9894L21.2628 73.9973L21.2519 74.0033L20.7191 74.039L20.614 74.043L19.5683 73.6104L19.1357 72.5647L19.5346 71.5548L20.5138 71.0895L21.0465 71.0538L21.1279 71.0508L21.1289 71.0498L21.8025 71.0399L23.6915 70.8206L23.7857 70.8147L23.7927 70.8117L26.2243 70.6797L26.3176 70.6768L26.4049 70.6787Z" fill="black"/>
</g>
<defs>
<clipPath id="clip0">
<rect width="1500" height="1000" fill="white" transform="translate(-508 -680)"/>
</clipPath>
</defs>
</svg>
