<svg width="26" height="10" viewBox="0 0 26 10" fill="none" xmlns="http://www.w3.org/2000/svg">
<g clip-path="url(#clip0)">
<path d="M1134.11 -679H-366.01V321.078H1134.11V-679Z" fill="white"/>
<path d="M8.32609 3.73224L11.8222 3.80526H11.8276L14.4323 3.8807L14.4335 3.8813L14.4655 3.88251L19.2633 4.21081L21.7105 4.36229L22.8674 4.42687L23.4679 4.70568L23.7141 5.32427L23.451 5.96036L22.8149 6.22349L22.7648 6.22228L21.6013 6.15771L21.5995 6.1565L21.5753 6.15529L19.1305 5.94226L14.3448 5.6049L11.7636 5.44437L8.28022 5.32427L8.27901 5.32367L8.24522 5.32246L7.24341 5.24099L6.37739 5.20719L5.90907 4.99597L5.71655 4.518L5.90907 4.03942L6.3792 3.8288L7.25246 3.7944L8.2597 3.73405L8.30919 3.73224H8.32609Z" fill="black"/>
<path d="M10.4552 1.08881L10.7509 1.80275L10.5252 2.43884L10.4745 2.47022L10.4552 2.51669L10.2814 2.58911L9.95368 2.79007L9.6827 2.84861L9.66581 2.85042L9.66158 2.85284L8.49622 3.0876L8.48174 3.0888L8.47812 3.09062L6.88729 3.39237L4.79737 3.89689L3.7509 4.22399L3.51071 4.37486L3.5258 4.39418L3.6296 4.47323L4.37613 4.83413L6.39665 5.81662L6.40691 5.83292L6.44674 5.84378L7.11964 6.23606L7.14318 6.2777L7.21741 6.30365L7.98989 6.9162L8.04782 7.03569L8.15826 7.09242L8.45881 7.50763L8.5439 7.76834L8.62417 7.9168L8.6471 8.08518L8.65615 8.21131L8.39423 8.84318L8.31155 8.87758L8.27896 8.94094L8.21016 8.98922L7.9917 9.05983L7.85531 9.13769L7.76056 9.15398L7.6121 9.16726L7.01222 8.91861L6.76418 8.31934L6.79073 8.27528L6.75392 8.22338L6.12266 7.65851L5.57106 7.24088L3.67607 6.11898L3.67486 6.11596L3.66883 6.11475L2.9048 5.64402L2.6646 5.49858L2.62658 5.43099L2.52821 5.38935L2.18844 5.04052L2.13594 4.91198L2.00075 4.69713L1.9567 4.50643L1.93799 4.34046L1.94402 4.2439L1.96997 4.05441L2.02731 3.94819L2.09128 3.743L2.31337 3.41771L2.44372 3.34952L2.51131 3.22157L2.99773 2.89206L3.06533 2.87094L3.08403 2.84077L4.17335 2.29037L4.24819 2.27227L4.29103 2.24028L4.69176 2.1045L4.57287 1.81361L4.82875 1.18537L5.45036 0.914394L9.04782 0.82749L9.68632 0.794298L9.74124 0.793091L10.4552 1.08881Z" fill="black"/>
</g>
<defs>
<clipPath id="clip0">
<rect width="1500" height="1000" fill="white" transform="translate(-366 -679)"/>
</clipPath>
</defs>
</svg>
