<svg width="27" height="12" viewBox="0 0 27 12" fill="none" xmlns="http://www.w3.org/2000/svg">
<g clip-path="url(#clip0)">
<path d="M1053.11 -802H-447.011V198.078H1053.11V-802Z" fill="white"/>
<path d="M25.177 1.14238L25.4233 1.15807H26.7051V7.1629L26.5941 7.60043L25.693 8.28239V9.86537L25.4806 9.90641L25.299 9.96193L25.0159 10.0012L24.6611 10.0579L24.2036 10.1291L22.7293 10.5135L21.1831 10.671L20.6001 10.7646L19.6568 10.8949L18.7087 10.9191L17.3883 11.0343L15.8638 11.105H8.74616L7.4613 10.726L4.86988 10.4532L3.83548 10.4188H0.400958L0.0853271 9.97279V5.6469L0.400958 5.03616L1.47338 4.96133V2.23291L1.69184 2.01927H1.94471L2.17706 1.83218L3.3569 1.56845L5.11791 1.44594H8.305L9.09619 1.39102H13.2452L15.8137 1.27515L18.6611 1.13574H24.5874L25.177 1.14238Z" fill="#FFFC00" fill-opacity="0.4"/>
</g>
<defs>
<clipPath id="clip0">
<rect width="1500" height="1000" fill="white" transform="translate(-447 -802)"/>
</clipPath>
</defs>
</svg>
