<svg width="311" height="109" viewBox="0 0 311 109" fill="none" xmlns="http://www.w3.org/2000/svg">
<g clip-path="url(#clip0)">
<path d="M1078.06 -433H-422V567.037H1078.06V-433Z" fill="white"/>
<path d="M48.8608 14.6655L51.4383 14.6893L51.4502 14.6943L52.1079 14.7955L53.8739 15.354L54.5356 15.8322L54.8005 15.9473L55.6338 16.8472L55.7846 17.2311L56.112 17.7599L56.2073 18.1855L56.2529 18.5903L56.1785 19.1042L56.0922 19.3949L56.0624 19.7867L56.0257 19.8621L55.9384 20.2808L55.4414 21.4168L55.3273 21.5507L55.2807 21.6936L54.8382 22.3097L54.7082 22.3751L54.6398 22.5349L54.0098 23.1222L53.9483 23.147L53.9245 23.1966L53.1635 23.8097L51.2517 25.4318L50.2934 25.784L49.2477 25.3514L48.8151 24.3058L49.337 23.1787L51.2289 21.5735L51.8569 20.9634L52.3321 20.4128L52.6605 19.9564L52.7994 19.6826L52.472 19.5109L51.2726 19.2808L49.3052 19.4107L46.5164 20.3473L44.9965 21.0378L41.0668 23.4387L36.782 26.7771L36.7373 26.793L36.6937 26.8436L34.4227 28.4904L32.4296 30.3536L30.2649 32.8716L30.2272 32.9013L30.2172 32.9261L28.1328 35.208L26.3183 37.8569L24.6426 40.8014L23.0632 44.2212L20.7367 50.8117L19.699 54.0747L18.816 57.2822L17.4588 63.1336L17.1037 65.7269L17.2961 67.6933L17.7604 69.6477L18.2158 70.9136L18.8914 72.1022L19.3557 72.5913L20.2853 73.0199L21.6038 73.3105L23.3896 73.4891L25.4532 73.4584L30.7143 72.6964L30.7282 72.6954L30.7301 72.6944L33.9793 72.2242L40.5242 70.4731L44.0451 69.238L44.1622 69.2171L44.2068 69.1864L47.0671 68.3917L49.5185 67.4214L53.0941 65.5999L54.2776 64.8777L55.0683 64.6535L56.1349 65.095L56.5753 66.1605L55.9721 67.3669L54.8084 68.2379L54.7439 68.2598L54.7231 68.2985L51.2507 70.5714L51.1763 70.5932L51.1148 70.6527L48.6405 71.992L48.6197 71.998L48.6068 72.0099L45.9013 73.4286L45.7287 73.4723L45.6236 73.5536L42.0371 74.889L41.9448 74.9058L41.9052 74.9336L35.2373 77.026L35.1807 77.0339L35.1609 77.0478L31.8859 77.9873L31.4623 78.0478L31.3929 78.0835L25.9324 78.6371L25.7052 78.649L25.7002 78.651L23.3211 78.6897H23.2775L23.0225 78.6768L20.9222 78.4695L20.833 78.4248L20.3558 78.3464L18.6593 77.773L18.3358 77.5319L17.9876 77.4168L16.5858 76.3771L16.3457 76.0934L16.2177 76.0348L15.305 74.9773L15.2147 74.7362L14.9568 74.4405L14.1899 72.7847L14.1055 72.4077L14.0192 72.2629L13.7057 70.6517L13.665 70.24V70.2281L13.6789 67.982L13.6799 67.979L13.6968 67.7389L14.0103 65.5126L14.2762 62.6812L14.2841 62.6653L14.295 62.5482L15.4022 56.5153L15.4151 56.4935L15.425 56.4131L16.2604 53.1064L16.2663 53.0975L16.2693 53.0747L17.2158 49.6986L17.2396 49.6638L17.2535 49.5855L19.6593 42.8987L19.6831 42.867L19.695 42.8094L21.2506 39.1853L21.2754 39.1565L21.2854 39.1119L22.8539 35.9133L22.8757 35.8895L22.8836 35.8568L24.5246 32.815L24.5295 32.81L24.5305 32.8041L26.1109 29.9558L26.3113 29.7494L26.3768 29.5718L28.5961 26.914L28.6527 26.8694L28.6676 26.8317L30.7182 24.5865L30.7301 24.5786L30.7321 24.5716L32.757 22.394L33.0239 22.2035L33.1886 22.012L37.7185 18.7242L37.8941 18.6677L38.0598 18.5109L42.3982 16.1864L42.6324 16.1269L42.7782 16.0158L44.6186 15.3521L45.0194 15.2806L45.1285 15.2201L48.456 14.6963L48.8399 14.6655H48.8608Z" fill="black"/>
<path d="M64.5863 56.7326L66.1697 56.9023L66.2848 56.9618L66.7759 57.062L68.3771 57.7386L68.5081 57.8487L68.6718 57.8963L70.2582 58.9073L70.4209 59.0819L70.5429 59.1295L71.8475 60.3498L71.914 60.5016L72.0459 60.5661L72.9735 61.7566L73.0351 61.9342L73.1918 62.1177L73.4587 62.713L73.5579 63.1674L73.6025 63.2586L73.6898 64.2567L73.6958 64.3926L73.6809 64.6049L73.55 65.5107L73.4994 65.603L73.4359 65.8956L73.1035 66.6258L72.8942 66.8679L72.8317 67.0227L72.5777 67.2856L72.4547 67.7479L72.4071 67.8203L72.3743 67.981L71.7146 69.5833L71.5945 69.7291L71.5419 69.9057L70.536 71.4326L70.3435 71.6091L70.2939 71.7282L69.0171 73.0159L68.8454 73.0874L68.777 73.2223L68.1867 73.6588L67.7144 73.8146L67.3523 74.0378L65.7957 74.3761L65.3284 74.4277L65.1766 74.4227L63.4434 74.2987L63.3105 74.2352L62.6269 74.0745L61.1775 73.3523L60.8203 73.0259L60.6189 72.9405L59.4423 71.7272L59.354 71.5109L59.0623 71.1746L58.2518 69.4176L58.2071 69.2202L58.1436 69.1259L57.9006 68.2598L57.8639 68.0029L57.8401 67.9552L57.591 65.8103L57.5771 65.5772L57.5871 65.3798L57.8024 63.2666L57.8371 63.1981L57.8976 62.837L58.5861 60.8161L58.7925 60.5403L58.8877 60.2605L59.9929 58.82L60.2261 58.7059L60.3401 58.4728L61.5644 57.5233L61.8124 57.438L62.0624 57.2396L62.8055 56.9479L63.2659 56.8596L63.3591 56.813L64.1419 56.7316L64.3631 56.7207L64.5863 56.7326ZM63.8323 60.9064L63.5803 60.959L62.9266 61.4054L62.2579 62.3836L61.7073 63.9422L61.483 65.6526L61.5793 67.4344L61.6983 67.8669L62.3868 69.0009L63.1656 69.616L64.1429 69.9712L65.1975 70.12L66.2422 69.8412L66.515 69.741L67.4009 69.0148L68.1182 67.8898L68.6579 66.5981L68.8256 65.9244L68.9813 65.6863L69.0855 65.3341L69.3762 64.8897L69.5458 64.3172L69.9774 63.7031L69.4179 63.2031L68.1152 62.336L66.7422 61.587L65.3532 61.1693L64.1716 60.8895L63.8323 60.9064Z" fill="black"/>
<path d="M88.684 29.0846L88.7813 29.2116L88.8864 29.2562L88.9727 29.4646L89.2515 29.8306L89.3706 30.1561L89.3745 30.1799L89.3815 30.1898L89.5432 30.6581L89.5472 30.6838L89.5541 30.6938L90.8289 34.6384L90.8438 34.7316L90.8647 34.7634L91.6325 37.9827L91.6415 38.0611L91.6524 38.08L91.9808 39.9124L91.9877 39.9937L91.9947 40.0066L92.2348 41.9769L92.2417 42.0831L92.2447 42.09L92.456 46.0435L92.458 46.107L92.459 46.108L92.4858 48.0367L92.4867 48.0605L92.4858 48.1141L92.3469 52.1846L92.3449 52.1896L92.3389 52.2908L91.9629 55.9655L91.954 55.9844L91.9421 56.1074L91.2337 59.7167L91.198 59.7762L91.1673 59.9548L90.7873 61.0193L90.9321 62.2019L91.9748 66.587L93.0542 69.4561L93.4967 70.0762L93.6048 69.9651L94.6555 69.5206L95.5156 69.7994L96.0444 70.5216L96.2339 71.0871L96.3321 71.6804L96.2637 72.1745L96.094 72.7856L95.9194 73.0416L95.8192 73.3551L95.5394 73.7479L95.2874 73.8779L95.2567 73.9712L95.2309 73.99L95.1535 74.1487L94.8747 74.364L94.5602 74.4712L94.2596 74.6875L93.9303 74.7936L93.2636 74.8988L92.0631 74.5317L91.1722 73.9295L90.8389 73.5604L90.568 73.3025L89.4638 71.5445L89.3973 71.3173L89.2694 71.1496L88.0769 67.9114L88.0392 67.7041L87.9935 67.6316L87.8497 66.9818L86.3288 68.9749L86.2107 69.0335L86.1502 69.1744L85.0182 70.2627L84.8724 70.3212L84.8158 70.4294L83.9448 71.0474L83.8168 71.0891L83.6997 71.1943L82.6312 71.7191L82.3306 71.7905L82.2046 71.8669L80.4208 72.232L80.0607 72.2697L79.8057 72.2509L78.8851 72.1139L78.8077 72.0713L78.5348 72.0207L77.7779 71.73L77.6211 71.606L77.4396 71.5494L76.8106 71.1149L76.7421 70.982L76.5715 70.9095L75.501 69.7944L75.4097 69.5672L75.1429 69.2121L74.5843 67.6257L74.5496 67.4253L74.5158 67.3667L74.368 66.5165L74.3482 66.2923L74.3432 66.2824L74.3154 65.3697L74.3145 65.3181L74.3264 65.1246L74.5446 63.2991L74.5605 63.2684L74.5813 63.1017L74.7926 62.2406L74.8204 62.1989L74.8383 62.0908L75.1786 61.1205L75.4236 60.7951L75.5238 60.5213L76.0209 59.9339L76.1578 59.8704L76.2203 59.7315L76.9405 59.1035L77.1221 59.0351L77.3473 58.8327L78.9605 58.042L79.3127 57.9597L79.4466 57.8823L81.2988 57.5559L81.6113 57.5281L81.6471 57.5291L83.6164 57.5688L83.6362 57.5767L84.1174 57.6501L85.9935 58.2335L86.1056 58.3138L86.2901 58.3605L86.3744 58.4061L86.1522 56.657L86.1443 56.537L86.1393 56.5261L85.7335 50.4881L85.7296 50.385L85.7286 50.383L85.5778 42.2984V42.2587V42.2349L85.6522 35.9807V35.9797L85.6551 35.8884L85.9111 31.5837L85.927 31.5509L85.9677 31.2364L86.0996 30.7414L86.1314 30.3763L86.2077 30.2225L86.3516 29.6997L86.4379 29.5538L86.5768 29.4755L86.5996 29.4298L86.672 29.2562L87.7792 28.7969L88.684 29.0846ZM80.4248 61.3179L79.3365 61.9767L78.9505 62.3725L78.6093 62.8755L78.5626 62.9172L78.5487 62.9579L78.0646 63.5898L77.8731 64.0293L77.5656 65.5314L77.5259 66.2159L77.5656 66.7169L78.0328 67.7765L78.6876 68.4799L78.9803 68.6158L79.4446 68.7527L79.9416 68.7845L81.28 68.5126L82.0032 68.1436L82.6411 67.6614L83.5688 66.7387L85.1611 64.5403L86.4111 62.2743L86.2117 62.1225L84.921 61.5114L83.3088 61.179L81.7205 61.0332L80.4248 61.3179Z" fill="black"/>
<path d="M103.161 53.9496L104.438 54.146L104.716 54.3008L105.244 54.4595L106.135 55.0488L106.808 55.783L106.815 55.8128L106.833 55.8316L107.289 56.7235L107.538 57.7434L107.529 57.9349L107.481 58.5004L107.452 58.5599L107.395 58.9389L107.018 60.1711L106.932 60.2931L106.882 60.5034L106.133 61.9499L106.009 62.0818L105.965 62.2148L104.81 63.7634L104.596 63.8696L104.487 64.1027L102.103 66.0909L101.958 66.1435L101.792 66.3022L100.225 67.1495L100.04 67.1961L99.9299 67.2765L98.8961 67.6128L99.2821 69.1208L99.7384 69.7528L100.253 70.0157L101.523 70.0831L103.154 70.0325L103.879 69.8172L104.449 69.7329L104.512 69.7031L105.256 69.6555L106.004 69.3976L107.088 68.8251L107.521 68.717L107.7 68.6138L108.972 68.3876L109.244 68.3628L110.311 68.8053L110.753 69.8718L110.494 70.7161L109.761 71.8014L109.512 72.0266L109.27 72.3074L108.15 73.1199L107.3 73.7718L106.673 74.4136L106.28 74.5793L105.51 75.124L104.446 75.4553L104.342 75.4712L104.306 75.495L102.275 76.0268L101.488 76.131L100.774 76.0447L98.8078 75.5665L98.2423 75.2014L97.6957 75.0049L96.2899 73.8481L95.9377 73.3987L95.7115 73.1775L94.7353 71.5604L94.5795 71.0068L94.4079 70.7191L93.9624 68.4501L93.9128 67.9541L93.9158 67.835L94.0031 66.0234L93.8672 65.6703L94.0398 65.2536L94.0448 65.1603L94.0626 65.1206L94.1231 64.6603L94.8563 61.938L94.8871 61.8923L94.9059 61.7832L95.4337 60.3199L95.5597 60.1552L95.6232 59.9349L97.0677 57.6124L97.2473 57.4408L97.2979 57.3148L98.9666 55.525L99.1789 55.4328L99.2672 55.2621L100.001 54.7403L100.228 54.6679L100.429 54.5072L101.379 54.1292L101.894 54.029L101.979 53.9883L102.694 53.9327L102.857 53.9258L103.161 53.9496ZM102.632 57.9656L102.067 58.1859L101.686 58.42L100.409 59.8109L99.3783 61.8775L99.0073 62.9539L98.9319 63.8299L99.6482 63.2644L101.659 61.2018L102.616 59.9905L103.032 58.9914L103.143 58.2394L103.129 58.0698L103.122 58.039L102.748 57.9517L102.632 57.9656Z" fill="black"/>
<path d="M164.073 11.0718L165.386 11.1343L165.391 11.1363L165.462 11.1393L167.619 11.3318L167.728 11.3853L168.198 11.4935L168.627 11.7018L169.374 11.8099L169.431 11.8407L169.645 11.8774L170.252 12.0927L170.421 12.2217L170.61 12.2822L170.752 12.4737L170.952 12.6255L171.016 12.8288L171.144 13.0005L171.263 13.3447L171.348 13.8368L170.915 14.8825L169.869 15.315L169.007 15.0372L168.694 14.6166L168.689 14.6146L168.264 14.5223L167.954 14.6146L167.752 14.6444L167.707 14.6702L165.687 14.9658L164.556 15.2783L164.518 15.2833L164.506 15.2912L160.895 16.2228L156.072 17.7268L153.93 18.5205L153.927 18.5215L151.229 19.5761L151.186 19.584L151.166 19.5989L148.992 20.4025L144.142 22.5931L141.689 23.8382L139.766 24.9275L137.626 26.25L134.468 28.761L132.222 31.5676L132.153 31.6232L132.134 31.6718L131.012 32.9357L130.461 33.8862L129.977 35.2364L129.785 36.3575L129.882 37.7176L130.101 38.8318L130.648 40.2902L131.281 41.4777L132.334 42.942L133.347 44.0453L134.89 45.3905L136.654 46.6287L140.792 48.6734L140.793 48.6744L145.673 51.0693L151.505 53.501L157.284 55.5913L159.867 56.4217L159.889 56.4376L159.933 56.4455L165.377 58.4059L165.47 58.4773L165.626 58.514L169.791 60.5994L169.938 60.7334L170.095 60.784L171.818 62.0172L171.981 62.2047L172.095 62.2513L173.152 63.296L173.228 63.4775L173.518 63.7632L174.304 65.0758L174.427 65.5193L174.582 65.7673L174.888 67.1185L174.949 67.6483L174.932 67.933L174.787 69.1097L174.756 69.1702L174.713 69.4619L174.268 70.9788L174.172 71.1167L174.113 71.3647L173.474 72.6128L173.278 72.8231L173.212 73.0106L172.029 74.463L171.851 74.6039L171.81 74.6952L170.449 75.9601L170.288 76.0226L170.075 76.2449L166.392 78.5138L166.141 78.5852L165.958 78.7281L161.322 80.4702L161.084 80.5149L160.997 80.5694L156.267 81.6697L155.937 81.7084L155.896 81.7282L150.799 82.1538L150.585 82.1637L150.457 82.1598L145.93 81.9266L145.896 81.9107L145.505 81.8661L140.898 80.8105L140.846 80.7778L140.702 80.7549L138.393 79.992L138.369 79.9742L138.322 79.9662L136.183 79.1616L136.025 79.0376L135.811 78.9771L134.357 78.0872L131.369 76.4135L131.361 76.4056L131.351 76.4026L130.27 75.7716L129.669 75.1664L129.439 74.3172L129.934 73.1227L131.129 72.6287L131.799 72.7666L132.918 73.2497L135.981 74.4353L137.551 74.8103L137.62 74.8549L137.798 74.8867L139.847 75.6456L141.943 76.2389L146.348 76.9284L150.564 77.2122L155.313 76.8123L159.739 75.8153L164.045 74.2011L167.459 72.2298L168.558 71.335L169.453 70.2149L169.942 69.3527L170.267 68.4122L170.28 67.8755L170.13 67.1979L169.649 66.4637L168.92 65.7256L167.543 64.7583L163.641 62.9795L158.272 61.2374L158.271 61.2364L155.656 60.4L155.632 60.3832L155.584 60.3742L149.692 58.2442L149.638 58.2025L149.54 58.1817L143.632 55.5536L143.576 55.505L143.492 55.4842L138.6 52.8829L138.488 52.7767L138.367 52.738L134.463 50.0088L134.441 49.983L134.418 49.975L132.48 48.5256L132.455 48.474L132.384 48.4482L130.665 46.9759L130.625 46.8886L130.53 46.8489L129.331 45.6058L129.276 45.4699L129.171 45.4173L127.935 43.7744L127.898 43.6643L127.791 43.5562L126.995 42.1603L126.938 41.9529L126.836 41.817L126.222 40.0788L126.169 39.7723L126.125 39.6919L125.912 38.2941L125.889 37.9825V37.9538L125.913 36.2315L125.914 36.2295L125.917 36.1313L126.023 34.5806L126.033 34.5578L126.052 34.3455L126.393 32.5587L126.409 32.5319L126.421 32.4357L126.808 30.9386L126.823 30.9158L126.831 30.8593L127.398 28.9951L127.785 28.4485L127.951 28.003L130.503 25.0565L130.774 24.8531L130.952 24.6438L134.58 22.0028L134.708 21.9611L134.83 21.8401L137.187 20.4958L137.253 20.4789L137.301 20.4353L139.348 19.3856L139.378 19.3777L139.397 19.3618L141.955 18.0999L142.018 18.085L142.057 18.0522L147.03 15.8359L147.041 15.8339L147.046 15.8299L149.222 14.8607L149.357 14.8319L149.426 14.7793L152.185 13.8051L152.24 13.7951L152.262 13.7793L154.506 13.0481L154.61 13.0312L154.648 13.0064L159.628 11.6691L159.882 11.6343L159.935 11.6066L163.666 11.0907L163.97 11.0688L164.073 11.0718Z" fill="black"/>
<path d="M182.516 22.6472L182.679 22.669L182.964 22.7464L183.738 23.2692L183.781 23.3992L183.85 23.4389L184.298 24.2256L184.496 24.9637L184.063 26.0094L183.832 26.1046L183.953 27.9241L183.954 27.9559L183.955 27.9579L184.102 30.7923L184.474 34.4551V34.4561L185.599 43.9962L185.605 44.0904L185.609 44.0993L186.264 53.1473L186.268 53.2753L186.269 53.2783L186.355 58.9302V58.966V58.9967L186.317 61.601V61.602L186.314 61.6913L186.062 66.1964L186.057 66.2073L186.049 66.3412L185.846 68.005L185.838 68.0199L185.832 68.1002L185.435 70.4446L185.429 70.4555L185.424 70.4971L185.28 71.2273L185.26 71.2601L185.246 71.3712L185.048 72.1014L184.566 72.8167L184.41 73.1947L184.274 73.2512L184.169 73.406L182.651 73.9229L180.892 73.1947L180.163 71.4357L180.269 70.9624L180.237 70.3156L180.236 70.2481L180.235 70.2461L180.204 68.7342L180.203 68.6875L180.4 67.7867L180.636 67.2738L180.791 66.619L181.355 65.74L181.483 65.6954L181.869 61.4274L181.951 58.9312L181.939 53.3695L181.476 44.397L180.583 34.851L180.581 34.8004L180.578 34.7964L180.321 31.0731L180.318 30.9848L180.316 30.9828L180.245 28.1017V28.0541L180.248 27.9509L180.372 25.7187L180.379 25.7018L180.397 25.5104L180.647 24.1373L180.662 24.1115L180.675 24.0173L180.801 23.5569L181.079 23.1482L181.169 22.9319L181.248 22.8992L181.311 22.8069L182.187 22.5103L182.516 22.6472Z" fill="black"/>
<path d="M194.382 53.6217L194.953 55.0007L194.685 55.9869L194.278 56.6804L194.144 56.8133L194.102 56.9334L192.893 58.4175L192.83 58.4473L192.8 58.5237L190.178 61.3363L189.003 62.629L188.926 62.754L190.222 62.5179L190.261 62.5149L190.268 62.51L191.503 62.3165L191.726 62.2986L191.731 62.2966L193.602 62.2649L194.23 62.2361L194.31 62.2341L194.747 62.2907L196.239 62.6826L196.318 62.7352L196.49 62.7709L197.94 63.3999L198.09 63.5269L198.26 63.5794L199.395 64.3612L199.639 64.636L199.767 64.6936L200.483 65.5091L200.621 65.8761L200.934 66.3305L201.15 67.0667L201.178 67.2631L201.207 67.3127L201.349 68.1411L201.381 68.5082L200.766 69.9934L199.282 70.6085L197.906 70.0965L197.204 68.8157L197.126 68.286L196.969 67.9615L196.612 67.3772L195.923 66.7482L194.897 66.0547L193.69 65.5567L193.384 65.4495L191.874 65.4624L190.735 65.6192H190.733L189.009 65.8851L188.948 65.89L188.939 65.894L187.95 66.0051L187.861 66.0111L187.856 66.014L187.084 66.0577L187.047 66.0587L187.046 66.0597L186.541 66.0785L186.47 66.0795L185.58 65.8494L185.29 65.6896L185.14 65.5428L184.643 65.0924L184.468 64.8325L184.111 63.6717L184.131 63.387L184.244 62.5734L184.352 62.376L184.487 61.8522L185.367 60.2549L185.465 60.1557L185.498 60.0495L186.644 58.4503L186.852 58.2717L186.901 58.1526L189.656 55.466L191.001 54.1277L191.115 54.0811L191.16 53.9848L191.773 53.4888L193.004 53.0513L194.382 53.6217Z" fill="black"/>
<path d="M207.945 56.0907L208.983 56.2644L209.394 56.4985L209.87 56.6671L210.558 57.2257L210.634 57.3864L211.155 58.0561L211.475 58.9004L211.609 59.6296L211.601 59.82L211.483 61.0661L211.422 61.1881L211.304 61.7278L210.686 63.0712L210.563 63.212L210.513 63.3698L209.546 64.7627L209.2 65.0692L209.139 65.1952L207.906 66.1774L207.716 66.2439L207.513 66.4215L206.344 66.9741L205.492 67.1685H205.478L205.468 67.1675L205.477 67.2727L205.744 68.1527L206.032 68.5267L206.29 68.6983L207.159 68.866L208.245 69.0426L209.602 68.7073L211.23 67.9543L212.827 66.978L214.151 66.601L214.676 66.6566L214.794 66.6824L215.101 66.611L215.47 66.5683L216.601 67.0366L217.068 68.1666L216.836 68.997L216.667 69.2748L216.652 69.4067L216.531 69.6408L216.342 70.3611L215.951 70.7659L215.834 70.9921L215.672 71.0546L215.468 71.2649L213.745 72.3225L213.593 72.3661L213.477 72.4673L211.514 73.3781L211.246 73.4376L211.117 73.5249L209.057 74.1033L208.938 74.1192L208.903 74.141L207.282 74.5011L206.64 74.5736L205.858 74.4654L204.414 74.0577L204.116 73.8533L203.688 73.7283L202.545 73.0011L202.533 72.9892L202.52 72.9852L202.431 72.88L201.602 71.9971L201.566 71.8572L201.486 71.7629L200.919 70.4762L200.754 69.7063L200.692 69.5783L200.573 67.9245L200.566 67.739L200.596 67.361L200.914 65.3093L200.931 65.2806L200.944 65.1575L201.473 62.8886L201.536 62.7904L201.583 62.5563L202.509 60.3607L202.582 60.2714L202.616 60.1494L203.661 58.3458L204.047 57.9608L204.116 57.814L205.277 56.8656L205.581 56.7574L205.906 56.5223L207.029 56.1612L207.629 56.0649L207.945 56.0907ZM206.949 60.577L206.181 61.9094L206.035 62.4541L206.286 62.207L207.053 61.1872L207.422 60.2923L207.456 60.0839L206.949 60.577Z" fill="black"/>
<path d="M229.321 32.7695L229.455 32.9243L229.572 32.9729L229.584 33.0007L229.868 33.1098L230.126 33.3429L230.611 34.4382L230.243 35.3261L230.286 35.9482V35.9492L230.912 43.7987L230.916 43.8899L230.918 43.8949L231.418 56.06L231.42 56.1662V56.1702L231.413 60.579L231.412 60.58L231.407 60.7418L231.008 66.5743L230.986 66.6199L230.937 67.0069L229.87 71.1489L229.752 71.3265L229.671 71.632L229.4 72.1102L229.159 72.3543L229.096 72.5071L228.947 72.5696L228.718 72.8007L227.752 73.0636L226.408 72.5071L225.852 71.1638L225.853 71.132L225.861 70.5913L225.862 70.5883L225.865 70.4862L226.158 66.2261L226.534 60.4957L226.527 56.186L226.344 44.0249V43.9892V43.9415L226.508 36.0454L226.51 36.0404L226.52 35.8708L226.709 34.2309L226.906 33.8529L227.092 33.335L227.299 33.082L227.366 33.0503L227.398 32.9729L228.486 32.5225L229.321 32.7695Z" fill="black"/>
<path d="M228.436 54.7432L230.731 54.8394L230.74 54.8434L230.89 54.8513L235.738 55.3752L235.82 55.4168L236.214 55.4863L237.865 56.0845L238.222 56.3603L238.421 56.4427L238.464 56.5459L238.591 56.6441L238.875 57.538L238.542 58.4983L238.454 58.5549L238.421 58.6342L238.167 58.7394L237.695 59.044L236.016 59.4567L235.693 59.4964L235.655 59.5142L230.811 59.8664H230.81L228.559 60.0569L228.49 60.0599L228.486 60.0629L225.149 60.2652L224.379 60.3803L223.975 60.4111L223.751 60.4012L222.988 60.3357L221.114 60.5182L220.874 60.5311L219.551 60.1293L219.415 60.039L219.347 60.0152L218.929 59.6997L218.697 59.6045L218.651 59.4904L218.513 59.3872L218.186 58.3693L218.546 57.3068L218.705 57.0985L218.918 56.7899L219.033 56.6877L219.066 56.5994L219.245 56.4992L219.753 56.0468L220.295 55.9119L220.5 55.7968L222.415 55.4922L223.168 55.2561L223.819 55.1549L223.868 55.1321L224.695 55.0984L228.041 54.7551L228.324 54.7402L228.436 54.7432Z" fill="black"/>
<path d="M243.545 58.1536L244.466 58.3689L244.691 58.5118L245.014 58.611L245.352 58.8402L245.979 59.0743L246.663 59.608L246.93 60.4553L246.497 61.501L245.451 61.9335L244.841 61.8016L244.483 61.6399L244.439 61.6468L243.775 61.8393L243.298 62.0565L242.648 62.5169L242.072 63.1052L241.184 64.6509L240.795 65.6479L240.673 66.4803L240.734 67.0805L240.927 67.5081L241.316 67.9417L241.893 68.277L242.925 68.6262L244.448 68.8495L246.354 68.9258L248.948 68.7631L251.489 68.3137L251.666 68.2978L251.687 68.2879L253.898 68.0994L255.33 67.8206L255.637 67.7899L255.907 67.8137L256.26 67.8752L256.597 67.897L257.37 68.2641L257.688 69.0657L257.214 70.0072L256.991 70.1719L256.788 70.3951L256.618 70.4696L256.231 70.785L254.8 71.3773H254.798L252.687 72.2712L252.412 72.3278L252.307 72.3932L249.67 72.9677L249.535 72.9825L249.508 72.9974L246.715 73.4042L246.454 73.423L246.444 73.428L244.299 73.4895L244.23 73.4905L244.053 73.4836L242.171 73.3407L242.115 73.3129L241.697 73.2544L240.192 72.8188L239.901 72.6165L239.521 72.4994L238.451 71.7722L238.261 71.5609L237.971 71.3357L237.125 70.3237L237.001 69.9834L236.709 69.5965L236.31 68.4715L236.184 67.7502L236.173 67.7244L236.151 66.4674V66.4277L236.186 66.0319L236.429 64.6658L236.46 64.6142L236.487 64.4306L236.922 62.9802L237.165 62.6339L237.289 62.2659L238.642 60.492L238.898 60.2787L238.951 60.1656L239.926 59.3332L240.092 59.2717L240.289 59.0822L241.313 58.5257L241.694 58.4284L241.875 58.3183L242.7 58.1457L243.106 58.103L243.545 58.1536Z" fill="black"/>
<path d="M257.572 33.7668L257.63 33.8541L257.707 33.8859L257.8 34.1101L258.075 34.5228L258.23 35.1052L258.275 35.4435L258.308 35.5L258.599 37.1648L258.623 37.4287L258.361 38.0597L258.363 38.1093V38.1103L258.537 43.7166V43.7444H258.538L258.675 51.325V51.3637V51.3826L258.564 64.1757L258.79 63.7937L259.047 63.5407L259.105 63.4088L259.976 62.6161L260.109 62.5645L260.285 62.3959L261.059 61.9712L261.835 61.7708H261.845L262.224 61.7728L262.238 61.7788L262.955 61.9583L263.342 62.1657L263.39 62.2471L263.551 62.3016L264.391 62.9544L264.469 63.1141L264.636 63.1935L265.941 64.759L267.657 66.6361L268.012 66.9456L268.802 67.273L269.3 68.4745L269.123 69.2314L269.004 69.4715L268.967 69.5112L268.953 69.5628L268.822 69.789L268.746 69.8644L268.563 70.3059L267.062 70.9269L265.795 70.5073L265.631 70.3852L265.599 70.3208L265.561 70.3059L265.539 70.2523L265.419 70.2027L264.778 69.5727L264.71 69.409L264.447 69.1471L263.086 66.8256V66.8246L262.1 65.1946L262.04 65.1281L261.714 65.5458L259.484 70.5797L259.43 70.6432L259.407 70.7315L258.916 71.6164L258.87 71.6631L258.854 71.7186L258.581 71.9597L258.144 72.4062L258.041 72.4349L257.965 72.5014L257.573 72.6879L256.62 72.9052L255.247 72.422L255.092 72.298L255.076 72.2653L255.067 72.2623L255.038 72.1889L254.912 72.1363L254.25 70.539L254.251 70.5073L254.336 64.4495L254.516 51.334V51.327L254.653 43.7424L254.654 43.7404L254.656 43.669L254.976 38.0606V38.0597L255.127 35.4286L255.141 35.3998L255.178 35.1161L255.338 34.5129L255.613 34.1032L255.703 33.8859L255.78 33.8541L255.838 33.7668L256.705 33.4712L257.572 33.7668Z" fill="black"/>
<path d="M273.784 59.0674L275.139 59.1637L275.216 59.2004L275.713 59.2966L276.821 59.7421L277.159 60.0169L277.401 60.1101L278.134 60.7798L278.243 61.0268L278.696 61.6489L278.966 62.4674L279.074 63.1291L279.07 63.2442L279.021 64.1321L278.975 64.2293L278.827 64.906L278.476 65.6629L278.17 66.0131L278.08 66.2364L277.419 66.9189L277.136 67.039L276.582 67.4537L275.022 67.9963L274.483 68.0896L274.437 68.1104L272.501 68.1948L272.42 68.1967L272.216 68.1848L271.985 68.1581L272.054 68.2781L272.791 68.7861L273.912 69.2196L275.104 69.3942L276.203 69.298L277.489 68.8317L278.527 68.6462L279.232 68.7553L280.133 68.1848L281.627 66.6511L282.814 66.151L283.985 66.6362L284.47 67.8069L284.179 68.7444L282.84 70.6968L282.743 70.7474L282.691 70.8843L281.617 72.0719L281.436 72.3209L281.373 72.5253L281.023 73.0174L280.856 73.4946L280.546 73.689L280.309 74.0234L279.686 74.2297L279.196 74.5373L277.493 74.9301L276.829 75.0065H276.773L274.964 74.9708L274.947 74.9639L274.427 74.9073L272.615 74.5105L272.31 74.322L271.791 74.1742L270.242 73.2217L269.915 72.8805L269.475 72.4826L268.527 71.0758L268.452 70.8338L268.293 70.6343L267.668 69.04L267.541 68.3753L267.52 68.3277L267.489 67.3733L267.488 67.3068L267.551 66.8118L267.65 66.4338L267.388 65.9873L267.82 64.9417L267.934 64.895L268.051 64.1569L268.1 64.0706L268.155 63.7879L268.87 62.0199L269.027 61.8275L269.092 61.632L269.647 60.8989L269.821 60.8125L269.911 60.6221L270.49 60.13L270.65 60.0715L270.84 59.8978L271.478 59.5754L271.753 59.5089L271.883 59.4276L273.221 59.1141L273.654 59.0635L273.784 59.0674ZM272.815 62.8682L272.615 62.9714L272.313 63.2184L272.004 63.6043L271.539 64.6758L272.133 64.645L273.586 64.2422L274.587 63.6857L274.775 63.5041L274.843 63.3523L274.871 63.2105L274.811 63.136L274.374 62.9148L273.598 62.771L272.815 62.8682Z" fill="black"/>
<path d="M294.602 53.9937L295.516 54.2248L295.712 54.3548L296.021 54.4421L296.287 54.7328L296.5 54.8727L296.552 55.0205L296.691 55.1733L296.772 55.33L296.794 55.4223L296.838 55.4779L296.902 55.6356L297.023 56.2517L296.873 56.9333L296.729 57.2458L296.641 57.4571L296.29 57.8797L296.23 58.0087L294.376 59.5584L293.425 59.9036L292.38 59.4711L292.114 58.8272L290.383 59.5713L289.182 60.3133L288.465 60.8124L288.211 61.2191L288.058 61.6963L288.047 62.1289L288.208 62.6616L288.617 63.2797L289.811 64.4375L291.521 65.4812L295.665 67.5646L296.053 67.9218L296.233 68.0021L296.718 68.5408L296.945 69.1311L297.224 69.6867L297.289 70.3435L297.3 70.5528L297.058 71.5211L296.622 72.3445L296.238 72.7483L296.158 72.9279L294.924 74.0113L294.804 74.0559L294.66 74.2087L292.332 75.684L292.184 75.7276L292.068 75.8278L290.646 76.4756L290.47 76.5143L290.384 76.5759L288.777 77.0709L288.372 77.1334L288.317 77.1592L287.404 77.2287L287.246 77.2356L286.423 77.059L286.281 76.9955L286.035 76.7832L285.828 76.7078L285.709 76.5034L285.442 76.2723L285.298 75.7921L285.148 75.5312L285.119 75.3665L285.087 75.0113L285.661 73.6224L287.05 73.047L287.47 73.163L287.661 73.1313L288.95 72.6878L290.144 72.0568L292.28 70.7393L292.586 70.4685L289.653 69.0865L289.569 69.0121L289.463 68.9813L287.492 67.762L287.295 67.5567L287.158 67.5011L285.642 66.0368L285.587 65.9058L285.363 65.6995L284.671 64.6568L284.594 64.4018L284.444 64.2024L284.056 63.1021L283.95 62.488L283.936 62.4573L283.91 61.3977L283.909 61.3441L283.94 60.986L284.126 59.9225L284.287 59.6447L284.436 59.1397L285.084 58.1347L285.303 57.9313L285.36 57.7944L286.333 56.8142L286.537 56.7299L286.866 56.4174L288.293 55.6465L288.429 55.6118L288.517 55.5404L291.016 54.5175L291.349 54.451L291.461 54.3855L293.709 53.9669L294.097 53.9302L294.602 53.9937Z" fill="black"/>
<path d="M167.258 90.9404L177.004 91.0972L177.03 91.0982L182.405 91.3075L187.391 91.5059L187.393 91.5069L187.415 91.5079L192.572 91.8234L192.573 91.8244H192.586L202.963 92.6101L207.468 92.8889H207.469H207.48L223.376 94.0755L233.939 94.6221L239.416 94.8047L244.811 94.9436L255.818 94.9207H255.821L261.927 94.9188L267.228 94.7253L272.805 94.3999H272.806L278.076 94.0626L278.16 94.0606L279.05 94.4287L279.418 95.3186L279.082 96.1747L278.254 96.5736L272.984 96.9684L272.972 96.9694H272.971L267.384 97.3514H267.369L267.368 97.3524L262.038 97.6698L262.013 97.6708L262.012 97.6718L255.89 97.9377L255.822 97.9387H255.819L244.79 97.9159H244.765L239.34 97.8117H239.339L239.306 97.8107L233.809 97.5786L233.807 97.5776L233.773 97.5766L223.186 96.8543L223.185 96.8533L223.165 96.8524L207.266 95.4743L207.264 95.4733L207.247 95.4723L202.766 94.9961L192.404 94.2203L187.263 93.877L182.307 93.5893L176.964 93.4336L167.238 93.3701L157.519 93.4356L147.86 93.7947L138.875 94.3691L134.524 94.7531L134.495 94.7541L134.493 94.7551L130.101 95.0695L114.201 96.4109L114.174 96.4119L114.172 96.4129L110.072 96.6976H110.07L106.774 96.9446L106.754 96.9456L106.753 96.9466L103.144 97.1807L103.114 97.1817L103.112 97.1827L99.952 97.3355L99.9282 97.3365H99.9272L96.9132 97.4436L96.8655 97.4446H96.8646L88.6827 97.5052H88.6698H88.6658L85.9663 97.4972H85.9604L76.7031 97.4367L74.6137 97.4228H74.6008L72.4837 97.3891L70.6493 97.4099H70.6314H70.6245L63.8336 97.3821H63.8326L63.7403 97.3792L60.5854 97.1807L60.5676 97.1718L60.386 97.154L57.7193 96.6341L57.6915 96.6172L57.5992 96.6043L54.7826 95.7878L53.4284 95.5061L52.5951 94.9951L52.2617 94.0606L52.6943 93.0149L53.7399 92.5824L54.0415 92.6131L55.4563 92.9088L55.4771 92.9217L55.5436 92.9306L58.3125 93.7064L60.8384 94.0209L63.901 94.2084L70.6533 94.3017H70.6543L70.6691 94.3027L72.5115 94.3473L74.6346 94.3622L76.714 94.3721L85.9643 94.3374H85.9663L88.6549 94.3294L96.809 94.1945L99.7982 94.0824L102.944 93.9187H102.951L106.564 93.7382L109.857 93.5477L113.941 93.2481H113.943L129.869 92.0506L129.877 92.0496H129.878L134.27 91.7301L134.313 91.7282L134.315 91.7272L138.701 91.5268H138.713V91.5258L147.741 91.1756L147.77 91.1746H147.771L157.469 90.997H157.485L167.231 90.9404H167.238H167.258Z" fill="black"/>
</g>
<defs>
<clipPath id="clip0">
<rect width="1500" height="1000" fill="white" transform="translate(-422 -433)"/>
</clipPath>
</defs>
</svg>